<?xml version="1.0" encoding="utf-8"?>
<!-- Generator: Adobe Illustrator 25.0.1, SVG Export Plug-In . SVG Version: 6.00 Build 0)  -->
<svg version="1.1" id="레이어_1" xmlns="http://www.w3.org/2000/svg" xmlns:xlink="http://www.w3.org/1999/xlink" x="0px"
	 y="0px" viewBox="0 0 150 110" style="enable-background:new 0 0 150 110;" xml:space="preserve">
<style type="text/css">
	.st0{opacity:0.5;fill:#383838;}
	.st1{fill:#5CE72B;}
</style>
<g>
	<ellipse class="st0" cx="854.28" cy="1487.39" rx="62.97" ry="15.55"/>
	<g>
		<g>
			<path class="st1" d="M860.8,1425.87c-0.23,0.66-0.73,1.17-1.38,1.43c-0.01,0-0.02,0.01-0.03,0.01c-0.24,0.58-0.7,1.05-1.29,1.3
				c-0.1,0.04-0.2,0.08-0.3,0.11c0,0.01-0.01,0.02-0.01,0.03c-0.22,0.69-0.74,1.23-1.4,1.49c-0.08,0.03-0.15,0.06-0.23,0.08
				c-0.08,0.12-0.17,0.24-0.27,0.34c0,0.24-0.03,0.47-0.1,0.7c-0.21,0.66-0.69,1.19-1.31,1.47c-0.14,0.37-0.36,0.69-0.64,0.95
				c-0.24,0.42-0.6,0.76-1.05,0.98c-0.09,0.25-0.22,0.48-0.38,0.68c-0.02,0.13-0.04,0.25-0.08,0.37c-0.29,0.89-0.83,1.35-1.47,1.56
				c-0.02,0.03-0.05,0.06-0.07,0.09c-0.02,0.09-0.04,0.18-0.07,0.26c-0.14,0.44-0.4,0.81-0.75,1.1c-0.01,0.16-0.05,0.31-0.09,0.45
				c-0.15,0.46-0.43,0.86-0.8,1.15c-0.18,0.2-0.39,0.34-0.62,0.45c-0.01,0.21-0.04,0.42-0.1,0.61c-0.16,0.49-0.47,0.92-0.88,1.21
				c-0.02,0.09-0.04,0.17-0.07,0.25c-0.21,0.65-0.67,1.17-1.29,1.46c-0.03,0.02-0.07,0.03-0.1,0.04c-0.18,0.3-0.41,0.55-0.7,0.75
				c0.11,0.41,0.11,0.86-0.02,1.27c-0.14,0.44-0.4,0.82-0.75,1.12c-0.02,0.09-0.04,0.17-0.06,0.25c-0.04,0.12-0.09,0.24-0.14,0.35
				c-0.02,0.15-0.05,0.3-0.09,0.45c-0.13,0.4-0.31,0.72-0.53,0.96c0,0,0,0.01,0,0.01c-0.11,0.35-0.3,0.66-0.55,0.92
				c-0.25,0.36-0.56,0.6-0.91,0.76c-0.01,0.03-0.02,0.07-0.03,0.1c-0.11,0.33-0.25,0.59-0.42,0.81c-0.02,0.09-0.04,0.18-0.07,0.27
				c-0.03,0.11-0.08,0.21-0.12,0.3c-0.01,0.06-0.03,0.12-0.05,0.18c-0.07,0.22-0.16,0.41-0.26,0.58c0,0.02,0.01,0.04,0.01,0.05
				c0.14,0.44,0.14,0.92,0,1.36c-0.12,0.36-0.27,0.64-0.46,0.87c-0.01,0.05-0.03,0.1-0.04,0.15c-0.02,0.05-0.03,0.1-0.05,0.15
				c0.05,0.33,0.02,0.68-0.08,1c-0.06,0.2-0.14,0.37-0.23,0.53c0,0.22-0.04,0.43-0.1,0.64c-0.14,0.44-0.35,0.78-0.61,1.03
				c0,0.01,0,0.01-0.01,0.02c-0.06,0.17-0.13,0.33-0.22,0.48c0.08,0.37,0.06,0.77-0.06,1.13c-0.05,0.14-0.11,0.28-0.18,0.41
				c-0.01,0.18-0.04,0.36-0.1,0.54c-0.02,0.07-0.05,0.14-0.08,0.21c0.02,0.28-0.01,0.56-0.1,0.82c-0.09,0.26-0.19,0.49-0.32,0.68
				c0.16,0.45,0.17,0.97,0.03,1.42c0,0.01-0.01,0.02-0.01,0.03c0.05,0.34,0.03,0.68-0.08,1c-0.03,0.11-0.08,0.21-0.12,0.31
				c0.03,0.3,0,0.61-0.09,0.9c-0.11,0.35-0.3,0.66-0.54,0.92c0.26,0.51,0.32,1.14,0.14,1.69c-0.09,0.27-0.2,0.5-0.33,0.69
				c0.2,0.44,0.25,0.96,0.14,1.43c0.06,0.34,0.04,0.69-0.06,1.02c0.22,0.49,0.26,1.07,0.09,1.58c-0.06,0.18-0.13,0.34-0.22,0.5
				c0.15,0.29,0.24,0.61,0.25,0.93c0.22,0.43,0.28,0.95,0.19,1.43c0.01,0.02,0.02,0.04,0.04,0.06c0.29,0.52,0.36,1.18,0.17,1.75
				c-0.01,0.02-0.01,0.04-0.02,0.06c0.06,0.35,0.03,0.7-0.07,1.03c-0.03,0.09-0.06,0.17-0.1,0.25c0.17,0.16,0.31,0.34,0.44,0.56
				c0.01,0.02,0.03,0.05,0.04,0.07c0,0,0,0.01,0.01,0.01c0.11,0.19,0.19,0.4,0.23,0.62c0.06,0.09,0.12,0.18,0.18,0.28
				c0.27,0.48,0.35,1.07,0.22,1.6c0.06,0.17,0.1,0.35,0.13,0.53c0.05,0.07,0.1,0.14,0.14,0.22c0.04,0.08,0.08,0.16,0.12,0.24
				c0.09,0.11,0.17,0.22,0.24,0.35c0.26,0.47,0.34,1.06,0.22,1.59c0.06,0.06,0.11,0.12,0.16,0.19c0.19,0.17,0.35,0.37,0.49,0.61
				c0.23,0.4,0.32,0.89,0.26,1.35c0.12,0.28,0.19,0.59,0.19,0.9c0.24,0.19,0.43,0.41,0.59,0.69c0.05,0.08,0.09,0.16,0.12,0.25
				c0.24,0.19,0.44,0.41,0.6,0.69c0.07,0.12,0.12,0.25,0.17,0.38c0.04,0.05,0.07,0.11,0.1,0.16c0.17,0.3,0.27,0.65,0.29,1
				c0.24,0.18,0.43,0.4,0.59,0.68c0.11,0.18,0.18,0.37,0.23,0.57c0.04,0.03,0.07,0.06,0.1,0.09c0.36-0.11,0.72-0.14,1.09-0.1
				c0.19-0.05,0.38-0.08,0.57-0.09c0.19-0.18,0.41-0.32,0.66-0.43c0.43-0.2,0.88-0.26,1.34-0.23c0.02-0.01,0.05-0.03,0.07-0.04
				c0.13-0.07,0.27-0.12,0.41-0.16c0.06-0.08,0.13-0.15,0.2-0.22c0.27-0.5,0.7-0.89,1.23-1.11c0.35-0.14,0.7-0.2,1.05-0.19
				c0.08-0.05,0.17-0.1,0.26-0.14c0.38-0.18,0.77-0.26,1.17-0.27c0.13-0.09,0.26-0.17,0.41-0.24c0.21-0.1,0.43-0.17,0.65-0.21
				c0.25-0.56,0.7-1,1.27-1.24c0.24-0.1,0.49-0.17,0.73-0.19c0.15-0.06,0.29-0.11,0.44-0.14c0.1-0.06,0.2-0.12,0.31-0.16
				c0.04-0.02,0.09-0.04,0.13-0.06c0.19-0.19,0.41-0.36,0.66-0.48c0.22-0.11,0.45-0.19,0.68-0.24c0.03-0.05,0.07-0.11,0.1-0.16
				c0.23-0.58,0.67-1.05,1.24-1.33c0.26-0.13,0.53-0.2,0.8-0.25c0.01-0.01,0.03-0.03,0.05-0.04c0.25-0.52,0.67-0.93,1.2-1.16
				c0.15-0.07,0.3-0.12,0.45-0.15c0.2-0.23,0.45-0.43,0.73-0.57c0.24-0.27,0.54-0.49,0.88-0.64c0.08-0.03,0.15-0.06,0.23-0.09
				c0.17-0.32,0.4-0.59,0.69-0.81c0,0,0,0,0-0.01c0.29-0.89,0.83-1.37,1.47-1.59c0.21-0.3,0.49-0.54,0.82-0.72
				c0.2-0.45,0.53-0.82,0.95-1.08c0.24-0.4,0.59-0.71,1.02-0.92c0.24-0.12,0.48-0.19,0.73-0.23c0.02-0.1,0.04-0.21,0.07-0.31
				c0.1-0.32,0.27-0.61,0.48-0.85c0.23-0.56,0.66-1.01,1.21-1.28c0.14-0.07,0.28-0.13,0.43-0.17c0.22-0.42,0.55-0.77,0.96-1.01
				c0.09-0.19,0.2-0.37,0.33-0.53c0.01-0.21,0.04-0.41,0.1-0.6c0.2-0.63,0.64-1.14,1.24-1.44c0.12-0.06,0.25-0.11,0.37-0.15
				c0.02-0.02,0.04-0.04,0.06-0.06c0.2-0.5,0.56-0.92,1.02-1.19c0.03-0.06,0.06-0.11,0.1-0.17c-0.12-0.42-0.12-0.89,0.01-1.3
				c0.2-0.6,0.61-1.1,1.16-1.41c-0.07-0.36-0.05-0.74,0.06-1.09c0.16-0.48,0.46-0.9,0.86-1.19c-0.02-0.28,0.01-0.57,0.1-0.84
				c0.02-0.07,0.05-0.13,0.07-0.19c0.04-0.12,0.1-0.24,0.16-0.36c0.01-0.16,0.05-0.32,0.09-0.47c0.01-0.03,0.02-0.07,0.03-0.1
				c-0.03-0.3,0-0.61,0.09-0.9c0.06-0.18,0.14-0.35,0.23-0.51c-0.1-0.4-0.09-0.84,0.03-1.23c0.18-0.57,0.55-1.03,1.05-1.34
				c-0.11-0.13-0.21-0.27-0.31-0.43c-0.3-0.52-0.37-1.2-0.18-1.77c0.02-0.05,0.04-0.1,0.06-0.15c0.02-0.13,0.04-0.25,0.08-0.37
				c0.03-0.1,0.07-0.19,0.11-0.29c0-0.08,0.01-0.16,0.03-0.24c-0.16-0.31-0.24-0.67-0.25-1.02c-0.29-0.52-0.36-1.2-0.18-1.77
				c0.06-0.18,0.14-0.36,0.24-0.52c-0.09-0.11-0.17-0.23-0.25-0.36c-0.22-0.39-0.32-0.87-0.27-1.33c-0.03-0.11-0.05-0.23-0.07-0.34
				c-0.06-0.08-0.11-0.16-0.16-0.24c-0.17-0.3-0.27-0.64-0.3-0.98c-0.01-0.05-0.01-0.09-0.02-0.14c-0.17-0.16-0.3-0.34-0.43-0.55
				c-0.29-0.52-0.36-1.19-0.18-1.76c0.03-0.1,0.07-0.21,0.12-0.3c-0.24-0.18-0.44-0.41-0.6-0.69c-0.03-0.06-0.07-0.12-0.09-0.18
				c-0.16-0.15-0.29-0.33-0.41-0.53c-0.23-0.41-0.33-0.91-0.27-1.39c-0.05-0.06-0.09-0.13-0.13-0.2c-0.17-0.29-0.27-0.61-0.3-0.94
				c-0.35-0.21-0.63-0.48-0.84-0.85c-0.17-0.3-0.27-0.63-0.3-0.97c-0.1-0.12-0.2-0.25-0.28-0.39c-0.15-0.26-0.25-0.55-0.29-0.85
				c-0.22-0.18-0.4-0.39-0.55-0.65c-0.16-0.29-0.26-0.6-0.29-0.92c-0.3-0.21-0.54-0.46-0.73-0.78c-0.09-0.15-0.16-0.31-0.21-0.48
				c-0.43-0.21-0.77-0.48-1.03-0.87c-0.25-0.19-0.46-0.42-0.62-0.7c-0.21-0.36-0.31-0.77-0.31-1.18c-0.28-0.17-0.52-0.37-0.72-0.63
				c-0.24-0.19-0.44-0.42-0.61-0.7c-0.11-0.18-0.19-0.38-0.24-0.58c-0.46-0.24-0.8-0.54-1.05-0.98c-0.03-0.06-0.07-0.12-0.1-0.18
				c-0.36-0.22-0.64-0.49-0.86-0.85c-0.36-0.22-0.64-0.49-0.86-0.86c-0.02-0.04-0.04-0.07-0.06-0.11c-0.33-0.22-0.6-0.48-0.8-0.83
				c-0.05-0.09-0.1-0.18-0.14-0.28c-0.15-0.14-0.28-0.3-0.39-0.49c-0.05-0.08-0.09-0.16-0.13-0.25c-0.8-0.27-1.35-0.64-1.71-1.25
				c-0.09-0.15-0.16-0.31-0.22-0.48c-0.05-0.04-0.1-0.08-0.15-0.12c-0.32-0.11-0.59-0.23-0.84-0.37c-0.01,0.01-0.02,0.02-0.03,0.03
				C860.84,1425.82,860.82,1425.84,860.8,1425.87z"/>
		</g>
		<g>
			<path class="st1" d="M835.57,1412.63c-0.11,0.06-0.21,0.13-0.33,0.17c-0.77,0.3-1.6,0.25-2.51-0.04
				c-0.78,0.03-1.64-0.18-2.58-0.54c-0.35,0.12-0.71,0.16-1.07,0.14c-0.49,0.05-1,0-1.54-0.15c-0.09,0.05-0.19,0.1-0.28,0.15
				c-0.75,0.34-1.59,0.34-2.52,0.13c-0.1,0.06-0.21,0.11-0.33,0.16c-0.64,0.25-1.31,0.24-2.02,0.04c-0.33,0.03-0.67,0-1.03-0.07
				c-0.41,0.15-0.82,0.2-1.25,0.17c-0.09,0.04-0.19,0.08-0.28,0.11c-0.23,0.24-0.51,0.44-0.83,0.59c-0.64,0.29-1.33,0.31-2.08,0.17
				c0.18,0.47,0.2,0.99,0.05,1.46c-0.05,0.16-0.12,0.31-0.2,0.45c0,0.02-0.01,0.04-0.01,0.06c0.16,0.33,0.23,0.71,0.21,1.08
				c0.04,0.07,0.07,0.15,0.1,0.23c0.17,0.16,0.31,0.34,0.43,0.55c0.17,0.31,0.27,0.67,0.28,1.03c0.1,0.34,0.11,0.71,0.04,1.06
				c0.16,0.43,0.18,0.91,0.06,1.35c0.11,0.41,0.1,0.85-0.03,1.24c-0.05,0.15-0.11,0.29-0.18,0.43c0.03,0.05,0.05,0.1,0.07,0.16
				c0.05,0.07,0.09,0.14,0.13,0.21c0.29,0.52,0.35,1.17,0.17,1.74c-0.03,0.09-0.07,0.19-0.11,0.27c0,0.23-0.03,0.45-0.1,0.67
				c-0.06,0.17-0.14,0.35-0.24,0.52c0.18,0.46,0.2,0.99,0.06,1.47c0,0.15-0.01,0.29-0.04,0.44c0.03,0.3,0,0.6-0.09,0.88
				c-0.02,0.05-0.03,0.1-0.05,0.15c0.1,0.3,0.12,0.63,0.09,0.95c0.14,0.44,0.15,0.93,0.01,1.37c-0.06,0.19-0.15,0.38-0.26,0.54
				c0.02,0.03,0.04,0.07,0.06,0.11c0.28,0.5,0.35,1.13,0.19,1.68c0.02,0.27-0.02,0.55-0.1,0.81c-0.06,0.19-0.14,0.37-0.25,0.53
				c-0.03,0.06-0.06,0.11-0.09,0.17c-0.01,0.18-0.04,0.35-0.1,0.52c-0.11,0.33-0.25,0.6-0.42,0.81c0.01,0.26-0.02,0.52-0.1,0.76
				c-0.02,0.05-0.03,0.1-0.05,0.15c0,0.05-0.01,0.1-0.01,0.15c0.17,0.46,0.19,0.98,0.04,1.45c-0.03,0.08-0.05,0.16-0.09,0.23
				c0.02,0.27-0.02,0.54-0.1,0.8c-0.15,0.45-0.43,0.85-0.8,1.14c0.11,0.41,0.1,0.85-0.03,1.24c-0.13,0.39-0.31,0.69-0.52,0.93
				c0.01,0.02,0.02,0.04,0.03,0.06c0.29,0.52,0.36,1.18,0.17,1.75c-0.13,0.41-0.32,0.73-0.55,0.97c0.1,0.4,0.1,0.84-0.03,1.23
				c-0.12,0.36-0.31,0.68-0.57,0.94c-0.01,0.06-0.03,0.13-0.05,0.19c-0.09,0.29-0.21,0.53-0.36,0.73c0.11,0.41,0.1,0.85-0.03,1.24
				c-0.12,0.38-0.34,0.71-0.62,0.98c-0.12,0.18-0.26,0.34-0.42,0.48c-0.02,0.03-0.05,0.07-0.07,0.1c-0.01,0.04-0.02,0.08-0.03,0.11
				c-0.07,0.21-0.16,0.41-0.28,0.58c0.07,0.37,0.06,0.76-0.06,1.11c-0.24,0.74-0.67,1.18-1.17,1.42c-0.08,0.12-0.18,0.23-0.28,0.33
				c-0.08,0.23-0.19,0.44-0.32,0.63c0.17,0.46,0.18,0.98,0.03,1.44c-0.25,0.76-0.69,1.21-1.22,1.46c-0.08,0.14-0.18,0.27-0.28,0.38
				c0,0.22-0.04,0.44-0.1,0.64c-0.3,0.93-0.89,1.39-1.57,1.59c-0.08,0.11-0.18,0.21-0.27,0.3c-0.19,0.55-0.48,0.93-0.83,1.18
				c0.13,0.43,0.14,0.91,0,1.34c-0.13,0.41-0.36,0.76-0.67,1.04c-0.01,0.07-0.03,0.13-0.05,0.2c-0.21,0.66-0.7,1.2-1.34,1.48
				c-0.19,0.08-0.37,0.14-0.56,0.17c-0.08,0.2-0.19,0.39-0.32,0.56c0,0.23-0.03,0.46-0.1,0.67c-0.08,0.24-0.19,0.47-0.33,0.67
				c-0.01,0.05-0.03,0.11-0.04,0.16c-0.15,0.46-0.37,0.81-0.63,1.06c-0.1,0.28-0.25,0.53-0.44,0.74c-0.23,0.68-0.74,1.21-1.4,1.47
				c-0.27,0.11-0.54,0.16-0.81,0.17c-0.01,0.17-0.04,0.34-0.1,0.5c-0.12,0.36-0.31,0.67-0.56,0.94c-0.24,0.55-0.68,0.99-1.23,1.24
				c-0.13,0.37-0.34,0.7-0.61,0.96c-0.17,0.4-0.44,0.75-0.79,1.01c-0.08,0.17-0.19,0.32-0.31,0.46c0.87,0.28,1.46,0.65,1.85,1.3
				c0.09,0.15,0.16,0.31,0.21,0.47c0.57,0.25,1.01,0.59,1.32,1.09c0.06,0.09,0.1,0.18,0.15,0.28c0.51,0.18,0.93,0.41,1.26,0.72
				c0.63,0.26,1.1,0.6,1.42,1.09c0.36,0.22,0.65,0.51,0.87,0.87c0.05,0.08,0.09,0.16,0.13,0.24c1.11,0.32,1.81,0.73,2.25,1.46
				c0.05,0.08,0.09,0.16,0.13,0.25c1.22,0.31,2.06,0.73,2.54,1.53c0.11,0.18,0.2,0.38,0.26,0.58c0.04,0.07,0.08,0.15,0.11,0.22
				c1.33,0.3,2.19,0.67,2.74,1.35c1.09,0.31,1.83,0.72,2.31,1.39c2.5,0.58,5.71,2.25,9.94,4.54c0.19-0.14,0.4-0.26,0.63-0.35
				c1.22-0.5,2.58-0.2,4.44,0.63c0.84-0.26,1.79-0.14,2.85,0.2c0.76-0.31,1.6-0.26,2.53,0c0.09-0.05,0.18-0.1,0.27-0.14
				c0.44-0.2,0.91-0.27,1.4-0.26c-0.23-0.47-0.29-1-0.17-1.5c-0.58-0.24-0.96-0.56-1.25-1.07c-0.1-0.18-0.18-0.38-0.23-0.59
				c-0.15-0.15-0.28-0.31-0.39-0.51c-0.11-0.2-0.19-0.42-0.24-0.65c-0.07-0.09-0.14-0.19-0.2-0.3c-0.2-0.35-0.3-0.77-0.28-1.18
				c-0.17-0.16-0.32-0.34-0.44-0.56c-0.16-0.29-0.26-0.63-0.28-0.97c-0.08-0.1-0.15-0.21-0.21-0.32c-0.21-0.37-0.3-0.81-0.27-1.24
				c-0.04-0.05-0.07-0.11-0.11-0.17c-0.15-0.26-0.24-0.56-0.28-0.86c-0.01-0.02-0.02-0.04-0.03-0.06c-0.29-0.52-0.36-1.19-0.18-1.76
				c0.03-0.08,0.06-0.16,0.09-0.24c-0.16-0.15-0.3-0.33-0.42-0.54c-0.14-0.25-0.23-0.52-0.27-0.81c-0.1-0.38-0.11-0.8,0-1.18
				c-0.07-0.19-0.12-0.4-0.14-0.61c-0.07-0.09-0.14-0.2-0.21-0.31c-0.3-0.52-0.37-1.2-0.18-1.77c0.01-0.02,0.01-0.04,0.02-0.06
				c-0.05-0.07-0.1-0.15-0.14-0.23c-0.29-0.52-0.36-1.18-0.17-1.75c0.04-0.13,0.09-0.25,0.16-0.37c-0.05-0.07-0.1-0.15-0.15-0.24
				c-0.23-0.41-0.32-0.9-0.26-1.37v0c-0.3-0.52-0.36-1.19-0.18-1.76c0.12-0.35,0.3-0.67,0.55-0.93c-0.02-0.17-0.03-0.33-0.01-0.5
				c-0.03-0.04-0.05-0.09-0.08-0.13c-0.3-0.52-0.37-1.19-0.18-1.76c0.11-0.33,0.26-0.61,0.43-0.83c-0.13-0.43-0.13-0.9,0.01-1.32
				c0.07-0.22,0.17-0.43,0.3-0.61c-0.01-0.04-0.03-0.09-0.04-0.13c-0.07-0.09-0.13-0.18-0.18-0.29c-0.29-0.52-0.35-1.17-0.17-1.74
				c0.07-0.22,0.17-0.42,0.3-0.61c0-0.07,0.01-0.13,0.02-0.2c0-0.24,0.03-0.49,0.1-0.71c0.07-0.22,0.17-0.42,0.29-0.6
				c0,0,0,0,0-0.01c0.11-0.34,0.29-0.65,0.53-0.9c0.02-0.05,0.04-0.09,0.06-0.13c-0.03-0.31-0.01-0.63,0.09-0.92
				c0.02-0.05,0.03-0.09,0.05-0.14c-0.03-0.3,0-0.62,0.09-0.9c0.1-0.31,0.27-0.6,0.48-0.84c-0.12-0.42-0.11-0.87,0.02-1.28
				c0.09-0.28,0.23-0.54,0.41-0.76c-0.01-0.26,0.02-0.53,0.1-0.78c0.12-0.36,0.28-0.65,0.48-0.89c0.02-0.07,0.03-0.15,0.06-0.22
				c0.03-0.1,0.07-0.2,0.11-0.3c-0.02-0.28,0.01-0.56,0.1-0.82c0.02-0.06,0.04-0.13,0.07-0.18c-0.08-0.38-0.07-0.78,0.05-1.15
				c0.11-0.34,0.29-0.64,0.52-0.89c0.08-0.19,0.18-0.36,0.29-0.51c0.02-0.07,0.03-0.14,0.06-0.21c0.02-0.07,0.05-0.15,0.08-0.22
				c0.02-0.09,0.04-0.19,0.07-0.28c0.12-0.37,0.29-0.67,0.49-0.9c-0.03-0.29,0-0.59,0.09-0.87c0.07-0.22,0.16-0.41,0.25-0.57
				c0.01-0.19,0.04-0.39,0.1-0.57c0.14-0.44,0.4-0.82,0.74-1.1c0.01-0.03,0.01-0.05,0.02-0.08c0.13-0.4,0.35-0.75,0.65-1.03
				c0.02-0.08,0.04-0.16,0.06-0.24c0.03-0.09,0.07-0.19,0.11-0.28c0-0.23,0.03-0.45,0.1-0.66c0.1-0.29,0.24-0.56,0.43-0.79
				c0.16-0.4,0.37-0.7,0.62-0.93c0.18-0.43,0.47-0.79,0.85-1.05c0.01-0.02,0.01-0.05,0.02-0.07c0.06-0.2,0.15-0.38,0.26-0.55
				c0.01-0.07,0.03-0.13,0.05-0.2c0.14-0.43,0.39-0.81,0.73-1.1c0.01-0.04,0.02-0.08,0.04-0.13c0.13-0.4,0.36-0.75,0.66-1.03
				c0.18-0.42,0.46-0.78,0.83-1.04c0.02-0.11,0.04-0.22,0.08-0.33c0.09-0.26,0.21-0.51,0.38-0.72c0.02-0.13,0.05-0.27,0.09-0.4
				c0.21-0.66,0.71-1.2,1.35-1.48c0.02-0.01,0.05-0.02,0.07-0.03c0.14-0.11,0.29-0.2,0.45-0.28c0.08-0.04,0.16-0.07,0.24-0.1
				c0.08-0.13,0.17-0.25,0.27-0.35c-0.12-0.42-0.11-0.87,0.02-1.27c0.21-0.65,0.69-1.19,1.32-1.47c0.05-0.02,0.1-0.04,0.15-0.06
				c0.02-0.08,0.04-0.15,0.06-0.23c0.22-0.67,0.71-1.2,1.35-1.47c0.01-0.03,0.02-0.07,0.03-0.1c0.09-0.26,0.21-0.51,0.38-0.72
				c0,0,0-0.01,0-0.01c0.21-0.64,0.66-1.16,1.27-1.46c0.03-0.01,0.06-0.03,0.09-0.04c0.3-0.39,0.69-0.62,1.11-0.76
				c0.01-0.17,0.04-0.33,0.1-0.49c0.19-0.59,0.61-1.09,1.15-1.39c0.27-0.64,0.7-1.01,1.19-1.22c0.02-0.08,0.03-0.15,0.06-0.23
				c0.22-0.68,0.72-1.22,1.37-1.49c0.19-0.12,0.4-0.2,0.62-0.26c-0.08-0.1-0.16-0.2-0.23-0.32c-0.04-0.07-0.08-0.13-0.11-0.2
				c-0.86-0.25-1.48-0.56-1.92-1.02c-1.07-0.32-1.79-0.76-2.24-1.48c-0.03-0.05-0.05-0.11-0.08-0.16c-1.89-0.72-4.16-1.97-6.93-3.56
				C839.87,1413.32,837.49,1413.02,835.57,1412.63z"/>
		</g>
		<g>
			<path class="st1" d="M807.31,1417.39c-0.11,0.05-0.23,0.09-0.34,0.12c-0.24,0.25-0.53,0.44-0.85,0.57
				c-0.44,0.17-0.87,0.22-1.31,0.17c-0.26,0.53-0.69,0.95-1.24,1.19c-0.28,0.12-0.57,0.19-0.86,0.21c-0.03,0.02-0.06,0.03-0.1,0.05
				c-0.05,0.02-0.11,0.05-0.16,0.07c-0.22,0.22-0.48,0.4-0.78,0.52c-0.09,0.04-0.18,0.07-0.27,0.1c-0.07,0.04-0.15,0.08-0.23,0.12
				c-0.11,0.05-0.22,0.09-0.33,0.13c-0.26,0.51-0.69,0.93-1.22,1.16c-0.14,0.06-0.27,0.1-0.41,0.14c-0.27,0.43-0.67,0.76-1.16,0.94
				c-0.34,0.13-0.67,0.18-1.01,0.17c-0.1,0.09-0.2,0.17-0.32,0.25c-0.23,0.29-0.52,0.53-0.86,0.7c-0.2,0.1-0.41,0.17-0.62,0.22
				c-0.2,0.31-0.46,0.57-0.77,0.76c-0.08,0.08-0.17,0.16-0.27,0.22c-0.11,0.25-0.26,0.48-0.45,0.68c-0.25,0.42-0.61,0.75-1.07,0.96
				c-0.06,0.03-0.13,0.06-0.2,0.08c-0.01,0.07-0.03,0.13-0.05,0.19c-0.04,0.12-0.08,0.23-0.14,0.33c-0.02,0.09-0.04,0.19-0.07,0.27
				c-0.22,0.68-0.73,1.23-1.38,1.51c-0.28,0.12-0.56,0.18-0.85,0.2c-0.18,0.36-0.44,0.66-0.76,0.89c0,0.01-0.01,0.02-0.01,0.03
				c-0.15,0.47-0.44,0.88-0.82,1.17c-0.23,0.26-0.53,0.48-0.86,0.62c-0.15,0.07-0.31,0.11-0.46,0.15c-0.02,0.03-0.04,0.06-0.06,0.09
				c0.02,0.28-0.01,0.56-0.1,0.82c-0.19,0.59-0.6,1.08-1.14,1.37c-0.08,0.07-0.16,0.13-0.25,0.19c-0.01,0.07-0.03,0.13-0.05,0.2
				c-0.15,0.47-0.43,0.87-0.8,1.16c0.06,0.35,0.04,0.71-0.07,1.05c-0.11,0.35-0.3,0.66-0.54,0.92c-0.17,0.41-0.45,0.75-0.8,1
				c-0.08,0.17-0.18,0.34-0.3,0.48c0.02,0.28-0.01,0.57-0.1,0.83c-0.11,0.33-0.28,0.63-0.51,0.88c0.07,0.3,0.08,0.62,0.03,0.92
				c-0.01,0.18-0.04,0.36-0.1,0.53c-0.09,0.29-0.23,0.55-0.41,0.77c0.03,0.3,0,0.6-0.09,0.88c-0.18,0.54-0.52,0.99-0.99,1.3
				c0.03,0.04,0.05,0.08,0.08,0.13c0.3,0.53,0.37,1.2,0.19,1.78c-0.02,0.07-0.05,0.15-0.08,0.22c0.13,0.4,0.16,0.84,0.06,1.24
				c0.22,0.49,0.26,1.08,0.09,1.59c-0.1,0.29-0.24,0.56-0.43,0.79c0.02,0.04,0.05,0.07,0.07,0.11c0.28,0.49,0.36,1.11,0.22,1.65
				c0.18,0.17,0.33,0.36,0.47,0.59c0.29,0.52,0.36,1.19,0.18,1.76c-0.02,0.05-0.04,0.1-0.05,0.15c0.09,0.11,0.17,0.23,0.25,0.36
				c0.28,0.49,0.36,1.11,0.22,1.66c0.14,0.14,0.26,0.3,0.37,0.49c0.15,0.27,0.25,0.57,0.28,0.89c0.12,0.13,0.23,0.28,0.33,0.45
				c0.22,0.39,0.31,0.86,0.27,1.31c0.16,0.29,0.25,0.62,0.27,0.94c0.21,0.18,0.38,0.38,0.53,0.64c0.27,0.47,0.36,1.02,0.25,1.55
				c0.14,0.14,0.26,0.3,0.37,0.48c0.17,0.29,0.27,0.62,0.3,0.95c0.13,0.14,0.25,0.29,0.35,0.47c0.02,0.04,0.04,0.08,0.07,0.12
				c0.37,0.22,0.66,0.5,0.88,0.88c0.14,0.24,0.23,0.51,0.28,0.78c0.35,0.22,0.62,0.49,0.83,0.85c0.18,0.31,0.28,0.65,0.3,1
				c0.06,0.11,0.11,0.23,0.15,0.35c0.06,0.13,0.11,0.26,0.15,0.4c0.6,0.25,1.03,0.58,1.34,1.1c0.04,0.07,0.07,0.15,0.11,0.22
				c0.07-0.05,0.14-0.11,0.22-0.15c0.15-0.29,0.36-0.54,0.61-0.75c0.11-0.14,0.23-0.27,0.36-0.39c0.2-0.33,0.48-0.61,0.81-0.81
				c0.24-0.47,0.58-0.78,0.97-0.97c0.01-0.03,0.02-0.06,0.03-0.09c0.21-0.63,0.64-1.13,1.23-1.42c0.02-0.09,0.04-0.18,0.07-0.27
				c0.14-0.44,0.4-0.82,0.74-1.11c0.23-0.46,0.61-0.84,1.08-1.08c0.09-0.04,0.17-0.08,0.26-0.11c0.16-0.28,0.37-0.53,0.63-0.73
				c0-0.22,0.04-0.44,0.1-0.65c0.2-0.63,0.64-1.13,1.24-1.42c0.06-0.13,0.12-0.25,0.19-0.35c-0.03-0.29,0-0.6,0.09-0.87
				c0.18-0.54,0.45-0.92,0.78-1.19c0.29-0.7,0.76-1.1,1.31-1.31c0.02-0.14,0.05-0.27,0.09-0.4c0.17-0.53,0.51-0.97,0.96-1.27
				c0.06-0.09,0.12-0.16,0.19-0.24c0.05-0.16,0.12-0.3,0.19-0.43c-0.12-0.42-0.12-0.87,0.02-1.28c0.14-0.44,0.35-0.78,0.6-1.03
				c0.19-0.53,0.57-0.98,1.05-1.26c0.04-0.05,0.08-0.1,0.12-0.15c0-0.23,0.03-0.47,0.1-0.69c0.02-0.06,0.04-0.12,0.06-0.17
				c-0.01-0.25,0.03-0.5,0.1-0.73c0.13-0.39,0.35-0.74,0.64-1.01c0.09-0.17,0.21-0.32,0.34-0.46c-0.07-0.36-0.05-0.74,0.06-1.08
				c0.11-0.33,0.28-0.63,0.51-0.88c-0.06-0.35-0.03-0.71,0.07-1.04c0.16-0.49,0.46-0.91,0.87-1.21c0.1-0.27,0.26-0.51,0.44-0.72
				c0.01-0.07,0.03-0.14,0.05-0.2c0.07-0.21,0.15-0.39,0.24-0.55c-0.12-0.42-0.12-0.88,0.02-1.29c0.14-0.42,0.33-0.74,0.57-0.98
				c-0.03-0.29,0-0.59,0.09-0.87c0.01-0.02,0.02-0.05,0.02-0.07c-0.08-0.33-0.09-0.69-0.01-1.02c-0.22-0.49-0.26-1.07-0.09-1.59
				c0.12-0.37,0.33-0.7,0.6-0.96c-0.01-0.15,0-0.3,0.03-0.45c-0.08-0.37-0.06-0.77,0.06-1.12c0.1-0.3,0.25-0.57,0.44-0.8
				c0.02-0.04,0.03-0.08,0.05-0.12c-0.2-0.48-0.23-1.04-0.07-1.54c0.07-0.2,0.16-0.39,0.27-0.56c0-0.16,0.01-0.31,0.05-0.47
				c-0.18-0.47-0.2-1-0.05-1.48c0.09-0.27,0.22-0.51,0.38-0.73c-0.04-0.12-0.07-0.25-0.09-0.38c-0.27-0.52-0.33-1.16-0.15-1.71
				c0.05-0.15,0.11-0.29,0.19-0.43c-0.25-0.51-0.3-1.12-0.12-1.65c0.08-0.24,0.18-0.45,0.29-0.63c-0.1-0.3-0.13-0.62-0.09-0.93
				c-0.18-0.47-0.2-1-0.05-1.48c0.01-0.02,0.02-0.05,0.02-0.07c0-0.01,0-0.02,0.01-0.03c-0.15-0.43-0.16-0.92-0.03-1.35
				c-0.05-0.34-0.02-0.68,0.08-1c0.06-0.19,0.15-0.37,0.25-0.54c-0.08-0.1-0.16-0.21-0.23-0.34c-0.15-0.26-0.24-0.56-0.27-0.87
				c-0.07-0.29-0.08-0.59-0.03-0.89c-0.03-0.15-0.05-0.3-0.05-0.45c-0.15,0-0.31,0-0.46-0.01
				C808.25,1416.79,807.82,1417.17,807.31,1417.39z"/>
		</g>
		<g>
			<path d="M887.61,1452.27c0.01-0.14,0.01-0.29,0-0.43c0.01-0.04,0.03-0.08,0.04-0.12c0.19-0.57,0.12-1.25-0.18-1.77
				c-0.06-0.1-0.12-0.2-0.19-0.29c-0.01-0.05-0.01-0.1-0.02-0.15c0.15-0.21,0.28-0.45,0.37-0.75c0.16-0.5,0.13-1.08-0.08-1.57
				c0.15-0.55,0.08-1.19-0.21-1.69c0-0.01-0.01-0.01-0.01-0.02c0.03-0.43-0.07-0.88-0.28-1.25c-0.04-0.06-0.08-0.13-0.12-0.19
				c0-0.39-0.09-0.79-0.28-1.12c-0.11-0.19-0.23-0.35-0.36-0.49c0,0,0,0,0,0c0.19-0.6,0.13-1.25-0.19-1.8
				c-0.13-0.23-0.28-0.42-0.46-0.58c-0.01-0.37-0.11-0.75-0.3-1.08c-0.23-0.4-0.52-0.67-0.9-0.89c-0.05-0.21-0.13-0.41-0.24-0.6
				c-0.02-0.04-0.05-0.08-0.07-0.11c-0.02-0.35-0.12-0.7-0.31-1.01c-0.16-0.27-0.35-0.48-0.57-0.66c-0.03-0.05-0.06-0.1-0.09-0.14
				c0-0.35-0.09-0.7-0.25-1.01c0.06-0.48-0.04-0.98-0.28-1.41c0,0,0-0.01-0.01-0.01c-0.04-0.11-0.09-0.21-0.15-0.32
				c-0.11-0.19-0.24-0.36-0.39-0.51c-0.04-0.28-0.13-0.56-0.28-0.82c-0.35-0.6-0.86-0.95-1.64-1.22c-0.04-0.03-0.09-0.06-0.13-0.09
				c-0.03-0.23-0.1-0.46-0.2-0.67c-0.02-0.37-0.12-0.73-0.31-1.05c-0.17-0.28-0.37-0.51-0.61-0.69c-0.04-0.27-0.14-0.54-0.28-0.78
				c-0.24-0.4-0.55-0.7-0.96-0.92c-0.05-0.21-0.13-0.41-0.24-0.59c-0.25-0.42-0.58-0.73-1.03-0.97c-0.03-0.06-0.06-0.12-0.1-0.18
				c-0.26-0.44-0.61-0.75-1.08-0.99c-0.05-0.23-0.14-0.46-0.26-0.67c-0.35-0.6-0.89-0.97-1.68-1.24c0,0,0,0,0,0
				c-0.04-0.3-0.15-0.59-0.31-0.85c-0.3-0.49-0.71-0.82-1.25-1.06c-0.02-0.01-0.04-0.02-0.05-0.03c-0.05-0.14-0.12-0.28-0.19-0.41
				c-0.17-0.29-0.38-0.52-0.64-0.71c-0.13-0.16-0.28-0.3-0.45-0.43c-0.04-0.08-0.08-0.16-0.12-0.24c-0.46-0.78-1.23-1.16-2.42-1.47
				c-0.06-0.24-0.15-0.47-0.28-0.68c-0.3-0.48-0.71-0.81-1.24-1.04c-0.06-0.18-0.14-0.35-0.24-0.51c-0.23-0.37-0.53-0.66-0.91-0.9
				c-0.06-0.17-0.14-0.33-0.23-0.48c-0.36-0.59-0.89-0.98-1.65-1.28c-0.9-1.07-2.6-1.42-5.5-1.83c0.11-0.76-0.05-1.52-0.47-2.18
				c-0.47-0.74-1.22-1.3-2.26-1.76c-2-1.2-5.52-1.67-10.76-2.29c-0.03,0-0.06-0.01-0.09-0.01c-5.8-3.35-9.52-5.33-12.12-4.34
				c-0.77,0.29-1.37,0.83-1.76,1.54c-2.19-1.22-3.87-1.97-5.37-1.39c-0.03,0.01-0.07,0.03-0.1,0.04c-0.8-0.15-1.52-0.13-2.18,0.15
				c-0.06,0.02-0.11,0.05-0.17,0.08c-0.65-0.1-1.25-0.07-1.82,0.18c-0.1,0.04-0.2,0.09-0.29,0.14c-0.05,0.02-0.1,0.04-0.15,0.06
				c-0.12,0.05-0.23,0.1-0.34,0.17c-1.03-0.28-1.95-0.33-2.76,0.03c-0.14,0.03-0.29,0.07-0.43,0.13c-0.01,0-0.02,0.01-0.03,0.01
				c-0.61-0.09-1.18-0.04-1.73,0.19c-0.31,0.13-0.58,0.32-0.81,0.54c-0.73-0.17-1.4-0.18-2.02,0.01c-0.07-0.01-0.14-0.03-0.21-0.04
				c-0.02,0-0.04-0.01-0.07-0.01c-1.11-0.6-2.18-1.09-3.32-0.64c-0.66,0.26-1.16,0.8-1.38,1.47c-0.13,0.41-0.13,0.86-0.02,1.28
				c-0.29,0.02-0.57,0.08-0.85,0.2c-0.37,0.16-0.69,0.4-0.94,0.71c-0.42,0-0.82,0.08-1.21,0.27c-0.25,0.12-0.47,0.27-0.66,0.45
				c-0.21,0.04-0.41,0.11-0.61,0.2c-0.3,0.14-0.56,0.33-0.78,0.56c-0.22,0.05-0.43,0.12-0.64,0.22c-0.05,0.02-0.09,0.05-0.13,0.07
				c-0.15,0.03-0.3,0.08-0.45,0.15c-0.27,0.12-0.52,0.28-0.73,0.48c-0.03,0.01-0.06,0.02-0.09,0.03c-0.38,0.15-0.71,0.39-0.96,0.69
				c-0.23,0.05-0.45,0.12-0.66,0.23c-0.39,0.2-0.71,0.48-0.95,0.83c-0.02,0.01-0.04,0.02-0.07,0.03c-0.11,0.05-0.21,0.1-0.31,0.16
				c-0.43-0.01-0.85,0.06-1.26,0.25c-0.36,0.17-0.67,0.41-0.91,0.72c-0.12,0.04-0.23,0.08-0.35,0.13c-0.26,0.12-0.49,0.28-0.69,0.47
				c-0.09,0.03-0.18,0.07-0.28,0.11c-0.47,0.22-0.85,0.56-1.1,1c-0.12,0.04-0.24,0.09-0.35,0.14c-0.48,0.24-0.86,0.61-1.1,1.07
				c-0.25,0.03-0.5,0.1-0.74,0.21c-0.6,0.27-1.05,0.75-1.29,1.36c-0.27,0.14-0.51,0.32-0.71,0.54c-0.17,0.12-0.32,0.26-0.45,0.42
				c-0.14,0.04-0.27,0.1-0.41,0.17c-0.14,0.07-0.28,0.16-0.4,0.25c-0.03,0.01-0.05,0.02-0.08,0.03c-0.65,0.28-1.14,0.82-1.36,1.5
				c-0.03,0.08-0.05,0.16-0.06,0.24c-0.02,0.01-0.05,0.02-0.07,0.03c-0.47,0.19-0.86,0.51-1.13,0.93c-0.02,0.02-0.03,0.03-0.05,0.05
				c-0.43,0.24-0.77,0.6-1,1.04c-0.64,0.25-1.13,0.76-1.37,1.4c-0.37,0.23-0.67,0.56-0.87,0.95c-0.16,0.22-0.29,0.46-0.38,0.72
				c-0.01,0.03-0.02,0.06-0.03,0.1c-0.15,0.13-0.29,0.28-0.4,0.45c-0.47,0.3-0.82,0.75-1,1.3c-0.04,0.12-0.07,0.24-0.08,0.37
				c-0.36,0.19-0.66,0.47-0.88,0.8c-0.46,0.3-0.8,0.75-0.97,1.29c-0.1,0.32-0.13,0.66-0.08,0.99c-0.01,0.06-0.01,0.13-0.02,0.19
				c-0.01,0.03-0.01,0.06-0.01,0.1c-0.27,0.27-0.48,0.6-0.6,0.97c-0.03,0.09-0.05,0.19-0.07,0.29c-0.52,0.29-0.92,0.77-1.11,1.35
				c-0.03,0.1-0.06,0.2-0.07,0.31c-0.05,0.11-0.1,0.22-0.14,0.34c-0.07,0.22-0.1,0.45-0.1,0.68c-0.04,0.09-0.08,0.2-0.12,0.3
				c-0.01,0.02-0.01,0.04-0.02,0.07c-0.33,0.28-0.58,0.65-0.71,1.08c-0.01,0.02-0.01,0.03-0.01,0.05c-0.03,0.04-0.05,0.07-0.08,0.11
				c-0.19,0.24-0.35,0.51-0.44,0.81c-0.17,0.53-0.13,1.13,0.11,1.63c-0.32,0.29-0.56,0.66-0.7,1.08c-0.11,0.34-0.13,0.71-0.07,1.07
				c-0.02,0.04-0.03,0.09-0.05,0.13c-0.14,0.42-0.14,0.89-0.01,1.32c-0.02,0.05-0.04,0.1-0.06,0.16c-0.09,0.27-0.12,0.56-0.1,0.85
				c-0.05,0.11-0.09,0.22-0.13,0.34c-0.19,0.57-0.12,1.24,0.18,1.76c0.06,0.11,0.12,0.2,0.19,0.29c-0.07,0.13-0.14,0.28-0.18,0.43
				c-0.05,0.14-0.08,0.29-0.09,0.44c-0.16,0.5-0.13,1.08,0.08,1.56c-0.07,0.4-0.03,0.84,0.11,1.22c-0.09,0.15-0.16,0.31-0.21,0.47
				c-0.18,0.57-0.12,1.24,0.18,1.76c0.09,0.16,0.19,0.3,0.3,0.43c0.03,0.31,0.12,0.61,0.27,0.87c0.02,0.04,0.04,0.07,0.07,0.11
				c0,0.25,0.05,0.51,0.14,0.75c-0.11,0.54-0.03,1.1,0.25,1.58c0.04,0.06,0.07,0.12,0.11,0.18c0,0,0,0.01,0,0.02
				c-0.19,0.57-0.12,1.25,0.18,1.77c0.12,0.22,0.27,0.41,0.44,0.57c0.02,0.13,0.04,0.26,0.08,0.39c-0.01,0.38,0.07,0.75,0.25,1.09
				c0.05,0.16,0.11,0.31,0.2,0.45c0.15,0.26,0.33,0.47,0.54,0.64c0.02,0.03,0.03,0.05,0.05,0.07c0.05,0.23,0.13,0.46,0.25,0.66
				c0.22,0.38,0.5,0.65,0.87,0.87c0.01,0.04,0.02,0.07,0.03,0.11c-0.17,0.59-0.1,1.22,0.21,1.75c0.16,0.27,0.35,0.49,0.58,0.67
				c0.04,0.09,0.08,0.18,0.13,0.27c0.17,0.3,0.39,0.54,0.65,0.73c0.04,0.29,0.13,0.57,0.28,0.83c0.24,0.41,0.54,0.7,0.96,0.92
				c0.04,0.11,0.09,0.21,0.16,0.31c0.11,0.19,0.24,0.36,0.39,0.5c0.09,0.14,0.19,0.26,0.3,0.37c0.04,0.3,0.14,0.59,0.3,0.86
				c0.35,0.59,0.86,0.94,1.59,1.2c0.05,0.26,0.15,0.5,0.28,0.73c0.11,0.19,0.24,0.35,0.39,0.49c0.04,0.31,0.14,0.6,0.31,0.87
				c0.05,0.09,0.11,0.17,0.17,0.24c0.05,0.21,0.14,0.41,0.25,0.59c0.23,0.4,0.55,0.68,0.96,0.91c-0.07,0.13-0.13,0.26-0.17,0.39
				c-0.02,0.05-0.03,0.11-0.04,0.16c-0.52,0.31-0.9,0.8-1.09,1.38c-0.14,0.44-0.13,0.94,0.01,1.38c-0.03,0.44,0.07,0.89,0.29,1.26
				c0.58,1,1.58,1.22,3.25,1.58c0.29,0.06,0.73,0.16,1.02,0.23c0.18,0.13,0.38,0.23,0.6,0.3c0.22,0.07,0.44,0.11,0.66,0.11
				c0.69,0,1.34-0.34,1.74-0.9c0.11,0.17,0.22,0.32,0.36,0.45c0.35,0.52,0.87,0.87,1.59,1.14c0.27,0.36,0.61,0.63,1.04,0.84
				c0.05,0.11,0.1,0.22,0.17,0.33c0.47,0.77,1.23,1.18,2.41,1.5c0.04,0.1,0.09,0.19,0.15,0.28c0.3,0.49,0.72,0.83,1.28,1.1
				c0.29,0.35,0.66,0.6,1.11,0.8c0.06,0.15,0.12,0.29,0.21,0.42c0.39,0.64,0.98,1.04,1.85,1.35c0.89,1.2,2.59,1.5,5.9,1.99
				c0.03,0,0.05,0.01,0.08,0.01c0.36,0.15,0.7,0.28,1.04,0.37c-0.21,0.85-0.07,1.71,0.4,2.45c1.41,2.21,5.33,2.78,12.13,3.59
				c0.55,0.07,1.17,0.14,1.82,0.22c5.02,2.71,8.59,4.5,11.2,4.5c0.6,0,1.16-0.1,1.66-0.3c0.35-0.14,0.67-0.33,0.95-0.56
				c0.29-0.03,0.58-0.1,0.85-0.22c0.07-0.03,0.13-0.06,0.19-0.09c0.99,0.26,1.87,0.3,2.66-0.04c0.14-0.06,0.27-0.13,0.39-0.2
				c0.14,0,0.27-0.02,0.4-0.04c0.01,0,0.02,0,0.02,0c0.19,0.12,0.39,0.24,0.64,0.33c0.65,0.5,1.6,0.71,3.03,1.01
				c0.67,0.34,1.32,0.61,1.98,0.64c0.05,0.02,0.11,0.04,0.16,0.06c0.22,0.07,0.44,0.11,0.66,0.11c0.9,0,1.75-0.58,2.04-1.48
				c0.2-0.6,0.13-1.26-0.19-1.81c-0.06-0.1-0.13-0.2-0.2-0.29c-0.01-0.06-0.03-0.12-0.05-0.18c0.12-0.03,0.24-0.07,0.36-0.12
				c0.28-0.12,0.54-0.28,0.76-0.49c0.24-0.04,0.47-0.11,0.69-0.22c0.33-0.15,0.61-0.37,0.84-0.63c0.44-0.01,0.85-0.09,1.25-0.29
				c0.2-0.1,0.39-0.22,0.55-0.36c0.1-0.03,0.2-0.07,0.29-0.11c0.23-0.1,0.44-0.24,0.63-0.4c0.44-0.01,0.86-0.09,1.26-0.29
				c0.32-0.16,0.6-0.38,0.82-0.65c0.41,0.02,0.79-0.04,1.18-0.21c0.45-0.19,0.82-0.51,1.09-0.91c0.03-0.02,0.06-0.04,0.08-0.06
				c0.52,0.03,1-0.04,1.47-0.26c0.59-0.28,1.03-0.76,1.27-1.36c0.05-0.03,0.09-0.06,0.14-0.1c0.04-0.02,0.09-0.03,0.13-0.05
				c0.09-0.04,0.18-0.08,0.26-0.13c0.3-0.02,0.6-0.1,0.9-0.23c0.52-0.23,0.92-0.62,1.18-1.11c0.22-0.03,0.43-0.1,0.65-0.19
				c0.06-0.03,0.13-0.06,0.19-0.09c0.2-0.03,0.41-0.09,0.61-0.18c0.44-0.19,0.81-0.5,1.07-0.9c0.55-0.29,0.96-0.75,1.18-1.33
				c0.21-0.04,0.41-0.1,0.62-0.19c0.41-0.18,0.75-0.46,1-0.82c0.24-0.16,0.44-0.36,0.61-0.59c0.01-0.01,0.01-0.01,0.02-0.02
				c0.27-0.04,0.54-0.13,0.8-0.26c0.49-0.24,0.87-0.63,1.12-1.1c0.65-0.28,1.14-0.82,1.36-1.49c0.04-0.12,0.07-0.24,0.08-0.36
				c0.25-0.04,0.49-0.12,0.73-0.24c0.38-0.19,0.71-0.47,0.95-0.81c0.59-0.31,1.03-0.82,1.23-1.45c0.04-0.13,0.07-0.28,0.09-0.42
				c0.12-0.15,0.22-0.31,0.3-0.48c0.01-0.01,0.02-0.03,0.03-0.04c0.25-0.04,0.49-0.1,0.72-0.21c0.57-0.26,1.01-0.71,1.25-1.28
				c0.37-0.29,0.65-0.68,0.81-1.13c0.6-0.31,1.05-0.83,1.26-1.47c0.03-0.06,0.05-0.13,0.07-0.2c0.03-0.09,0.05-0.18,0.07-0.27
				c0.31-0.28,0.55-0.64,0.68-1.05c0.02-0.06,0.04-0.13,0.05-0.2c0.58-0.3,1.01-0.81,1.21-1.43c0.09-0.26,0.12-0.55,0.1-0.83
				c0.28-0.27,0.49-0.61,0.62-0.99c0.05-0.14,0.08-0.29,0.09-0.44c0.38-0.19,0.69-0.47,0.92-0.8c0.5-0.3,0.86-0.77,1.04-1.33
				c0.07-0.2,0.1-0.42,0.1-0.64c0.14-0.2,0.26-0.42,0.34-0.67c0.03-0.09,0.05-0.18,0.07-0.27c0.14-0.2,0.26-0.42,0.33-0.66
				c0.03-0.08,0.05-0.17,0.06-0.25c0.07-0.13,0.13-0.27,0.18-0.41c0.1-0.32,0.13-0.67,0.08-1.01c0.15-0.49,0.11-1.05-0.09-1.52
				c0-0.03,0-0.05,0.01-0.08c0.06-0.12,0.11-0.23,0.15-0.36c0.1-0.31,0.13-0.64,0.08-0.97c0.19-0.23,0.34-0.5,0.43-0.8
				c0.19-0.58,0.11-1.26-0.19-1.78c-0.03-0.06-0.07-0.11-0.1-0.16c0.13-0.18,0.24-0.38,0.31-0.59c0.08-0.14,0.14-0.29,0.19-0.44
				c0.12-0.38,0.13-0.8,0.04-1.2C887.76,1452.7,887.7,1452.48,887.61,1452.27z M790.91,1464.75c-0.25,0.21-0.46,0.46-0.61,0.75
				c-0.08,0.04-0.15,0.1-0.22,0.15c-0.03-0.07-0.06-0.15-0.11-0.22c-0.31-0.52-0.74-0.85-1.34-1.1c-0.04-0.14-0.09-0.27-0.15-0.4
				c-0.04-0.12-0.09-0.24-0.15-0.35c-0.02-0.35-0.12-0.69-0.3-1c-0.21-0.36-0.48-0.63-0.83-0.85c-0.04-0.27-0.14-0.53-0.28-0.78
				c-0.22-0.38-0.51-0.66-0.88-0.88c-0.02-0.04-0.04-0.08-0.07-0.12c-0.1-0.18-0.22-0.34-0.35-0.47c-0.03-0.33-0.13-0.66-0.3-0.95
				c-0.11-0.19-0.23-0.35-0.37-0.48c0.1-0.52,0.02-1.08-0.25-1.55c-0.15-0.26-0.32-0.46-0.53-0.64c-0.02-0.33-0.11-0.65-0.27-0.94
				c0.04-0.45-0.05-0.92-0.27-1.31c-0.1-0.17-0.2-0.32-0.33-0.45c-0.03-0.31-0.13-0.62-0.28-0.89c-0.11-0.19-0.23-0.35-0.37-0.49
				c0.14-0.55,0.06-1.17-0.22-1.66c-0.08-0.13-0.16-0.25-0.25-0.36c0.02-0.05,0.04-0.1,0.05-0.15c0.18-0.57,0.12-1.24-0.18-1.76
				c-0.13-0.23-0.28-0.43-0.47-0.59c0.14-0.55,0.06-1.17-0.22-1.65c-0.02-0.04-0.04-0.08-0.07-0.11c0.19-0.23,0.34-0.5,0.43-0.79
				c0.17-0.51,0.13-1.1-0.09-1.59c0.1-0.41,0.07-0.85-0.06-1.24c0.03-0.07,0.06-0.15,0.08-0.22c0.19-0.58,0.12-1.25-0.19-1.78
				c-0.02-0.04-0.05-0.09-0.08-0.13c0.47-0.31,0.81-0.76,0.99-1.3c0.09-0.28,0.12-0.58,0.09-0.88c0.18-0.23,0.32-0.49,0.41-0.77
				c0.06-0.17,0.09-0.35,0.1-0.53c0.05-0.3,0.04-0.62-0.03-0.92c0.23-0.25,0.4-0.55,0.51-0.88c0.09-0.26,0.12-0.55,0.1-0.83
				c0.12-0.15,0.22-0.31,0.3-0.48c0.35-0.26,0.63-0.6,0.8-1c0.24-0.26,0.43-0.57,0.54-0.92c0.11-0.33,0.13-0.7,0.07-1.05
				c0.37-0.29,0.65-0.69,0.8-1.16c0.02-0.06,0.04-0.13,0.05-0.2c0.09-0.06,0.17-0.12,0.25-0.19c0.54-0.29,0.95-0.78,1.14-1.37
				c0.08-0.26,0.12-0.54,0.1-0.82c0.02-0.03,0.04-0.06,0.06-0.09c0.15-0.03,0.31-0.08,0.46-0.15c0.33-0.14,0.62-0.36,0.86-0.62
				c0.38-0.3,0.67-0.7,0.82-1.17c0-0.01,0.01-0.02,0.01-0.03c0.32-0.23,0.58-0.53,0.76-0.89c0.29-0.02,0.57-0.08,0.85-0.2
				c0.66-0.28,1.16-0.83,1.38-1.51c0.03-0.09,0.05-0.18,0.07-0.27c0.05-0.11,0.1-0.22,0.14-0.33c0.02-0.06,0.04-0.13,0.05-0.19
				c0.07-0.02,0.13-0.05,0.2-0.08c0.45-0.21,0.82-0.55,1.07-0.96c0.19-0.2,0.34-0.43,0.45-0.68c0.09-0.07,0.18-0.14,0.27-0.22
				c0.31-0.19,0.58-0.45,0.77-0.76c0.21-0.05,0.42-0.12,0.62-0.22c0.34-0.17,0.64-0.41,0.86-0.7c0.11-0.07,0.22-0.16,0.32-0.25
				c0.34,0.01,0.67-0.04,1.01-0.17c0.48-0.19,0.88-0.52,1.16-0.94c0.14-0.03,0.27-0.08,0.41-0.14c0.53-0.23,0.97-0.64,1.22-1.16
				c0.11-0.03,0.22-0.08,0.33-0.13c0.08-0.04,0.15-0.08,0.23-0.12c0.09-0.03,0.18-0.06,0.27-0.1c0.29-0.12,0.56-0.3,0.78-0.52
				c0.05-0.02,0.11-0.04,0.16-0.07c0.03-0.02,0.06-0.03,0.1-0.05c0.29-0.02,0.58-0.09,0.86-0.21c0.54-0.24,0.98-0.66,1.24-1.19
				c0.44,0.05,0.88,0.01,1.31-0.17c0.33-0.13,0.62-0.33,0.85-0.57c0.11-0.03,0.23-0.07,0.34-0.12c0.52-0.22,0.94-0.6,1.21-1.09
				c0.16,0.01,0.31,0.02,0.46,0.01c0.01,0.15,0.02,0.3,0.05,0.45c-0.05,0.29-0.04,0.6,0.03,0.89c0.03,0.3,0.12,0.6,0.27,0.87
				c0.07,0.12,0.15,0.24,0.23,0.34c-0.1,0.17-0.19,0.35-0.25,0.54c-0.1,0.32-0.13,0.67-0.08,1c-0.13,0.43-0.11,0.92,0.03,1.35
				c0,0.01,0,0.02-0.01,0.03c-0.01,0.02-0.02,0.05-0.02,0.07c-0.15,0.47-0.13,1.01,0.05,1.48c-0.03,0.31,0,0.63,0.09,0.93
				c-0.11,0.18-0.21,0.39-0.29,0.63c-0.17,0.53-0.13,1.15,0.12,1.65c-0.07,0.13-0.14,0.28-0.19,0.43c-0.18,0.55-0.12,1.2,0.15,1.71
				c0.02,0.13,0.05,0.25,0.09,0.38c-0.17,0.22-0.3,0.46-0.38,0.73c-0.15,0.48-0.13,1.01,0.05,1.48c-0.03,0.15-0.05,0.31-0.05,0.47
				c-0.11,0.17-0.2,0.36-0.27,0.56c-0.16,0.49-0.13,1.06,0.07,1.54c-0.02,0.04-0.03,0.08-0.05,0.12c-0.2,0.23-0.35,0.5-0.44,0.8
				c-0.12,0.36-0.13,0.75-0.06,1.12c-0.02,0.15-0.03,0.3-0.03,0.45c-0.27,0.27-0.48,0.6-0.6,0.96c-0.17,0.51-0.13,1.1,0.09,1.59
				c-0.08,0.33-0.07,0.69,0.01,1.02c-0.01,0.02-0.02,0.05-0.02,0.07c-0.09,0.28-0.12,0.58-0.09,0.87c-0.23,0.24-0.43,0.56-0.57,0.98
				c-0.13,0.41-0.14,0.87-0.02,1.29c-0.09,0.16-0.17,0.35-0.24,0.55c-0.02,0.07-0.04,0.13-0.05,0.2c-0.19,0.21-0.34,0.45-0.44,0.72
				c-0.41,0.3-0.71,0.72-0.87,1.21c-0.11,0.33-0.13,0.69-0.07,1.04c-0.23,0.25-0.41,0.55-0.51,0.88c-0.11,0.35-0.13,0.72-0.06,1.08
				c-0.13,0.14-0.24,0.29-0.34,0.46c-0.29,0.27-0.51,0.62-0.64,1.01c-0.08,0.23-0.11,0.49-0.1,0.73c-0.02,0.06-0.04,0.11-0.06,0.17
				c-0.07,0.22-0.11,0.46-0.1,0.69c-0.04,0.05-0.08,0.1-0.12,0.15c-0.49,0.28-0.86,0.72-1.05,1.26c-0.25,0.25-0.46,0.59-0.6,1.03
				c-0.13,0.41-0.14,0.87-0.02,1.28c-0.07,0.13-0.13,0.27-0.19,0.43c-0.07,0.07-0.13,0.15-0.19,0.24c-0.45,0.3-0.79,0.74-0.96,1.27
				c-0.04,0.13-0.07,0.27-0.09,0.4c-0.55,0.2-1.03,0.6-1.31,1.31c-0.33,0.26-0.6,0.65-0.78,1.19c-0.09,0.28-0.12,0.58-0.09,0.87
				c-0.07,0.11-0.14,0.23-0.19,0.35c-0.59,0.29-1.03,0.8-1.24,1.42c-0.07,0.21-0.1,0.43-0.1,0.65c-0.26,0.2-0.47,0.44-0.63,0.73
				c-0.09,0.03-0.17,0.07-0.26,0.11c-0.47,0.24-0.85,0.61-1.08,1.08c-0.34,0.29-0.6,0.67-0.74,1.11c-0.03,0.09-0.05,0.18-0.07,0.27
				c-0.59,0.29-1.03,0.79-1.23,1.42c-0.01,0.03-0.02,0.06-0.03,0.09c-0.39,0.19-0.73,0.5-0.97,0.97c-0.33,0.2-0.61,0.48-0.81,0.81
				C791.14,1464.47,791.02,1464.6,790.91,1464.75z M834.53,1489.93c-0.09,0.04-0.18,0.09-0.27,0.14c-0.93-0.26-1.77-0.31-2.53,0
				c-1.06-0.34-2.01-0.46-2.85-0.2c-1.86-0.82-3.22-1.13-4.44-0.63c-0.23,0.09-0.44,0.21-0.63,0.35c-4.23-2.29-7.45-3.96-9.94-4.54
				c-0.47-0.68-1.21-1.09-2.31-1.39c-0.55-0.68-1.41-1.05-2.74-1.35c-0.03-0.07-0.07-0.15-0.11-0.22c-0.06-0.2-0.14-0.4-0.26-0.58
				c-0.48-0.8-1.31-1.21-2.54-1.53c-0.04-0.08-0.08-0.17-0.13-0.25c-0.44-0.72-1.13-1.13-2.25-1.46c-0.04-0.08-0.08-0.16-0.13-0.24
				c-0.22-0.37-0.51-0.65-0.87-0.87c-0.32-0.49-0.79-0.82-1.42-1.08c-0.33-0.31-0.75-0.53-1.26-0.72c-0.04-0.1-0.09-0.19-0.15-0.28
				c-0.31-0.5-0.75-0.84-1.32-1.09c-0.05-0.16-0.12-0.32-0.21-0.47c-0.39-0.65-0.98-1.02-1.85-1.3c0.12-0.14,0.23-0.29,0.31-0.46
				c0.35-0.26,0.62-0.61,0.79-1.01c0.27-0.26,0.48-0.59,0.61-0.96c0.55-0.25,0.99-0.69,1.23-1.24c0.25-0.26,0.45-0.58,0.56-0.94
				c0.05-0.16,0.08-0.33,0.1-0.5c0.27-0.01,0.54-0.07,0.81-0.17c0.66-0.26,1.17-0.79,1.4-1.47c0.19-0.22,0.34-0.47,0.44-0.74
				c0.27-0.26,0.49-0.6,0.63-1.06c0.02-0.05,0.03-0.11,0.04-0.16c0.14-0.2,0.26-0.43,0.33-0.67c0.07-0.22,0.1-0.44,0.1-0.67
				c0.13-0.17,0.24-0.36,0.32-0.56c0.19-0.04,0.37-0.09,0.56-0.17c0.63-0.28,1.12-0.82,1.34-1.48c0.02-0.07,0.04-0.13,0.05-0.2
				c0.31-0.28,0.54-0.63,0.67-1.04c0.14-0.43,0.14-0.91,0-1.34c0.35-0.26,0.64-0.64,0.83-1.18c0.1-0.09,0.19-0.19,0.27-0.3
				c0.68-0.19,1.27-0.66,1.57-1.59c0.07-0.21,0.1-0.42,0.1-0.64c0.1-0.11,0.19-0.24,0.28-0.38c0.53-0.24,0.97-0.69,1.22-1.46
				c0.15-0.46,0.13-0.98-0.03-1.44c0.14-0.19,0.25-0.41,0.32-0.63c0.1-0.1,0.2-0.21,0.28-0.33c0.51-0.24,0.93-0.68,1.17-1.42
				c0.12-0.36,0.13-0.74,0.06-1.11c0.12-0.18,0.21-0.37,0.28-0.58c0.01-0.04,0.02-0.07,0.03-0.11c0.02-0.03,0.05-0.07,0.07-0.1
				c0.16-0.14,0.3-0.3,0.42-0.48c0.28-0.27,0.49-0.61,0.62-0.98c0.13-0.4,0.14-0.84,0.03-1.24c0.14-0.2,0.26-0.45,0.36-0.73
				c0.02-0.06,0.04-0.13,0.05-0.19c0.26-0.26,0.46-0.58,0.57-0.94c0.13-0.39,0.14-0.83,0.03-1.23c0.23-0.24,0.42-0.56,0.55-0.97
				c0.19-0.57,0.12-1.23-0.17-1.75c-0.01-0.02-0.02-0.04-0.03-0.06c0.22-0.23,0.4-0.54,0.52-0.93c0.13-0.4,0.14-0.84,0.03-1.24
				c0.37-0.29,0.65-0.69,0.8-1.14c0.08-0.26,0.12-0.53,0.1-0.8c0.03-0.07,0.06-0.15,0.09-0.23c0.15-0.47,0.13-0.99-0.04-1.45
				c0.01-0.05,0.01-0.1,0.01-0.15c0.02-0.05,0.04-0.1,0.05-0.15c0.08-0.24,0.11-0.5,0.1-0.76c0.17-0.22,0.31-0.49,0.42-0.81
				c0.05-0.17,0.09-0.34,0.1-0.52c0.03-0.05,0.06-0.11,0.09-0.17c0.1-0.16,0.19-0.34,0.25-0.53c0.08-0.26,0.12-0.53,0.1-0.81
				c0.16-0.55,0.09-1.18-0.19-1.68c-0.02-0.04-0.04-0.07-0.06-0.11c0.11-0.17,0.19-0.35,0.26-0.54c0.14-0.44,0.14-0.93-0.01-1.37
				c0.04-0.32,0.01-0.64-0.09-0.95c0.02-0.05,0.04-0.1,0.05-0.15c0.09-0.28,0.12-0.59,0.09-0.89c0.03-0.14,0.04-0.29,0.04-0.44
				c0.15-0.47,0.12-1-0.06-1.47c0.11-0.17,0.19-0.35,0.24-0.52c0.07-0.22,0.1-0.44,0.1-0.67c0.04-0.09,0.08-0.18,0.11-0.27
				c0.18-0.57,0.12-1.22-0.17-1.74c-0.04-0.07-0.09-0.15-0.13-0.21c-0.02-0.05-0.04-0.11-0.07-0.16c0.07-0.13,0.14-0.28,0.18-0.43
				c0.13-0.4,0.14-0.84,0.03-1.24c0.12-0.44,0.1-0.92-0.06-1.35c0.07-0.35,0.05-0.71-0.04-1.06c-0.01-0.36-0.11-0.72-0.28-1.03
				c-0.12-0.22-0.26-0.4-0.43-0.55c-0.03-0.08-0.06-0.15-0.1-0.23c0.02-0.37-0.05-0.75-0.21-1.08c0-0.02,0.01-0.04,0.01-0.06
				c0.08-0.14,0.15-0.29,0.2-0.45c0.15-0.47,0.12-1-0.05-1.46c0.75,0.14,1.44,0.12,2.08-0.17c0.32-0.14,0.6-0.34,0.83-0.59
				c0.1-0.03,0.19-0.06,0.28-0.11c0.43,0.03,0.84-0.01,1.25-0.17c0.36,0.07,0.7,0.09,1.03,0.07c0.71,0.19,1.37,0.21,2.02-0.04
				c0.11-0.04,0.22-0.1,0.33-0.16c0.93,0.21,1.77,0.21,2.52-0.13c0.1-0.04,0.19-0.09,0.28-0.15c0.54,0.14,1.05,0.2,1.54,0.15
				c0.36,0.02,0.72-0.02,1.07-0.14c0.94,0.36,1.8,0.57,2.58,0.54c0.92,0.29,1.74,0.34,2.51,0.04c0.12-0.05,0.22-0.11,0.33-0.17
				c1.93,0.39,4.3,0.7,7.16,1.04c2.77,1.59,5.04,2.84,6.93,3.56c0.03,0.05,0.05,0.11,0.08,0.16c0.45,0.72,1.17,1.16,2.24,1.48
				c0.45,0.46,1.07,0.77,1.92,1.02c0.03,0.07,0.07,0.14,0.11,0.2c0.07,0.11,0.15,0.22,0.23,0.32c-0.22,0.06-0.43,0.14-0.62,0.26
				c-0.65,0.27-1.15,0.81-1.37,1.49c-0.02,0.07-0.04,0.15-0.06,0.23c-0.5,0.21-0.92,0.58-1.19,1.22c-0.54,0.3-0.96,0.8-1.15,1.39
				c-0.05,0.16-0.08,0.32-0.1,0.49c-0.43,0.13-0.81,0.37-1.11,0.76c-0.03,0.01-0.06,0.03-0.09,0.04c-0.61,0.3-1.06,0.81-1.27,1.46
				c0,0,0,0.01,0,0.01c-0.16,0.21-0.29,0.46-0.38,0.72c-0.01,0.03-0.02,0.07-0.03,0.1c-0.64,0.27-1.13,0.8-1.35,1.47
				c-0.02,0.07-0.04,0.15-0.06,0.23c-0.05,0.02-0.1,0.04-0.15,0.06c-0.63,0.28-1.11,0.81-1.32,1.47c-0.13,0.41-0.14,0.86-0.02,1.27
				c-0.1,0.1-0.19,0.22-0.27,0.35c-0.08,0.03-0.16,0.06-0.24,0.1c-0.16,0.08-0.31,0.17-0.45,0.28c-0.02,0.01-0.05,0.02-0.07,0.03
				c-0.64,0.28-1.13,0.81-1.35,1.48c-0.04,0.13-0.07,0.26-0.09,0.4c-0.16,0.21-0.29,0.46-0.38,0.72c-0.03,0.11-0.06,0.22-0.08,0.33
				c-0.37,0.26-0.66,0.62-0.83,1.04c-0.3,0.28-0.53,0.63-0.66,1.03c-0.01,0.04-0.03,0.08-0.04,0.13c-0.34,0.29-0.59,0.66-0.73,1.1
				c-0.02,0.07-0.04,0.13-0.05,0.2c-0.11,0.17-0.19,0.35-0.26,0.55c-0.01,0.02-0.02,0.05-0.02,0.07c-0.38,0.26-0.67,0.62-0.85,1.05
				c-0.25,0.23-0.46,0.53-0.62,0.93c-0.19,0.23-0.34,0.5-0.43,0.79c-0.07,0.21-0.1,0.44-0.1,0.66c-0.04,0.09-0.08,0.18-0.11,0.28
				c-0.03,0.08-0.05,0.16-0.06,0.24c-0.3,0.28-0.52,0.63-0.65,1.03c-0.01,0.03-0.02,0.05-0.02,0.08c-0.34,0.29-0.6,0.67-0.74,1.1
				c-0.06,0.18-0.09,0.37-0.1,0.57c-0.1,0.17-0.18,0.36-0.25,0.57c-0.09,0.28-0.12,0.58-0.09,0.87c-0.2,0.23-0.37,0.53-0.49,0.9
				c-0.03,0.09-0.05,0.18-0.07,0.28c-0.03,0.07-0.06,0.14-0.08,0.22c-0.02,0.07-0.04,0.14-0.06,0.21c-0.11,0.15-0.21,0.32-0.29,0.51
				c-0.23,0.25-0.41,0.55-0.52,0.89c-0.12,0.37-0.13,0.77-0.05,1.15c-0.02,0.06-0.05,0.12-0.07,0.18c-0.09,0.26-0.12,0.54-0.1,0.82
				c-0.04,0.09-0.08,0.19-0.11,0.3c-0.02,0.07-0.04,0.14-0.06,0.22c-0.2,0.23-0.36,0.52-0.48,0.89c-0.08,0.25-0.11,0.51-0.1,0.78
				c-0.18,0.22-0.32,0.48-0.41,0.76c-0.13,0.41-0.14,0.86-0.02,1.28c-0.21,0.24-0.38,0.52-0.48,0.84c-0.09,0.29-0.12,0.6-0.09,0.9
				c-0.02,0.05-0.03,0.09-0.05,0.14c-0.1,0.29-0.12,0.61-0.09,0.92c-0.02,0.04-0.04,0.09-0.06,0.13c-0.24,0.25-0.42,0.56-0.53,0.9
				c0,0,0,0,0,0.01c-0.12,0.18-0.22,0.38-0.29,0.6c-0.07,0.23-0.11,0.47-0.1,0.71c-0.01,0.07-0.02,0.13-0.02,0.2
				c-0.13,0.19-0.23,0.39-0.3,0.61c-0.18,0.57-0.12,1.22,0.17,1.74c0.06,0.1,0.12,0.2,0.18,0.29c0.01,0.04,0.02,0.09,0.04,0.13
				c-0.13,0.19-0.23,0.39-0.3,0.61c-0.14,0.42-0.13,0.89-0.01,1.32c-0.17,0.22-0.32,0.49-0.43,0.83c-0.19,0.57-0.12,1.24,0.18,1.76
				c0.03,0.05,0.05,0.09,0.08,0.13c-0.02,0.17-0.01,0.33,0.01,0.5c-0.25,0.26-0.43,0.58-0.55,0.93c-0.19,0.57-0.12,1.24,0.18,1.76v0
				c-0.06,0.47,0.03,0.96,0.26,1.37c0.05,0.09,0.1,0.17,0.15,0.24c-0.06,0.12-0.11,0.24-0.16,0.37c-0.18,0.57-0.12,1.22,0.17,1.75
				c0.04,0.08,0.09,0.16,0.14,0.23c-0.01,0.02-0.01,0.04-0.02,0.06c-0.19,0.57-0.12,1.25,0.18,1.77c0.06,0.11,0.13,0.21,0.21,0.31
				c0.02,0.21,0.07,0.41,0.14,0.61c-0.1,0.38-0.1,0.79,0,1.17c0.04,0.29,0.13,0.57,0.27,0.81c0.12,0.21,0.26,0.39,0.42,0.54
				c-0.03,0.08-0.07,0.16-0.09,0.24c-0.19,0.57-0.12,1.23,0.18,1.76c0.01,0.02,0.02,0.04,0.03,0.06c0.03,0.31,0.13,0.6,0.28,0.86
				c0.03,0.06,0.07,0.12,0.11,0.17c-0.03,0.43,0.07,0.87,0.27,1.25c0.07,0.12,0.14,0.23,0.21,0.32c0.02,0.34,0.12,0.68,0.28,0.97
				c0.12,0.22,0.27,0.41,0.44,0.56c-0.01,0.41,0.09,0.83,0.28,1.18c0.06,0.11,0.13,0.21,0.2,0.3c0.05,0.23,0.13,0.45,0.24,0.65
				c0.11,0.2,0.24,0.36,0.39,0.51c0.05,0.21,0.12,0.41,0.23,0.59c0.29,0.51,0.68,0.82,1.25,1.07c-0.12,0.5-0.06,1.03,0.17,1.5
				C835.43,1489.66,834.97,1489.73,834.53,1489.93z M878.49,1455.27c-0.13,0.39-0.13,0.83-0.03,1.23c-0.1,0.16-0.18,0.33-0.23,0.51
				c-0.09,0.29-0.12,0.59-0.09,0.9c-0.01,0.03-0.02,0.07-0.03,0.1c-0.05,0.15-0.08,0.31-0.09,0.47c-0.06,0.11-0.12,0.23-0.16,0.36
				c-0.03,0.06-0.05,0.13-0.07,0.19c-0.09,0.27-0.12,0.55-0.1,0.84c-0.4,0.29-0.7,0.71-0.86,1.19c-0.11,0.35-0.13,0.73-0.06,1.09
				c-0.56,0.31-0.97,0.81-1.16,1.41c-0.13,0.41-0.14,0.88-0.01,1.3c-0.03,0.05-0.07,0.11-0.1,0.17c-0.46,0.27-0.82,0.69-1.02,1.19
				c-0.02,0.02-0.04,0.04-0.06,0.06c-0.12,0.04-0.25,0.09-0.37,0.15c-0.59,0.3-1.03,0.81-1.24,1.44c-0.06,0.19-0.1,0.4-0.1,0.6
				c-0.13,0.16-0.24,0.34-0.33,0.53c-0.41,0.24-0.74,0.59-0.96,1.01c-0.15,0.04-0.29,0.1-0.43,0.17c-0.55,0.27-0.98,0.73-1.21,1.28
				c-0.21,0.25-0.37,0.53-0.48,0.85c-0.03,0.1-0.06,0.2-0.07,0.31c-0.25,0.04-0.49,0.11-0.73,0.23c-0.43,0.21-0.78,0.53-1.02,0.92
				c-0.42,0.26-0.74,0.64-0.95,1.08c-0.33,0.17-0.6,0.42-0.82,0.72c-0.65,0.22-1.18,0.7-1.47,1.59c0,0,0,0,0,0.01
				c-0.29,0.22-0.52,0.49-0.69,0.81c-0.08,0.02-0.15,0.05-0.23,0.09c-0.34,0.14-0.64,0.36-0.88,0.64c-0.28,0.15-0.53,0.34-0.73,0.57
				c-0.15,0.04-0.3,0.09-0.45,0.15c-0.54,0.24-0.96,0.65-1.2,1.16c-0.02,0.01-0.03,0.03-0.05,0.04c-0.27,0.04-0.54,0.12-0.8,0.25
				c-0.57,0.28-1.01,0.74-1.24,1.33c-0.04,0.05-0.07,0.1-0.1,0.16c-0.23,0.05-0.45,0.13-0.68,0.24c-0.25,0.13-0.47,0.29-0.66,0.48
				c-0.04,0.02-0.09,0.04-0.13,0.06c-0.11,0.05-0.21,0.1-0.31,0.16c-0.15,0.03-0.29,0.08-0.44,0.14c-0.25,0.03-0.49,0.09-0.73,0.19
				c-0.57,0.24-1.02,0.69-1.27,1.24c-0.22,0.04-0.44,0.11-0.65,0.21c-0.15,0.07-0.28,0.15-0.41,0.24c-0.4,0.01-0.79,0.09-1.17,0.27
				c-0.09,0.04-0.18,0.09-0.26,0.14c-0.35-0.01-0.7,0.05-1.05,0.19c-0.53,0.22-0.96,0.61-1.23,1.11c-0.07,0.07-0.14,0.14-0.2,0.22
				c-0.14,0.04-0.28,0.1-0.41,0.16c-0.03,0.01-0.05,0.03-0.07,0.04c-0.46-0.03-0.91,0.04-1.34,0.23c-0.25,0.11-0.47,0.26-0.66,0.43
				c-0.2,0.01-0.39,0.04-0.57,0.09c-0.37-0.04-0.73-0.01-1.09,0.1c-0.04-0.03-0.07-0.06-0.1-0.09c-0.05-0.2-0.13-0.39-0.23-0.57
				c-0.16-0.28-0.36-0.5-0.59-0.68c-0.02-0.35-0.12-0.7-0.29-1c-0.03-0.06-0.07-0.11-0.1-0.16c-0.04-0.13-0.1-0.26-0.17-0.38
				c-0.16-0.28-0.35-0.51-0.6-0.69c-0.03-0.09-0.08-0.17-0.12-0.25c-0.16-0.28-0.35-0.5-0.59-0.69c0-0.31-0.06-0.62-0.19-0.9
				c0.05-0.46-0.04-0.95-0.26-1.35c-0.14-0.25-0.29-0.44-0.49-0.61c-0.05-0.07-0.1-0.13-0.16-0.19c0.12-0.53,0.04-1.12-0.22-1.59
				c-0.07-0.13-0.15-0.25-0.24-0.35c-0.03-0.08-0.07-0.16-0.12-0.24c-0.04-0.08-0.09-0.15-0.14-0.22c-0.02-0.18-0.06-0.36-0.13-0.53
				c0.13-0.53,0.05-1.12-0.22-1.6c-0.06-0.1-0.11-0.19-0.18-0.28c-0.05-0.22-0.12-0.43-0.23-0.62c0,0,0-0.01-0.01-0.01
				c-0.01-0.02-0.03-0.05-0.04-0.07c-0.13-0.22-0.27-0.41-0.44-0.56c0.04-0.08,0.07-0.16,0.1-0.25c0.11-0.33,0.13-0.69,0.07-1.03
				c0.01-0.02,0.01-0.04,0.02-0.06c0.19-0.57,0.12-1.22-0.17-1.75c-0.01-0.02-0.02-0.04-0.04-0.06c0.1-0.48,0.03-0.99-0.19-1.43
				c-0.02-0.32-0.1-0.65-0.25-0.93c0.09-0.16,0.17-0.32,0.22-0.5c0.17-0.51,0.13-1.09-0.09-1.58c0.1-0.32,0.12-0.68,0.06-1.02
				c0.11-0.47,0.06-0.99-0.14-1.43c0.13-0.2,0.24-0.43,0.33-0.69c0.18-0.55,0.12-1.17-0.14-1.69c0.24-0.26,0.43-0.57,0.54-0.92
				c0.09-0.29,0.12-0.59,0.09-0.9c0.05-0.1,0.09-0.2,0.12-0.31c0.1-0.32,0.13-0.67,0.08-1c0-0.01,0.01-0.02,0.01-0.03
				c0.15-0.46,0.13-0.97-0.03-1.42c0.13-0.19,0.24-0.42,0.32-0.68c0.09-0.26,0.12-0.55,0.1-0.83c0.03-0.07,0.05-0.14,0.08-0.21
				c0.06-0.17,0.09-0.35,0.1-0.54c0.07-0.13,0.13-0.27,0.18-0.41c0.12-0.36,0.13-0.75,0.06-1.13c0.09-0.15,0.16-0.31,0.22-0.48
				c0-0.01,0-0.01,0.01-0.02c0.25-0.25,0.46-0.59,0.61-1.03c0.07-0.2,0.1-0.42,0.1-0.64c0.09-0.16,0.17-0.33,0.23-0.53
				c0.1-0.32,0.13-0.66,0.08-1c0.02-0.05,0.03-0.1,0.05-0.15c0.02-0.05,0.03-0.1,0.04-0.15c0.19-0.23,0.35-0.52,0.46-0.87
				c0.14-0.43,0.14-0.92,0-1.36c0-0.02-0.01-0.04-0.01-0.05c0.1-0.17,0.19-0.36,0.26-0.58c0.02-0.06,0.04-0.12,0.05-0.18
				c0.05-0.1,0.09-0.2,0.12-0.3c0.03-0.09,0.05-0.18,0.07-0.27c0.17-0.22,0.31-0.48,0.42-0.81c0.01-0.03,0.02-0.07,0.03-0.1
				c0.35-0.16,0.66-0.4,0.91-0.76c0.25-0.26,0.44-0.57,0.55-0.92c0,0,0-0.01,0-0.01c0.22-0.24,0.4-0.56,0.53-0.96
				c0.05-0.15,0.08-0.3,0.09-0.45c0.06-0.11,0.1-0.23,0.14-0.35c0.03-0.08,0.05-0.17,0.06-0.25c0.35-0.29,0.61-0.68,0.75-1.12
				c0.13-0.41,0.14-0.86,0.02-1.27c0.29-0.2,0.52-0.46,0.7-0.75c0.03-0.01,0.07-0.03,0.1-0.04c0.62-0.29,1.08-0.81,1.29-1.46
				c0.03-0.08,0.05-0.17,0.07-0.25c0.41-0.3,0.72-0.72,0.88-1.21c0.06-0.2,0.1-0.4,0.1-0.61c0.23-0.11,0.44-0.26,0.62-0.45
				c0.37-0.29,0.65-0.69,0.8-1.15c0.05-0.15,0.08-0.3,0.09-0.45c0.34-0.28,0.6-0.66,0.75-1.1c0.03-0.09,0.05-0.17,0.07-0.26
				c0.02-0.03,0.05-0.06,0.07-0.09c0.64-0.21,1.18-0.68,1.47-1.56c0.04-0.12,0.07-0.24,0.08-0.37c0.16-0.2,0.29-0.43,0.38-0.68
				c0.45-0.22,0.81-0.56,1.05-0.98c0.29-0.26,0.51-0.58,0.64-0.95c0.62-0.28,1.1-0.81,1.31-1.47c0.07-0.22,0.11-0.46,0.1-0.7
				c0.1-0.11,0.19-0.22,0.27-0.34c0.08-0.02,0.15-0.05,0.23-0.08c0.67-0.26,1.18-0.8,1.4-1.49c0-0.01,0.01-0.02,0.01-0.03
				c0.1-0.03,0.2-0.06,0.3-0.11c0.58-0.25,1.04-0.72,1.29-1.3c0.01,0,0.02-0.01,0.03-0.01c0.65-0.25,1.15-0.77,1.38-1.43
				c0.02-0.02,0.04-0.05,0.06-0.07c0.01-0.01,0.02-0.02,0.03-0.03c0.25,0.14,0.52,0.26,0.84,0.37c0.05,0.04,0.1,0.08,0.15,0.12
				c0.05,0.17,0.12,0.33,0.22,0.48c0.36,0.61,0.91,0.98,1.71,1.25c0.04,0.09,0.08,0.17,0.13,0.25c0.11,0.19,0.24,0.35,0.39,0.49
				c0.04,0.1,0.09,0.19,0.14,0.28c0.2,0.35,0.46,0.61,0.8,0.83c0.02,0.04,0.04,0.07,0.06,0.11c0.22,0.36,0.5,0.64,0.86,0.86
				c0.22,0.36,0.5,0.63,0.86,0.85c0.03,0.06,0.06,0.12,0.1,0.18c0.25,0.43,0.59,0.74,1.05,0.98c0.05,0.2,0.13,0.4,0.24,0.58
				c0.16,0.28,0.36,0.51,0.61,0.7c0.2,0.26,0.43,0.46,0.72,0.63c-0.01,0.41,0.1,0.82,0.31,1.18c0.17,0.28,0.37,0.51,0.62,0.7
				c0.26,0.39,0.59,0.66,1.03,0.87c0.05,0.16,0.12,0.32,0.21,0.48c0.19,0.33,0.43,0.58,0.73,0.78c0.03,0.32,0.13,0.64,0.29,0.92
				c0.15,0.26,0.33,0.47,0.55,0.65c0.04,0.3,0.13,0.59,0.29,0.85c0.08,0.15,0.18,0.28,0.28,0.39c0.02,0.34,0.13,0.67,0.3,0.97
				c0.22,0.37,0.49,0.64,0.84,0.85c0.03,0.33,0.13,0.65,0.3,0.94c0.04,0.07,0.08,0.14,0.13,0.2c-0.06,0.48,0.04,0.98,0.27,1.39
				c0.12,0.21,0.25,0.38,0.41,0.53c0.03,0.06,0.06,0.12,0.09,0.18c0.16,0.28,0.36,0.51,0.6,0.69c-0.05,0.1-0.09,0.2-0.12,0.3
				c-0.19,0.57-0.12,1.24,0.18,1.76c0.12,0.22,0.26,0.4,0.43,0.55c0,0.05,0.01,0.09,0.02,0.14c0.02,0.34,0.12,0.68,0.3,0.98
				c0.05,0.09,0.1,0.17,0.16,0.24c0.01,0.11,0.04,0.23,0.07,0.34c-0.05,0.46,0.05,0.94,0.27,1.33c0.08,0.13,0.16,0.26,0.25,0.36
				c-0.1,0.16-0.18,0.33-0.24,0.52c-0.19,0.57-0.12,1.25,0.18,1.77c0,0.36,0.09,0.71,0.25,1.02c-0.01,0.08-0.02,0.16-0.03,0.24
				c-0.04,0.09-0.08,0.19-0.11,0.29c-0.04,0.12-0.07,0.24-0.08,0.37c-0.02,0.05-0.04,0.1-0.06,0.15c-0.19,0.57-0.12,1.25,0.18,1.77
				c0.09,0.16,0.19,0.3,0.31,0.43C879.04,1454.23,878.67,1454.7,878.49,1455.27z"/>
		</g>
	</g>
</g>
<g>
	<ellipse class="st0" cx="83.73" cy="91.01" rx="62.97" ry="15.55"/>
	<g>
		<g>
			<path class="st1" d="M90.26,29.49c-0.23,0.66-0.73,1.17-1.38,1.43c-0.01,0-0.02,0.01-0.03,0.01c-0.24,0.58-0.7,1.05-1.29,1.3
				c-0.1,0.04-0.2,0.08-0.3,0.11c0,0.01-0.01,0.02-0.01,0.03c-0.22,0.69-0.74,1.23-1.4,1.49c-0.08,0.03-0.15,0.06-0.23,0.08
				c-0.08,0.12-0.17,0.24-0.27,0.34c0,0.24-0.03,0.47-0.1,0.69c-0.21,0.66-0.69,1.19-1.31,1.47c-0.14,0.37-0.36,0.69-0.64,0.95
				c-0.24,0.42-0.6,0.76-1.05,0.98c-0.09,0.25-0.22,0.48-0.38,0.68c-0.02,0.13-0.04,0.25-0.08,0.37c-0.29,0.89-0.83,1.35-1.47,1.56
				c-0.02,0.03-0.05,0.06-0.07,0.09c-0.02,0.09-0.04,0.18-0.07,0.26c-0.14,0.44-0.4,0.81-0.75,1.1c-0.01,0.16-0.05,0.31-0.09,0.45
				c-0.15,0.46-0.43,0.86-0.8,1.15c-0.18,0.2-0.39,0.34-0.62,0.45c-0.01,0.21-0.04,0.42-0.1,0.61c-0.16,0.49-0.47,0.92-0.88,1.21
				c-0.02,0.09-0.04,0.17-0.07,0.25c-0.21,0.65-0.67,1.17-1.29,1.46c-0.03,0.02-0.07,0.03-0.1,0.04c-0.18,0.3-0.41,0.55-0.7,0.75
				c0.11,0.41,0.11,0.86-0.02,1.27c-0.14,0.44-0.4,0.83-0.75,1.12c-0.02,0.09-0.04,0.17-0.06,0.25c-0.04,0.12-0.09,0.24-0.14,0.35
				c-0.02,0.15-0.05,0.3-0.09,0.45c-0.13,0.4-0.31,0.72-0.53,0.96c0,0,0,0.01,0,0.01c-0.11,0.35-0.3,0.66-0.55,0.92
				c-0.25,0.36-0.56,0.6-0.91,0.76c-0.01,0.03-0.02,0.07-0.03,0.1c-0.11,0.33-0.25,0.59-0.42,0.81c-0.02,0.09-0.04,0.18-0.07,0.27
				c-0.03,0.11-0.08,0.21-0.12,0.3c-0.01,0.06-0.03,0.12-0.05,0.18c-0.07,0.22-0.16,0.41-0.26,0.58c0,0.02,0.01,0.04,0.01,0.05
				c0.14,0.44,0.14,0.92,0,1.36c-0.12,0.36-0.27,0.64-0.46,0.87c-0.01,0.05-0.03,0.1-0.04,0.15c-0.02,0.05-0.03,0.1-0.05,0.15
				c0.05,0.33,0.02,0.68-0.08,1c-0.06,0.2-0.14,0.37-0.23,0.53c0,0.22-0.04,0.43-0.1,0.64c-0.14,0.44-0.35,0.78-0.61,1.03
				c0,0.01,0,0.01-0.01,0.02c-0.06,0.17-0.13,0.33-0.22,0.48c0.08,0.37,0.06,0.77-0.06,1.13c-0.05,0.14-0.11,0.28-0.18,0.41
				c-0.01,0.18-0.04,0.36-0.1,0.54c-0.02,0.07-0.05,0.14-0.08,0.21c0.02,0.28-0.01,0.56-0.1,0.82c-0.09,0.26-0.19,0.49-0.32,0.68
				c0.16,0.45,0.17,0.97,0.03,1.42c0,0.01-0.01,0.02-0.01,0.03c0.05,0.34,0.03,0.68-0.08,1c-0.03,0.11-0.08,0.21-0.12,0.31
				c0.03,0.3,0,0.61-0.09,0.9c-0.11,0.35-0.3,0.66-0.54,0.92c0.26,0.51,0.32,1.14,0.14,1.69c-0.09,0.27-0.2,0.5-0.33,0.69
				c0.2,0.44,0.25,0.96,0.14,1.43c0.06,0.34,0.04,0.69-0.06,1.02c0.22,0.49,0.26,1.07,0.09,1.58c-0.06,0.18-0.13,0.34-0.22,0.5
				c0.15,0.29,0.24,0.61,0.25,0.93c0.22,0.43,0.28,0.95,0.19,1.43c0.01,0.02,0.02,0.04,0.04,0.06c0.29,0.52,0.36,1.18,0.17,1.75
				c-0.01,0.02-0.01,0.04-0.02,0.06c0.06,0.35,0.03,0.7-0.07,1.03c-0.03,0.09-0.06,0.17-0.1,0.25c0.17,0.16,0.31,0.34,0.44,0.56
				c0.01,0.02,0.03,0.05,0.04,0.07c0,0,0,0.01,0.01,0.01c0.11,0.19,0.19,0.4,0.23,0.62c0.06,0.09,0.12,0.18,0.18,0.28
				c0.27,0.48,0.35,1.07,0.22,1.6c0.06,0.17,0.1,0.35,0.13,0.53c0.05,0.07,0.1,0.14,0.14,0.22c0.04,0.08,0.08,0.16,0.12,0.24
				c0.09,0.11,0.17,0.22,0.24,0.35c0.26,0.47,0.34,1.06,0.22,1.59c0.06,0.06,0.11,0.12,0.16,0.19c0.19,0.17,0.35,0.37,0.49,0.61
				c0.23,0.4,0.32,0.89,0.26,1.35c0.12,0.28,0.19,0.59,0.19,0.9c0.24,0.19,0.43,0.41,0.59,0.69c0.05,0.08,0.09,0.16,0.12,0.25
				c0.24,0.19,0.44,0.41,0.6,0.69c0.07,0.12,0.12,0.25,0.17,0.38c0.04,0.05,0.07,0.11,0.1,0.16c0.17,0.3,0.27,0.65,0.29,1
				c0.24,0.18,0.43,0.4,0.59,0.68c0.11,0.18,0.18,0.37,0.23,0.57c0.04,0.03,0.07,0.06,0.1,0.09c0.36-0.11,0.72-0.14,1.09-0.1
				c0.19-0.05,0.38-0.08,0.57-0.09c0.19-0.18,0.41-0.32,0.66-0.43c0.43-0.2,0.88-0.26,1.34-0.23c0.02-0.01,0.05-0.03,0.07-0.04
				c0.13-0.07,0.27-0.12,0.41-0.16c0.06-0.08,0.13-0.15,0.2-0.22c0.27-0.5,0.7-0.89,1.23-1.11c0.35-0.14,0.7-0.2,1.05-0.19
				c0.08-0.05,0.17-0.1,0.26-0.14c0.38-0.18,0.77-0.26,1.17-0.27c0.13-0.09,0.26-0.17,0.41-0.24c0.21-0.1,0.43-0.17,0.65-0.21
				c0.25-0.56,0.7-1,1.27-1.24c0.24-0.1,0.49-0.17,0.73-0.19c0.15-0.06,0.29-0.11,0.44-0.14c0.1-0.06,0.2-0.12,0.31-0.16
				c0.04-0.02,0.09-0.04,0.13-0.06c0.19-0.19,0.41-0.36,0.66-0.48c0.22-0.11,0.45-0.19,0.68-0.24c0.03-0.05,0.07-0.11,0.1-0.16
				c0.23-0.58,0.67-1.05,1.24-1.33c0.26-0.13,0.53-0.2,0.8-0.25c0.01-0.01,0.03-0.03,0.05-0.04c0.25-0.52,0.67-0.93,1.2-1.16
				c0.15-0.07,0.3-0.12,0.45-0.15c0.2-0.23,0.45-0.43,0.73-0.57c0.24-0.27,0.54-0.49,0.88-0.64c0.08-0.03,0.15-0.06,0.23-0.09
				c0.17-0.32,0.4-0.59,0.69-0.81c0,0,0,0,0-0.01c0.29-0.89,0.83-1.37,1.47-1.59c0.21-0.3,0.49-0.54,0.82-0.72
				c0.2-0.45,0.53-0.82,0.95-1.08c0.24-0.4,0.59-0.71,1.02-0.92c0.24-0.12,0.48-0.19,0.73-0.23c0.02-0.1,0.04-0.21,0.07-0.31
				c0.1-0.32,0.27-0.61,0.48-0.85c0.23-0.56,0.66-1.01,1.21-1.28c0.14-0.07,0.28-0.13,0.43-0.17c0.22-0.42,0.55-0.77,0.96-1.01
				c0.09-0.19,0.2-0.37,0.33-0.53c0.01-0.21,0.04-0.41,0.1-0.6c0.2-0.63,0.64-1.14,1.24-1.44c0.12-0.06,0.25-0.11,0.37-0.15
				c0.02-0.02,0.04-0.04,0.06-0.06c0.2-0.5,0.56-0.92,1.02-1.19c0.03-0.06,0.06-0.11,0.1-0.17c-0.12-0.42-0.12-0.89,0.01-1.3
				c0.2-0.6,0.61-1.1,1.16-1.41c-0.07-0.36-0.05-0.74,0.06-1.09c0.16-0.48,0.46-0.9,0.86-1.19c-0.02-0.28,0.01-0.57,0.1-0.84
				c0.02-0.07,0.05-0.13,0.07-0.19c0.04-0.12,0.1-0.24,0.16-0.36c0.01-0.16,0.05-0.32,0.09-0.47c0.01-0.03,0.02-0.07,0.03-0.1
				c-0.03-0.3,0-0.61,0.09-0.9c0.06-0.18,0.14-0.35,0.23-0.51c-0.1-0.4-0.09-0.84,0.03-1.23c0.18-0.56,0.55-1.03,1.05-1.34
				c-0.11-0.13-0.21-0.27-0.31-0.43c-0.3-0.52-0.37-1.2-0.18-1.77c0.02-0.05,0.04-0.1,0.06-0.15c0.02-0.13,0.04-0.25,0.08-0.37
				c0.03-0.1,0.07-0.19,0.11-0.29c0-0.08,0.01-0.16,0.03-0.24c-0.16-0.31-0.24-0.67-0.25-1.02c-0.29-0.52-0.36-1.2-0.18-1.77
				c0.06-0.18,0.14-0.36,0.24-0.52c-0.09-0.11-0.17-0.23-0.25-0.36c-0.22-0.39-0.32-0.87-0.27-1.33c-0.03-0.11-0.05-0.23-0.07-0.34
				c-0.06-0.08-0.11-0.16-0.16-0.24c-0.17-0.3-0.27-0.64-0.3-0.98c-0.01-0.05-0.01-0.09-0.02-0.14c-0.17-0.16-0.3-0.34-0.43-0.55
				c-0.29-0.52-0.36-1.19-0.18-1.76c0.03-0.1,0.07-0.21,0.12-0.3c-0.24-0.18-0.44-0.41-0.6-0.69c-0.03-0.06-0.07-0.12-0.09-0.18
				c-0.16-0.15-0.29-0.33-0.41-0.53c-0.23-0.41-0.33-0.91-0.27-1.39c-0.05-0.06-0.09-0.13-0.13-0.2c-0.17-0.29-0.27-0.61-0.3-0.94
				c-0.35-0.21-0.63-0.48-0.84-0.85c-0.17-0.3-0.27-0.63-0.3-0.97c-0.1-0.12-0.2-0.25-0.28-0.39c-0.15-0.26-0.25-0.55-0.29-0.85
				c-0.22-0.18-0.4-0.39-0.55-0.65c-0.16-0.29-0.26-0.6-0.29-0.92c-0.3-0.21-0.54-0.46-0.73-0.78c-0.09-0.15-0.16-0.31-0.21-0.48
				c-0.43-0.21-0.77-0.48-1.03-0.87c-0.25-0.19-0.46-0.42-0.62-0.7c-0.21-0.36-0.31-0.77-0.31-1.18c-0.28-0.17-0.52-0.37-0.72-0.63
				c-0.24-0.19-0.44-0.42-0.61-0.7c-0.11-0.18-0.19-0.38-0.24-0.58c-0.46-0.24-0.8-0.54-1.05-0.98c-0.03-0.06-0.07-0.12-0.1-0.18
				c-0.36-0.22-0.64-0.49-0.86-0.85c-0.36-0.22-0.64-0.49-0.85-0.86c-0.02-0.04-0.04-0.07-0.06-0.11c-0.33-0.22-0.6-0.48-0.8-0.83
				c-0.05-0.09-0.1-0.18-0.14-0.28c-0.15-0.14-0.28-0.3-0.39-0.49c-0.05-0.08-0.09-0.16-0.13-0.25c-0.8-0.27-1.35-0.64-1.71-1.25
				c-0.09-0.15-0.16-0.31-0.22-0.48c-0.05-0.04-0.1-0.08-0.15-0.12c-0.32-0.11-0.59-0.23-0.84-0.37c-0.01,0.01-0.02,0.02-0.03,0.03
				C90.29,29.44,90.28,29.46,90.26,29.49z"/>
		</g>
		<g>
			<path class="st1" d="M65.02,16.24c-0.11,0.06-0.21,0.13-0.33,0.17c-0.77,0.3-1.6,0.25-2.51-0.04c-0.78,0.03-1.64-0.18-2.58-0.54
				c-0.35,0.12-0.71,0.16-1.07,0.14c-0.49,0.05-1,0-1.54-0.15c-0.09,0.05-0.19,0.1-0.28,0.15c-0.75,0.34-1.59,0.34-2.52,0.13
				c-0.1,0.06-0.21,0.11-0.33,0.16c-0.64,0.25-1.31,0.24-2.02,0.04c-0.33,0.03-0.67,0-1.03-0.07c-0.41,0.15-0.82,0.2-1.25,0.17
				c-0.09,0.04-0.19,0.08-0.28,0.11c-0.23,0.24-0.51,0.44-0.83,0.59c-0.64,0.29-1.33,0.31-2.08,0.17c0.18,0.47,0.2,0.99,0.05,1.46
				c-0.05,0.16-0.12,0.31-0.2,0.45c0,0.02-0.01,0.04-0.01,0.06c0.16,0.33,0.23,0.71,0.21,1.08c0.04,0.07,0.07,0.15,0.1,0.23
				c0.17,0.16,0.31,0.34,0.43,0.55c0.17,0.31,0.27,0.67,0.28,1.03c0.1,0.34,0.11,0.71,0.04,1.06c0.16,0.43,0.18,0.91,0.06,1.35
				c0.11,0.41,0.1,0.85-0.03,1.24c-0.05,0.15-0.11,0.29-0.18,0.43c0.03,0.05,0.05,0.1,0.07,0.16c0.05,0.07,0.09,0.14,0.13,0.21
				c0.29,0.52,0.35,1.17,0.17,1.74c-0.03,0.09-0.07,0.19-0.11,0.27c0,0.23-0.03,0.45-0.1,0.67c-0.06,0.17-0.14,0.35-0.24,0.52
				c0.18,0.46,0.2,0.99,0.06,1.47c0,0.15-0.01,0.29-0.04,0.44c0.03,0.3,0,0.6-0.09,0.88c-0.02,0.05-0.03,0.1-0.05,0.15
				c0.09,0.3,0.12,0.63,0.09,0.95c0.14,0.44,0.15,0.93,0.01,1.37c-0.06,0.19-0.15,0.38-0.26,0.54c0.02,0.03,0.04,0.07,0.06,0.11
				c0.28,0.5,0.35,1.13,0.19,1.68c0.02,0.27-0.02,0.55-0.1,0.81c-0.06,0.19-0.14,0.37-0.25,0.53c-0.03,0.06-0.06,0.11-0.09,0.17
				c-0.01,0.18-0.04,0.35-0.1,0.52c-0.11,0.33-0.25,0.6-0.42,0.81c0.01,0.26-0.02,0.52-0.1,0.76c-0.02,0.05-0.03,0.1-0.05,0.15
				c0,0.05-0.01,0.1-0.01,0.15c0.17,0.46,0.19,0.99,0.04,1.45c-0.03,0.08-0.05,0.16-0.09,0.23c0.02,0.27-0.02,0.54-0.1,0.8
				c-0.15,0.45-0.43,0.85-0.8,1.14c0.11,0.41,0.1,0.85-0.03,1.24c-0.13,0.39-0.31,0.69-0.52,0.93c0.01,0.02,0.02,0.04,0.03,0.06
				c0.29,0.52,0.36,1.18,0.17,1.75c-0.13,0.41-0.32,0.73-0.55,0.97c0.1,0.4,0.1,0.84-0.03,1.23c-0.12,0.36-0.31,0.68-0.57,0.94
				c-0.01,0.06-0.03,0.13-0.05,0.19c-0.09,0.29-0.21,0.53-0.36,0.73c0.11,0.41,0.1,0.85-0.03,1.24c-0.12,0.38-0.34,0.71-0.62,0.98
				c-0.12,0.18-0.26,0.34-0.42,0.48c-0.02,0.03-0.05,0.07-0.07,0.1c-0.01,0.04-0.02,0.08-0.03,0.11c-0.07,0.21-0.16,0.4-0.28,0.58
				c0.07,0.37,0.06,0.76-0.06,1.11c-0.24,0.74-0.67,1.18-1.17,1.42c-0.08,0.12-0.18,0.23-0.28,0.33c-0.08,0.23-0.19,0.44-0.32,0.63
				c0.17,0.46,0.18,0.98,0.03,1.44c-0.25,0.76-0.69,1.21-1.22,1.46c-0.08,0.14-0.18,0.27-0.28,0.38c0,0.22-0.04,0.44-0.1,0.64
				c-0.3,0.93-0.89,1.39-1.57,1.59c-0.08,0.11-0.18,0.21-0.27,0.3c-0.19,0.55-0.48,0.93-0.83,1.18c0.13,0.43,0.14,0.91,0,1.34
				c-0.13,0.41-0.36,0.76-0.67,1.04c-0.01,0.07-0.03,0.13-0.05,0.2c-0.21,0.66-0.7,1.2-1.34,1.48c-0.19,0.08-0.37,0.14-0.56,0.17
				c-0.08,0.2-0.19,0.39-0.32,0.56c0,0.23-0.03,0.46-0.1,0.67c-0.08,0.24-0.19,0.47-0.33,0.67c-0.01,0.05-0.03,0.11-0.04,0.16
				c-0.15,0.46-0.37,0.81-0.63,1.06c-0.1,0.28-0.25,0.53-0.44,0.74c-0.23,0.68-0.74,1.21-1.4,1.47c-0.27,0.11-0.54,0.16-0.81,0.17
				c-0.01,0.17-0.04,0.34-0.1,0.5c-0.12,0.36-0.31,0.67-0.56,0.94c-0.24,0.55-0.68,0.99-1.23,1.24c-0.13,0.37-0.34,0.7-0.61,0.96
				c-0.17,0.4-0.44,0.75-0.79,1.01c-0.08,0.17-0.19,0.32-0.31,0.46c0.87,0.28,1.46,0.65,1.85,1.3c0.09,0.15,0.16,0.31,0.21,0.47
				c0.57,0.25,1.01,0.59,1.32,1.09c0.06,0.09,0.1,0.18,0.15,0.28c0.51,0.18,0.93,0.41,1.26,0.72c0.63,0.26,1.1,0.6,1.42,1.09
				c0.36,0.22,0.65,0.51,0.87,0.87c0.05,0.08,0.09,0.16,0.13,0.24c1.11,0.32,1.81,0.73,2.25,1.46c0.05,0.08,0.09,0.16,0.13,0.25
				c1.22,0.31,2.06,0.73,2.54,1.53c0.11,0.18,0.2,0.38,0.26,0.58c0.04,0.07,0.08,0.15,0.11,0.22c1.33,0.3,2.19,0.67,2.74,1.35
				c1.09,0.31,1.83,0.72,2.31,1.39c2.5,0.58,5.71,2.25,9.94,4.54c0.19-0.14,0.4-0.26,0.63-0.35c1.22-0.5,2.58-0.2,4.44,0.63
				c0.84-0.26,1.79-0.14,2.85,0.2c0.76-0.31,1.6-0.26,2.53,0c0.09-0.05,0.18-0.1,0.27-0.14c0.44-0.2,0.91-0.27,1.4-0.26
				c-0.23-0.47-0.29-1-0.17-1.5c-0.58-0.25-0.96-0.56-1.25-1.07c-0.1-0.18-0.18-0.38-0.23-0.59c-0.15-0.15-0.28-0.31-0.39-0.51
				c-0.11-0.2-0.19-0.42-0.24-0.65c-0.07-0.09-0.14-0.19-0.2-0.3c-0.2-0.35-0.3-0.77-0.28-1.18c-0.17-0.16-0.32-0.34-0.44-0.56
				c-0.16-0.29-0.26-0.63-0.28-0.97c-0.08-0.1-0.15-0.21-0.21-0.32c-0.21-0.37-0.3-0.81-0.27-1.25c-0.04-0.05-0.07-0.11-0.11-0.17
				c-0.15-0.26-0.24-0.56-0.28-0.86c-0.01-0.02-0.02-0.04-0.03-0.06c-0.29-0.52-0.36-1.19-0.18-1.76c0.03-0.08,0.06-0.16,0.09-0.24
				c-0.16-0.15-0.3-0.33-0.42-0.54c-0.14-0.25-0.23-0.52-0.27-0.81c-0.1-0.38-0.11-0.8,0-1.17c-0.07-0.19-0.12-0.4-0.14-0.61
				c-0.07-0.09-0.14-0.2-0.21-0.31c-0.3-0.52-0.37-1.2-0.18-1.77c0.01-0.02,0.01-0.04,0.02-0.06c-0.05-0.07-0.1-0.15-0.14-0.23
				c-0.29-0.52-0.36-1.18-0.17-1.75c0.04-0.13,0.09-0.25,0.16-0.37c-0.05-0.07-0.1-0.15-0.15-0.24c-0.23-0.41-0.32-0.9-0.26-1.37v0
				c-0.3-0.52-0.36-1.19-0.18-1.76c0.12-0.35,0.3-0.67,0.55-0.93c-0.02-0.17-0.03-0.33-0.01-0.5c-0.03-0.04-0.05-0.09-0.08-0.13
				c-0.3-0.52-0.37-1.19-0.18-1.76c0.11-0.33,0.26-0.61,0.43-0.82c-0.13-0.43-0.13-0.9,0.01-1.32c0.07-0.22,0.17-0.43,0.3-0.61
				c-0.01-0.04-0.03-0.09-0.04-0.13c-0.07-0.09-0.13-0.18-0.18-0.29c-0.29-0.52-0.35-1.17-0.17-1.74c0.07-0.22,0.17-0.42,0.3-0.61
				c0-0.07,0.01-0.13,0.02-0.2c0-0.24,0.03-0.49,0.1-0.71c0.07-0.22,0.17-0.42,0.29-0.6c0,0,0,0,0-0.01
				c0.11-0.34,0.29-0.65,0.53-0.9c0.02-0.05,0.04-0.09,0.06-0.13c-0.03-0.31-0.01-0.63,0.09-0.92c0.02-0.05,0.03-0.09,0.05-0.14
				c-0.03-0.3,0-0.62,0.09-0.9c0.1-0.31,0.27-0.6,0.48-0.84c-0.12-0.42-0.11-0.87,0.02-1.28c0.09-0.28,0.23-0.54,0.41-0.76
				c-0.01-0.26,0.02-0.53,0.1-0.78c0.12-0.36,0.28-0.65,0.48-0.89c0.02-0.07,0.03-0.15,0.06-0.22c0.03-0.1,0.07-0.2,0.11-0.3
				c-0.02-0.28,0.01-0.56,0.1-0.82c0.02-0.06,0.04-0.13,0.07-0.18c-0.08-0.38-0.07-0.78,0.05-1.15c0.11-0.34,0.29-0.64,0.52-0.89
				c0.08-0.19,0.18-0.36,0.29-0.51c0.02-0.07,0.03-0.14,0.06-0.21c0.02-0.07,0.05-0.15,0.08-0.22c0.02-0.09,0.04-0.19,0.07-0.28
				c0.12-0.37,0.29-0.67,0.49-0.9c-0.03-0.29,0-0.59,0.09-0.87c0.07-0.22,0.16-0.41,0.25-0.57c0.01-0.19,0.04-0.39,0.1-0.57
				c0.14-0.44,0.4-0.82,0.74-1.1c0.01-0.03,0.01-0.05,0.02-0.08c0.13-0.4,0.35-0.75,0.65-1.03c0.02-0.08,0.04-0.16,0.06-0.24
				c0.03-0.09,0.07-0.19,0.11-0.28c0-0.23,0.03-0.45,0.1-0.66c0.1-0.29,0.24-0.56,0.43-0.79c0.16-0.4,0.37-0.7,0.62-0.93
				c0.18-0.43,0.47-0.79,0.85-1.05c0.01-0.02,0.01-0.05,0.02-0.07c0.06-0.2,0.15-0.38,0.26-0.55c0.01-0.07,0.03-0.13,0.05-0.2
				c0.14-0.43,0.39-0.81,0.73-1.1c0.01-0.04,0.02-0.09,0.04-0.13c0.13-0.4,0.36-0.75,0.66-1.03c0.18-0.42,0.46-0.78,0.83-1.04
				c0.02-0.11,0.04-0.22,0.08-0.33c0.09-0.26,0.21-0.51,0.38-0.72c0.02-0.13,0.05-0.27,0.09-0.4c0.21-0.66,0.71-1.2,1.35-1.48
				c0.02-0.01,0.05-0.02,0.07-0.03c0.14-0.11,0.29-0.2,0.45-0.28c0.08-0.04,0.16-0.07,0.24-0.1c0.08-0.13,0.17-0.25,0.27-0.35
				c-0.12-0.42-0.11-0.87,0.02-1.27c0.21-0.65,0.69-1.19,1.32-1.47c0.05-0.02,0.1-0.04,0.15-0.06c0.02-0.08,0.04-0.15,0.06-0.23
				c0.22-0.67,0.71-1.2,1.35-1.47c0.01-0.03,0.02-0.07,0.03-0.1c0.09-0.26,0.21-0.51,0.38-0.72c0,0,0-0.01,0-0.01
				c0.21-0.64,0.66-1.16,1.27-1.46c0.03-0.01,0.06-0.03,0.09-0.04c0.3-0.39,0.69-0.62,1.11-0.76c0.01-0.17,0.04-0.33,0.1-0.49
				c0.19-0.59,0.61-1.09,1.15-1.39c0.27-0.64,0.7-1.01,1.19-1.22c0.02-0.08,0.03-0.15,0.06-0.23c0.22-0.68,0.72-1.22,1.37-1.49
				c0.19-0.12,0.4-0.2,0.62-0.26c-0.08-0.1-0.16-0.2-0.23-0.32c-0.04-0.07-0.08-0.13-0.11-0.2c-0.86-0.25-1.48-0.56-1.92-1.02
				c-1.07-0.32-1.79-0.76-2.24-1.48c-0.03-0.05-0.05-0.11-0.08-0.16c-1.89-0.72-4.16-1.97-6.93-3.56
				C69.33,16.94,66.95,16.63,65.02,16.24z"/>
		</g>
		<g>
			<path class="st1" d="M36.76,21.01c-0.11,0.05-0.23,0.09-0.34,0.12c-0.24,0.25-0.53,0.44-0.85,0.57
				c-0.44,0.17-0.87,0.22-1.31,0.17c-0.26,0.53-0.69,0.95-1.24,1.19c-0.28,0.12-0.57,0.19-0.86,0.21c-0.03,0.02-0.06,0.03-0.1,0.05
				c-0.05,0.02-0.11,0.05-0.16,0.07c-0.22,0.22-0.48,0.4-0.78,0.52c-0.09,0.04-0.18,0.07-0.27,0.1c-0.07,0.04-0.15,0.08-0.23,0.12
				c-0.11,0.05-0.22,0.09-0.33,0.13c-0.26,0.51-0.69,0.93-1.22,1.16c-0.14,0.06-0.27,0.1-0.41,0.14c-0.27,0.43-0.67,0.76-1.16,0.94
				c-0.34,0.13-0.67,0.18-1.01,0.17c-0.1,0.09-0.2,0.17-0.32,0.25c-0.23,0.29-0.52,0.53-0.86,0.7c-0.2,0.1-0.41,0.17-0.62,0.22
				c-0.2,0.31-0.46,0.57-0.77,0.76c-0.08,0.08-0.17,0.16-0.27,0.22c-0.11,0.25-0.26,0.48-0.45,0.68c-0.25,0.42-0.61,0.75-1.07,0.96
				c-0.06,0.03-0.13,0.06-0.2,0.08c-0.01,0.07-0.03,0.13-0.05,0.19c-0.04,0.12-0.08,0.23-0.14,0.33c-0.02,0.09-0.04,0.19-0.07,0.27
				c-0.22,0.68-0.73,1.23-1.38,1.51c-0.28,0.12-0.56,0.18-0.85,0.2c-0.18,0.36-0.44,0.66-0.76,0.89c0,0.01-0.01,0.02-0.01,0.03
				c-0.15,0.47-0.44,0.88-0.82,1.17c-0.23,0.26-0.53,0.48-0.86,0.62c-0.15,0.07-0.31,0.11-0.46,0.15c-0.02,0.03-0.04,0.06-0.06,0.09
				c0.02,0.28-0.01,0.56-0.1,0.82c-0.19,0.59-0.6,1.08-1.14,1.37c-0.08,0.07-0.16,0.13-0.25,0.19c-0.01,0.07-0.03,0.13-0.05,0.2
				c-0.15,0.47-0.43,0.87-0.8,1.16c0.06,0.35,0.04,0.71-0.07,1.05c-0.11,0.35-0.3,0.66-0.54,0.92c-0.17,0.4-0.45,0.75-0.8,1
				c-0.08,0.17-0.18,0.34-0.3,0.48c0.02,0.28-0.01,0.57-0.1,0.83c-0.11,0.33-0.28,0.63-0.51,0.88c0.07,0.3,0.08,0.62,0.03,0.92
				c-0.01,0.18-0.04,0.36-0.1,0.53c-0.09,0.29-0.23,0.55-0.41,0.77c0.03,0.3,0,0.6-0.09,0.88c-0.18,0.54-0.52,0.99-0.99,1.3
				c0.03,0.04,0.05,0.08,0.08,0.13c0.3,0.53,0.37,1.2,0.19,1.78c-0.02,0.07-0.05,0.15-0.08,0.22c0.13,0.4,0.16,0.84,0.06,1.24
				c0.22,0.49,0.26,1.08,0.09,1.59c-0.1,0.29-0.24,0.56-0.43,0.79c0.02,0.04,0.05,0.07,0.07,0.11c0.28,0.49,0.36,1.11,0.22,1.65
				c0.18,0.17,0.33,0.36,0.47,0.59c0.29,0.52,0.36,1.19,0.18,1.76c-0.02,0.05-0.04,0.1-0.05,0.15c0.09,0.11,0.17,0.23,0.25,0.36
				c0.28,0.49,0.36,1.11,0.22,1.66c0.14,0.14,0.26,0.3,0.37,0.49c0.15,0.27,0.25,0.57,0.28,0.88c0.12,0.13,0.23,0.28,0.33,0.45
				c0.22,0.39,0.31,0.86,0.27,1.31c0.16,0.29,0.25,0.62,0.27,0.94c0.21,0.18,0.38,0.38,0.53,0.64c0.27,0.47,0.36,1.02,0.25,1.55
				c0.14,0.14,0.26,0.3,0.37,0.48c0.17,0.29,0.27,0.62,0.3,0.95c0.13,0.14,0.25,0.29,0.35,0.47c0.02,0.04,0.04,0.08,0.07,0.12
				c0.37,0.22,0.66,0.5,0.88,0.88c0.14,0.24,0.23,0.51,0.28,0.78c0.35,0.22,0.62,0.49,0.83,0.85c0.18,0.31,0.28,0.65,0.3,1
				c0.06,0.11,0.11,0.23,0.15,0.35c0.06,0.13,0.11,0.26,0.15,0.4c0.6,0.25,1.03,0.58,1.34,1.1c0.04,0.07,0.07,0.15,0.11,0.22
				c0.07-0.05,0.14-0.11,0.22-0.15c0.15-0.29,0.36-0.54,0.61-0.75c0.11-0.14,0.23-0.27,0.36-0.39c0.2-0.33,0.48-0.61,0.81-0.81
				c0.24-0.47,0.58-0.78,0.97-0.97c0.01-0.03,0.02-0.06,0.03-0.09c0.21-0.63,0.64-1.13,1.23-1.42c0.02-0.09,0.04-0.18,0.07-0.27
				c0.14-0.44,0.4-0.82,0.74-1.11c0.23-0.46,0.61-0.84,1.08-1.08c0.09-0.04,0.17-0.08,0.26-0.11c0.16-0.28,0.37-0.53,0.63-0.73
				c0-0.22,0.04-0.44,0.1-0.65c0.2-0.63,0.64-1.13,1.24-1.42c0.06-0.13,0.12-0.25,0.19-0.35c-0.03-0.29,0-0.6,0.09-0.87
				c0.18-0.54,0.45-0.92,0.78-1.19c0.29-0.7,0.76-1.1,1.31-1.31c0.02-0.14,0.05-0.27,0.09-0.4c0.17-0.53,0.51-0.97,0.96-1.27
				c0.06-0.09,0.12-0.16,0.19-0.24c0.05-0.16,0.12-0.3,0.19-0.43c-0.12-0.42-0.12-0.87,0.02-1.28c0.14-0.44,0.35-0.78,0.6-1.03
				c0.19-0.53,0.57-0.98,1.05-1.26c0.04-0.05,0.08-0.1,0.12-0.15c0-0.23,0.03-0.47,0.1-0.69c0.02-0.06,0.04-0.12,0.06-0.17
				c-0.01-0.25,0.03-0.5,0.1-0.73c0.13-0.39,0.35-0.74,0.64-1.01c0.09-0.17,0.21-0.32,0.34-0.46c-0.07-0.36-0.05-0.74,0.06-1.08
				c0.11-0.33,0.28-0.63,0.51-0.88c-0.06-0.35-0.03-0.71,0.07-1.04c0.16-0.49,0.46-0.91,0.87-1.21c0.1-0.27,0.26-0.51,0.44-0.72
				c0.01-0.07,0.03-0.14,0.05-0.2c0.07-0.21,0.15-0.39,0.24-0.55c-0.12-0.42-0.12-0.88,0.02-1.29c0.14-0.42,0.33-0.74,0.57-0.98
				c-0.03-0.29,0-0.59,0.09-0.87c0.01-0.02,0.02-0.05,0.02-0.07c-0.08-0.33-0.09-0.69-0.01-1.02c-0.22-0.49-0.26-1.07-0.09-1.59
				c0.12-0.37,0.33-0.7,0.6-0.96c-0.01-0.15,0-0.3,0.03-0.45c-0.08-0.37-0.06-0.77,0.06-1.12c0.1-0.3,0.25-0.57,0.44-0.8
				c0.02-0.04,0.03-0.08,0.05-0.12c-0.2-0.48-0.23-1.04-0.07-1.54c0.06-0.2,0.16-0.39,0.27-0.56c0-0.16,0.01-0.31,0.05-0.47
				c-0.18-0.47-0.2-1-0.05-1.48c0.09-0.27,0.22-0.51,0.38-0.73c-0.04-0.12-0.07-0.25-0.09-0.38c-0.27-0.52-0.33-1.16-0.15-1.71
				c0.05-0.15,0.11-0.29,0.19-0.43c-0.25-0.51-0.3-1.12-0.12-1.65c0.08-0.24,0.18-0.45,0.29-0.63c-0.1-0.3-0.13-0.62-0.09-0.93
				c-0.18-0.47-0.2-1-0.05-1.48c0.01-0.02,0.02-0.05,0.02-0.07c0-0.01,0-0.02,0.01-0.03c-0.15-0.43-0.16-0.92-0.03-1.35
				c-0.05-0.34-0.02-0.68,0.08-1c0.06-0.19,0.15-0.37,0.25-0.54c-0.08-0.1-0.16-0.21-0.23-0.34c-0.15-0.26-0.24-0.56-0.27-0.87
				c-0.07-0.29-0.08-0.59-0.03-0.89c-0.03-0.15-0.05-0.3-0.05-0.45c-0.15,0-0.31,0-0.46-0.01C37.7,20.4,37.28,20.79,36.76,21.01z"/>
		</g>
		<g>
			<path d="M117.07,55.89c0.01-0.14,0.01-0.29,0-0.43c0.01-0.04,0.03-0.08,0.04-0.12c0.19-0.57,0.12-1.25-0.18-1.77
				c-0.06-0.1-0.12-0.2-0.19-0.29c-0.01-0.05-0.01-0.1-0.02-0.15c0.15-0.21,0.28-0.45,0.37-0.75c0.16-0.5,0.13-1.08-0.08-1.57
				c0.15-0.55,0.08-1.19-0.21-1.69c0-0.01-0.01-0.01-0.01-0.02c0.03-0.43-0.07-0.88-0.28-1.25c-0.04-0.06-0.08-0.13-0.12-0.19
				c0-0.39-0.09-0.79-0.28-1.12c-0.11-0.19-0.23-0.35-0.36-0.49c0,0,0,0,0,0c0.19-0.6,0.13-1.25-0.19-1.8
				c-0.13-0.23-0.28-0.42-0.46-0.58c-0.01-0.37-0.11-0.75-0.3-1.08c-0.23-0.4-0.52-0.67-0.9-0.89c-0.05-0.21-0.13-0.41-0.24-0.6
				c-0.02-0.04-0.05-0.08-0.07-0.11c-0.02-0.35-0.12-0.7-0.31-1.01c-0.16-0.27-0.35-0.48-0.57-0.66c-0.03-0.05-0.06-0.1-0.09-0.14
				c0-0.35-0.09-0.7-0.25-1.01c0.06-0.48-0.04-0.98-0.28-1.41c0,0,0-0.01-0.01-0.01c-0.04-0.11-0.09-0.21-0.15-0.32
				c-0.11-0.19-0.24-0.36-0.39-0.51c-0.04-0.28-0.13-0.56-0.28-0.82c-0.35-0.6-0.86-0.95-1.64-1.22c-0.04-0.03-0.09-0.06-0.13-0.09
				c-0.03-0.23-0.1-0.46-0.2-0.67c-0.02-0.37-0.12-0.73-0.31-1.05c-0.17-0.28-0.37-0.51-0.61-0.69c-0.04-0.27-0.14-0.54-0.28-0.78
				c-0.24-0.4-0.55-0.69-0.96-0.92c-0.05-0.21-0.13-0.41-0.24-0.59c-0.25-0.42-0.58-0.73-1.03-0.97c-0.03-0.06-0.06-0.12-0.1-0.18
				c-0.26-0.44-0.61-0.75-1.08-0.99c-0.05-0.23-0.14-0.46-0.26-0.67c-0.35-0.6-0.89-0.97-1.68-1.24c0,0,0,0,0,0
				c-0.04-0.3-0.15-0.59-0.31-0.85c-0.3-0.49-0.71-0.82-1.25-1.06c-0.02-0.01-0.04-0.02-0.05-0.03c-0.05-0.14-0.12-0.28-0.19-0.41
				c-0.17-0.29-0.38-0.52-0.64-0.71c-0.13-0.16-0.28-0.3-0.45-0.43c-0.04-0.08-0.08-0.16-0.12-0.24c-0.46-0.78-1.23-1.16-2.42-1.47
				c-0.06-0.24-0.15-0.47-0.28-0.68c-0.3-0.48-0.71-0.81-1.24-1.04c-0.06-0.18-0.14-0.35-0.24-0.51c-0.23-0.37-0.53-0.66-0.91-0.9
				c-0.06-0.17-0.14-0.33-0.23-0.48c-0.36-0.59-0.89-0.98-1.65-1.28c-0.9-1.07-2.6-1.42-5.5-1.83c0.11-0.76-0.05-1.52-0.47-2.18
				c-0.47-0.74-1.22-1.3-2.26-1.76c-2-1.2-5.52-1.67-10.76-2.29c-0.03,0-0.06-0.01-0.09-0.01c-5.8-3.35-9.52-5.33-12.12-4.34
				c-0.77,0.29-1.37,0.83-1.76,1.54c-2.19-1.22-3.87-1.97-5.37-1.39c-0.03,0.01-0.07,0.03-0.1,0.04c-0.8-0.15-1.52-0.13-2.18,0.15
				c-0.06,0.02-0.11,0.05-0.17,0.08c-0.65-0.1-1.25-0.07-1.82,0.18c-0.1,0.04-0.2,0.09-0.29,0.14c-0.05,0.02-0.1,0.04-0.15,0.06
				c-0.12,0.05-0.23,0.1-0.34,0.17c-1.03-0.28-1.95-0.33-2.76,0.03c-0.14,0.03-0.29,0.07-0.43,0.13c-0.01,0-0.02,0.01-0.03,0.01
				c-0.61-0.09-1.18-0.04-1.73,0.19C44.1,4,43.83,4.18,43.6,4.41c-0.73-0.17-1.4-0.18-2.02,0.01c-0.07-0.01-0.14-0.03-0.21-0.04
				c-0.02,0-0.04-0.01-0.07-0.01c-1.11-0.6-2.18-1.09-3.32-0.64c-0.66,0.26-1.16,0.8-1.38,1.47c-0.13,0.41-0.13,0.86-0.02,1.28
				c-0.29,0.02-0.57,0.08-0.85,0.2c-0.37,0.16-0.69,0.4-0.94,0.71c-0.42,0-0.82,0.08-1.21,0.27c-0.25,0.12-0.47,0.27-0.66,0.45
				c-0.21,0.04-0.41,0.11-0.61,0.2c-0.3,0.14-0.56,0.33-0.78,0.56c-0.22,0.05-0.43,0.12-0.64,0.22c-0.05,0.02-0.09,0.05-0.13,0.07
				c-0.15,0.03-0.3,0.08-0.45,0.15c-0.27,0.12-0.52,0.28-0.73,0.48c-0.03,0.01-0.06,0.02-0.09,0.03c-0.38,0.15-0.71,0.39-0.96,0.69
				c-0.23,0.05-0.45,0.12-0.66,0.23c-0.39,0.2-0.71,0.48-0.95,0.83c-0.02,0.01-0.04,0.02-0.06,0.03c-0.11,0.05-0.21,0.1-0.31,0.16
				c-0.43-0.01-0.85,0.06-1.26,0.25c-0.36,0.17-0.67,0.41-0.91,0.72c-0.12,0.04-0.23,0.08-0.35,0.13c-0.26,0.12-0.49,0.28-0.69,0.47
				c-0.09,0.03-0.18,0.07-0.28,0.11c-0.47,0.22-0.85,0.56-1.1,1c-0.12,0.04-0.24,0.09-0.35,0.14c-0.48,0.24-0.86,0.61-1.1,1.07
				c-0.25,0.03-0.5,0.1-0.74,0.21c-0.6,0.27-1.05,0.75-1.29,1.36c-0.27,0.14-0.51,0.32-0.71,0.54c-0.17,0.12-0.32,0.26-0.45,0.42
				c-0.14,0.04-0.27,0.1-0.41,0.17c-0.14,0.07-0.28,0.16-0.4,0.25c-0.03,0.01-0.05,0.02-0.08,0.03c-0.65,0.28-1.14,0.82-1.36,1.5
				c-0.03,0.08-0.05,0.16-0.06,0.24c-0.02,0.01-0.05,0.02-0.07,0.03c-0.47,0.19-0.86,0.51-1.13,0.93c-0.02,0.02-0.03,0.03-0.05,0.05
				c-0.43,0.24-0.77,0.6-1,1.04c-0.64,0.25-1.13,0.76-1.37,1.4c-0.37,0.23-0.67,0.56-0.87,0.95c-0.16,0.22-0.29,0.46-0.38,0.72
				c-0.01,0.03-0.02,0.06-0.03,0.1c-0.15,0.13-0.29,0.28-0.4,0.45c-0.47,0.3-0.82,0.75-1,1.3c-0.04,0.12-0.07,0.24-0.08,0.37
				c-0.36,0.19-0.66,0.47-0.88,0.8c-0.46,0.3-0.8,0.75-0.97,1.29c-0.1,0.32-0.13,0.66-0.08,0.99c-0.01,0.06-0.01,0.13-0.02,0.19
				c-0.01,0.03-0.01,0.06-0.01,0.1c-0.27,0.27-0.48,0.6-0.6,0.97C6.03,32.12,6,32.21,5.99,32.31c-0.52,0.29-0.92,0.77-1.11,1.35
				c-0.03,0.1-0.06,0.2-0.07,0.31c-0.05,0.11-0.1,0.22-0.14,0.34c-0.07,0.22-0.1,0.45-0.1,0.68c-0.04,0.09-0.08,0.2-0.12,0.3
				c-0.01,0.02-0.01,0.04-0.02,0.07c-0.33,0.28-0.58,0.65-0.71,1.08c-0.01,0.02-0.01,0.03-0.01,0.05c-0.03,0.04-0.05,0.07-0.08,0.11
				c-0.19,0.24-0.35,0.51-0.44,0.81C3,37.93,3.05,38.53,3.29,39.04c-0.32,0.29-0.56,0.66-0.7,1.08c-0.11,0.34-0.13,0.71-0.07,1.07
				c-0.02,0.04-0.03,0.09-0.05,0.13c-0.14,0.42-0.14,0.89-0.01,1.32c-0.02,0.05-0.04,0.1-0.06,0.16c-0.09,0.27-0.12,0.56-0.1,0.85
				c-0.05,0.11-0.09,0.22-0.13,0.34C2,44.54,2.06,45.21,2.36,45.73c0.06,0.11,0.12,0.2,0.19,0.29c-0.07,0.13-0.14,0.28-0.18,0.43
				c-0.05,0.14-0.08,0.29-0.09,0.44c-0.16,0.5-0.13,1.08,0.08,1.56c-0.07,0.4-0.03,0.84,0.11,1.22c-0.09,0.15-0.16,0.31-0.21,0.47
				c-0.18,0.57-0.12,1.24,0.18,1.76c0.09,0.16,0.19,0.3,0.3,0.43c0.03,0.31,0.12,0.61,0.27,0.87c0.02,0.04,0.04,0.07,0.07,0.11
				c0,0.25,0.05,0.51,0.14,0.75c-0.11,0.54-0.03,1.1,0.25,1.58c0.04,0.06,0.07,0.12,0.11,0.18c0,0,0,0.01,0,0.02
				c-0.19,0.57-0.12,1.25,0.18,1.77c0.12,0.22,0.27,0.41,0.44,0.57c0.01,0.13,0.04,0.26,0.08,0.39c-0.01,0.38,0.07,0.75,0.25,1.09
				c0.05,0.16,0.11,0.31,0.2,0.45c0.15,0.26,0.33,0.47,0.54,0.64c0.02,0.03,0.03,0.05,0.05,0.07c0.05,0.23,0.13,0.46,0.25,0.66
				c0.22,0.38,0.5,0.65,0.87,0.87c0.01,0.04,0.02,0.07,0.03,0.11c-0.17,0.59-0.1,1.22,0.21,1.75c0.16,0.27,0.35,0.49,0.58,0.67
				c0.04,0.09,0.08,0.18,0.13,0.27c0.17,0.3,0.39,0.54,0.65,0.73c0.04,0.29,0.13,0.57,0.28,0.83c0.24,0.41,0.54,0.7,0.96,0.92
				c0.04,0.11,0.09,0.21,0.16,0.31c0.11,0.19,0.24,0.36,0.39,0.5c0.09,0.14,0.19,0.26,0.3,0.37c0.04,0.3,0.14,0.59,0.3,0.86
				c0.35,0.59,0.86,0.94,1.59,1.2c0.05,0.26,0.15,0.5,0.28,0.73c0.11,0.19,0.24,0.35,0.39,0.49c0.04,0.31,0.14,0.6,0.31,0.87
				c0.05,0.09,0.11,0.17,0.17,0.24c0.05,0.21,0.14,0.41,0.25,0.59c0.23,0.4,0.55,0.68,0.96,0.91c-0.07,0.13-0.13,0.26-0.17,0.39
				c-0.02,0.05-0.03,0.11-0.04,0.16c-0.52,0.31-0.9,0.8-1.09,1.38c-0.14,0.44-0.13,0.94,0.01,1.38c-0.03,0.44,0.07,0.89,0.29,1.26
				c0.58,1,1.58,1.22,3.25,1.58c0.29,0.06,0.73,0.16,1.02,0.23c0.18,0.13,0.38,0.23,0.6,0.3c0.22,0.07,0.44,0.11,0.66,0.11
				c0.69,0,1.34-0.34,1.74-0.9c0.11,0.17,0.22,0.32,0.36,0.45c0.35,0.52,0.87,0.87,1.59,1.14c0.27,0.36,0.61,0.63,1.04,0.84
				c0.05,0.11,0.1,0.22,0.17,0.33c0.47,0.77,1.23,1.18,2.41,1.5c0.04,0.1,0.09,0.19,0.15,0.28c0.3,0.49,0.72,0.83,1.28,1.1
				c0.29,0.35,0.66,0.6,1.11,0.8c0.06,0.15,0.12,0.29,0.21,0.42c0.39,0.64,0.98,1.04,1.85,1.35c0.89,1.2,2.59,1.5,5.9,1.99
				c0.03,0,0.05,0.01,0.08,0.01c0.36,0.15,0.7,0.28,1.04,0.37c-0.21,0.85-0.07,1.71,0.4,2.45c1.41,2.21,5.33,2.78,12.13,3.59
				c0.55,0.07,1.17,0.14,1.82,0.22c5.02,2.71,8.59,4.5,11.2,4.5c0.6,0,1.16-0.1,1.66-0.3c0.35-0.14,0.67-0.33,0.95-0.56
				c0.29-0.03,0.58-0.1,0.85-0.22c0.07-0.03,0.13-0.06,0.19-0.09c0.99,0.26,1.87,0.3,2.66-0.04c0.14-0.06,0.27-0.13,0.39-0.2
				c0.14,0,0.27-0.02,0.4-0.04c0.01,0,0.02,0,0.02,0c0.19,0.12,0.39,0.24,0.64,0.33c0.65,0.5,1.6,0.71,3.03,1.01
				c0.67,0.34,1.32,0.61,1.98,0.64c0.05,0.02,0.11,0.04,0.16,0.06c0.22,0.07,0.44,0.11,0.66,0.11c0.9,0,1.75-0.58,2.04-1.48
				c0.2-0.6,0.13-1.26-0.19-1.81c-0.06-0.1-0.13-0.2-0.2-0.29c-0.01-0.06-0.03-0.12-0.05-0.18c0.12-0.03,0.24-0.07,0.36-0.12
				c0.28-0.12,0.54-0.28,0.76-0.49c0.24-0.04,0.47-0.11,0.69-0.22c0.33-0.15,0.61-0.37,0.84-0.63c0.44-0.01,0.85-0.09,1.25-0.29
				c0.2-0.1,0.39-0.22,0.55-0.36c0.1-0.03,0.2-0.07,0.29-0.11c0.23-0.1,0.44-0.24,0.63-0.4c0.44-0.01,0.86-0.09,1.26-0.29
				c0.32-0.16,0.6-0.38,0.82-0.65c0.41,0.02,0.79-0.04,1.18-0.21c0.45-0.19,0.82-0.51,1.09-0.91c0.03-0.02,0.06-0.04,0.08-0.06
				c0.52,0.03,1-0.04,1.47-0.26c0.59-0.28,1.03-0.76,1.27-1.36c0.05-0.03,0.09-0.06,0.14-0.1c0.04-0.02,0.09-0.03,0.13-0.05
				c0.09-0.04,0.18-0.08,0.26-0.13c0.3-0.02,0.6-0.1,0.9-0.23c0.52-0.23,0.92-0.62,1.18-1.11c0.22-0.03,0.43-0.1,0.65-0.19
				c0.06-0.03,0.13-0.06,0.19-0.09c0.2-0.03,0.41-0.09,0.61-0.18c0.44-0.19,0.81-0.5,1.07-0.9c0.55-0.29,0.96-0.75,1.18-1.33
				c0.21-0.04,0.41-0.1,0.62-0.19c0.41-0.18,0.75-0.46,1-0.82c0.24-0.16,0.44-0.36,0.61-0.59c0.01-0.01,0.01-0.01,0.02-0.02
				c0.27-0.04,0.54-0.13,0.8-0.26c0.49-0.24,0.87-0.63,1.12-1.1c0.65-0.27,1.14-0.82,1.36-1.49c0.04-0.12,0.07-0.24,0.08-0.36
				c0.25-0.04,0.49-0.12,0.73-0.24c0.38-0.19,0.71-0.47,0.95-0.81c0.59-0.31,1.03-0.82,1.23-1.45c0.04-0.13,0.07-0.27,0.09-0.42
				c0.12-0.15,0.22-0.31,0.3-0.48c0.01-0.01,0.02-0.03,0.03-0.04c0.25-0.04,0.49-0.1,0.72-0.21c0.57-0.26,1.01-0.71,1.25-1.28
				c0.37-0.29,0.65-0.68,0.81-1.13c0.6-0.31,1.05-0.83,1.26-1.47c0.03-0.06,0.05-0.13,0.07-0.2c0.03-0.09,0.05-0.18,0.07-0.27
				c0.31-0.28,0.55-0.64,0.68-1.05c0.02-0.06,0.04-0.13,0.05-0.2c0.58-0.3,1.01-0.81,1.21-1.43c0.09-0.26,0.12-0.55,0.1-0.83
				c0.28-0.27,0.49-0.61,0.62-0.99c0.05-0.14,0.08-0.29,0.09-0.44c0.38-0.19,0.69-0.47,0.92-0.8c0.5-0.3,0.86-0.77,1.04-1.33
				c0.07-0.2,0.1-0.42,0.1-0.64c0.14-0.2,0.26-0.42,0.34-0.67c0.03-0.09,0.05-0.18,0.07-0.27c0.14-0.2,0.26-0.42,0.33-0.66
				c0.03-0.08,0.05-0.17,0.06-0.25c0.07-0.13,0.13-0.27,0.18-0.41c0.1-0.32,0.13-0.67,0.08-1.01c0.15-0.49,0.11-1.05-0.09-1.52
				c0-0.03,0-0.05,0.01-0.08c0.06-0.12,0.11-0.23,0.15-0.36c0.1-0.31,0.13-0.64,0.08-0.97c0.19-0.23,0.34-0.5,0.43-0.8
				c0.19-0.58,0.11-1.26-0.19-1.78c-0.03-0.06-0.07-0.11-0.1-0.16c0.13-0.18,0.24-0.38,0.31-0.59c0.08-0.14,0.14-0.29,0.19-0.44
				c0.12-0.38,0.13-0.8,0.04-1.2C117.21,56.32,117.16,56.1,117.07,55.89z M20.37,68.36c-0.25,0.21-0.46,0.46-0.61,0.75
				c-0.08,0.04-0.15,0.1-0.22,0.15c-0.03-0.07-0.06-0.15-0.11-0.22c-0.31-0.52-0.74-0.85-1.34-1.1c-0.04-0.14-0.09-0.27-0.15-0.4
				c-0.04-0.12-0.09-0.24-0.15-0.35c-0.02-0.35-0.12-0.69-0.3-1c-0.21-0.36-0.48-0.63-0.83-0.85c-0.04-0.27-0.14-0.53-0.28-0.78
				c-0.22-0.38-0.51-0.66-0.88-0.88c-0.02-0.04-0.04-0.08-0.07-0.12c-0.1-0.18-0.22-0.34-0.35-0.47c-0.03-0.33-0.13-0.66-0.3-0.95
				c-0.11-0.19-0.23-0.35-0.37-0.48c0.1-0.52,0.02-1.08-0.25-1.55c-0.15-0.26-0.32-0.46-0.53-0.64c-0.02-0.33-0.11-0.65-0.27-0.94
				c0.04-0.45-0.05-0.92-0.27-1.31c-0.1-0.17-0.2-0.32-0.33-0.45c-0.03-0.31-0.13-0.62-0.28-0.88c-0.11-0.19-0.23-0.35-0.37-0.49
				c0.14-0.55,0.06-1.17-0.22-1.66c-0.08-0.13-0.16-0.25-0.25-0.36c0.02-0.05,0.04-0.1,0.05-0.15c0.18-0.57,0.12-1.24-0.18-1.76
				c-0.13-0.23-0.28-0.43-0.47-0.59c0.14-0.55,0.06-1.17-0.22-1.65c-0.02-0.04-0.04-0.08-0.07-0.11c0.19-0.23,0.34-0.5,0.43-0.79
				c0.17-0.51,0.13-1.1-0.09-1.59c0.1-0.4,0.07-0.85-0.06-1.24c0.03-0.07,0.06-0.15,0.08-0.22c0.19-0.58,0.12-1.25-0.19-1.78
				c-0.02-0.04-0.05-0.09-0.08-0.13c0.47-0.31,0.81-0.76,0.99-1.3c0.09-0.28,0.12-0.58,0.09-0.88c0.18-0.23,0.32-0.49,0.41-0.77
				c0.06-0.17,0.09-0.35,0.1-0.53c0.05-0.3,0.04-0.62-0.03-0.92c0.23-0.25,0.4-0.55,0.51-0.88c0.09-0.26,0.12-0.55,0.1-0.83
				c0.12-0.15,0.22-0.31,0.3-0.48c0.35-0.26,0.63-0.6,0.8-1c0.24-0.26,0.43-0.57,0.54-0.92c0.11-0.33,0.13-0.7,0.07-1.05
				c0.37-0.29,0.65-0.69,0.8-1.16c0.02-0.06,0.04-0.13,0.05-0.2c0.09-0.06,0.17-0.12,0.25-0.19c0.54-0.29,0.95-0.78,1.14-1.37
				c0.08-0.26,0.12-0.54,0.1-0.82c0.02-0.03,0.04-0.06,0.06-0.09c0.15-0.03,0.31-0.08,0.46-0.15c0.33-0.14,0.62-0.36,0.86-0.62
				c0.38-0.3,0.67-0.7,0.82-1.17c0-0.01,0.01-0.02,0.01-0.03c0.32-0.23,0.58-0.53,0.76-0.89c0.29-0.02,0.57-0.09,0.85-0.2
				c0.66-0.28,1.16-0.83,1.38-1.51c0.03-0.09,0.05-0.18,0.07-0.27c0.05-0.11,0.1-0.22,0.14-0.33c0.02-0.06,0.04-0.13,0.05-0.19
				c0.07-0.02,0.13-0.05,0.2-0.08c0.45-0.21,0.82-0.55,1.07-0.96c0.19-0.2,0.34-0.43,0.45-0.68c0.09-0.07,0.18-0.14,0.27-0.22
				c0.31-0.19,0.58-0.45,0.77-0.76c0.21-0.05,0.42-0.12,0.62-0.22c0.34-0.17,0.64-0.41,0.86-0.7c0.11-0.07,0.22-0.16,0.32-0.25
				c0.34,0.01,0.67-0.04,1.01-0.17c0.48-0.19,0.88-0.52,1.16-0.94c0.14-0.03,0.27-0.08,0.41-0.14c0.53-0.23,0.97-0.64,1.22-1.16
				c0.11-0.03,0.22-0.08,0.33-0.13c0.08-0.04,0.15-0.08,0.23-0.12c0.09-0.03,0.18-0.06,0.27-0.1c0.29-0.12,0.56-0.3,0.78-0.52
				c0.05-0.02,0.11-0.04,0.16-0.07c0.03-0.01,0.06-0.03,0.1-0.05c0.29-0.02,0.58-0.09,0.86-0.21c0.54-0.24,0.98-0.66,1.24-1.19
				c0.44,0.05,0.88,0.01,1.31-0.17c0.33-0.13,0.62-0.33,0.85-0.57c0.11-0.03,0.23-0.07,0.34-0.12c0.52-0.22,0.94-0.6,1.21-1.09
				c0.16,0.01,0.31,0.02,0.46,0.01c0.01,0.15,0.02,0.3,0.05,0.45c-0.05,0.29-0.04,0.6,0.03,0.89c0.03,0.3,0.12,0.6,0.27,0.87
				c0.07,0.12,0.15,0.24,0.23,0.34c-0.1,0.17-0.19,0.35-0.25,0.54c-0.1,0.32-0.13,0.67-0.08,1c-0.13,0.43-0.11,0.92,0.03,1.35
				c0,0.01,0,0.02-0.01,0.03c-0.01,0.02-0.02,0.05-0.02,0.07c-0.15,0.47-0.13,1.01,0.05,1.48c-0.03,0.31,0,0.63,0.09,0.93
				c-0.11,0.18-0.21,0.39-0.29,0.63c-0.17,0.53-0.13,1.14,0.12,1.65c-0.07,0.13-0.14,0.28-0.19,0.43c-0.18,0.55-0.12,1.2,0.15,1.71
				c0.02,0.13,0.05,0.25,0.09,0.38c-0.17,0.22-0.3,0.46-0.38,0.73c-0.15,0.48-0.13,1.01,0.05,1.48c-0.03,0.15-0.05,0.31-0.05,0.47
				c-0.11,0.17-0.2,0.36-0.27,0.56c-0.16,0.49-0.13,1.06,0.07,1.54c-0.02,0.04-0.03,0.08-0.05,0.12c-0.2,0.23-0.35,0.5-0.44,0.8
				c-0.12,0.36-0.13,0.75-0.06,1.12c-0.02,0.15-0.03,0.3-0.03,0.45c-0.27,0.27-0.48,0.6-0.6,0.96c-0.17,0.51-0.13,1.1,0.09,1.59
				c-0.08,0.33-0.07,0.69,0.01,1.02c-0.01,0.02-0.02,0.05-0.02,0.07c-0.09,0.28-0.12,0.58-0.09,0.87c-0.23,0.24-0.43,0.56-0.57,0.98
				c-0.13,0.41-0.14,0.87-0.02,1.29c-0.09,0.16-0.17,0.35-0.24,0.55c-0.02,0.07-0.04,0.13-0.05,0.2c-0.19,0.21-0.34,0.45-0.44,0.72
				c-0.41,0.3-0.71,0.72-0.87,1.21c-0.11,0.33-0.13,0.69-0.07,1.04c-0.23,0.25-0.41,0.55-0.51,0.88c-0.11,0.35-0.13,0.72-0.06,1.08
				c-0.13,0.14-0.25,0.29-0.34,0.46c-0.29,0.27-0.51,0.62-0.64,1.01c-0.08,0.23-0.11,0.49-0.1,0.73c-0.02,0.06-0.04,0.11-0.06,0.17
				c-0.07,0.22-0.11,0.46-0.1,0.69c-0.04,0.05-0.08,0.1-0.12,0.15c-0.49,0.28-0.86,0.72-1.05,1.26c-0.25,0.25-0.46,0.59-0.6,1.03
				c-0.13,0.41-0.14,0.87-0.02,1.28c-0.07,0.13-0.13,0.27-0.19,0.43c-0.07,0.07-0.13,0.15-0.19,0.24c-0.45,0.3-0.79,0.74-0.96,1.27
				c-0.04,0.13-0.07,0.27-0.09,0.4c-0.55,0.2-1.03,0.6-1.31,1.31c-0.33,0.26-0.6,0.65-0.78,1.19c-0.09,0.28-0.12,0.58-0.09,0.87
				c-0.07,0.11-0.14,0.23-0.19,0.35c-0.59,0.29-1.03,0.8-1.24,1.42c-0.07,0.21-0.1,0.43-0.1,0.65c-0.26,0.2-0.47,0.44-0.63,0.73
				c-0.09,0.03-0.17,0.07-0.26,0.11c-0.47,0.24-0.85,0.61-1.08,1.08c-0.34,0.29-0.6,0.67-0.74,1.11c-0.03,0.09-0.05,0.18-0.07,0.27
				c-0.59,0.29-1.03,0.79-1.23,1.42c-0.01,0.03-0.02,0.06-0.03,0.09c-0.39,0.19-0.73,0.5-0.97,0.97c-0.33,0.2-0.61,0.48-0.81,0.81
				C20.6,68.09,20.48,68.22,20.37,68.36z M63.98,93.54c-0.09,0.04-0.18,0.09-0.27,0.14c-0.93-0.26-1.77-0.31-2.53,0
				c-1.06-0.34-2.01-0.46-2.85-0.2c-1.86-0.82-3.22-1.13-4.44-0.63c-0.23,0.09-0.44,0.21-0.63,0.35c-4.23-2.29-7.45-3.96-9.94-4.54
				c-0.47-0.68-1.21-1.09-2.31-1.39c-0.55-0.68-1.41-1.05-2.74-1.35c-0.03-0.07-0.07-0.15-0.11-0.22c-0.06-0.2-0.14-0.4-0.26-0.58
				c-0.48-0.8-1.31-1.21-2.54-1.53c-0.04-0.08-0.08-0.17-0.13-0.25c-0.44-0.72-1.13-1.13-2.25-1.46c-0.04-0.08-0.08-0.16-0.13-0.24
				c-0.22-0.37-0.51-0.65-0.87-0.87c-0.32-0.49-0.79-0.82-1.42-1.09c-0.33-0.31-0.75-0.53-1.26-0.72c-0.04-0.1-0.09-0.19-0.15-0.28
				c-0.31-0.5-0.75-0.84-1.32-1.09c-0.05-0.16-0.12-0.32-0.21-0.47c-0.39-0.65-0.98-1.02-1.85-1.3c0.12-0.14,0.23-0.29,0.31-0.46
				c0.35-0.26,0.62-0.61,0.79-1.01c0.27-0.26,0.48-0.59,0.61-0.96c0.55-0.25,0.99-0.69,1.23-1.24c0.25-0.26,0.45-0.58,0.56-0.94
				c0.05-0.16,0.08-0.33,0.1-0.5c0.27-0.01,0.54-0.07,0.81-0.17c0.66-0.26,1.17-0.79,1.4-1.47c0.19-0.22,0.34-0.47,0.44-0.74
				c0.27-0.26,0.49-0.6,0.63-1.06c0.02-0.05,0.03-0.11,0.04-0.16c0.14-0.2,0.26-0.43,0.33-0.67c0.07-0.22,0.1-0.44,0.1-0.67
				c0.13-0.17,0.24-0.36,0.32-0.56c0.19-0.04,0.37-0.09,0.56-0.17c0.63-0.28,1.12-0.82,1.34-1.48c0.02-0.07,0.04-0.13,0.05-0.2
				c0.31-0.28,0.54-0.63,0.67-1.04c0.14-0.43,0.14-0.91,0-1.34c0.35-0.26,0.64-0.64,0.83-1.18c0.1-0.09,0.19-0.19,0.27-0.3
				c0.68-0.19,1.27-0.66,1.57-1.59c0.07-0.21,0.1-0.42,0.1-0.64c0.1-0.11,0.19-0.24,0.28-0.38c0.53-0.24,0.97-0.69,1.22-1.46
				c0.15-0.46,0.13-0.98-0.03-1.44c0.14-0.19,0.25-0.4,0.32-0.63c0.1-0.1,0.2-0.21,0.28-0.33c0.51-0.24,0.93-0.68,1.17-1.42
				c0.12-0.36,0.13-0.74,0.06-1.11c0.12-0.18,0.21-0.37,0.28-0.58c0.01-0.04,0.02-0.07,0.03-0.11c0.02-0.03,0.05-0.07,0.07-0.1
				c0.16-0.14,0.3-0.3,0.42-0.48c0.28-0.27,0.49-0.61,0.62-0.98c0.13-0.4,0.14-0.84,0.03-1.24c0.14-0.2,0.26-0.45,0.36-0.73
				c0.02-0.06,0.04-0.13,0.05-0.19c0.26-0.26,0.46-0.58,0.57-0.94c0.13-0.39,0.14-0.83,0.03-1.23c0.23-0.24,0.42-0.56,0.55-0.97
				c0.19-0.57,0.12-1.23-0.17-1.75c-0.01-0.02-0.02-0.04-0.03-0.06c0.22-0.23,0.4-0.54,0.52-0.93c0.13-0.4,0.14-0.84,0.03-1.24
				c0.37-0.29,0.65-0.69,0.8-1.14c0.08-0.26,0.12-0.53,0.1-0.8c0.03-0.07,0.06-0.15,0.09-0.23c0.15-0.47,0.13-0.99-0.04-1.45
				c0.01-0.05,0.01-0.1,0.01-0.15c0.02-0.05,0.04-0.1,0.05-0.15c0.08-0.24,0.11-0.5,0.1-0.76c0.17-0.22,0.31-0.49,0.42-0.81
				c0.05-0.17,0.09-0.34,0.1-0.52c0.03-0.05,0.06-0.11,0.09-0.17c0.1-0.16,0.19-0.34,0.25-0.53c0.08-0.26,0.12-0.53,0.1-0.81
				c0.16-0.55,0.09-1.18-0.19-1.68c-0.02-0.04-0.04-0.07-0.06-0.11c0.11-0.17,0.19-0.35,0.26-0.54c0.14-0.44,0.14-0.93-0.01-1.37
				c0.04-0.32,0.01-0.64-0.09-0.95c0.02-0.05,0.04-0.1,0.05-0.15c0.09-0.28,0.12-0.59,0.09-0.88c0.03-0.14,0.04-0.29,0.04-0.44
				c0.15-0.47,0.12-1-0.06-1.47c0.11-0.17,0.19-0.35,0.24-0.52c0.07-0.22,0.1-0.44,0.1-0.67c0.04-0.09,0.08-0.18,0.11-0.27
				c0.18-0.57,0.12-1.22-0.17-1.74c-0.04-0.07-0.09-0.15-0.13-0.21c-0.02-0.05-0.04-0.11-0.07-0.16c0.07-0.13,0.14-0.28,0.18-0.43
				c0.13-0.4,0.14-0.84,0.03-1.24c0.12-0.44,0.1-0.92-0.06-1.35c0.07-0.35,0.05-0.71-0.04-1.06c-0.01-0.36-0.11-0.72-0.28-1.03
				c-0.12-0.22-0.26-0.4-0.43-0.55c-0.03-0.08-0.06-0.15-0.1-0.23c0.02-0.37-0.05-0.75-0.21-1.08c0-0.02,0.01-0.04,0.01-0.06
				c0.08-0.14,0.15-0.29,0.2-0.45c0.15-0.47,0.12-1-0.05-1.46c0.75,0.14,1.44,0.12,2.08-0.17c0.32-0.14,0.6-0.34,0.83-0.59
				c0.1-0.03,0.19-0.06,0.28-0.11c0.43,0.03,0.84-0.01,1.25-0.17c0.36,0.07,0.7,0.09,1.03,0.07c0.71,0.19,1.37,0.21,2.02-0.04
				c0.11-0.04,0.22-0.1,0.33-0.16c0.93,0.21,1.77,0.21,2.52-0.13c0.1-0.04,0.19-0.09,0.28-0.15c0.54,0.14,1.05,0.2,1.54,0.14
				c0.36,0.02,0.72-0.02,1.07-0.14c0.94,0.36,1.8,0.57,2.58,0.54c0.92,0.29,1.74,0.34,2.51,0.04c0.12-0.05,0.22-0.11,0.33-0.17
				c1.93,0.39,4.3,0.7,7.16,1.04c2.77,1.59,5.04,2.84,6.93,3.56c0.03,0.05,0.05,0.11,0.08,0.16c0.45,0.72,1.17,1.16,2.24,1.48
				c0.45,0.46,1.07,0.77,1.92,1.02c0.03,0.07,0.07,0.14,0.11,0.2c0.07,0.11,0.15,0.22,0.23,0.32c-0.22,0.06-0.43,0.14-0.62,0.26
				c-0.65,0.27-1.15,0.81-1.37,1.49c-0.02,0.07-0.04,0.15-0.06,0.23c-0.5,0.21-0.92,0.58-1.19,1.22c-0.54,0.3-0.96,0.8-1.15,1.39
				c-0.05,0.16-0.08,0.32-0.1,0.49c-0.43,0.13-0.81,0.37-1.11,0.76c-0.03,0.01-0.06,0.03-0.09,0.04c-0.61,0.3-1.06,0.81-1.27,1.46
				c0,0,0,0.01,0,0.01c-0.16,0.21-0.29,0.46-0.38,0.72c-0.01,0.03-0.02,0.07-0.03,0.1c-0.64,0.27-1.13,0.8-1.35,1.47
				c-0.02,0.07-0.04,0.15-0.06,0.23c-0.05,0.02-0.1,0.04-0.15,0.06c-0.63,0.28-1.11,0.81-1.32,1.47c-0.13,0.41-0.14,0.86-0.02,1.27
				c-0.1,0.1-0.19,0.22-0.27,0.35c-0.08,0.03-0.16,0.06-0.24,0.1c-0.16,0.08-0.31,0.17-0.45,0.28c-0.02,0.01-0.05,0.02-0.07,0.03
				c-0.64,0.28-1.13,0.81-1.35,1.48c-0.04,0.13-0.07,0.26-0.09,0.4c-0.16,0.21-0.29,0.46-0.38,0.72c-0.03,0.11-0.06,0.22-0.08,0.33
				c-0.37,0.26-0.66,0.62-0.83,1.04c-0.3,0.28-0.53,0.63-0.66,1.03c-0.01,0.04-0.03,0.08-0.04,0.13c-0.34,0.29-0.59,0.66-0.73,1.1
				c-0.02,0.07-0.04,0.13-0.05,0.2c-0.11,0.17-0.19,0.35-0.26,0.55c-0.01,0.02-0.02,0.05-0.02,0.07c-0.38,0.26-0.67,0.62-0.85,1.05
				c-0.25,0.23-0.46,0.53-0.62,0.93c-0.19,0.23-0.34,0.5-0.43,0.79c-0.07,0.21-0.1,0.44-0.1,0.66c-0.04,0.09-0.08,0.18-0.11,0.28
				c-0.03,0.08-0.05,0.16-0.06,0.24c-0.3,0.28-0.52,0.63-0.65,1.03c-0.01,0.03-0.02,0.05-0.02,0.08c-0.34,0.29-0.6,0.67-0.74,1.1
				c-0.06,0.18-0.09,0.37-0.1,0.57c-0.1,0.17-0.18,0.36-0.25,0.57c-0.09,0.28-0.12,0.58-0.09,0.87c-0.2,0.23-0.37,0.53-0.49,0.9
				c-0.03,0.09-0.05,0.18-0.07,0.28c-0.03,0.07-0.06,0.14-0.08,0.22c-0.02,0.07-0.04,0.14-0.06,0.21c-0.11,0.15-0.21,0.32-0.29,0.51
				c-0.23,0.25-0.41,0.55-0.52,0.89c-0.12,0.37-0.13,0.77-0.05,1.15c-0.02,0.06-0.05,0.12-0.07,0.18c-0.09,0.26-0.12,0.54-0.1,0.82
				c-0.04,0.09-0.08,0.19-0.11,0.3c-0.02,0.07-0.04,0.14-0.06,0.22c-0.2,0.23-0.36,0.52-0.48,0.89c-0.08,0.25-0.11,0.51-0.1,0.78
				c-0.18,0.22-0.32,0.48-0.41,0.76c-0.13,0.41-0.14,0.86-0.02,1.28c-0.21,0.24-0.38,0.52-0.48,0.84c-0.09,0.29-0.12,0.6-0.09,0.9
				c-0.02,0.05-0.03,0.09-0.05,0.14c-0.1,0.29-0.12,0.61-0.09,0.92c-0.02,0.04-0.04,0.09-0.06,0.13c-0.24,0.25-0.42,0.56-0.53,0.9
				c0,0,0,0,0,0.01c-0.12,0.18-0.22,0.38-0.29,0.6c-0.07,0.23-0.11,0.47-0.1,0.71c-0.01,0.07-0.02,0.13-0.02,0.2
				c-0.13,0.19-0.23,0.39-0.3,0.61c-0.18,0.57-0.12,1.22,0.17,1.74c0.06,0.1,0.12,0.2,0.18,0.29c0.01,0.04,0.02,0.09,0.04,0.13
				c-0.13,0.19-0.23,0.39-0.3,0.61c-0.14,0.42-0.13,0.89-0.01,1.32c-0.17,0.22-0.32,0.49-0.43,0.83c-0.19,0.57-0.12,1.24,0.18,1.76
				c0.03,0.05,0.05,0.09,0.08,0.13c-0.02,0.17-0.01,0.33,0.01,0.5c-0.25,0.26-0.43,0.58-0.55,0.93c-0.19,0.57-0.12,1.24,0.18,1.76v0
				c-0.06,0.47,0.03,0.96,0.26,1.37c0.05,0.09,0.1,0.17,0.15,0.24c-0.06,0.12-0.11,0.24-0.16,0.37c-0.18,0.57-0.12,1.22,0.17,1.75
				c0.04,0.08,0.09,0.16,0.14,0.23c-0.01,0.02-0.01,0.04-0.02,0.06c-0.19,0.57-0.12,1.25,0.18,1.77c0.06,0.11,0.13,0.21,0.21,0.31
				c0.02,0.21,0.07,0.41,0.14,0.61c-0.1,0.38-0.1,0.79,0,1.17c0.04,0.29,0.13,0.56,0.27,0.81c0.12,0.21,0.26,0.39,0.42,0.54
				c-0.03,0.08-0.07,0.16-0.09,0.24c-0.19,0.57-0.12,1.23,0.18,1.76c0.01,0.02,0.02,0.04,0.03,0.06c0.03,0.31,0.13,0.6,0.28,0.86
				c0.03,0.06,0.07,0.12,0.11,0.17c-0.03,0.43,0.07,0.87,0.27,1.25c0.07,0.12,0.14,0.23,0.21,0.32c0.02,0.34,0.12,0.68,0.28,0.97
				c0.12,0.22,0.27,0.41,0.44,0.56c-0.01,0.41,0.09,0.83,0.28,1.18c0.06,0.11,0.13,0.21,0.2,0.3c0.05,0.23,0.13,0.45,0.24,0.65
				c0.11,0.2,0.24,0.36,0.39,0.51c0.05,0.21,0.12,0.41,0.23,0.59c0.29,0.51,0.68,0.82,1.25,1.07c-0.12,0.5-0.06,1.03,0.17,1.5
				C64.89,93.27,64.42,93.35,63.98,93.54z M107.94,58.88c-0.13,0.39-0.13,0.83-0.03,1.23c-0.1,0.16-0.18,0.33-0.23,0.51
				c-0.09,0.29-0.12,0.59-0.09,0.9c-0.01,0.03-0.02,0.07-0.03,0.1c-0.05,0.15-0.08,0.31-0.09,0.47c-0.06,0.11-0.12,0.23-0.16,0.36
				c-0.03,0.06-0.05,0.13-0.07,0.19c-0.09,0.27-0.12,0.55-0.1,0.84c-0.4,0.29-0.7,0.71-0.86,1.19c-0.11,0.35-0.13,0.73-0.06,1.09
				c-0.56,0.31-0.97,0.81-1.16,1.41c-0.13,0.41-0.14,0.88-0.01,1.3c-0.03,0.05-0.07,0.11-0.1,0.17c-0.46,0.27-0.82,0.69-1.02,1.19
				c-0.02,0.02-0.04,0.04-0.06,0.06c-0.12,0.04-0.25,0.09-0.37,0.15c-0.59,0.3-1.03,0.81-1.24,1.44c-0.06,0.19-0.1,0.4-0.1,0.6
				c-0.13,0.16-0.24,0.34-0.33,0.53c-0.41,0.24-0.74,0.59-0.96,1.01c-0.15,0.04-0.29,0.1-0.43,0.17c-0.55,0.27-0.98,0.73-1.21,1.28
				c-0.21,0.25-0.37,0.53-0.48,0.85c-0.03,0.1-0.06,0.2-0.07,0.31c-0.25,0.04-0.49,0.11-0.73,0.23c-0.43,0.21-0.78,0.53-1.02,0.92
				c-0.42,0.26-0.74,0.64-0.95,1.08c-0.33,0.17-0.6,0.42-0.82,0.72c-0.65,0.22-1.18,0.7-1.47,1.59c0,0,0,0,0,0.01
				c-0.29,0.22-0.52,0.49-0.69,0.81c-0.08,0.02-0.15,0.05-0.23,0.09c-0.34,0.14-0.64,0.36-0.88,0.64c-0.28,0.15-0.53,0.34-0.73,0.57
				c-0.15,0.04-0.3,0.09-0.45,0.15c-0.54,0.24-0.96,0.65-1.2,1.16c-0.02,0.01-0.03,0.03-0.05,0.04c-0.27,0.04-0.54,0.12-0.8,0.25
				c-0.57,0.28-1.01,0.74-1.24,1.33c-0.04,0.05-0.07,0.1-0.1,0.16c-0.23,0.05-0.45,0.13-0.68,0.24c-0.25,0.13-0.47,0.29-0.66,0.48
				c-0.04,0.02-0.09,0.04-0.13,0.06c-0.11,0.05-0.21,0.1-0.31,0.16c-0.15,0.03-0.29,0.08-0.44,0.14c-0.25,0.03-0.49,0.09-0.73,0.19
				c-0.57,0.24-1.02,0.69-1.27,1.24c-0.22,0.04-0.44,0.11-0.65,0.21c-0.14,0.07-0.28,0.15-0.41,0.24c-0.4,0.01-0.79,0.09-1.17,0.27
				c-0.09,0.04-0.18,0.09-0.26,0.14c-0.35-0.01-0.7,0.05-1.05,0.19c-0.53,0.22-0.96,0.61-1.23,1.11c-0.07,0.07-0.14,0.14-0.2,0.22
				c-0.14,0.04-0.28,0.1-0.41,0.16c-0.03,0.01-0.05,0.03-0.07,0.04c-0.46-0.03-0.91,0.04-1.34,0.23c-0.25,0.11-0.47,0.26-0.66,0.43
				c-0.2,0.01-0.39,0.04-0.57,0.09c-0.37-0.04-0.73-0.01-1.09,0.1c-0.04-0.03-0.07-0.06-0.1-0.09c-0.05-0.2-0.13-0.39-0.23-0.57
				c-0.16-0.28-0.36-0.5-0.59-0.68c-0.02-0.35-0.12-0.7-0.29-1c-0.03-0.06-0.07-0.11-0.1-0.16c-0.04-0.13-0.1-0.26-0.17-0.38
				c-0.16-0.28-0.35-0.51-0.6-0.69c-0.03-0.09-0.08-0.17-0.12-0.25c-0.16-0.28-0.35-0.5-0.59-0.69c0-0.31-0.06-0.62-0.19-0.9
				c0.05-0.46-0.04-0.95-0.26-1.35c-0.14-0.25-0.29-0.44-0.49-0.61c-0.05-0.07-0.1-0.13-0.16-0.19c0.12-0.53,0.04-1.12-0.22-1.59
				c-0.07-0.13-0.15-0.25-0.24-0.35c-0.03-0.08-0.07-0.16-0.12-0.24c-0.04-0.08-0.09-0.15-0.14-0.22c-0.02-0.18-0.06-0.36-0.13-0.53
				c0.13-0.53,0.05-1.12-0.22-1.6c-0.06-0.1-0.11-0.19-0.18-0.28c-0.05-0.22-0.12-0.43-0.23-0.62c0,0,0-0.01-0.01-0.01
				c-0.01-0.02-0.03-0.05-0.04-0.07c-0.13-0.22-0.27-0.41-0.44-0.56c0.04-0.08,0.07-0.16,0.1-0.25c0.11-0.33,0.13-0.69,0.07-1.03
				c0.01-0.02,0.01-0.04,0.02-0.06c0.19-0.57,0.12-1.22-0.17-1.75c-0.01-0.02-0.02-0.04-0.04-0.06c0.1-0.48,0.03-0.99-0.19-1.43
				c-0.02-0.32-0.1-0.65-0.25-0.93c0.09-0.16,0.17-0.32,0.22-0.5c0.17-0.51,0.13-1.09-0.09-1.58c0.1-0.32,0.12-0.68,0.06-1.02
				c0.11-0.47,0.06-0.99-0.14-1.43c0.13-0.2,0.24-0.43,0.33-0.69c0.18-0.55,0.12-1.17-0.14-1.69c0.24-0.26,0.43-0.57,0.54-0.92
				c0.09-0.29,0.12-0.59,0.09-0.9c0.05-0.1,0.09-0.2,0.12-0.31c0.1-0.32,0.13-0.67,0.08-1c0-0.01,0.01-0.02,0.01-0.03
				c0.15-0.46,0.13-0.97-0.03-1.42c0.13-0.19,0.24-0.42,0.32-0.68c0.09-0.26,0.12-0.55,0.1-0.83c0.03-0.07,0.05-0.14,0.08-0.21
				c0.06-0.17,0.09-0.35,0.1-0.54c0.07-0.13,0.13-0.27,0.18-0.41c0.12-0.36,0.13-0.75,0.06-1.13c0.09-0.15,0.16-0.31,0.22-0.48
				c0-0.01,0-0.01,0.01-0.02c0.25-0.25,0.46-0.59,0.61-1.03c0.07-0.2,0.1-0.42,0.1-0.64c0.09-0.16,0.17-0.33,0.23-0.53
				c0.1-0.32,0.13-0.66,0.08-1c0.02-0.05,0.03-0.1,0.05-0.15c0.02-0.05,0.03-0.1,0.04-0.15c0.19-0.23,0.35-0.52,0.46-0.87
				c0.14-0.43,0.14-0.92,0-1.36c0-0.02-0.01-0.04-0.01-0.05c0.1-0.17,0.19-0.36,0.26-0.58c0.02-0.06,0.04-0.12,0.05-0.18
				c0.05-0.1,0.09-0.2,0.12-0.3c0.03-0.09,0.05-0.18,0.07-0.27c0.17-0.22,0.31-0.48,0.42-0.81c0.01-0.03,0.02-0.07,0.03-0.1
				c0.35-0.16,0.66-0.4,0.91-0.76c0.25-0.26,0.44-0.57,0.55-0.92c0,0,0-0.01,0-0.01c0.22-0.24,0.4-0.56,0.53-0.96
				c0.05-0.15,0.08-0.3,0.09-0.45c0.06-0.11,0.1-0.23,0.14-0.35c0.03-0.08,0.05-0.17,0.06-0.25c0.35-0.29,0.61-0.68,0.75-1.12
				c0.13-0.41,0.14-0.86,0.02-1.27c0.29-0.2,0.52-0.46,0.7-0.75c0.03-0.01,0.07-0.03,0.1-0.04c0.62-0.29,1.08-0.81,1.29-1.46
				c0.03-0.08,0.05-0.17,0.07-0.25c0.41-0.3,0.72-0.72,0.88-1.21c0.06-0.2,0.1-0.4,0.1-0.61c0.23-0.11,0.44-0.26,0.62-0.45
				c0.37-0.29,0.65-0.69,0.8-1.15c0.05-0.15,0.08-0.3,0.09-0.45c0.34-0.28,0.6-0.66,0.75-1.1c0.03-0.09,0.05-0.17,0.07-0.26
				c0.02-0.03,0.05-0.06,0.07-0.09c0.64-0.21,1.18-0.68,1.47-1.56c0.04-0.12,0.07-0.24,0.08-0.37c0.16-0.2,0.29-0.43,0.38-0.68
				c0.45-0.22,0.81-0.56,1.05-0.98c0.29-0.26,0.51-0.58,0.64-0.95c0.62-0.28,1.1-0.81,1.31-1.47c0.07-0.22,0.11-0.46,0.1-0.7
				c0.1-0.11,0.19-0.22,0.27-0.34c0.08-0.02,0.15-0.05,0.23-0.08c0.67-0.26,1.18-0.8,1.4-1.49c0-0.01,0.01-0.02,0.01-0.03
				c0.1-0.03,0.2-0.06,0.3-0.11c0.58-0.25,1.04-0.72,1.29-1.3c0.01,0,0.02-0.01,0.03-0.01c0.65-0.25,1.15-0.77,1.38-1.43
				c0.02-0.02,0.04-0.05,0.06-0.07c0.01-0.01,0.02-0.02,0.03-0.03c0.25,0.14,0.52,0.26,0.84,0.37c0.05,0.04,0.1,0.08,0.15,0.12
				c0.05,0.17,0.12,0.33,0.22,0.48c0.36,0.61,0.91,0.98,1.71,1.25c0.04,0.09,0.08,0.17,0.13,0.25c0.11,0.19,0.24,0.35,0.39,0.49
				c0.04,0.1,0.09,0.19,0.14,0.28c0.2,0.35,0.46,0.61,0.8,0.83c0.02,0.04,0.04,0.07,0.06,0.11c0.22,0.36,0.5,0.64,0.86,0.86
				c0.22,0.36,0.5,0.63,0.86,0.85c0.03,0.06,0.06,0.12,0.1,0.18c0.25,0.43,0.59,0.74,1.05,0.98c0.05,0.2,0.13,0.4,0.24,0.58
				c0.16,0.28,0.36,0.51,0.61,0.7c0.2,0.26,0.43,0.46,0.72,0.63c-0.01,0.41,0.1,0.82,0.31,1.18c0.17,0.28,0.37,0.51,0.62,0.7
				c0.26,0.39,0.59,0.66,1.03,0.87c0.05,0.16,0.12,0.32,0.21,0.48c0.19,0.33,0.43,0.58,0.73,0.78c0.03,0.32,0.13,0.64,0.29,0.92
				c0.15,0.26,0.33,0.47,0.55,0.65c0.04,0.3,0.13,0.59,0.29,0.85c0.08,0.14,0.18,0.27,0.28,0.39c0.02,0.34,0.13,0.67,0.3,0.97
				c0.22,0.37,0.49,0.64,0.84,0.85c0.03,0.33,0.13,0.65,0.3,0.94c0.04,0.07,0.08,0.14,0.13,0.2c-0.06,0.48,0.04,0.98,0.27,1.39
				c0.12,0.21,0.25,0.38,0.41,0.53c0.03,0.06,0.06,0.12,0.09,0.18c0.16,0.28,0.36,0.51,0.6,0.69c-0.05,0.1-0.09,0.2-0.12,0.3
				c-0.19,0.57-0.12,1.24,0.18,1.76c0.12,0.22,0.26,0.4,0.43,0.55c0,0.05,0.01,0.09,0.02,0.14c0.02,0.34,0.12,0.68,0.3,0.98
				c0.05,0.09,0.1,0.17,0.16,0.24c0.01,0.12,0.04,0.23,0.07,0.34c-0.05,0.46,0.05,0.94,0.27,1.33c0.08,0.13,0.16,0.26,0.25,0.36
				c-0.1,0.16-0.18,0.33-0.24,0.52c-0.19,0.57-0.12,1.25,0.18,1.77c0,0.36,0.09,0.71,0.25,1.02c-0.01,0.08-0.02,0.16-0.03,0.24
				c-0.04,0.09-0.08,0.19-0.11,0.29c-0.04,0.12-0.07,0.24-0.08,0.37c-0.02,0.05-0.04,0.1-0.06,0.15c-0.19,0.57-0.12,1.25,0.18,1.77
				c0.09,0.16,0.19,0.3,0.31,0.43C108.5,57.85,108.13,58.32,107.94,58.88z"/>
		</g>
	</g>
</g>
</svg>
