<?xml version="1.0" encoding="utf-8"?>
<!-- Generator: Adobe Illustrator 25.0.1, SVG Export Plug-In . SVG Version: 6.00 Build 0)  -->
<svg version="1.1" id="레이어_1" xmlns="http://www.w3.org/2000/svg" xmlns:xlink="http://www.w3.org/1999/xlink" x="0px"
	 y="0px" viewBox="0 0 50 50" style="enable-background:new 0 0 50 50;" xml:space="preserve">
<g>
	<path d="M10.57,10.16c0,0.03,0.01,0.07,0.02,0.1c0,0.02-0.01,0.03-0.01,0.05c-0.01,0.02-0.02,0.05-0.03,0.07
		c-0.08,0.23-0.05,0.51,0.08,0.72c0,0,0,0.01,0.01,0.01c-0.03,0.17,0,0.35,0.07,0.51c0,0.04,0,0.08,0.01,0.12
		c-0.05,0.22-0.02,0.46,0.09,0.66c0.05,0.08,0.1,0.15,0.16,0.21c0,0.02-0.01,0.04-0.01,0.06c-0.03,0.2,0.01,0.4,0.11,0.57
		c0.02,0.04,0.05,0.08,0.07,0.11c-0.05,0.22-0.01,0.44,0.1,0.64c0.03,0.05,0.06,0.09,0.09,0.13c-0.01,0.18,0.03,0.36,0.12,0.51
		c0.17,0.28,0.43,0.42,0.81,0.53c-0.03,0.23,0.02,0.46,0.14,0.66c0.35,0.56,1.1,0.69,2.52,0.9c0.17,0.02,0.37,0.06,0.58,0.09
		c0.36,0.17,0.69,0.31,1,0.4c0.06,0.04,0.13,0.08,0.21,0.1c0.09,0.03,0.18,0.04,0.27,0.04c0.08,0,0.16-0.01,0.23-0.03
		c0.07,0,0.13-0.01,0.2-0.02c0.21,0.03,0.41,0.02,0.6-0.06c0.07-0.03,0.13-0.06,0.2-0.1c0.07-0.01,0.14-0.04,0.2-0.06
		c0.09-0.04,0.17-0.09,0.24-0.14c0.02-0.01,0.04-0.01,0.06-0.02c0.08-0.03,0.15-0.08,0.22-0.13c0.12-0.01,0.23-0.04,0.34-0.09
		c0.09-0.04,0.17-0.09,0.24-0.15c0.06-0.01,0.11-0.03,0.16-0.06c0.16-0.07,0.3-0.18,0.4-0.32c0.07-0.04,0.13-0.08,0.19-0.13
		c0.03-0.01,0.06-0.02,0.09-0.04c0.22-0.1,0.39-0.27,0.49-0.48c0.02-0.01,0.04-0.02,0.06-0.03c0.14-0.07,0.26-0.17,0.35-0.29
		c0.03-0.02,0.06-0.04,0.09-0.07c0.03-0.01,0.06-0.02,0.08-0.03c0.23-0.1,0.4-0.28,0.5-0.5c0.24-0.11,0.43-0.32,0.51-0.58
		c0.01-0.02,0.01-0.04,0.02-0.06c0.11-0.08,0.19-0.19,0.26-0.3c0.1-0.1,0.17-0.23,0.21-0.36c0.04-0.13,0.05-0.28,0.03-0.42
		c0.16-0.12,0.29-0.29,0.35-0.48c0.07-0.22,0.05-0.48-0.06-0.68c0.05-0.16,0.04-0.35-0.01-0.51c0.06-0.08,0.11-0.18,0.15-0.31
		c0.08-0.23,0.05-0.51-0.08-0.72c0-0.01-0.01-0.01-0.01-0.02c0.03-0.05,0.05-0.11,0.08-0.18c0.07-0.23,0.05-0.47-0.06-0.69
		c0-0.16-0.04-0.32-0.12-0.46c-0.02-0.04-0.05-0.08-0.08-0.12c0.01-0.14-0.02-0.28-0.08-0.41c-0.02-0.08-0.05-0.16-0.1-0.24
		c-0.04-0.06-0.08-0.12-0.12-0.17c0.02-0.19-0.02-0.39-0.12-0.56c0-0.01-0.01-0.01-0.01-0.02C22.7,7.2,22.66,7.09,22.6,6.99
		c-0.07-0.11-0.15-0.2-0.24-0.28c-0.01-0.03-0.03-0.06-0.05-0.09c-0.07-0.12-0.16-0.22-0.27-0.29c0.01-0.17-0.04-0.34-0.13-0.49
		c-0.07-0.12-0.15-0.21-0.26-0.28c-0.01-0.13-0.05-0.26-0.12-0.38c-0.06-0.1-0.13-0.19-0.22-0.26c-0.02-0.12-0.06-0.23-0.12-0.33
		c-0.11-0.18-0.25-0.31-0.45-0.4c-0.02-0.04-0.04-0.09-0.06-0.13c-0.09-0.14-0.19-0.25-0.33-0.33c-0.03-0.09-0.07-0.17-0.12-0.25
		c-0.01-0.02-0.03-0.04-0.04-0.06c-0.01-0.02-0.03-0.05-0.04-0.07C20.04,3.14,19.88,3,19.67,2.88c-0.39-0.49-1.17-0.62-2.56-0.81
		c-0.08-0.01-0.16-0.02-0.25-0.04c-0.72-0.37-1.34-0.65-1.87-0.67c-0.33-0.08-0.63-0.07-0.9,0.03c-0.18,0.07-0.33,0.18-0.45,0.32
		c-0.1,0.01-0.19,0.03-0.29,0.06c-0.2,0.08-0.36,0.22-0.47,0.4c-0.03,0.01-0.06,0.02-0.09,0.03c-0.27,0.1-0.47,0.32-0.56,0.6
		c-0.01,0.03-0.02,0.07-0.03,0.1c-0.06,0.07-0.12,0.15-0.16,0.23c-0.11,0.11-0.2,0.24-0.25,0.39c-0.02,0.07-0.04,0.14-0.04,0.22
		c-0.09,0.1-0.16,0.22-0.21,0.36c-0.02,0.06-0.03,0.12-0.04,0.19c-0.15,0.12-0.26,0.28-0.32,0.46c-0.03,0.08-0.04,0.17-0.04,0.25
		c-0.02,0.04-0.04,0.08-0.05,0.12c-0.01,0.04-0.02,0.07-0.03,0.11c-0.1,0.1-0.17,0.23-0.21,0.36C10.79,5.8,10.8,6,10.86,6.18
		c-0.02,0.12-0.01,0.24,0.01,0.36c-0.07,0.09-0.12,0.19-0.16,0.29c-0.07,0.22-0.05,0.47,0.05,0.67c-0.03,0.06-0.06,0.12-0.08,0.19
		c-0.05,0.14-0.05,0.3-0.02,0.45c-0.01,0.02-0.01,0.03-0.02,0.05c-0.01,0.02-0.01,0.04-0.02,0.06c-0.05,0.07-0.09,0.15-0.12,0.24
		c-0.06,0.17-0.05,0.37,0,0.54c0,0.06,0.01,0.12,0.02,0.18c-0.03,0.05-0.05,0.1-0.07,0.16c-0.07,0.23-0.05,0.5,0.07,0.71
		C10.55,10.12,10.56,10.14,10.57,10.16z M16.7,4.1c0.02,0.01,0.04,0.02,0.06,0.03c0.02,0.05,0.04,0.1,0.07,0.15
		c0.1,0.16,0.24,0.28,0.41,0.38c0.01,0.03,0.03,0.05,0.04,0.08c0.09,0.16,0.21,0.27,0.37,0.36c0.01,0.03,0.03,0.06,0.05,0.09
		c0.08,0.13,0.17,0.23,0.29,0.31c0.02,0.07,0.05,0.14,0.09,0.21c0.12,0.2,0.29,0.33,0.52,0.43c0,0.16,0.04,0.32,0.13,0.46
		c0.03,0.06,0.07,0.11,0.11,0.15c0.02,0.06,0.05,0.12,0.08,0.18c0.06,0.1,0.13,0.18,0.21,0.25c0.01,0.04,0.03,0.07,0.05,0.1
		c0.07,0.11,0.15,0.2,0.25,0.28c-0.02,0.19,0.02,0.39,0.12,0.55c0,0.01,0.01,0.01,0.01,0.02c0.01,0.14,0.05,0.27,0.12,0.39
		c0,0.01,0.01,0.01,0.01,0.02c0.02,0.08,0.05,0.16,0.09,0.24c0.01,0.1,0.04,0.19,0.08,0.28c0.01,0.13,0.05,0.26,0.12,0.38
		c0.04,0.07,0.08,0.12,0.13,0.17c0.01,0.01,0.01,0.02,0.02,0.03c-0.02,0.17,0.01,0.35,0.09,0.5c0,0.01,0,0.02,0,0.03
		c-0.01,0.03-0.02,0.05-0.03,0.08c-0.12,0.11-0.21,0.25-0.26,0.4c-0.07,0.23-0.05,0.5,0.07,0.71c0,0,0,0,0,0
		c0.01,0.04,0.02,0.09,0.03,0.13c-0.05,0.05-0.1,0.1-0.15,0.17c-0.18,0.12-0.32,0.29-0.38,0.5c-0.01,0.04-0.02,0.08-0.03,0.12
		c-0.19,0.08-0.35,0.21-0.46,0.39c-0.17,0.1-0.3,0.25-0.38,0.44c-0.06,0.02-0.11,0.04-0.17,0.06c-0.19,0.09-0.35,0.23-0.45,0.41
		c-0.05,0.01-0.1,0.03-0.14,0.05c-0.07,0.03-0.14,0.07-0.2,0.12c-0.05,0.01-0.11,0.03-0.16,0.06c-0.15,0.07-0.28,0.17-0.38,0.3
		c-0.03,0.02-0.07,0.04-0.1,0.06c-0.15-0.01-0.29,0.01-0.44,0.07c-0.14,0.05-0.26,0.14-0.36,0.25c-0.01,0-0.02,0.01-0.03,0.01
		c-0.1,0-0.19,0.02-0.28,0.04c-0.33-0.13-0.63-0.2-0.91-0.19c-0.01-0.02-0.01-0.03-0.02-0.05c-0.04-0.06-0.08-0.12-0.13-0.17
		c-0.02-0.12-0.05-0.23-0.12-0.34c-0.02-0.04-0.05-0.08-0.08-0.12c-0.03-0.05-0.06-0.09-0.1-0.14c-0.01-0.03-0.03-0.05-0.04-0.08
		c-0.02-0.03-0.04-0.07-0.06-0.1c0-0.11-0.01-0.21-0.05-0.31c-0.01-0.05-0.02-0.1-0.04-0.14c-0.01-0.1-0.03-0.2-0.07-0.29
		c0.01-0.17-0.02-0.35-0.11-0.5c-0.02-0.07-0.05-0.14-0.09-0.21c0-0.01-0.01-0.01-0.01-0.02c0-0.01,0.01-0.02,0.01-0.03
		c0.07-0.23,0.05-0.5-0.07-0.71c-0.06-0.11-0.13-0.19-0.22-0.26c0-0.04-0.01-0.08-0.02-0.12c0.05-0.08,0.09-0.16,0.12-0.25
		c0.05-0.16,0.05-0.35,0.01-0.52c0.02-0.04,0.03-0.07,0.04-0.11C14,9.79,14.02,9.7,14.02,9.61c0.04-0.16,0.04-0.33,0-0.49
		c0.01-0.11,0.01-0.22-0.02-0.33c0-0.01,0-0.01,0-0.02c0.04-0.14,0.05-0.29,0.03-0.44c0.04-0.13,0.05-0.27,0.03-0.41c0,0,0,0,0-0.01
		c0.04-0.11,0.05-0.24,0.04-0.36c0-0.01,0.01-0.02,0.01-0.04c0.02-0.06,0.03-0.11,0.04-0.17c0.03-0.06,0.06-0.13,0.09-0.21
		c0.03-0.1,0.05-0.21,0.04-0.31c0.03-0.05,0.05-0.11,0.07-0.16c0,0,0,0,0,0c0.03-0.05,0.05-0.1,0.06-0.15
		c0.04-0.13,0.05-0.28,0.03-0.42c0.05-0.07,0.09-0.15,0.11-0.24c0.02-0.05,0.03-0.1,0.03-0.15c0.03-0.04,0.06-0.09,0.08-0.14
		c0.09-0.09,0.16-0.21,0.21-0.33c0.1-0.11,0.18-0.23,0.22-0.38c0.01-0.04,0.02-0.09,0.03-0.14c0.15-0.09,0.28-0.22,0.36-0.38
		c0.09-0.02,0.18-0.05,0.27-0.09c0.07-0.04,0.14-0.08,0.2-0.13c0.06-0.03,0.12-0.07,0.17-0.12C16.3,4.04,16.49,4.07,16.7,4.1z"/>
	<path d="M23.98,9.45c-0.01,0.07-0.01,0.13,0,0.2c-0.07,0.23-0.04,0.5,0.07,0.71c0.04,0.07,0.08,0.13,0.14,0.18
		c-0.05,0.22-0.02,0.45,0.1,0.65c0.04,0.07,0.09,0.13,0.14,0.19c-0.03,0.2,0.01,0.42,0.11,0.6c0.07,0.13,0.16,0.22,0.28,0.3
		c0.01,0.15,0.05,0.29,0.13,0.42c0.12,0.2,0.29,0.33,0.52,0.43c0.03,0.15,0.08,0.29,0.17,0.43c0.18,0.28,0.47,0.48,0.87,0.64
		c0.44,0.61,1.42,0.77,3.21,1.01c0.16,0.02,0.34,0.04,0.52,0.07c0.62,0.31,1.14,0.56,1.59,0.7c0.41,0.17,0.77,0.26,1.09,0.26
		c0.19,0,0.36-0.03,0.53-0.09c0.15-0.06,0.29-0.14,0.4-0.25c0.04-0.01,0.08-0.03,0.13-0.04c0.1-0.04,0.18-0.09,0.26-0.15
		c0.02-0.01,0.04-0.02,0.07-0.03c0.13-0.05,0.24-0.13,0.33-0.23c0.04-0.01,0.07-0.03,0.11-0.04c0.11-0.05,0.21-0.12,0.29-0.2
		c0.02-0.01,0.04-0.02,0.07-0.03c0.26-0.12,0.45-0.33,0.53-0.6c0-0.01,0-0.01,0.01-0.02c0,0,0.01-0.01,0.01-0.01
		c0.2-0.12,0.35-0.31,0.42-0.53c0.02-0.07,0.04-0.15,0.04-0.23c0.08-0.09,0.14-0.21,0.19-0.35c0.01-0.02,0.01-0.03,0.01-0.05
		c0,0,0-0.01,0.01-0.01c0.12-0.11,0.22-0.26,0.27-0.42c0.03-0.09,0.04-0.19,0.04-0.29c0.07-0.09,0.12-0.19,0.16-0.29
		c0.05-0.16,0.05-0.34,0.01-0.51c0.02-0.03,0.03-0.07,0.04-0.1c0.02-0.06,0.03-0.13,0.04-0.2c0-0.01,0.01-0.02,0.01-0.03
		c0.07-0.23,0.05-0.5-0.07-0.71c-0.01-0.01-0.02-0.03-0.03-0.04c0.06-0.08,0.1-0.17,0.13-0.27c0.08-0.23,0.05-0.51-0.08-0.72
		c-0.04-0.07-0.09-0.13-0.14-0.19c0.01-0.16-0.02-0.33-0.09-0.48c0.04-0.06,0.07-0.13,0.09-0.21c0.08-0.24,0.05-0.5-0.08-0.72
		c-0.02-0.03-0.03-0.05-0.05-0.08c0.02-0.04,0.04-0.09,0.05-0.14c0.07-0.2,0.05-0.44-0.03-0.63c0.01-0.17-0.03-0.35-0.11-0.5
		c-0.02-0.04-0.04-0.07-0.07-0.1c0.01-0.12-0.01-0.24-0.05-0.35c-0.02-0.11-0.06-0.21-0.11-0.3c-0.02-0.03-0.04-0.06-0.06-0.09
		c0.03-0.17,0.01-0.35-0.06-0.51c0-0.15-0.04-0.29-0.12-0.42c-0.06-0.1-0.13-0.18-0.21-0.25c-0.02-0.04-0.03-0.08-0.05-0.11
		c-0.05-0.09-0.11-0.17-0.19-0.23c0.01-0.18-0.03-0.37-0.12-0.53c-0.05-0.09-0.11-0.16-0.18-0.23c-0.01-0.15-0.05-0.29-0.12-0.42
		c-0.05-0.09-0.11-0.16-0.18-0.22c-0.01-0.12-0.05-0.25-0.12-0.36c-0.1-0.17-0.23-0.29-0.41-0.39c-0.03-0.09-0.07-0.17-0.12-0.26
		c-0.1-0.16-0.23-0.29-0.4-0.39c-0.01-0.03-0.03-0.05-0.04-0.08c-0.35-0.56-1.12-0.67-2.28-0.83c-0.01,0-0.01,0-0.02,0
		C30.6,0.2,29.9-0.17,29.26,0.08C29.2,0.1,29.15,0.13,29.1,0.16c-0.09,0.02-0.17,0.04-0.25,0.07c-0.18,0.08-0.33,0.2-0.44,0.35
		c-0.11,0.01-0.22,0.03-0.32,0.08c-0.11,0-0.23,0.02-0.34,0.07c-0.22,0.08-0.4,0.24-0.5,0.45C27.11,1.25,27,1.34,26.92,1.46
		c-0.19,0.12-0.34,0.3-0.41,0.52c0,0,0,0,0,0.01c-0.19,0.12-0.33,0.3-0.4,0.52c0,0.01-0.01,0.02-0.01,0.03
		c-0.24,0.11-0.42,0.32-0.5,0.58c-0.01,0.02-0.01,0.04-0.02,0.06c-0.05,0.07-0.1,0.15-0.13,0.24c-0.17,0.12-0.3,0.29-0.37,0.5
		c-0.04,0.13-0.05,0.28-0.03,0.42c-0.03,0.09-0.04,0.19-0.04,0.28c-0.14,0.11-0.24,0.27-0.3,0.44c-0.05,0.16-0.05,0.35-0.01,0.51
		c-0.07,0.09-0.13,0.19-0.16,0.3c-0.03,0.08-0.04,0.16-0.04,0.25c-0.02,0.03-0.04,0.07-0.06,0.1c-0.11,0.11-0.19,0.24-0.24,0.39
		c-0.04,0.12-0.05,0.25-0.03,0.37c-0.01,0.06-0.01,0.12-0.01,0.18c-0.06,0.08-0.11,0.18-0.14,0.28c-0.07,0.2-0.05,0.44,0.04,0.64
		c0,0.01,0,0.01,0,0.02c-0.01,0.03-0.03,0.07-0.04,0.1C24,8.22,24,8.24,24,8.25c-0.02,0.04-0.04,0.09-0.06,0.14
		c-0.07,0.2-0.05,0.43,0.03,0.63C23.94,9.16,23.94,9.31,23.98,9.45z M27.21,8.94c0.1-0.11,0.18-0.24,0.23-0.38
		c0.03-0.1,0.05-0.21,0.04-0.32c0.06-0.08,0.1-0.17,0.13-0.27c0.01-0.02,0.01-0.05,0.02-0.07c0.03-0.05,0.05-0.1,0.07-0.16
		c0.04-0.12,0.05-0.25,0.03-0.37c0.03-0.1,0.04-0.2,0.03-0.3c0.02-0.05,0.04-0.1,0.06-0.15c0.03-0.08,0.04-0.16,0.04-0.24
		c0.03-0.05,0.05-0.11,0.07-0.16c0.02-0.06,0.03-0.12,0.04-0.18c0.03-0.06,0.07-0.13,0.09-0.21c0.02-0.07,0.04-0.15,0.04-0.22
		c0.02-0.03,0.03-0.07,0.05-0.1c0.1-0.1,0.18-0.23,0.24-0.41c0.01-0.04,0.03-0.09,0.03-0.14c0.04-0.05,0.08-0.11,0.11-0.16
		c0.07-0.09,0.12-0.19,0.15-0.29c0.02-0.06,0.03-0.12,0.04-0.18c0.11-0.1,0.2-0.23,0.25-0.38C29,4.22,29.03,4.2,29.05,4.17
		c0.13-0.08,0.25-0.18,0.33-0.31c0.18-0.11,0.31-0.26,0.4-0.45c0.01-0.01,0.02-0.03,0.03-0.04c0.05-0.01,0.1-0.03,0.15-0.05
		c0.14-0.06,0.26-0.15,0.35-0.26c0.15,0,0.3-0.03,0.44-0.1c0.07-0.03,0.13-0.07,0.18-0.11c0,0,0,0,0,0.01
		c0.09,0.16,0.21,0.27,0.37,0.36c0.01,0.03,0.03,0.06,0.05,0.09c0.07,0.12,0.16,0.21,0.26,0.29c0.02,0.08,0.05,0.15,0.09,0.22
		c0.11,0.18,0.26,0.31,0.45,0.4c0,0.16,0.04,0.32,0.13,0.46c0.02,0.03,0.04,0.06,0.06,0.09c0.02,0.08,0.05,0.16,0.09,0.23
		c0.04,0.07,0.09,0.14,0.15,0.19c0.02,0.05,0.04,0.1,0.07,0.15c0.04,0.07,0.09,0.13,0.14,0.19c-0.03,0.18-0.01,0.37,0.07,0.53
		c0,0.14,0.03,0.28,0.09,0.41c0.02,0.11,0.05,0.22,0.11,0.32c0,0,0,0,0,0c0.01,0.07,0.02,0.14,0.05,0.2c0,0.15,0.04,0.3,0.12,0.43
		c0.03,0.05,0.06,0.09,0.09,0.13c0,0.01,0.01,0.01,0.01,0.02c0.01,0.01,0.01,0.02,0.02,0.04c-0.02,0.18,0.01,0.37,0.1,0.53
		c0,0.05,0.01,0.11,0.02,0.16c-0.01,0.02-0.01,0.04-0.01,0.06c-0.08,0.09-0.13,0.2-0.17,0.31c-0.07,0.23-0.05,0.5,0.07,0.71
		c0.01,0.02,0.02,0.03,0.03,0.05c0.02,0.08,0.05,0.16,0.1,0.24c0.02,0.04,0.05,0.07,0.07,0.11c0.01,0.05,0.02,0.1,0.03,0.15
		c0,0.01,0,0.02,0,0.03c-0.02,0.04-0.04,0.09-0.05,0.13c-0.01,0.03-0.02,0.05-0.02,0.08c-0.04,0.06-0.07,0.13-0.09,0.2
		c-0.06,0.18-0.05,0.39,0.01,0.57c-0.07,0.09-0.12,0.18-0.15,0.29c-0.03,0.08-0.04,0.17-0.04,0.25c-0.02,0.04-0.04,0.09-0.06,0.14
		c-0.03,0.1-0.05,0.21-0.04,0.32c-0.1,0.1-0.17,0.23-0.22,0.37c-0.01,0.04-0.02,0.07-0.03,0.11c-0.06,0.05-0.12,0.11-0.17,0.18
		c-0.11,0.08-0.2,0.18-0.27,0.29c-0.12,0-0.23,0.02-0.35,0.07c-0.13,0.05-0.24,0.13-0.34,0.22c-0.01,0-0.02,0.01-0.03,0.01
		c-0.13-0.01-0.25,0.01-0.37,0.04c-0.6-0.27-1.11-0.42-1.56-0.31c-0.39-0.23-0.75-0.43-1.08-0.6c-0.06-0.08-0.13-0.15-0.22-0.21
		c-0.06-0.06-0.13-0.11-0.2-0.15c-0.02-0.05-0.04-0.1-0.07-0.15c-0.05-0.08-0.11-0.16-0.18-0.22c-0.05-0.06-0.1-0.11-0.15-0.15
		c-0.06-0.1-0.13-0.18-0.22-0.25c-0.01-0.09-0.03-0.18-0.07-0.26c-0.02-0.07-0.04-0.14-0.08-0.21c-0.01-0.06-0.03-0.12-0.06-0.18
		c0.01-0.16-0.02-0.33-0.1-0.48c-0.01-0.04-0.02-0.08-0.04-0.12c0.02-0.04,0.04-0.08,0.05-0.13c0.07-0.23,0.05-0.5-0.07-0.71
		C27.31,9.06,27.26,9,27.21,8.94C27.21,8.94,27.21,8.94,27.21,8.94z"/>
	<path d="M49.36,16.46c0.02-0.1,0.02-0.21,0.01-0.32c0-0.14-0.03-0.27-0.09-0.39c0.05-0.17,0.05-0.34,0.01-0.51
		c0.01-0.18-0.02-0.36-0.12-0.52c-0.05-0.08-0.1-0.15-0.16-0.2c-0.02-0.05-0.04-0.1-0.07-0.14c-0.03-0.05-0.06-0.1-0.1-0.14
		c0.03-0.2-0.01-0.41-0.11-0.59c-0.04-0.07-0.09-0.14-0.15-0.19c0-0.15-0.05-0.31-0.13-0.44c-0.05-0.09-0.12-0.17-0.19-0.23
		c-0.02-0.13-0.06-0.25-0.12-0.37c-0.1-0.17-0.24-0.29-0.42-0.39c-0.03-0.08-0.06-0.16-0.11-0.24c-0.11-0.18-0.27-0.32-0.47-0.43
		c-0.41-0.4-1.15-0.53-2.41-0.71c-0.04-0.01-0.08-0.01-0.12-0.02c-1.02-0.55-1.78-0.92-2.43-0.66c-0.22,0.09-0.39,0.24-0.51,0.43
		c-0.23-0.06-0.46-0.07-0.69,0.02c-0.23,0.09-0.41,0.26-0.52,0.48c-0.09,0.06-0.17,0.13-0.24,0.21c-0.21,0.11-0.37,0.28-0.46,0.49
		c-0.21,0.11-0.38,0.28-0.47,0.5c-0.05,0.01-0.09,0.03-0.14,0.05c-0.21,0.09-0.38,0.25-0.48,0.45c-0.09,0.08-0.17,0.17-0.23,0.27
		c-0.26,0.11-0.46,0.32-0.55,0.59c-0.02,0.05-0.03,0.11-0.03,0.16c-0.04,0.07-0.08,0.14-0.1,0.22c-0.01,0.04-0.03,0.09-0.03,0.14
		c-0.21,0.12-0.37,0.31-0.45,0.54c-0.05,0.14-0.05,0.29-0.02,0.44c-0.09,0.1-0.16,0.22-0.21,0.36c-0.03,0.08-0.04,0.17-0.04,0.26
		c-0.04,0.06-0.07,0.13-0.09,0.2c-0.07,0.09-0.13,0.19-0.17,0.31c-0.05,0.15-0.05,0.32-0.02,0.47c-0.01,0.12,0.01,0.23,0.04,0.35
		c-0.01,0.03-0.02,0.05-0.03,0.08c-0.07,0.23-0.05,0.5,0.07,0.71c0.02,0.03,0.04,0.07,0.06,0.1c0.02,0.1,0.05,0.2,0.11,0.3
		c0,0.05,0,0.1,0.01,0.15c-0.01,0.18,0.03,0.36,0.12,0.53c0.06,0.09,0.12,0.17,0.2,0.24c0,0.15,0.05,0.3,0.12,0.43
		c0.03,0.05,0.07,0.1,0.1,0.15c0.02,0.09,0.05,0.17,0.1,0.25c0.02,0.03,0.04,0.06,0.06,0.08c0.02,0.11,0.05,0.22,0.11,0.32
		c0.1,0.18,0.24,0.3,0.44,0.4c0.02,0.06,0.05,0.13,0.08,0.19c0.01,0.02,0.03,0.05,0.04,0.07c0.01,0.04,0.02,0.09,0.04,0.13
		c0.02,0.07,0.05,0.13,0.09,0.2c0.08,0.14,0.19,0.25,0.33,0.33c0.02,0.06,0.04,0.12,0.07,0.18c0.01,0.12,0.05,0.24,0.12,0.35
		c0.09,0.15,0.2,0.26,0.35,0.35c0.01,0.13,0.06,0.26,0.13,0.38c0.11,0.19,0.28,0.32,0.49,0.42c0.03,0.13,0.07,0.25,0.14,0.37
		c0.14,0.23,0.35,0.39,0.63,0.51c0,0.01,0.01,0.02,0.01,0.02c0.35,0.56,1.11,0.7,2.54,0.91c0.16,0.02,0.35,0.05,0.55,0.08
		c0.36,0.17,0.7,0.3,1,0.39c0.07,0.06,0.16,0.1,0.25,0.13c0.13,0.04,0.27,0.05,0.39,0.03c0.06,0.01,0.12,0.01,0.18,0.01
		c0.16,0,0.32-0.03,0.47-0.08c0.15-0.06,0.29-0.15,0.4-0.26c0.01,0,0.01,0,0.02-0.01c0.16-0.07,0.29-0.17,0.4-0.3
		c0.09-0.06,0.17-0.14,0.23-0.22c0.12-0.06,0.22-0.15,0.3-0.25c0.23-0.12,0.39-0.32,0.47-0.56c0.01-0.04,0.02-0.08,0.03-0.12
		c0.15-0.12,0.27-0.28,0.33-0.47c0.02-0.08,0.04-0.16,0.04-0.24c0.08-0.09,0.14-0.21,0.19-0.35c0,0,0-0.01,0-0.01
		c0.15-0.12,0.26-0.28,0.32-0.46c0.03-0.09,0.04-0.18,0.04-0.28c0.07-0.09,0.13-0.19,0.16-0.31c0.04-0.14,0.05-0.29,0.03-0.43
		c0.03-0.05,0.05-0.11,0.07-0.17c0.01-0.04,0.02-0.09,0.03-0.13c0.01-0.03,0.03-0.06,0.04-0.09c0.07-0.22,0.05-0.49-0.07-0.7
		c0.07-0.09,0.12-0.19,0.16-0.3c0.08-0.23,0.05-0.5-0.07-0.71c-0.02-0.04-0.05-0.08-0.08-0.12c0.02-0.13,0.01-0.27-0.03-0.4
		c0.06-0.08,0.11-0.18,0.15-0.31c0.06-0.19,0.05-0.41-0.02-0.59c0.05-0.08,0.1-0.17,0.14-0.28c0.05-0.16,0.05-0.33,0.01-0.5
		C49.46,16.83,49.44,16.63,49.36,16.46z M46.15,17.64c-0.02,0.04-0.04,0.09-0.05,0.14c0,0.01-0.01,0.02-0.01,0.03
		c-0.1,0.1-0.18,0.23-0.22,0.37c-0.07,0.23-0.05,0.5,0.07,0.7c0.02,0.1,0.05,0.2,0.1,0.28c0,0,0,0.01,0.01,0.01
		c0,0.03,0,0.05,0.01,0.08c-0.05,0.08-0.1,0.17-0.13,0.28c-0.06,0.08-0.11,0.17-0.14,0.27c-0.05,0.16-0.05,0.35-0.01,0.52
		c-0.08,0.1-0.14,0.21-0.18,0.33c-0.02,0.06-0.03,0.13-0.04,0.2c-0.03,0.06-0.06,0.12-0.08,0.19c-0.03,0.09-0.04,0.19-0.04,0.3
		c-0.11,0.11-0.19,0.24-0.24,0.39c-0.02,0.06-0.03,0.12-0.04,0.18c-0.06,0.06-0.12,0.13-0.16,0.21c-0.1,0.09-0.18,0.21-0.24,0.33
		c-0.03,0.01-0.06,0.02-0.09,0.03c-0.19,0.07-0.35,0.21-0.46,0.38c-0.35-0.14-0.66-0.23-0.95-0.23c-0.02-0.03-0.03-0.07-0.05-0.1
		c-0.06-0.1-0.13-0.19-0.22-0.26c-0.03-0.03-0.06-0.06-0.09-0.08c-0.02-0.08-0.05-0.15-0.1-0.22c-0.06-0.1-0.13-0.19-0.22-0.26
		c-0.04-0.05-0.08-0.09-0.13-0.12c-0.09-0.14-0.2-0.25-0.33-0.33c-0.02-0.11-0.06-0.21-0.11-0.31c-0.02-0.03-0.04-0.06-0.05-0.08
		c-0.01-0.03-0.03-0.06-0.04-0.08c-0.03-0.05-0.06-0.1-0.1-0.14c-0.02-0.04-0.04-0.08-0.06-0.12c-0.06-0.1-0.13-0.18-0.21-0.25
		c-0.02-0.09-0.05-0.17-0.1-0.25c-0.05-0.09-0.11-0.16-0.18-0.22c0,0,0-0.01-0.01-0.01c-0.09-0.15-0.2-0.26-0.34-0.34
		c0.02-0.19-0.02-0.38-0.12-0.55c-0.11-0.18-0.25-0.31-0.45-0.4c-0.02-0.11-0.05-0.21-0.11-0.31c-0.01-0.01-0.02-0.03-0.02-0.04
		c0-0.01,0.01-0.02,0.01-0.02c0.06-0.2,0.05-0.42-0.03-0.62c0-0.01,0.01-0.02,0.01-0.03c0.03-0.08,0.04-0.17,0.04-0.25
		c0.05-0.17,0.05-0.37-0.01-0.54c0-0.04,0-0.09,0-0.13c0.03-0.05,0.05-0.1,0.07-0.16c0.02-0.07,0.03-0.14,0.04-0.21
		c0.03-0.06,0.06-0.12,0.09-0.19c0,0,0,0,0-0.01c0.08-0.09,0.15-0.21,0.19-0.36c0-0.01,0.01-0.02,0.01-0.03
		c0.03-0.03,0.05-0.07,0.08-0.1c0.16-0.09,0.29-0.24,0.38-0.46c0.06-0.04,0.11-0.09,0.16-0.15c0.15-0.12,0.27-0.27,0.33-0.46
		c0.16-0.09,0.28-0.21,0.37-0.36c0.07-0.04,0.14-0.1,0.2-0.16c0.01,0,0.01-0.01,0.02-0.01c0.15-0.07,0.28-0.18,0.37-0.3
		c0.17-0.09,0.31-0.22,0.4-0.39c0.04-0.04,0.08-0.09,0.12-0.14c0.04-0.01,0.09-0.03,0.13-0.05c0.09-0.04,0.17-0.09,0.25-0.16
		c0.11-0.01,0.23-0.03,0.34-0.08c0.1-0.04,0.18-0.1,0.26-0.16c0.14,0.18,0.32,0.3,0.58,0.4c0.01,0.01,0.01,0.02,0.02,0.03
		c0.09,0.15,0.2,0.26,0.35,0.35c0.02,0.06,0.05,0.12,0.08,0.18c0.1,0.17,0.24,0.29,0.41,0.38c0,0.16,0.04,0.32,0.12,0.47
		c0,0.01,0.01,0.01,0.01,0.02c0.02,0.1,0.05,0.2,0.11,0.29c0.03,0.06,0.07,0.11,0.11,0.15c0.02,0.06,0.05,0.12,0.08,0.18
		c0.02,0.03,0.04,0.06,0.06,0.09c-0.04,0.15-0.04,0.3,0,0.45c-0.02,0.11-0.01,0.23,0.01,0.34c0,0.1,0.01,0.2,0.04,0.3
		c-0.01,0.08,0,0.17,0.02,0.25c-0.02,0.19,0.02,0.38,0.12,0.54c0.01,0.01,0.01,0.02,0.02,0.03c-0.04,0.17-0.04,0.34,0.01,0.5
		C46.15,17.58,46.15,17.61,46.15,17.64z"/>
	<path d="M43.44,35.32c-0.04-0.06-0.08-0.12-0.12-0.17c0.02-0.19-0.02-0.38-0.11-0.54c-0.04-0.06-0.08-0.12-0.12-0.17
		c0.04-0.17,0.03-0.35-0.02-0.52c0-0.01,0.01-0.02,0.01-0.03c0.08-0.23,0.05-0.51-0.08-0.72c-0.01-0.01-0.01-0.02-0.02-0.04
		c0-0.15-0.04-0.31-0.12-0.44c-0.01-0.02-0.02-0.04-0.04-0.06c-0.02-0.08-0.05-0.17-0.09-0.24c-0.02-0.03-0.03-0.05-0.05-0.08
		c0-0.01,0.01-0.02,0.01-0.02c0.04-0.12,0.05-0.26,0.03-0.39c0.01-0.15-0.02-0.3-0.08-0.43c-0.01-0.14-0.05-0.29-0.12-0.42
		c-0.02-0.04-0.04-0.07-0.07-0.1c-0.01-0.12-0.05-0.23-0.11-0.33c-0.02-0.03-0.04-0.06-0.05-0.09c-0.01-0.08-0.03-0.16-0.06-0.24
		c-0.01-0.14-0.05-0.28-0.12-0.4c-0.06-0.09-0.12-0.17-0.2-0.24c-0.01-0.03-0.02-0.05-0.04-0.07c-0.01-0.02-0.03-0.04-0.04-0.06
		c-0.01-0.09-0.03-0.19-0.06-0.27c0.02-0.19-0.02-0.39-0.11-0.56c-0.01-0.02-0.02-0.04-0.03-0.06c-0.02-0.1-0.06-0.2-0.11-0.29
		c-0.04-0.06-0.07-0.11-0.12-0.16c0-0.16-0.04-0.32-0.12-0.46c-0.07-0.12-0.15-0.21-0.26-0.28c-0.02-0.04-0.04-0.09-0.06-0.13
		c-0.05-0.08-0.1-0.15-0.17-0.21c-0.01-0.02-0.01-0.03-0.02-0.05c-0.01-0.14-0.05-0.28-0.12-0.41c-0.07-0.13-0.17-0.22-0.28-0.3
		c-0.02-0.08-0.05-0.16-0.09-0.23c-0.01-0.15-0.05-0.3-0.13-0.43c-0.04-0.06-0.08-0.12-0.12-0.17c0-0.15-0.05-0.3-0.12-0.43
		c-0.13-0.22-0.32-0.36-0.59-0.46c-0.02-0.06-0.05-0.13-0.08-0.18c-0.03-0.04-0.05-0.08-0.08-0.12c-0.01-0.01-0.01-0.02-0.02-0.03
		c-0.04-0.07-0.09-0.13-0.14-0.19c-0.02-0.1-0.06-0.19-0.11-0.27c-0.03-0.05-0.06-0.09-0.09-0.13c-0.01-0.13-0.05-0.26-0.12-0.38
		c-0.13-0.23-0.33-0.37-0.61-0.48c-0.02-0.03-0.04-0.06-0.06-0.09c-0.02-0.11-0.06-0.22-0.12-0.31c-0.1-0.17-0.23-0.29-0.41-0.38
		c-0.02-0.06-0.05-0.11-0.08-0.17c-0.14-0.22-0.33-0.36-0.6-0.47c-0.01-0.01-0.01-0.02-0.02-0.03c-0.07-0.11-0.15-0.2-0.25-0.28
		c-0.02-0.09-0.06-0.17-0.11-0.25c-0.13-0.21-0.32-0.36-0.58-0.46c-0.01-0.01-0.01-0.02-0.02-0.03c-0.17-0.28-0.44-0.45-0.84-0.58
		c-0.03-0.1-0.08-0.21-0.14-0.3c-0.19-0.3-0.51-0.52-0.97-0.69c-0.62-0.35-1.64-0.49-3.13-0.67c-0.04,0-0.08-0.01-0.12-0.01
		c-1.79-1.03-2.86-1.58-3.71-1.26c-0.33,0.13-0.58,0.38-0.7,0.72c-0.06-0.01-0.12-0.02-0.16-0.03c-0.1-0.12-0.23-0.22-0.4-0.27
		c-0.14-0.05-0.28-0.05-0.42-0.03c-0.41-0.12-0.78-0.15-1.12,0c-0.12,0.05-0.22,0.12-0.31,0.21c-0.05,0-0.1,0.01-0.14,0.02
		c-0.21-0.03-0.41-0.01-0.61,0.07c-0.08,0.03-0.15,0.07-0.21,0.12c-0.08,0.01-0.16,0.03-0.24,0.06c-0.09,0.03-0.17,0.08-0.24,0.14
		c-0.02,0.01-0.03,0.01-0.05,0.02c-0.06,0.02-0.11,0.05-0.16,0.09c-0.13,0.01-0.25,0.04-0.37,0.1c-0.17,0.07-0.31,0.19-0.41,0.33
		c-0.26-0.05-0.5-0.03-0.73,0.07c-0.11,0.05-0.2,0.11-0.28,0.18c-0.07,0.01-0.15,0.04-0.22,0.07c-0.25,0.11-0.45,0.31-0.54,0.57
		c-0.02,0.01-0.05,0.02-0.07,0.02c-0.2-0.02-0.39,0-0.58,0.08c-0.25,0.11-0.44,0.32-0.54,0.57c-0.08,0.01-0.15,0.03-0.23,0.06
		c-0.21,0.08-0.38,0.23-0.48,0.42c0,0,0,0,0,0c-0.05,0.01-0.1,0.03-0.14,0.05c-0.21,0.1-0.38,0.26-0.48,0.46
		c-0.01,0.01-0.01,0.02-0.02,0.02c-0.11,0.06-0.21,0.14-0.29,0.23c-0.14,0-0.28,0.02-0.43,0.08c-0.25,0.11-0.44,0.31-0.53,0.56
		c-0.23,0.12-0.4,0.32-0.48,0.56c-0.06,0.02-0.13,0.04-0.19,0.07c-0.22,0.11-0.38,0.28-0.47,0.5c-0.08,0.02-0.16,0.04-0.24,0.08
		c-0.24,0.11-0.42,0.31-0.51,0.56c-0.05,0.06-0.1,0.12-0.14,0.2c-0.08,0.08-0.15,0.18-0.2,0.28c-0.06,0.01-0.11,0.03-0.17,0.06
		c-0.23,0.1-0.4,0.28-0.49,0.51c-0.21,0.12-0.37,0.32-0.44,0.55c-0.01,0.03-0.02,0.05-0.02,0.08c-0.08,0.08-0.15,0.18-0.19,0.29
		c-0.02,0.01-0.03,0.02-0.05,0.04c0.03-0.05,0.05-0.1,0.07-0.16c0.05-0.14,0.05-0.31,0.02-0.46c0.02-0.05,0.04-0.09,0.06-0.14
		c0.02-0.07,0.03-0.14,0.04-0.21c0.18-0.1,0.33-0.27,0.41-0.54c0.03-0.11,0.05-0.22,0.04-0.34c0.13-0.1,0.24-0.25,0.31-0.47
		c0.02-0.07,0.04-0.15,0.04-0.23c0.02-0.04,0.04-0.09,0.05-0.13c0.06-0.18,0.05-0.39-0.01-0.57c0.02-0.08,0.03-0.16,0.03-0.25
		c0.02-0.18-0.01-0.36-0.08-0.52c0.05-0.17,0.05-0.35,0.01-0.52c0.01-0.18-0.03-0.36-0.12-0.51c-0.06-0.1-0.13-0.18-0.21-0.25
		c-0.02-0.04-0.03-0.07-0.05-0.11c-0.07-0.12-0.15-0.21-0.26-0.29c0.01-0.18-0.03-0.35-0.13-0.51c-0.09-0.15-0.21-0.26-0.35-0.35
		c-0.02-0.13-0.06-0.25-0.12-0.36c-0.09-0.15-0.21-0.27-0.37-0.36c-0.01-0.01-0.02-0.03-0.03-0.04c-0.02-0.09-0.06-0.17-0.1-0.25
		c-0.13-0.21-0.31-0.35-0.57-0.46c-0.02-0.04-0.03-0.07-0.06-0.1c-0.11-0.18-0.25-0.3-0.44-0.39c-0.02-0.06-0.06-0.13-0.09-0.18
		c-0.01-0.02-0.02-0.04-0.04-0.05c-0.01-0.03-0.03-0.05-0.05-0.08c-0.13-0.2-0.31-0.35-0.55-0.47c-0.39-0.37-1.08-0.49-2.23-0.65
		c-0.04-0.01-0.09-0.01-0.13-0.02c-0.68-0.36-1.24-0.63-1.74-0.65c-0.34-0.09-0.64-0.09-0.92,0.02c-0.19,0.07-0.34,0.2-0.47,0.35
		c-0.28-0.03-0.56,0.07-0.74,0.27c-0.09,0.01-0.19,0.03-0.28,0.06C2.89,15.8,2.7,16,2.6,16.25c-0.09,0.07-0.17,0.15-0.23,0.25
		c-0.17,0.12-0.3,0.29-0.36,0.49c-0.01,0.04-0.02,0.07-0.03,0.11c-0.14,0.12-0.24,0.27-0.29,0.44c-0.01,0.04-0.02,0.07-0.03,0.11
		c-0.19,0.12-0.33,0.3-0.4,0.52c-0.02,0.06-0.03,0.13-0.04,0.19c-0.03,0.06-0.06,0.11-0.08,0.18c-0.01,0.02-0.01,0.05-0.02,0.07
		c-0.11,0.11-0.2,0.24-0.25,0.4c-0.06,0.18-0.05,0.38,0.01,0.56c-0.02,0.11-0.02,0.23,0.01,0.34c-0.08,0.09-0.13,0.2-0.17,0.31
		c-0.07,0.23-0.05,0.5,0.07,0.71c0,0,0,0,0,0c-0.03,0.05-0.05,0.11-0.07,0.16c-0.05,0.14-0.05,0.3-0.02,0.46
		c-0.01,0.01-0.01,0.03-0.02,0.04c-0.01,0.02-0.01,0.05-0.02,0.07c-0.05,0.07-0.08,0.15-0.11,0.23c-0.06,0.17-0.05,0.37,0,0.55
		c0,0.07,0.01,0.14,0.03,0.21c-0.02,0.04-0.04,0.09-0.05,0.13c-0.07,0.23-0.05,0.5,0.07,0.71c0.01,0.02,0.02,0.04,0.03,0.06
		c0,0.03,0.01,0.07,0.02,0.1c0,0.02-0.01,0.03-0.01,0.05c-0.01,0.02-0.02,0.05-0.03,0.08C0.54,24,0.57,24.28,0.69,24.49
		c0,0.01,0.01,0.01,0.01,0.02c-0.02,0.16,0,0.33,0.06,0.48c0,0.03,0,0.06,0.01,0.09c-0.07,0.23-0.04,0.49,0.08,0.69
		c0.05,0.08,0.1,0.15,0.16,0.21c0,0,0,0,0,0.01c0,0.02,0,0.03-0.01,0.05c-0.03,0.19,0.01,0.4,0.11,0.57
		c0.02,0.04,0.05,0.08,0.07,0.11c-0.05,0.22-0.01,0.45,0.1,0.64c0.03,0.06,0.07,0.1,0.11,0.15c-0.01,0.17,0.03,0.35,0.13,0.5
		c0.09,0.16,0.21,0.27,0.37,0.35c0.02,0.13,0.07,0.26,0.14,0.37c0.12,0.18,0.28,0.32,0.49,0.44c0.01,0.02,0.02,0.04,0.04,0.06
		c0.33,0.53,0.99,0.66,2.34,0.86c0.17,0.03,0.39,0.06,0.6,0.1c0.25,0.11,0.49,0.21,0.72,0.28c0.08,0.07,0.18,0.13,0.29,0.16
		c0.09,0.03,0.18,0.04,0.27,0.04c0.06,0,0.11-0.01,0.17-0.02c0.24,0.03,0.46,0.01,0.67-0.07c0.13-0.05,0.25-0.13,0.36-0.22
		c0.03-0.01,0.06-0.02,0.09-0.03c0.14-0.06,0.26-0.15,0.36-0.26c0.06-0.04,0.12-0.09,0.17-0.14c0.05-0.01,0.09-0.03,0.14-0.05
		c0.13-0.06,0.25-0.15,0.34-0.26c0.21-0.11,0.37-0.28,0.45-0.49c0.02-0.02,0.03-0.03,0.05-0.05c0.23-0.12,0.41-0.32,0.49-0.57
		c0.01-0.02,0.01-0.04,0.02-0.06c0.1-0.07,0.18-0.17,0.25-0.29c0.02-0.02,0.04-0.04,0.07-0.06c0.22-0.12,0.38-0.31,0.47-0.55
		c0.14-0.08,0.25-0.2,0.33-0.34c0,0.02-0.01,0.04-0.01,0.06c-0.04,0.06-0.08,0.13-0.11,0.21c-0.21,0.12-0.37,0.31-0.44,0.55
		c-0.02,0.06-0.03,0.12-0.04,0.18c-0.08,0.08-0.15,0.17-0.19,0.28c-0.08,0.09-0.14,0.2-0.18,0.32c-0.02,0.05-0.03,0.1-0.03,0.15
		c-0.01,0.02-0.02,0.05-0.03,0.07c-0.01,0.03-0.02,0.07-0.03,0.11c-0.12,0.11-0.2,0.25-0.26,0.4c-0.01,0.02-0.01,0.05-0.02,0.07
		c-0.06,0.08-0.11,0.18-0.14,0.29c-0.04,0.13-0.05,0.28-0.03,0.42c-0.09,0.1-0.17,0.21-0.22,0.34c-0.12,0.1-0.21,0.25-0.27,0.44
		c-0.01,0.03-0.02,0.07-0.03,0.1c-0.01,0.05-0.02,0.1-0.03,0.15c-0.17,0.12-0.3,0.29-0.37,0.49c-0.06,0.17-0.05,0.36,0,0.54
		c-0.11,0.11-0.19,0.24-0.24,0.39c-0.04,0.12-0.05,0.26-0.03,0.38c-0.03,0.1-0.04,0.2-0.04,0.3c-0.01,0.02-0.01,0.03-0.02,0.05
		c-0.01,0.04-0.02,0.08-0.03,0.11c-0.12,0.1-0.23,0.25-0.29,0.45c-0.02,0.07-0.03,0.14-0.04,0.21c-0.11,0.11-0.19,0.24-0.24,0.39
		c-0.02,0.06-0.03,0.12-0.04,0.18c-0.04,0.06-0.06,0.12-0.08,0.19c-0.07,0.21-0.05,0.45,0.04,0.65c-0.02,0.07-0.03,0.14-0.03,0.22
		c-0.13,0.11-0.24,0.26-0.29,0.43c-0.01,0.03-0.02,0.06-0.02,0.09c-0.04,0.07-0.08,0.14-0.11,0.23c-0.05,0.16-0.05,0.34-0.01,0.51
		c-0.06,0.09-0.11,0.18-0.15,0.29c-0.02,0.06-0.03,0.13-0.04,0.2c-0.04,0.06-0.07,0.14-0.1,0.21c-0.04,0.12-0.05,0.26-0.03,0.38
		c-0.02,0.04-0.04,0.08-0.05,0.12c-0.03,0.08-0.04,0.17-0.04,0.25c-0.22,0.12-0.38,0.32-0.45,0.56c-0.04,0.12-0.05,0.25-0.04,0.38
		c0,0.01-0.01,0.02-0.01,0.03c-0.07,0.21-0.06,0.43,0.03,0.63c0.01,0.06,0.03,0.12,0.06,0.18c0,0.01-0.01,0.03-0.01,0.04
		c-0.08,0.24-0.05,0.5,0.08,0.72c0,0,0,0.01,0.01,0.01c0,0.05,0,0.09,0.01,0.14c-0.02,0.05-0.04,0.09-0.06,0.14
		c-0.08,0.24-0.05,0.51,0.08,0.73c0.08,0.13,0.17,0.23,0.29,0.31c0.02,0.09,0.05,0.17,0.1,0.25c0.04,0.07,0.09,0.14,0.15,0.19
		c0.01,0.07,0.02,0.14,0.05,0.21c0,0.16,0.04,0.32,0.12,0.46c0.06,0.1,0.13,0.19,0.22,0.26c0.02,0.09,0.05,0.17,0.1,0.25
		c0.01,0.02,0.03,0.04,0.04,0.06c-0.01,0.18,0.03,0.36,0.12,0.52c0.05,0.08,0.1,0.15,0.16,0.21c0.02,0.03,0.05,0.06,0.08,0.09
		c0.02,0.1,0.06,0.2,0.11,0.29c0.08,0.13,0.17,0.23,0.28,0.3c0.01,0.02,0.02,0.03,0.02,0.05c0.02,0.09,0.06,0.17,0.1,0.25
		c0.01,0.02,0.03,0.04,0.04,0.06c0.02,0.12,0.06,0.23,0.12,0.34c0.06,0.11,0.14,0.2,0.24,0.27c0.02,0.07,0.05,0.14,0.09,0.2
		c0.1,0.17,0.25,0.3,0.43,0.39c0.02,0.15,0.08,0.29,0.16,0.42c0.15,0.24,0.37,0.41,0.68,0.55c0.39,0.59,1.25,0.73,2.85,0.96
		c0.17,0.02,0.37,0.05,0.58,0.08c0.59,0.29,1.08,0.51,1.51,0.63c0.34,0.13,0.64,0.2,0.91,0.2c0.18,0,0.34-0.03,0.5-0.09
		c0.08-0.03,0.15-0.06,0.22-0.11c0.15,0,0.3-0.03,0.44-0.09c0.08-0.03,0.15-0.07,0.21-0.12c0.04-0.01,0.09-0.03,0.13-0.05
		c0.06-0.03,0.12-0.06,0.17-0.09c0.17,0,0.33-0.03,0.48-0.1c0.08-0.03,0.15-0.08,0.21-0.13c0.09-0.01,0.17-0.04,0.25-0.08
		C18.88,49.09,19,49,19.1,48.89c0.01-0.01,0.03-0.01,0.04-0.02c0.06-0.03,0.11-0.06,0.16-0.09c0.09-0.02,0.17-0.04,0.26-0.08
		c0.21-0.1,0.38-0.26,0.49-0.46c0.03-0.01,0.06-0.03,0.1-0.04c0.11-0.05,0.21-0.13,0.29-0.22c0.05-0.02,0.1-0.05,0.14-0.09
		c0.06-0.01,0.11-0.03,0.17-0.06c0.22-0.1,0.39-0.27,0.49-0.48c0.27-0.11,0.47-0.33,0.56-0.6c0,0,0-0.01,0-0.01
		c0.1-0.07,0.19-0.15,0.25-0.25c0.14-0.11,0.24-0.27,0.29-0.44c0.03-0.09,0.04-0.19,0.04-0.29c0.23-0.12,0.4-0.32,0.48-0.56
		c0.05-0.14,0.05-0.31,0.02-0.46c0.02-0.05,0.04-0.09,0.06-0.14c0.02-0.05,0.03-0.1,0.03-0.15c0.21-0.09,0.38-0.27,0.48-0.57
		c0.02-0.05,0.03-0.11,0.04-0.17c0.2-0.09,0.38-0.26,0.48-0.54c0.1-0.1,0.17-0.23,0.21-0.36c0.01-0.03,0.02-0.05,0.02-0.08
		c0.06-0.06,0.11-0.12,0.15-0.2c0.06-0.07,0.1-0.16,0.14-0.24c0.13-0.07,0.23-0.17,0.32-0.28c0.17-0.12,0.3-0.29,0.37-0.5
		c0.01-0.03,0.02-0.06,0.02-0.1c0.03-0.01,0.06-0.02,0.08-0.04c0.15-0.07,0.27-0.17,0.37-0.3c0.05-0.01,0.11-0.03,0.16-0.05
		c0.08-0.03,0.15-0.07,0.21-0.11c0.2,0.02,0.39-0.01,0.58-0.09c0.16-0.07,0.29-0.19,0.4-0.32c0.06,0.01,0.13,0.02,0.2,0.03
		c0.02,0.09,0.06,0.17,0.11,0.25c0.12,0.2,0.3,0.34,0.53,0.44c0,0,0,0.01,0.01,0.01c0.04,0.07,0.09,0.13,0.14,0.19
		c0.13,0.16,0.31,0.27,0.55,0.36c0.02,0.05,0.04,0.1,0.07,0.15c0.05,0.07,0.1,0.14,0.16,0.2c0.02,0.06,0.05,0.11,0.08,0.17
		c0.11,0.19,0.27,0.32,0.47,0.42c0.03,0.03,0.07,0.05,0.1,0.08c0.02,0.11,0.06,0.21,0.12,0.31c0.17,0.29,0.45,0.44,0.85,0.55
		c0.01,0.17,0.07,0.34,0.16,0.49c0.14,0.21,0.33,0.38,0.59,0.5c0.03,0.02,0.06,0.04,0.09,0.06c0.43,0.41,1.24,0.55,2.6,0.74
		c0.03,0,0.07,0.01,0.1,0.01c1.01,0.55,1.71,0.9,2.29,0.9c0.17,0,0.32-0.03,0.48-0.09c0.04-0.02,0.09-0.04,0.13-0.06
		c0.28,0.03,0.53,0,0.76-0.09c0.18-0.07,0.34-0.19,0.46-0.33c0.06-0.02,0.11-0.04,0.17-0.06c0.06-0.03,0.12-0.06,0.17-0.1
		c0.04-0.01,0.09-0.03,0.13-0.04c0.04-0.02,0.08-0.03,0.12-0.06c0.03-0.01,0.06-0.02,0.1-0.03c0.07-0.03,0.13-0.06,0.19-0.11
		c0.07-0.02,0.15-0.04,0.22-0.07c0.25-0.11,0.44-0.32,0.53-0.59c0.01-0.01,0.02-0.02,0.04-0.03c0.01,0,0.01-0.01,0.02-0.01
		c0.1-0.04,0.19-0.1,0.27-0.18c0.09-0.02,0.17-0.05,0.26-0.09c0.19-0.09,0.34-0.24,0.44-0.43c0.06-0.03,0.11-0.07,0.16-0.11
		c0.05-0.02,0.11-0.04,0.16-0.06c0.21-0.1,0.37-0.26,0.47-0.47c0.06-0.08,0.11-0.17,0.15-0.27c0.14-0.12,0.25-0.27,0.31-0.45
		c0.01-0.02,0.01-0.04,0.02-0.07c0.21-0.12,0.37-0.31,0.45-0.55c0.01-0.04,0.02-0.08,0.03-0.12c0.08-0.09,0.15-0.22,0.2-0.37
		c0.03-0.09,0.04-0.18,0.04-0.27c0.02-0.06,0.03-0.12,0.03-0.18c0.02-0.05,0.04-0.1,0.06-0.16c0.03-0.1,0.05-0.21,0.04-0.32
		c0.09-0.1,0.16-0.22,0.2-0.34c0.03-0.08,0.04-0.16,0.04-0.25c0.02-0.05,0.05-0.1,0.07-0.16c0.04-0.11,0.05-0.23,0.04-0.34
		c0.02-0.08,0.03-0.16,0.03-0.25c0.02-0.06,0.02-0.11,0.03-0.17c0.02-0.04,0.04-0.09,0.06-0.14c0.02-0.06,0.03-0.12,0.04-0.18
		c0.06-0.08,0.11-0.18,0.15-0.3c0.05-0.17,0.05-0.36,0-0.53c0.02-0.06,0.02-0.13,0.03-0.19c0.03-0.2,0-0.42-0.1-0.59
		c-0.01-0.01-0.02-0.03-0.02-0.04c0.06-0.08,0.1-0.17,0.14-0.27c0.07-0.21,0.05-0.45-0.04-0.65c0.02-0.05,0.05-0.1,0.06-0.14
		C43.59,35.8,43.56,35.53,43.44,35.32z M9.88,21.63c-0.02,0.09-0.02,0.19-0.01,0.29c-0.02,0.07-0.02,0.15-0.02,0.23
		c-0.04,0.16-0.04,0.33,0.01,0.49c-0.02,0.04-0.04,0.08-0.05,0.12c-0.02,0.07-0.04,0.15-0.04,0.22c-0.06,0.05-0.12,0.12-0.17,0.19
		c-0.01,0-0.01,0-0.02,0.01c-0.26,0.11-0.46,0.32-0.55,0.59c-0.04,0.12-0.05,0.25-0.04,0.37c-0.01,0.09-0.01,0.18,0,0.27
		c-0.11,0.06-0.21,0.15-0.29,0.27c-0.18,0.12-0.32,0.29-0.38,0.5c-0.01,0.04-0.02,0.09-0.03,0.13c-0.22,0.09-0.39,0.26-0.49,0.47
		c-0.15,0.12-0.26,0.27-0.32,0.46c-0.01,0.02-0.01,0.05-0.02,0.07C7.24,26.44,7.08,26.64,7,26.87c0,0,0,0,0,0
		c-0.09,0.05-0.16,0.12-0.23,0.19c-0.17,0.09-0.3,0.23-0.38,0.4c-0.07,0.01-0.15,0.03-0.22,0.06c-0.19,0.08-0.35,0.21-0.46,0.38
		c-0.22-0.08-0.42-0.13-0.61-0.14c-0.01-0.02-0.02-0.05-0.03-0.07c-0.05-0.08-0.1-0.14-0.16-0.2c-0.02-0.11-0.05-0.22-0.11-0.32
		c-0.04-0.07-0.08-0.13-0.13-0.18c-0.02-0.03-0.05-0.06-0.07-0.09c-0.01-0.02-0.02-0.05-0.04-0.07c-0.03-0.04-0.05-0.09-0.08-0.12
		c0-0.07-0.01-0.14-0.02-0.2c-0.01-0.07-0.02-0.14-0.04-0.21c-0.01-0.12-0.04-0.24-0.09-0.34c0.01-0.17-0.03-0.34-0.11-0.48
		c0-0.01-0.01-0.01-0.01-0.02c-0.02-0.05-0.03-0.1-0.06-0.15c0.01-0.02,0.02-0.05,0.03-0.07c0.07-0.23,0.05-0.5-0.07-0.71
		c-0.06-0.1-0.13-0.19-0.22-0.26c0-0.04-0.01-0.09-0.02-0.13c0.05-0.08,0.09-0.16,0.12-0.25c0.05-0.16,0.05-0.34,0.01-0.5
		c0.02-0.04,0.04-0.08,0.05-0.12c0.03-0.1,0.04-0.2,0.04-0.3c0.04-0.17,0.03-0.36-0.03-0.52c0.01-0.11-0.01-0.23-0.04-0.33
		c0.04-0.13,0.04-0.27,0.02-0.4c0,0,0,0,0,0c0.04-0.13,0.05-0.27,0.03-0.41c0,0,0,0,0-0.01c0.04-0.12,0.05-0.24,0.04-0.37
		c0-0.01,0.01-0.02,0.01-0.03c0.02-0.05,0.03-0.1,0.03-0.15c0.04-0.07,0.07-0.14,0.1-0.23c0.03-0.09,0.04-0.19,0.04-0.3
		c0.02-0.03,0.04-0.07,0.05-0.1c0.04-0.07,0.08-0.14,0.11-0.22c0.04-0.11,0.05-0.24,0.04-0.36c0.06-0.08,0.11-0.18,0.14-0.28
		c0-0.01,0-0.01,0.01-0.02c0.04-0.05,0.08-0.1,0.11-0.15c0.1-0.08,0.18-0.17,0.24-0.29c0.16-0.12,0.28-0.28,0.35-0.47
		c0.03-0.01,0.06-0.02,0.09-0.04c0.17-0.07,0.31-0.19,0.41-0.34c0.18,0,0.35-0.03,0.51-0.1c0.06-0.01,0.12-0.03,0.18-0.06
		c0.11-0.05,0.21-0.11,0.29-0.19c0.01,0.03,0.03,0.06,0.05,0.09c0.11,0.18,0.26,0.31,0.46,0.4c0.01,0.02,0.02,0.05,0.04,0.07
		c0.11,0.18,0.26,0.31,0.46,0.41c0.01,0.02,0.02,0.05,0.04,0.07c0.12,0.19,0.28,0.33,0.49,0.42c0.02,0.05,0.04,0.1,0.07,0.15
		c0.14,0.24,0.35,0.37,0.63,0.47c0.01,0.01,0.01,0.02,0.02,0.03c0.02,0.04,0.04,0.07,0.07,0.1c0.02,0.12,0.06,0.23,0.12,0.33
		c0.05,0.09,0.12,0.16,0.19,0.23c0.02,0.04,0.03,0.08,0.06,0.11c0.05,0.08,0.1,0.15,0.16,0.21c0.02,0.05,0.04,0.09,0.06,0.14
		c0.04,0.07,0.09,0.13,0.14,0.18c-0.02,0.14-0.02,0.28,0.03,0.41C9.87,21.51,9.87,21.57,9.88,21.63z M11.78,26.01
		c0.04-0.02,0.08-0.05,0.12-0.08c-0.03,0.05-0.05,0.1-0.07,0.16c0,0,0,0,0,0c-0.03,0.03-0.04,0.06-0.07,0.09
		C11.78,26.12,11.79,26.06,11.78,26.01z M40.17,36.36c-0.01,0.03-0.02,0.05-0.03,0.08c-0.02,0.05-0.03,0.11-0.04,0.17
		c-0.01,0.01-0.01,0.02-0.01,0.03c-0.04,0.06-0.07,0.13-0.1,0.21c-0.06,0.19-0.05,0.41,0.02,0.59c-0.03,0.15-0.01,0.31,0.04,0.46
		c0,0.03-0.01,0.05-0.01,0.08c-0.05,0.07-0.08,0.15-0.11,0.23c-0.05,0.15-0.05,0.31-0.02,0.47c0,0,0,0.01,0,0.01
		c-0.02,0.06-0.03,0.13-0.04,0.19c-0.01,0.08-0.02,0.16-0.01,0.23c-0.01,0.03-0.02,0.05-0.03,0.08c-0.02,0.07-0.04,0.15-0.04,0.22
		c-0.13,0.11-0.22,0.26-0.28,0.42c-0.03,0.08-0.04,0.17-0.04,0.26c-0.02,0.03-0.04,0.06-0.05,0.09c-0.23,0.11-0.4,0.31-0.48,0.56
		c-0.03,0.08-0.04,0.17-0.04,0.27c-0.02,0.02-0.04,0.05-0.05,0.08c-0.11,0.1-0.2,0.23-0.26,0.37c-0.13,0.1-0.23,0.22-0.3,0.37
		c-0.01,0.01-0.01,0.02-0.02,0.03c-0.06,0.01-0.12,0.03-0.17,0.06c-0.23,0.1-0.4,0.28-0.5,0.5c-0.02,0.01-0.05,0.02-0.07,0.03
		c-0.03,0.01-0.05,0.03-0.07,0.04c-0.07,0.01-0.15,0.04-0.22,0.07c-0.15,0.07-0.28,0.17-0.37,0.29c-0.09,0.01-0.18,0.04-0.26,0.07
		c-0.08,0.03-0.15,0.08-0.21,0.13c-0.23-0.05-0.45-0.05-0.68,0.04c-0.12,0.05-0.23,0.12-0.33,0.21c-0.2-0.01-0.38,0.02-0.56,0.1
		c-0.04,0.02-0.08,0.04-0.12,0.06c-0.44-0.23-0.84-0.43-1.21-0.6c-0.01-0.01-0.01-0.02-0.01-0.03c-0.08-0.14-0.19-0.24-0.31-0.32
		c-0.06-0.05-0.12-0.1-0.2-0.14c-0.02-0.05-0.05-0.11-0.08-0.16c-0.07-0.11-0.15-0.2-0.25-0.28c-0.06-0.07-0.13-0.12-0.21-0.17
		c-0.1-0.15-0.24-0.26-0.41-0.34c-0.03-0.04-0.07-0.07-0.11-0.1c-0.02-0.08-0.05-0.16-0.1-0.23c-0.05-0.08-0.11-0.16-0.18-0.22
		c-0.06-0.1-0.14-0.18-0.23-0.25c0-0.01-0.01-0.02-0.01-0.02c-0.12-0.2-0.29-0.34-0.52-0.44c-0.03-0.09-0.07-0.19-0.12-0.27
		c-0.1-0.17-0.24-0.3-0.43-0.41c-0.17-0.19-0.41-0.33-0.74-0.44c-0.41-0.18-1.01-0.28-1.83-0.4c-0.87-0.5-1.54-0.86-2.13-0.79
		c-0.25-0.04-0.48-0.02-0.7,0.06c-0.2,0.07-0.35,0.2-0.48,0.36c-0.19-0.03-0.38-0.02-0.57,0.06c-0.09,0.04-0.18,0.09-0.26,0.15
		c-0.05,0.01-0.09,0.03-0.14,0.05c-0.15,0.07-0.28,0.17-0.38,0.29c0,0-0.01,0-0.01,0.01c-0.25,0.11-0.44,0.31-0.53,0.57
		c-0.16,0.09-0.29,0.22-0.38,0.38c-0.11,0.11-0.2,0.25-0.25,0.4c0,0.02-0.01,0.03-0.01,0.05c-0.04,0.06-0.06,0.13-0.09,0.19
		c0,0,0,0,0,0c-0.17,0.09-0.31,0.23-0.39,0.4c-0.11,0.09-0.2,0.2-0.26,0.33c-0.06,0.07-0.11,0.16-0.15,0.25
		c-0.05,0.06-0.1,0.14-0.14,0.21c-0.08,0.1-0.15,0.21-0.19,0.33c-0.03,0.1-0.05,0.21-0.04,0.32c-0.07,0.08-0.12,0.18-0.15,0.28
		c-0.01,0.03-0.02,0.06-0.02,0.09c-0.01,0.02-0.02,0.04-0.03,0.06c-0.09,0.06-0.17,0.14-0.23,0.24c-0.01,0-0.02,0.01-0.03,0.01
		c-0.26,0.11-0.46,0.32-0.55,0.59c-0.04,0.12-0.05,0.26-0.03,0.39c-0.01,0.07-0.01,0.15,0,0.22c-0.12,0.06-0.22,0.14-0.31,0.26
		c-0.2,0.12-0.35,0.3-0.42,0.53c-0.01,0.02-0.01,0.04-0.02,0.07c-0.03,0.01-0.05,0.02-0.08,0.03c-0.19,0.07-0.35,0.2-0.45,0.37
		c-0.17,0.09-0.31,0.23-0.4,0.41c-0.01,0-0.01,0.01-0.02,0.01c-0.08,0.02-0.16,0.04-0.24,0.08c-0.17,0.08-0.31,0.2-0.41,0.34
		c-0.1,0.01-0.19,0.04-0.29,0.08c-0.06,0.03-0.12,0.06-0.18,0.1c-0.07,0.02-0.14,0.04-0.21,0.07c-0.09,0.04-0.18,0.1-0.25,0.16
		c-0.09,0.02-0.17,0.04-0.26,0.08c-0.03,0.01-0.06,0.03-0.08,0.04c0,0-0.01,0-0.01,0c-0.19-0.03-0.38-0.02-0.56,0.06
		c-0.07,0.03-0.13,0.06-0.19,0.1c-0.1,0.01-0.19,0.02-0.29,0.06c-0.18-0.03-0.36-0.02-0.52,0.02c-0.5-0.22-0.94-0.34-1.33-0.29
		c-0.14-0.08-0.27-0.15-0.4-0.22c-0.05-0.07-0.1-0.14-0.16-0.19c-0.02-0.07-0.05-0.14-0.09-0.2c-0.11-0.19-0.27-0.32-0.48-0.42
		c-0.02-0.12-0.06-0.23-0.12-0.33c-0.08-0.13-0.17-0.23-0.29-0.31c-0.02-0.07-0.04-0.13-0.08-0.2c-0.01-0.13-0.05-0.25-0.12-0.36
		c-0.06-0.1-0.13-0.19-0.22-0.26c-0.06-0.09-0.12-0.17-0.19-0.23c-0.02-0.08-0.05-0.15-0.09-0.22c-0.06-0.1-0.13-0.18-0.21-0.25
		c0.02-0.16-0.01-0.32-0.08-0.46c-0.02-0.1-0.06-0.2-0.11-0.29c-0.03-0.05-0.06-0.09-0.09-0.13c0.06-0.23,0.03-0.48-0.09-0.69
		c-0.06-0.11-0.14-0.2-0.24-0.27c0.03-0.05,0.05-0.11,0.07-0.17c0.05-0.16,0.06-0.34,0.01-0.51c0.01-0.01,0.01-0.03,0.02-0.04
		c0.07-0.22,0.06-0.46-0.04-0.66c0.07-0.09,0.13-0.2,0.17-0.32c0.03-0.09,0.04-0.18,0.04-0.28c0.04-0.06,0.07-0.13,0.09-0.21
		c0.04-0.13,0.05-0.27,0.03-0.4c0.02-0.03,0.03-0.07,0.04-0.11c0.01-0.04,0.02-0.08,0.03-0.13c0.02-0.1,0.03-0.21,0.02-0.31
		c0.05-0.08,0.09-0.16,0.12-0.25c0.06-0.18,0.05-0.38-0.01-0.56c0.07-0.09,0.13-0.19,0.16-0.31c0.04-0.14,0.05-0.29,0.03-0.44
		c0.03-0.08,0.04-0.17,0.04-0.26c0.01-0.02,0.02-0.05,0.03-0.07c0.02-0.05,0.03-0.11,0.04-0.17c0.09-0.1,0.16-0.22,0.2-0.35
		c0.03-0.1,0.05-0.21,0.04-0.32c0.1-0.1,0.18-0.23,0.23-0.37c0.01-0.04,0.02-0.09,0.03-0.13c0.02-0.05,0.04-0.09,0.06-0.14
		c0.06-0.19,0.05-0.41-0.02-0.6c0.1-0.11,0.18-0.24,0.23-0.38c0.02-0.05,0.03-0.1,0.03-0.14c0.04-0.06,0.07-0.13,0.09-0.2
		c0.04-0.11,0.05-0.23,0.04-0.35c0.13-0.11,0.24-0.26,0.29-0.44c0.03-0.09,0.04-0.19,0.04-0.3c0.17-0.12,0.3-0.29,0.37-0.49
		c0.03-0.09,0.04-0.19,0.04-0.29c0.05-0.07,0.1-0.15,0.13-0.23c0.09-0.1,0.15-0.21,0.2-0.34c0.02-0.06,0.03-0.12,0.04-0.18
		c0.05-0.07,0.08-0.15,0.11-0.23c0.05-0.14,0.05-0.3,0.02-0.44c0.03-0.02,0.05-0.04,0.08-0.07c0.22-0.12,0.39-0.32,0.47-0.56
		c0.04-0.11,0.05-0.24,0.04-0.36c0.11-0.09,0.2-0.21,0.26-0.34c0.24-0.12,0.42-0.32,0.5-0.58c0.03-0.1,0.05-0.21,0.04-0.32
		c0.18-0.1,0.33-0.26,0.42-0.45c0.08-0.09,0.14-0.2,0.18-0.32c0.01-0.03,0.02-0.07,0.03-0.1c0.04-0.04,0.07-0.08,0.1-0.12
		c0.04-0.05,0.08-0.1,0.12-0.15c0.12-0.1,0.21-0.23,0.27-0.37c0.08-0.08,0.15-0.17,0.2-0.27c0.21-0.12,0.37-0.32,0.44-0.55
		c0.02-0.06,0.03-0.13,0.04-0.2c0.15-0.08,0.27-0.18,0.36-0.32c0.04-0.03,0.07-0.06,0.1-0.09c0.04-0.01,0.08-0.03,0.11-0.05
		c0.24-0.12,0.42-0.33,0.51-0.58c0,0,0-0.01,0-0.01c0.04-0.06,0.07-0.13,0.1-0.19c0.05-0.04,0.09-0.08,0.14-0.13
		c0.03-0.01,0.06-0.03,0.1-0.04c0.17-0.09,0.31-0.21,0.41-0.37c0.12-0.06,0.23-0.15,0.31-0.26c0.11-0.07,0.2-0.15,0.28-0.26
		c0.04-0.01,0.08-0.03,0.12-0.04c0.05-0.02,0.09-0.04,0.13-0.07c0.04-0.01,0.08-0.03,0.12-0.04c0.05-0.02,0.09-0.04,0.14-0.07
		c0.07-0.01,0.14-0.04,0.21-0.07c0.19-0.08,0.35-0.23,0.45-0.41c0.04-0.03,0.08-0.07,0.11-0.1c0.11-0.01,0.22-0.04,0.32-0.09
		c0.21-0.09,0.37-0.25,0.47-0.45c0.04-0.01,0.08-0.03,0.11-0.04c0.04-0.02,0.08-0.04,0.11-0.06c0.13-0.01,0.26-0.04,0.38-0.1
		c0.17-0.08,0.3-0.19,0.4-0.34c0.13-0.05,0.24-0.13,0.33-0.23c0.04-0.01,0.09-0.03,0.13-0.05c0.08-0.04,0.16-0.09,0.22-0.15
		c0.1-0.01,0.2-0.03,0.3-0.07c0.07-0.03,0.13-0.06,0.18-0.1c0.15,0,0.31-0.02,0.46-0.08c0.07-0.03,0.14-0.07,0.2-0.12
		c0.06-0.01,0.12-0.03,0.17-0.06c0.16-0.07,0.3-0.18,0.4-0.32c0.02-0.02,0.03-0.03,0.05-0.05c0.27,0.05,0.52,0.04,0.76-0.07
		c0.03-0.01,0.06-0.03,0.09-0.04c0.1-0.01,0.21-0.03,0.31-0.07c0.04-0.01,0.07-0.03,0.11-0.05c0.06,0,0.12-0.01,0.18-0.02
		c0.2,0.03,0.4,0.01,0.59-0.07c0.01,0,0.01-0.01,0.02-0.01c0.15,0,0.29-0.02,0.42-0.06c0.19,0.02,0.38-0.01,0.55-0.08
		c0.02-0.01,0.03-0.01,0.05-0.02c0.31,0.06,0.6,0.05,0.86-0.06c0.13-0.06,0.25-0.14,0.35-0.25c0.48,0.09,1.05,0.17,1.7,0.25
		c0.02,0.01,0.05,0.03,0.07,0.04c0.02,0.11,0.07,0.22,0.13,0.33c0.26,0.42,0.73,0.6,1.58,0.76c0,0,0,0,0,0
		c0.17,0.27,0.43,0.43,0.78,0.54c0.01,0.03,0.03,0.06,0.05,0.09c0.14,0.24,0.36,0.38,0.66,0.49c0,0.01,0.01,0.01,0.01,0.02
		c0.1,0.16,0.22,0.28,0.38,0.37c0,0,0,0.01,0,0.01c0.1,0.16,0.23,0.28,0.4,0.37c0.07,0.07,0.14,0.13,0.23,0.18
		c0.02,0.05,0.04,0.09,0.07,0.13c0.03,0.06,0.07,0.11,0.11,0.15c0.02,0.05,0.04,0.1,0.07,0.15c0.1,0.17,0.24,0.3,0.42,0.39
		c0.02,0.08,0.05,0.15,0.1,0.23c0.08,0.14,0.19,0.24,0.32,0.32c0.02,0.06,0.05,0.12,0.08,0.18c0.04,0.07,0.1,0.14,0.15,0.2
		c0.11,0.17,0.27,0.29,0.46,0.38c0.02,0.06,0.05,0.12,0.08,0.18c0.03,0.04,0.05,0.08,0.08,0.12c0.02,0.09,0.06,0.18,0.11,0.27
		c0.11,0.19,0.26,0.31,0.46,0.4c0.01,0.13,0.06,0.25,0.12,0.36c0.04,0.07,0.09,0.14,0.15,0.19c0,0.02,0.01,0.04,0.01,0.05
		c-0.03,0.2,0.01,0.4,0.12,0.57c0.03,0.05,0.06,0.09,0.09,0.13c0.02,0.06,0.05,0.12,0.08,0.18c0.1,0.17,0.23,0.29,0.41,0.38
		c0,0.16,0.04,0.32,0.13,0.46c0.03,0.05,0.06,0.09,0.1,0.14c0,0.15,0.05,0.29,0.12,0.42c0.05,0.09,0.12,0.17,0.2,0.24
		c-0.06,0.23-0.03,0.47,0.09,0.68c0.06,0.11,0.14,0.19,0.23,0.27c-0.07,0.24-0.05,0.49,0.08,0.71c0.05,0.08,0.1,0.15,0.16,0.2
		c0.01,0.04,0.03,0.08,0.04,0.11c-0.05,0.21-0.02,0.46,0.09,0.65c0.03,0.06,0.07,0.11,0.11,0.16c0.01,0.05,0.03,0.1,0.05,0.15
		c-0.03,0.2,0.01,0.4,0.11,0.57c0.06,0.1,0.13,0.19,0.22,0.26c0.01,0.03,0.03,0.06,0.05,0.09c0,0.01,0.01,0.01,0.01,0.02
		c0,0.09,0.01,0.18,0.04,0.26c-0.01,0.02-0.01,0.04-0.02,0.06c-0.08,0.23-0.05,0.49,0.07,0.7c-0.01,0.02-0.02,0.05-0.03,0.07
		c-0.07,0.23-0.05,0.5,0.07,0.71c0.01,0.01,0.01,0.02,0.02,0.03c-0.05,0.21-0.01,0.45,0.09,0.64c0.05,0.08,0.1,0.15,0.16,0.21
		c-0.01,0.07-0.01,0.13,0,0.2c0,0.09,0.01,0.19,0.03,0.28C40.17,36.29,40.17,36.33,40.17,36.36z"/>
</g>
</svg>
