<?xml version="1.0" encoding="utf-8"?>
<!-- Generator: Adobe Illustrator 25.0.1, SVG Export Plug-In . SVG Version: 6.00 Build 0)  -->
<svg version="1.1" id="레이어_1" xmlns="http://www.w3.org/2000/svg" xmlns:xlink="http://www.w3.org/1999/xlink" x="0px"
	 y="0px" viewBox="0 0 70 65" style="enable-background:new 0 0 70 65;" xml:space="preserve">
<style type="text/css">
	.st0{fill:#FFFFFF;}
	.st1{fill:#FFBC00;}
</style>
<g>
	<g>
		<g>
			<path class="st0" d="M29.8,41.11c-0.09-1.1-0.6-1.98-1.65-2.47c-1.11-0.52-2.19-0.37-3.06,0.43c-2.2,2.03-4.37,4.08-6.51,6.17
				c-1.11,1.09-1.06,2.78,0.01,3.86c1.06,1.07,2.79,1.15,3.93,0.09c2.17-2.01,4.29-4.06,6.43-6.1C29.51,42.56,29.76,41.9,29.8,41.11
				z"/>
			<path class="st0" d="M23.67,33.83c-1.08-1.09-2.78-1.18-3.93-0.13c-2.17,2-4.3,4.05-6.44,6.09c-0.56,0.54-0.85,1.19-0.81,1.82
				c0,1.32,0.57,2.14,1.61,2.65c1.11,0.54,2.19,0.38,3.06-0.42c2.2-2.02,4.37-4.08,6.5-6.17C24.82,36.56,24.77,34.94,23.67,33.83z"
				/>
			<path class="st0" d="M18.93,29.21c-0.49-1.04-1.35-1.58-2.52-1.61c-0.71-0.04-1.35,0.17-1.86,0.65c-2.23,2.1-4.47,4.18-6.65,6.33
				c-1.04,1.03-0.95,2.66,0.05,3.7c1.05,1.09,2.72,1.27,3.84,0.26c2.29-2.08,4.53-4.22,6.73-6.39
				C19.33,31.32,19.41,30.25,18.93,29.21z"/>
			<path class="st0" d="M48.86,9.29c-4.2,0.09-7.51,1.19-10.07,3.79c-3.36,3.41-6.54,6.98-9.79,10.49c-0.19,0.2-0.32,0.47-0.42,0.72
				c-0.54,1.34-0.02,2.9,1.2,3.69c1.36,0.87,3.01,0.69,4.16-0.53c1.73-1.85,3.44-3.72,5.11-5.62c0.63-0.72,1.06-0.67,1.69,0.02
				c4.35,4.74,8.75,9.44,13.1,14.18c0.52,0.57,0.8,0.66,1.35,0.02c1.12-1.31,2.39-2.49,3.51-3.8c3.88-4.54,4.79-9.62,2.26-15.02
				C58.52,12.02,54.09,9.54,48.86,9.29z"/>
			<path class="st0" d="M34.29,44.64c-1.01-1.04-2.67-1.27-3.75-0.3c-2.33,2.09-4.6,4.25-6.82,6.46c-0.81,0.8-0.91,1.88-0.4,2.92
				c0.51,1.02,1.38,1.56,2.29,1.61c0.91,0.02,1.54-0.15,2.02-0.6c2.26-2.11,4.54-4.21,6.74-6.39
				C35.39,47.33,35.28,45.66,34.29,44.64z"/>
		</g>
		<path class="st1" d="M54.15,38.26c-4.57-4.94-9.15-9.86-13.7-14.81c-0.48-0.52-0.72-0.45-1.14,0.02c-1.4,1.58-2.84,3.13-4.27,4.68
			c-1.83,1.96-4.61,2.19-6.46,0.53c-1.94-1.73-2.02-4.47-0.18-6.46c1.63-1.76,3.25-3.51,4.91-5.24c0.42-0.44,0.55-0.72,0.04-1.19
			c-0.6-0.55-1.11-1.18-1.66-1.77c-3.11-3.37-6.99-4.99-11.6-4.64c-5.15,0.39-9.01,2.92-11.35,7.42c-2.37,4.54-2.05,9.09,0.55,13.5
			c0.37,0.63,0.62,0.56,1.09,0.09c1.02-1.02,2.07-2.02,3.15-2.98c2.36-2.09,6-1.07,6.83,1.89c0.23,0.82,0.12,1.64-0.06,2.57
			c1.71-0.35,3.21-0.12,4.39,1.11c1.17,1.22,1.29,2.7,0.93,4.28c3.7-0.65,5.64,1.31,5.36,5.35c0.18-0.02,0.34-0.05,0.51-0.06
			c2.11-0.19,3.75,0.63,4.51,2.25c0.78,1.65,0.39,3.43-1.08,4.87c-0.98,0.96-2,1.89-2.98,2.85c-1.22,1.18-1.23,1.2-0.04,2.47
			c1.03,1.1,1.92,2.35,3.39,2.98c2.6,1.12,5.33-0.14,5.82-2.72c0.2-1.06-0.01-2.08-0.51-3.05c-0.22-0.42-0.65-0.88-0.19-1.33
			c0.49-0.48,0.9,0.03,1.3,0.27c0.46,0.28,0.94,0.49,1.45,0.63c2.65,0.72,4.92-0.79,5.17-3.47c0.1-1.04-0.23-2-0.76-2.89
			c-0.19-0.32-0.34-0.63-0.03-0.95c0.36-0.36,0.7-0.19,1.04,0.05c0.52,0.37,1.09,0.65,1.71,0.83c2.81,0.82,5.32-1.09,5.2-3.96
			C55.42,40.18,54.96,39.14,54.15,38.26z"/>
	</g>
	<path d="M64.86,22.97c0.04-0.06,0.07-0.13,0.09-0.2c0.07-0.2,0.06-0.43-0.01-0.62c0.01-0.11-0.01-0.22-0.04-0.33
		c0.08-0.25,0.05-0.52-0.07-0.75c0.01-0.18-0.03-0.35-0.12-0.51c-0.07-0.13-0.16-0.23-0.26-0.31c0.04-0.06,0.06-0.13,0.09-0.19
		c0.08-0.25,0.05-0.54-0.08-0.77c-0.01-0.01-0.02-0.03-0.02-0.04c-0.01-0.03-0.01-0.06-0.02-0.08c-0.01-0.13-0.05-0.26-0.12-0.37
		c0,0,0-0.01,0-0.01c-0.02-0.11-0.05-0.23-0.11-0.33c-0.04-0.08-0.09-0.14-0.14-0.2c0-0.01,0-0.02-0.01-0.03
		c0-0.03,0-0.05-0.01-0.08c0.05-0.21,0.02-0.45-0.08-0.65c-0.01-0.13-0.05-0.27-0.12-0.38c-0.08-0.14-0.17-0.24-0.29-0.33
		c-0.01-0.02-0.02-0.05-0.03-0.07c0.05-0.23,0.01-0.47-0.11-0.67c-0.07-0.13-0.16-0.23-0.27-0.31c-0.02-0.06-0.04-0.11-0.07-0.16
		c-0.05-0.09-0.11-0.16-0.17-0.22c-0.02-0.06-0.05-0.12-0.08-0.17c-0.02-0.03-0.04-0.07-0.06-0.1c-0.01-0.16-0.05-0.32-0.13-0.45
		c-0.11-0.19-0.25-0.31-0.43-0.4c0,0-0.01-0.01-0.01-0.01c-0.02-0.13-0.06-0.25-0.12-0.36c-0.09-0.15-0.2-0.26-0.33-0.35
		c0,0,0,0,0,0c-0.04-0.08-0.09-0.14-0.15-0.2c-0.01-0.01-0.01-0.02-0.02-0.04c-0.08-0.14-0.18-0.24-0.3-0.32
		c-0.07-0.1-0.16-0.18-0.26-0.25c-0.09-0.13-0.19-0.22-0.32-0.3c-0.01-0.03-0.03-0.06-0.05-0.09c-0.14-0.24-0.34-0.38-0.62-0.49
		c-0.02-0.05-0.04-0.1-0.07-0.15c-0.14-0.23-0.32-0.37-0.59-0.48c-0.01-0.02-0.02-0.04-0.03-0.05c-0.04-0.07-0.08-0.12-0.13-0.18
		c-0.18-0.22-0.44-0.34-0.8-0.44c-0.02-0.04-0.04-0.08-0.06-0.12c-0.1-0.17-0.24-0.29-0.4-0.38c-0.01-0.02-0.02-0.03-0.03-0.05
		c-0.36-0.58-1.12-0.7-2.36-0.89c-0.32-0.05-0.8-0.12-1.08-0.19c-0.11-0.14-0.27-0.25-0.45-0.31c-0.51-0.16-1.05,0.11-1.21,0.61
		c-0.1,0.3-0.06,0.62,0.11,0.88c0.29,0.47,0.84,0.63,1.7,0.78c0.2,0.3,0.49,0.46,0.89,0.55c0.01,0.01,0.01,0.02,0.02,0.03
		c0.12,0.21,0.29,0.34,0.52,0.45c0.04,0.02,0.08,0.05,0.12,0.07c0.03,0.02,0.06,0.03,0.1,0.05c0,0.01,0.01,0.02,0.01,0.02
		c0.18,0.3,0.43,0.45,0.84,0.56c0.02,0.05,0.04,0.09,0.07,0.14c0.03,0.05,0.06,0.1,0.1,0.14c0.01,0.03,0.03,0.05,0.04,0.08
		c0.07,0.11,0.15,0.21,0.24,0.28c0.09,0.13,0.2,0.22,0.34,0.3c0.05,0.07,0.11,0.14,0.18,0.19c0.1,0.11,0.21,0.19,0.34,0.25
		c0.04,0.08,0.1,0.14,0.15,0.2c0.01,0.03,0.03,0.06,0.05,0.09c0.08,0.14,0.18,0.25,0.31,0.34c0.02,0.08,0.05,0.17,0.1,0.24
		c0.15,0.26,0.35,0.39,0.65,0.5c0.02,0.03,0.05,0.05,0.07,0.07c-0.04,0.22,0,0.45,0.11,0.64c0.06,0.1,0.13,0.19,0.21,0.26
		c0.02,0.1,0.06,0.2,0.11,0.29c0.01,0.02,0.02,0.03,0.03,0.05c0,0.17,0.04,0.33,0.12,0.48c0.06,0.1,0.12,0.18,0.2,0.25
		c0.02,0.07,0.05,0.14,0.09,0.21c0.09,0.15,0.19,0.26,0.32,0.34c0.01,0.03,0.03,0.06,0.05,0.09c0.02,0.03,0.03,0.05,0.05,0.08
		c-0.01,0.03-0.02,0.06-0.03,0.09c-0.08,0.25-0.05,0.53,0.07,0.76c0.01,0.01,0.01,0.02,0.02,0.03c-0.01,0.19,0.03,0.38,0.12,0.54
		c0.07,0.13,0.15,0.22,0.26,0.3c0.01,0.01,0.02,0.02,0.03,0.04c0,0.15,0.03,0.29,0.09,0.43c0,0.02,0,0.03,0,0.05
		c-0.07,0.24-0.04,0.51,0.08,0.73c0.03,0.05,0.06,0.1,0.09,0.14c0,0.01,0.01,0.02,0.01,0.03c0.01,0.08,0.02,0.15,0.05,0.23
		c0,0.01,0.01,0.03,0.01,0.04c0,0.01,0,0.01-0.01,0.02c-0.01,0.02-0.01,0.04-0.02,0.06c-0.05,0.08-0.1,0.16-0.13,0.26
		c-0.06,0.2-0.06,0.41,0.01,0.6c-0.03,0.05-0.05,0.1-0.07,0.16c-0.08,0.25-0.06,0.53,0.07,0.76c0.02,0.03,0.04,0.07,0.06,0.1
		c0.01,0.04,0.02,0.09,0.03,0.13c-0.05,0.07-0.08,0.15-0.11,0.23c-0.04,0.11-0.05,0.24-0.04,0.36c0,0.01,0,0.01-0.01,0.02
		c-0.03,0.08-0.04,0.16-0.05,0.25c-0.03,0.05-0.05,0.1-0.06,0.15c-0.05,0.15-0.06,0.3-0.03,0.46c-0.03,0.06-0.06,0.13-0.09,0.2
		c-0.03,0.1-0.05,0.21-0.05,0.31c-0.01,0.02-0.02,0.05-0.03,0.07c-0.02,0.07-0.04,0.14-0.04,0.22c-0.14,0.12-0.25,0.28-0.31,0.46
		c-0.04,0.11-0.05,0.23-0.05,0.34c-0.04,0.07-0.07,0.14-0.1,0.23c-0.02,0.08-0.04,0.15-0.04,0.23c-0.07,0.09-0.12,0.19-0.15,0.29
		c-0.01,0.05-0.03,0.09-0.03,0.14c-0.04,0.06-0.07,0.13-0.09,0.19c-0.03,0.08-0.04,0.17-0.05,0.25c-0.23,0.13-0.4,0.33-0.48,0.58
		c-0.02,0.07-0.04,0.14-0.04,0.21c-0.05,0.08-0.09,0.16-0.12,0.25c-0.01,0.02-0.01,0.03-0.01,0.05c-0.02,0.03-0.04,0.06-0.05,0.1
		c-0.21,0.11-0.37,0.27-0.47,0.47c-0.11,0.11-0.21,0.25-0.27,0.44c-0.01,0.02-0.01,0.03-0.01,0.05c0,0,0,0.01-0.01,0.01
		c-0.1,0.11-0.18,0.24-0.23,0.38c-0.03,0.08-0.04,0.17-0.05,0.25c-0.05,0.06-0.08,0.13-0.11,0.2c-0.06,0.01-0.12,0.03-0.17,0.05
		c-0.29,0.11-0.51,0.35-0.61,0.64c-0.03,0.09-0.04,0.17-0.05,0.26c-0.01,0.02-0.02,0.04-0.03,0.05c-0.07,0.02-0.14,0.04-0.21,0.08
		c-0.13,0.06-0.25,0.15-0.35,0.26c-0.11,0.11-0.19,0.25-0.24,0.4c0,0.01-0.01,0.02-0.01,0.03c-0.06,0.07-0.12,0.16-0.16,0.25
		c-0.09,0.09-0.17,0.19-0.23,0.3c0,0,0,0-0.01,0c-0.21,0.08-0.39,0.23-0.5,0.42c-0.26,0.12-0.46,0.35-0.55,0.62
		c0,0.01-0.01,0.02-0.01,0.04c-0.06,0.05-0.12,0.11-0.17,0.19c-0.09,0.05-0.18,0.12-0.26,0.21c-0.16,0.08-0.29,0.19-0.39,0.33
		c-0.06-0.07-0.12-0.14-0.19-0.2c-0.11-0.16-0.24-0.28-0.41-0.36c-0.02-0.07-0.05-0.13-0.09-0.19c-0.11-0.19-0.26-0.32-0.46-0.41
		c-0.02-0.03-0.03-0.07-0.05-0.1c-0.11-0.18-0.25-0.31-0.43-0.4c-0.02-0.02-0.04-0.04-0.06-0.06c-0.01-0.02-0.02-0.04-0.03-0.05
		c-0.1-0.17-0.23-0.29-0.4-0.38c-0.02-0.09-0.05-0.17-0.1-0.25c-0.04-0.07-0.09-0.13-0.14-0.19c0,0,0,0,0-0.01
		c-0.17-0.29-0.42-0.43-0.77-0.53c-0.01-0.03-0.03-0.06-0.04-0.08c-0.04-0.07-0.08-0.13-0.13-0.18c-0.02-0.05-0.04-0.1-0.07-0.14
		c-0.1-0.17-0.22-0.28-0.38-0.37c-0.02-0.08-0.06-0.16-0.1-0.24c-0.15-0.26-0.37-0.4-0.67-0.5c-0.01-0.02-0.02-0.05-0.04-0.07
		c-0.04-0.08-0.1-0.14-0.15-0.2c-0.02-0.13-0.06-0.26-0.12-0.37c-0.1-0.17-0.22-0.29-0.38-0.38c-0.02-0.05-0.04-0.09-0.07-0.14
		c-0.16-0.28-0.4-0.42-0.76-0.53c0-0.01-0.01-0.02-0.01-0.02c-0.03-0.05-0.06-0.09-0.09-0.13c-0.02-0.09-0.06-0.18-0.1-0.27
		c-0.13-0.23-0.31-0.36-0.57-0.47c0,0-0.01-0.01-0.01-0.01c-0.02-0.04-0.03-0.07-0.05-0.11c-0.12-0.2-0.27-0.33-0.48-0.43
		c-0.02-0.04-0.04-0.07-0.06-0.11c-0.03-0.06-0.07-0.11-0.11-0.15c-0.02-0.11-0.06-0.21-0.11-0.3c-0.08-0.14-0.18-0.25-0.31-0.33
		c-0.01-0.02-0.02-0.04-0.03-0.06c-0.17-0.28-0.41-0.42-0.75-0.52c-0.01-0.15-0.05-0.3-0.13-0.44c-0.09-0.16-0.21-0.27-0.36-0.36
		c-0.02-0.04-0.03-0.07-0.05-0.11c-0.15-0.27-0.37-0.41-0.71-0.53c-0.01-0.03-0.03-0.05-0.04-0.08c-0.02-0.05-0.04-0.1-0.07-0.14
		c-0.09-0.16-0.21-0.27-0.35-0.35c-0.02-0.08-0.06-0.16-0.1-0.24c-0.09-0.16-0.21-0.27-0.35-0.36c-0.12-0.19-0.28-0.32-0.48-0.41
		c-0.02-0.05-0.04-0.1-0.07-0.14c-0.13-0.23-0.3-0.36-0.56-0.47c-0.02-0.04-0.04-0.08-0.06-0.11c-0.26-0.44-0.72-0.53-1.4-0.67
		c-0.11-0.02-0.27-0.05-0.39-0.08c-0.08-0.06-0.17-0.1-0.27-0.14c-0.31-0.1-0.62-0.03-0.87,0.14c0,0,0,0,0,0
		c-0.09-0.02-0.23-0.05-0.32-0.08c-0.06-0.04-0.13-0.07-0.21-0.09c-0.32-0.1-0.66-0.03-0.9,0.16c-0.09,0.02-0.18,0.04-0.26,0.09
		c-0.16,0.08-0.3,0.19-0.4,0.32c-0.2,0.12-0.34,0.3-0.42,0.52c-0.04,0.04-0.07,0.09-0.11,0.14c-0.15,0.11-0.28,0.28-0.36,0.52
		c-0.01,0.03-0.02,0.05-0.02,0.08c-0.03,0.02-0.07,0.05-0.1,0.08c-0.26,0.06-0.5,0.21-0.65,0.5c-0.03,0.04-0.06,0.07-0.09,0.12
		c-0.06,0.07-0.11,0.14-0.15,0.22c-0.06,0.04-0.11,0.08-0.16,0.13c-0.24,0.13-0.42,0.34-0.51,0.6c-0.03,0.09-0.04,0.17-0.05,0.26
		c0,0.01-0.01,0.02-0.01,0.03c-0.01,0.01-0.03,0.03-0.04,0.04c-0.12,0.06-0.22,0.14-0.3,0.23c-0.03,0.02-0.06,0.05-0.09,0.08
		c-0.15,0.08-0.27,0.18-0.37,0.32c-0.14,0.12-0.24,0.27-0.3,0.45c-0.01,0.04-0.02,0.08-0.03,0.12c-0.01,0.01-0.02,0.02-0.03,0.04
		c-0.08,0.05-0.16,0.12-0.22,0.19c-0.13,0.06-0.24,0.15-0.34,0.28c-0.07,0.02-0.13,0.04-0.2,0.07c-0.17,0.08-0.3,0.19-0.41,0.33
		c-0.11,0.01-0.23,0.04-0.34,0.1c-0.06,0.03-0.12,0.06-0.17,0.1c-0.04,0.01-0.07,0.03-0.11,0.04c-0.05,0.02-0.09,0.05-0.14,0.07
		c-0.08,0.01-0.16,0.03-0.24,0.07c-0.41-0.12-0.8-0.16-1.15-0.01c-0.02-0.11-0.06-0.22-0.11-0.32c-0.07-0.11-0.14-0.2-0.23-0.27
		c-0.02-0.09-0.06-0.18-0.1-0.26c-0.11-0.19-0.26-0.32-0.44-0.41c0-0.04,0-0.08,0-0.12c0.04-0.22,0.01-0.45-0.1-0.65
		c-0.01-0.03-0.03-0.05-0.04-0.07c0.01-0.1,0-0.19-0.02-0.29c0.01-0.08,0-0.16-0.01-0.24c0.04-0.07,0.08-0.15,0.11-0.24
		c0.04-0.11,0.05-0.24,0.04-0.36c0.05-0.07,0.08-0.14,0.12-0.22c0.28-0.12,0.5-0.35,0.6-0.64c0.03-0.08,0.04-0.16,0.05-0.24
		c0.02-0.02,0.04-0.05,0.06-0.07c0.09-0.02,0.19-0.05,0.29-0.09c0.26-0.12,0.46-0.34,0.55-0.62c0.02-0.05,0.03-0.11,0.04-0.17
		c0.03-0.01,0.07-0.02,0.1-0.04c0.22-0.1,0.4-0.27,0.51-0.48c0.01-0.01,0.02-0.01,0.03-0.02c0.26-0.13,0.45-0.35,0.54-0.62
		c0.01-0.03,0.02-0.07,0.03-0.11c0.08-0.08,0.15-0.17,0.2-0.29c0.05-0.04,0.1-0.09,0.15-0.14c0.07-0.06,0.12-0.13,0.17-0.2
		c0.06-0.02,0.12-0.04,0.18-0.07c0.27-0.12,0.47-0.34,0.56-0.62c0.02-0.07,0.04-0.14,0.04-0.21c0.07-0.05,0.13-0.12,0.18-0.19
		c0.01-0.01,0.03-0.03,0.04-0.04c0.03-0.01,0.05-0.02,0.08-0.03c0.18-0.07,0.34-0.2,0.45-0.35c0.27-0.12,0.47-0.35,0.56-0.62
		c0.01-0.03,0.02-0.06,0.03-0.1c0.04-0.01,0.07-0.03,0.11-0.05c0.26-0.13,0.45-0.35,0.54-0.62c0-0.01,0-0.01,0.01-0.02
		c0.01-0.01,0.02-0.02,0.04-0.04c0.03-0.01,0.05-0.02,0.08-0.04c0.26-0.13,0.46-0.35,0.55-0.62c0.03-0.1,0.05-0.2,0.05-0.3
		c0-0.01,0.01-0.03,0.01-0.04c0.05-0.03,0.1-0.07,0.14-0.12c0.17-0.06,0.33-0.16,0.46-0.32c0.22-0.1,0.4-0.27,0.5-0.48
		c0.03-0.03,0.05-0.06,0.07-0.09c0.12-0.12,0.22-0.26,0.27-0.43c0.01-0.02,0.01-0.04,0.02-0.06c0.13-0.08,0.25-0.18,0.33-0.3
		c0.08-0.07,0.14-0.14,0.2-0.23c0.05-0.04,0.1-0.08,0.14-0.12c0.29-0.07,0.55-0.26,0.69-0.66c0.05-0.01,0.1-0.03,0.15-0.05
		c0.22-0.1,0.39-0.26,0.5-0.46c0.01-0.01,0.02-0.02,0.03-0.03c0.19-0.08,0.35-0.22,0.46-0.39c0.06-0.02,0.12-0.04,0.18-0.07
		c0.09-0.05,0.18-0.1,0.25-0.17c0.05-0.01,0.09-0.03,0.14-0.04c0.09-0.01,0.19-0.03,0.28-0.07c0.22-0.08,0.39-0.23,0.51-0.42
		c0.02-0.03,0.04-0.06,0.06-0.09c0.01,0,0.01-0.01,0.02-0.01c0.2-0.09,0.36-0.23,0.47-0.41c0.17,0,0.34-0.03,0.5-0.11
		c0.09-0.04,0.18-0.1,0.25-0.16c0.02-0.01,0.05-0.02,0.07-0.03c0.03-0.01,0.07-0.03,0.1-0.05c0.01,0,0.02-0.01,0.04-0.01
		c0.15-0.06,0.28-0.15,0.39-0.26c0.2-0.06,0.39-0.17,0.52-0.36c0.25,0.02,0.49,0,0.72-0.11c0.04-0.02,0.09-0.05,0.13-0.07
		c0.06-0.01,0.11-0.03,0.17-0.06c0.08-0.04,0.16-0.08,0.23-0.14c0.17,0.01,0.34-0.01,0.52-0.08C46,9.94,46.04,9.92,46.07,9.9
		c0.18,0,0.36-0.03,0.53-0.11c0.01,0,0.01-0.01,0.02-0.01c0.27,0.05,0.53,0.05,0.78-0.04c0.27,0.05,0.53,0.04,0.78-0.07
		c0.01,0,0.02-0.01,0.02-0.01c0.38,0.11,0.72,0.16,1.05,0.07c0.12,0.01,0.24,0.01,0.36-0.01c0.17,0.01,0.34-0.01,0.5-0.08
		c0.3-0.12,0.53-0.36,0.63-0.67c0.09-0.27,0.06-0.57-0.09-0.82c-0.29-0.48-0.81-0.58-1.68-0.73c-0.02,0-0.05-0.01-0.08-0.01
		c-0.48-0.25-0.92-0.44-1.36-0.38c-0.24-0.04-0.48-0.03-0.71,0.06C46.83,7.09,46.81,7.1,46.8,7.1c-0.38-0.1-0.73-0.12-1.06,0.01
		c-0.25-0.04-0.5-0.02-0.74,0.08c-0.05,0.02-0.11,0.05-0.16,0.08c-0.16,0.01-0.32,0.04-0.48,0.11c-0.02,0.01-0.05,0.02-0.07,0.03
		c-0.24-0.03-0.47,0-0.69,0.1c-0.1,0.04-0.19,0.1-0.27,0.17c-0.02,0.01-0.03,0.02-0.05,0.03c-0.11,0.02-0.22,0.05-0.33,0.1
		c0,0-0.01,0-0.01,0c-0.12,0.01-0.24,0.04-0.36,0.09c-0.12,0.05-0.23,0.13-0.32,0.22c-0.06,0.02-0.12,0.04-0.19,0.07
		c-0.06,0.03-0.13,0.07-0.18,0.11c-0.1,0.02-0.2,0.05-0.3,0.1c-0.12,0.06-0.23,0.14-0.32,0.24c-0.05,0.01-0.11,0.03-0.16,0.05
		C41.05,8.73,41,8.76,40.94,8.79c-0.15,0.01-0.3,0.04-0.45,0.1c-0.08,0.03-0.15,0.08-0.21,0.12c-0.08,0.02-0.15,0.04-0.23,0.08
		c-0.24,0.11-0.42,0.29-0.53,0.51c-0.02,0.02-0.05,0.03-0.07,0.05c-0.06,0.01-0.12,0.03-0.18,0.06c-0.16,0.07-0.3,0.17-0.41,0.31
		c-0.15,0.06-0.29,0.16-0.39,0.29c-0.01,0-0.01,0.01-0.02,0.01c-0.06,0.03-0.12,0.07-0.17,0.11c-0.15,0.01-0.3,0.05-0.44,0.12
		c-0.13,0.07-0.25,0.16-0.34,0.26c-0.23,0.12-0.4,0.32-0.49,0.57c-0.09,0.07-0.17,0.15-0.23,0.25c-0.17,0.1-0.3,0.23-0.39,0.4
		c-0.17,0.11-0.3,0.28-0.38,0.47c-0.04,0.04-0.08,0.09-0.12,0.14c-0.01,0.01-0.02,0.01-0.03,0.02c-0.05,0.01-0.09,0.03-0.14,0.05
		c-0.25,0.11-0.43,0.31-0.54,0.55c-0.04,0.05-0.07,0.1-0.1,0.15c-0.09,0.06-0.17,0.12-0.24,0.2c-0.02,0.02-0.04,0.04-0.06,0.05
		c-0.13-0.16-0.29-0.27-0.49-0.36c-0.11-0.13-0.24-0.22-0.4-0.29c-0.02-0.11-0.06-0.21-0.12-0.3c-0.16-0.26-0.38-0.41-0.7-0.51
		c-0.05-0.08-0.12-0.15-0.18-0.21c-0.02-0.06-0.05-0.12-0.08-0.17c-0.15-0.25-0.37-0.4-0.66-0.5c0,0,0,0,0,0
		c-0.02-0.03-0.03-0.07-0.05-0.1c-0.14-0.24-0.35-0.39-0.63-0.5c-0.01-0.03-0.03-0.06-0.05-0.09c-0.2-0.33-0.5-0.49-0.98-0.61
		c0-0.01-0.01-0.01-0.01-0.02c-0.35-0.55-1.04-0.65-2.09-0.8c-0.24-0.03-0.61-0.09-0.84-0.13c-0.11-0.13-0.26-0.23-0.44-0.29
		c-0.51-0.16-1.05,0.11-1.21,0.61c-0.1,0.3-0.06,0.62,0.11,0.89c0.26,0.41,0.71,0.57,1.36,0.69c0.18,0.25,0.44,0.4,0.82,0.51
		c0.01,0.02,0.02,0.04,0.03,0.06c0.14,0.24,0.35,0.39,0.63,0.5c0.15,0.14,0.34,0.23,0.57,0.3c0.12,0.17,0.27,0.28,0.45,0.36
		c0.01,0.03,0.03,0.06,0.05,0.08c0.09,0.16,0.21,0.27,0.36,0.35c0.01,0.02,0.02,0.03,0.03,0.05c0.13,0.21,0.3,0.34,0.52,0.44
		c0.1,0.09,0.22,0.16,0.36,0.21c0.02,0.05,0.04,0.09,0.07,0.14c0.11,0.19,0.25,0.31,0.43,0.4c0.06,0.08,0.14,0.15,0.22,0.21
		c0.06,0.1,0.13,0.17,0.2,0.24c0.02,0.1,0.06,0.2,0.11,0.29c0.08,0.14,0.18,0.25,0.31,0.33c0.06,0.08,0.13,0.15,0.22,0.2
		c0.04,0.05,0.08,0.1,0.12,0.14c-0.05,0.07-0.1,0.14-0.14,0.22c-0.05,0.06-0.1,0.13-0.14,0.21c-0.04,0.03-0.07,0.06-0.1,0.09
		c-0.13,0.07-0.24,0.17-0.32,0.28c-0.16,0.13-0.28,0.3-0.35,0.49c-0.01,0.02-0.01,0.03-0.01,0.05c-0.01,0.01-0.01,0.02-0.02,0.03
		c-0.06,0.05-0.11,0.11-0.15,0.18c-0.04,0.02-0.07,0.05-0.1,0.07c-0.16,0.08-0.29,0.21-0.39,0.36c-0.14,0.09-0.27,0.22-0.35,0.41
		c-0.11,0.1-0.21,0.24-0.28,0.42c-0.19,0.11-0.35,0.29-0.44,0.57c0,0,0,0.01,0,0.01c-0.02,0.02-0.04,0.04-0.05,0.06
		c-0.01,0.01-0.03,0.03-0.04,0.04c-0.09,0.01-0.17,0.04-0.26,0.08c-0.2,0.09-0.37,0.23-0.48,0.41c-0.22,0.13-0.38,0.33-0.47,0.56
		c-0.25,0.09-0.46,0.28-0.58,0.63c-0.12,0.11-0.21,0.26-0.26,0.41c0,0,0,0,0,0c-0.09,0.08-0.17,0.18-0.23,0.31
		c-0.08,0.02-0.15,0.05-0.23,0.08c-0.22,0.11-0.38,0.28-0.48,0.49c-0.02,0.05-0.04,0.09-0.06,0.15c-0.02,0.06-0.03,0.12-0.04,0.18
		c-0.02,0.04-0.03,0.08-0.05,0.13c-0.01,0.05-0.03,0.09-0.03,0.14c-0.01,0.02-0.02,0.04-0.03,0.06c-0.1,0.11-0.17,0.24-0.22,0.4
		c-0.01,0.02-0.01,0.04-0.02,0.05c-0.05,0.08-0.1,0.18-0.14,0.29c0,0.01-0.01,0.02-0.01,0.03c0,0.02-0.01,0.03-0.01,0.05
		c-0.06,0.08-0.11,0.19-0.15,0.3c-0.08,0.25-0.06,0.52,0.07,0.75c-0.05,0.07-0.09,0.16-0.12,0.24c-0.08,0.25-0.05,0.53,0.07,0.76
		c0.08,0.13,0.16,0.23,0.27,0.31c0.01,0.01,0.01,0.02,0.02,0.03c-0.01,0.14,0.01,0.28,0.06,0.42c-0.01,0.18,0.03,0.37,0.13,0.53
		c0.04,0.06,0.08,0.12,0.12,0.17c0.01,0.02,0.02,0.03,0.03,0.05c0.1,0.17,0.22,0.29,0.38,0.37c0.01,0.03,0.03,0.06,0.04,0.08
		c0.26,0.43,0.68,0.52,1.33,0.65c0.1,0.02,0.25,0.05,0.36,0.08c0.08,0.05,0.16,0.1,0.26,0.13c0.1,0.03,0.2,0.05,0.3,0.05
		c0.09,0,0.18-0.01,0.26-0.04c0.01,0.14,0.06,0.28,0.13,0.4c0.28,0.47,0.76,0.57,1.71,0.76c0.2,0.04,0.5,0.1,0.68,0.15
		c0.09,0.08,0.2,0.14,0.33,0.18c0.1,0.03,0.2,0.05,0.3,0.05c0.13,0,0.26-0.03,0.38-0.08c0.19,0,0.38-0.03,0.56-0.11
		c0.18-0.08,0.32-0.19,0.44-0.34c0.04-0.02,0.08-0.05,0.11-0.08c0.15-0.07,0.28-0.17,0.38-0.29c0.02-0.02,0.04-0.03,0.06-0.05
		c0.22-0.03,0.42-0.1,0.59-0.26c0.03-0.01,0.05-0.02,0.08-0.03c0.27-0.13,0.46-0.35,0.56-0.62c0-0.01,0.01-0.02,0.01-0.03
		c0.02-0.03,0.04-0.07,0.05-0.1c0.08-0.02,0.17-0.04,0.25-0.08c0.03-0.02,0.07-0.03,0.1-0.05c0.23-0.12,0.41-0.31,0.5-0.55
		c0.03-0.04,0.06-0.08,0.08-0.12c0,0,0,0,0,0c0.28-0.12,0.49-0.35,0.59-0.63c0.02-0.06,0.03-0.13,0.04-0.2
		c0.01-0.01,0.03-0.03,0.04-0.04c0.24-0.07,0.46-0.23,0.59-0.51c0.06-0.06,0.11-0.13,0.15-0.21c0.22-0.12,0.38-0.32,0.46-0.55
		c0.08-0.1,0.14-0.21,0.18-0.33c0.01-0.05,0.03-0.09,0.03-0.14c0.27-0.05,0.52-0.18,0.69-0.47c0.12-0.08,0.23-0.17,0.31-0.29
		c0.06-0.04,0.11-0.09,0.16-0.14c0.04-0.02,0.08-0.05,0.13-0.07c0.05,0.06,0.1,0.12,0.16,0.17c0.03,0.04,0.07,0.08,0.11,0.11
		c0.01,0.01,0.02,0.03,0.02,0.04c0.02,0.03,0.03,0.06,0.05,0.08c0.01,0.02,0.02,0.04,0.03,0.06c0.02,0.09,0.06,0.17,0.1,0.25
		c0.15,0.25,0.35,0.39,0.65,0.5c0.01,0.01,0.03,0.02,0.04,0.04c0,0,0,0,0,0c0.02,0.11,0.06,0.21,0.11,0.3
		c0.14,0.24,0.32,0.37,0.6,0.48c0.04,0.03,0.09,0.06,0.14,0.09c0.01,0.01,0.02,0.02,0.03,0.03c0.1,0.17,0.23,0.28,0.39,0.37
		c0,0,0,0.01,0.01,0.01c0.05,0.09,0.12,0.16,0.19,0.23c0.02,0.12,0.06,0.23,0.12,0.34c0.1,0.17,0.23,0.29,0.39,0.38
		c0.13,0.2,0.3,0.32,0.53,0.41c0.02,0.05,0.04,0.1,0.07,0.14c0.04,0.07,0.09,0.13,0.14,0.18c0.02,0.08,0.06,0.17,0.1,0.24
		c0.09,0.16,0.21,0.28,0.36,0.37c0.01,0.02,0.02,0.04,0.03,0.05c0.08,0.13,0.17,0.23,0.28,0.31c0.12,0.13,0.26,0.22,0.44,0.29
		c0.01,0.03,0.03,0.06,0.05,0.09c0.09,0.15,0.2,0.25,0.33,0.34c0.01,0.02,0.02,0.04,0.03,0.06c0.02,0.04,0.05,0.08,0.07,0.11
		c0.08,0.12,0.17,0.2,0.28,0.28c0.02,0.04,0.04,0.08,0.06,0.12c0.12,0.21,0.28,0.34,0.51,0.44c0.02,0.09,0.06,0.17,0.11,0.26
		c0.12,0.2,0.27,0.32,0.46,0.41c0.02,0.05,0.04,0.1,0.07,0.15c0.13,0.21,0.3,0.34,0.51,0.44c0.02,0.05,0.04,0.09,0.07,0.14
		c0.04,0.06,0.08,0.12,0.13,0.17c0.02,0.05,0.05,0.11,0.08,0.16c0.1,0.16,0.22,0.28,0.37,0.36c0.02,0.04,0.04,0.08,0.06,0.12
		c0.1,0.17,0.22,0.28,0.38,0.37c0.11,0.14,0.25,0.23,0.43,0.31c0.06,0.09,0.13,0.16,0.21,0.23c0.01,0.02,0.02,0.04,0.03,0.06
		c0.01,0.01,0.01,0.02,0.02,0.03c0.02,0.08,0.05,0.16,0.1,0.23c0.14,0.23,0.32,0.37,0.58,0.47c0.05,0.05,0.1,0.09,0.15,0.12
		c0.02,0.04,0.04,0.09,0.06,0.13c0.11,0.18,0.25,0.31,0.43,0.4c0.02,0.07,0.05,0.13,0.09,0.19c0,0,0,0.01,0.01,0.01
		c0.02,0.07,0.05,0.13,0.09,0.2c0.11,0.19,0.26,0.32,0.46,0.42c0.09,0.14,0.21,0.25,0.34,0.33c0.08,0.12,0.19,0.2,0.3,0.27
		c0.15,0.13,0.34,0.21,0.56,0.27c0,0.01,0,0.03,0,0.04c-0.01,0.19,0.03,0.39,0.12,0.56c0.06,0.1,0.13,0.19,0.21,0.26
		c0.02,0.08,0.05,0.16,0.09,0.23c0.12,0.22,0.29,0.34,0.51,0.44c0,0.17,0.04,0.34,0.12,0.48c0.08,0.14,0.17,0.24,0.29,0.32
		c0,0,0.01,0.01,0.01,0.01c0.02,0.07,0.05,0.13,0.08,0.19c0.07,0.12,0.15,0.22,0.25,0.29c0,0.09,0.02,0.19,0.05,0.28
		c0,0.01,0,0.01,0,0.02c-0.07,0.2-0.06,0.42,0.01,0.62c0,0,0,0.01,0,0.01c-0.02,0.04-0.03,0.07-0.04,0.11
		c-0.08,0.23-0.06,0.49,0.05,0.72c-0.04,0.15-0.05,0.3-0.02,0.45c-0.06,0.08-0.11,0.18-0.14,0.3c-0.03,0.1-0.05,0.2-0.05,0.31
		c-0.14,0.12-0.24,0.27-0.3,0.45c-0.02,0.06-0.03,0.12-0.04,0.19c-0.02,0.03-0.03,0.07-0.05,0.11c-0.07,0.07-0.14,0.15-0.19,0.24
		c-0.22,0.07-0.42,0.21-0.56,0.46c-0.1,0.01-0.2,0.04-0.31,0.08c-0.09,0.04-0.17,0.09-0.25,0.14c-0.02,0-0.04,0.01-0.05,0.01
		c-0.06,0.01-0.11,0.01-0.17,0.03c-0.2-0.02-0.4,0-0.6,0.08c-0.11,0-0.22,0.02-0.33,0.06c-0.28-0.1-0.55-0.16-0.81-0.15
		c-0.21-0.05-0.42-0.06-0.62-0.02c0,0,0,0-0.01,0c-0.15,0-0.31,0.03-0.46,0.09c-0.31,0.12-0.55,0.37-0.65,0.69
		c-0.04,0.13-0.06,0.27-0.05,0.4c-0.25-0.08-0.52-0.11-0.81,0c-0.28,0.11-0.5,0.34-0.59,0.63c-0.01,0.03-0.02,0.05-0.02,0.08
		c-0.05,0.08-0.09,0.17-0.13,0.27c-0.08,0.25-0.05,0.53,0.07,0.76c0.01,0.02,0.03,0.04,0.04,0.06c0.01,0.05,0.02,0.11,0.03,0.16
		c-0.02,0.05-0.04,0.09-0.06,0.14c-0.03,0.08-0.04,0.17-0.05,0.25c-0.02,0.05-0.04,0.1-0.06,0.15c-0.06,0.17-0.06,0.36-0.01,0.54
		c-0.06,0.08-0.11,0.18-0.14,0.28c-0.03,0.09-0.04,0.18-0.05,0.27c-0.04,0.05-0.08,0.11-0.12,0.18c-0.12,0.11-0.2,0.26-0.26,0.41
		c-0.02,0.05-0.03,0.11-0.04,0.16c-0.1,0.06-0.19,0.14-0.27,0.23c-0.17,0.1-0.31,0.24-0.41,0.42c-0.02,0.01-0.03,0.01-0.05,0.02
		c-0.14,0.06-0.26,0.16-0.36,0.27c-0.21-0.02-0.42,0-0.63,0.1c-0.07,0.03-0.14,0.07-0.2,0.11c-0.03,0-0.06,0.01-0.09,0.02
		c-0.18-0.03-0.36-0.02-0.54,0.03c-0.46-0.15-0.88-0.2-1.27-0.04c-0.31,0.13-0.53,0.38-0.64,0.69c-0.02,0.07-0.04,0.14-0.04,0.2
		c-0.09-0.02-0.19-0.05-0.29-0.07c-0.08-0.02-0.2-0.05-0.29-0.07c-0.06-0.04-0.13-0.07-0.21-0.1c-0.51-0.16-1.05,0.11-1.21,0.61
		c-0.02,0.07-0.04,0.14-0.04,0.21c-0.02,0.05-0.04,0.09-0.06,0.15c-0.07,0.21-0.06,0.44,0.02,0.64c-0.02,0.2,0.02,0.4,0.12,0.57
		c0,0.01,0.01,0.01,0.01,0.02c0,0.04,0,0.08,0.01,0.12c-0.1,0.11-0.18,0.23-0.22,0.38c-0.03,0.1-0.05,0.21-0.05,0.32c0,0,0,0,0,0
		c-0.03,0.09-0.04,0.18-0.05,0.27c-0.01,0.02-0.02,0.05-0.03,0.07c-0.06,0.19-0.06,0.4,0,0.58c0,0.02-0.01,0.03-0.01,0.05
		c-0.21,0.1-0.39,0.29-0.5,0.6c-0.01,0.04-0.02,0.08-0.03,0.12c-0.1,0.06-0.18,0.14-0.25,0.23c0,0-0.01,0.01-0.01,0.01
		c-0.09,0.05-0.17,0.11-0.24,0.18c-0.08,0.06-0.14,0.12-0.2,0.2c-0.04,0.02-0.08,0.05-0.12,0.07c-0.06,0.02-0.12,0.04-0.19,0.07
		c0,0,0,0,0,0c-0.1,0.01-0.21,0.04-0.31,0.09c-0.08,0.03-0.15,0.08-0.22,0.13c-0.01,0-0.01,0-0.02,0.01
		c-0.19-0.02-0.37-0.01-0.56,0.06c-0.09-0.01-0.17-0.02-0.26-0.01c-0.32-0.12-0.61-0.17-0.91-0.1c-0.12,0-0.24,0.03-0.37,0.07
		c-0.31,0.12-0.54,0.36-0.64,0.67c-0.09,0.27-0.06,0.57,0.09,0.82c0.28,0.46,0.77,0.58,1.63,0.74c0.48,0.27,0.92,0.48,1.36,0.45
		c0.04,0,0.08,0,0.12,0c0.08,0.01,0.16,0.02,0.25,0.02c0.15,0,0.29-0.03,0.44-0.08c0.03-0.01,0.07-0.03,0.1-0.05
		c0.15-0.01,0.29-0.04,0.43-0.1c0.05-0.02,0.1-0.05,0.14-0.07c0.04-0.01,0.07-0.02,0.11-0.04c0.05-0.02,0.09-0.04,0.14-0.07
		c0.13-0.01,0.26-0.04,0.39-0.1c0.15-0.07,0.27-0.16,0.37-0.28c0.04-0.01,0.09-0.03,0.13-0.05c0.14-0.07,0.27-0.16,0.37-0.28
		c0.08-0.03,0.16-0.08,0.23-0.13c0.12-0.05,0.22-0.13,0.31-0.22c0.13-0.06,0.25-0.14,0.35-0.24c0.16-0.13,0.28-0.3,0.35-0.49
		c0.02-0.07,0.04-0.14,0.04-0.22c0.01-0.02,0.02-0.05,0.03-0.07c0.01-0.04,0.02-0.07,0.03-0.11c0.06-0.04,0.11-0.09,0.16-0.15
		c0.21-0.13,0.36-0.32,0.44-0.56c0.03-0.08,0.04-0.16,0.05-0.24c0-0.01,0.01-0.02,0.01-0.04c0.04-0.12,0.05-0.25,0.04-0.37
		c0,0,0-0.01,0-0.01c0.08-0.1,0.15-0.22,0.19-0.36c0.02-0.05,0.03-0.11,0.04-0.16c0.02-0.05,0.04-0.09,0.06-0.14
		c0.05-0.17,0.06-0.34,0.02-0.51c0.02-0.11,0.02-0.22,0-0.33c0-0.01,0.01-0.02,0.01-0.04c0.08-0.25,0.05-0.53-0.07-0.76c0,0,0,0,0,0
		c0-0.05-0.01-0.11-0.02-0.16c0.05-0.17,0.05-0.35,0-0.52c0.2,0.04,0.42,0.08,0.66,0.12c0.17,0.03,0.42,0.07,0.59,0.11
		c0.1,0.09,0.22,0.16,0.35,0.2c0.13,0.04,0.27,0.06,0.4,0.04c0.23,0.07,0.46,0.12,0.67,0.12c0.18,0,0.35-0.03,0.51-0.1
		c0.12-0.05,0.22-0.12,0.31-0.19c0.15-0.01,0.31-0.04,0.45-0.11c0.17-0.08,0.32-0.2,0.43-0.35c0.17-0.01,0.34-0.04,0.5-0.12
		c0.26-0.13,0.46-0.35,0.55-0.62c0.12-0.08,0.22-0.18,0.29-0.3c0.13-0.08,0.25-0.19,0.33-0.32c0.15-0.1,0.27-0.25,0.36-0.47
		c0.09-0.1,0.17-0.23,0.23-0.4c0.05-0.08,0.09-0.16,0.12-0.25c0.02-0.05,0.03-0.1,0.04-0.15c0.14-0.12,0.24-0.28,0.3-0.45
		c0.05-0.16,0.06-0.33,0.03-0.49c0.02-0.04,0.04-0.09,0.06-0.14c0.06-0.18,0.06-0.38,0.01-0.57c0.01-0.01,0.01-0.03,0.02-0.04
		c0.04-0.07,0.07-0.14,0.1-0.21c0.08-0.25,0.06-0.52-0.07-0.75c0-0.02,0-0.04,0-0.06c0.01-0.03,0.02-0.06,0.03-0.09
		c0.08-0.23,0.06-0.49-0.05-0.71c0-0.06-0.01-0.12-0.02-0.18c0.08,0.01,0.15,0.03,0.23,0.04c0.05,0.01,0.11,0.02,0.17,0.03
		c0.53,0.28,0.99,0.49,1.43,0.49c0.15,0,0.3-0.03,0.45-0.09c0.02-0.01,0.05-0.02,0.07-0.03c0,0,0,0,0.01,0
		c0.03-0.01,0.06-0.02,0.09-0.04c0.14,0,0.27-0.01,0.4-0.05c0.26,0.05,0.51,0.04,0.76-0.06c0.04-0.01,0.07-0.03,0.1-0.05
		c0.1-0.01,0.2-0.03,0.3-0.07c0.16-0.06,0.29-0.15,0.4-0.27c0.09-0.01,0.18-0.04,0.27-0.07c0.22-0.09,0.4-0.25,0.52-0.46
		c0.03-0.01,0.05-0.02,0.08-0.03c0.26-0.13,0.46-0.35,0.55-0.62c0.01-0.03,0.02-0.06,0.02-0.09c0.15-0.12,0.26-0.28,0.32-0.47
		c0.03-0.08,0.04-0.16,0.05-0.24c0,0,0,0,0,0c0,0,0.01,0,0.01-0.01c0.29-0.11,0.51-0.34,0.61-0.64c0.06-0.17,0.06-0.36,0.02-0.53
		c0.09-0.1,0.17-0.23,0.22-0.4c0.01-0.03,0.02-0.07,0.03-0.1c0.05-0.08,0.1-0.17,0.13-0.26c0.08-0.23,0.06-0.48-0.04-0.7
		c0.04-0.21,0.02-0.43-0.07-0.62c0.02-0.04,0.03-0.08,0.05-0.13c0.08-0.25,0.05-0.53-0.07-0.76c-0.05-0.09-0.11-0.17-0.17-0.23
		c-0.02-0.04-0.04-0.09-0.06-0.13c-0.03-0.05-0.06-0.1-0.1-0.15c0.01-0.03,0.01-0.07,0.01-0.1c0.08-0.25,0.05-0.53-0.08-0.76
		c-0.04-0.08-0.09-0.14-0.14-0.2c-0.02-0.06-0.04-0.11-0.07-0.16c-0.05-0.09-0.1-0.16-0.17-0.22c-0.04-0.06-0.08-0.11-0.12-0.15
		c-0.02-0.05-0.04-0.1-0.07-0.14c-0.01-0.01-0.01-0.02-0.02-0.04c0-0.01,0-0.02-0.01-0.03c-0.01-0.12-0.05-0.25-0.11-0.36
		c0.14-0.1,0.26-0.24,0.33-0.4c0.03-0.04,0.06-0.07,0.08-0.11c0.14-0.11,0.25-0.25,0.32-0.41c0.21-0.13,0.36-0.33,0.44-0.56
		c0,0,0,0,0-0.01c0.08-0.03,0.16-0.06,0.23-0.11c0.01,0,0.03-0.01,0.04-0.02c0.19-0.07,0.35-0.2,0.47-0.36
		c0.12-0.12,0.22-0.26,0.27-0.43c0.02-0.06,0.03-0.13,0.04-0.19c0.08-0.01,0.15-0.04,0.23-0.07c0.24-0.1,0.43-0.28,0.54-0.51
		c0.09-0.07,0.16-0.14,0.22-0.23c0.08-0.07,0.16-0.15,0.21-0.24c0.15-0.13,0.27-0.29,0.33-0.48c0.02-0.06,0.03-0.12,0.04-0.18
		c0.01,0,0.01-0.01,0.02-0.01c0.29-0.11,0.51-0.35,0.61-0.64c0.01-0.04,0.02-0.07,0.03-0.11c0.16-0.1,0.3-0.26,0.39-0.49
		c0.05-0.07,0.08-0.15,0.11-0.23c0.03-0.1,0.05-0.2,0.05-0.3c0.11-0.11,0.21-0.25,0.27-0.44c0.02-0.06,0.03-0.12,0.04-0.18
		c0.1-0.09,0.18-0.21,0.24-0.34c0.17-0.07,0.32-0.19,0.43-0.38c0.26-0.12,0.46-0.34,0.55-0.61c0.03-0.08,0.04-0.16,0.05-0.24
		c0.05-0.07,0.09-0.16,0.12-0.24c0.01-0.04,0.02-0.07,0.03-0.11c0.07-0.09,0.12-0.19,0.15-0.29c0.04-0.12,0.06-0.26,0.04-0.39
		c0-0.02,0.01-0.03,0.01-0.05c0.12-0.12,0.21-0.26,0.26-0.42c0.01-0.05,0.03-0.09,0.03-0.14c0.1-0.11,0.18-0.24,0.23-0.39
		c0.05-0.15,0.06-0.31,0.03-0.46c0-0.07,0-0.13-0.01-0.2c0-0.01,0.01-0.02,0.01-0.03c0.1-0.11,0.19-0.24,0.25-0.43
		c0.05-0.16,0.06-0.33,0.03-0.49c0.08-0.1,0.14-0.21,0.18-0.33c0.03-0.08,0.04-0.17,0.05-0.26c0.04-0.17,0.03-0.34-0.02-0.51
		c0.01-0.02,0.01-0.04,0.02-0.06c0.05-0.15,0.06-0.32,0.03-0.47c0.05-0.17,0.06-0.35,0.02-0.52c0.06-0.18,0.05-0.38,0-0.56
		c0,0,0,0,0-0.01C64.83,23.02,64.84,22.99,64.86,22.97z"/>
	<path d="M32.34,53.37c0.18-0.11,0.32-0.28,0.4-0.48c0.08-0.02,0.16-0.05,0.23-0.09c0.25-0.12,0.44-0.33,0.53-0.59
		c0.02-0.01,0.03-0.02,0.04-0.04c0.04-0.01,0.07-0.03,0.11-0.05c0.21-0.11,0.38-0.27,0.48-0.48c0.07-0.06,0.13-0.13,0.18-0.2
		c0.15-0.13,0.27-0.29,0.33-0.48c0-0.01,0.01-0.03,0.01-0.04c0.13-0.08,0.23-0.2,0.31-0.34c0.04-0.04,0.09-0.08,0.12-0.13
		c0.18,0,0.35-0.04,0.51-0.12c0.2-0.1,0.36-0.25,0.47-0.44c0.09-0.07,0.16-0.16,0.22-0.25c0.09-0.07,0.16-0.16,0.21-0.26
		c0.15-0.11,0.28-0.28,0.36-0.52c0.03-0.09,0.05-0.18,0.05-0.28c0.16-0.12,0.28-0.29,0.34-0.49c0.05-0.14,0.06-0.29,0.04-0.44
		c0.01-0.04,0.01-0.08,0.01-0.12c0-0.01,0.01-0.02,0.01-0.03c0.01-0.02,0.01-0.05,0.02-0.07c0.03-0.06,0.06-0.12,0.09-0.19
		c0.02-0.05,0.03-0.1,0.04-0.15c0.03-0.05,0.05-0.1,0.06-0.15c0.05-0.16,0.06-0.33,0.03-0.49c0-0.03,0.01-0.06,0.01-0.08
		c0.01-0.02,0.02-0.05,0.03-0.07c0.08-0.25,0.06-0.53-0.07-0.76c-0.04-0.07-0.08-0.12-0.12-0.17c0-0.1-0.02-0.2-0.06-0.3
		c0.01-0.19-0.03-0.38-0.12-0.54c-0.08-0.14-0.17-0.24-0.29-0.32c-0.01-0.16-0.05-0.31-0.13-0.45c-0.07-0.12-0.15-0.21-0.25-0.29
		c-0.28-0.47-0.8-0.56-1.59-0.71c-0.15-0.03-0.36-0.07-0.51-0.1c-0.09-0.07-0.19-0.13-0.31-0.17c-0.41-0.13-0.84,0.03-1.08,0.35
		c0,0,0,0,0,0c-0.13-0.23-0.32-0.36-0.57-0.47c-0.07-0.04-0.15-0.08-0.23-0.11c0-0.03,0.01-0.07,0-0.1
		c0.01-0.03,0.02-0.06,0.03-0.09c0.07-0.2,0.06-0.43-0.01-0.63c0.01-0.03,0.02-0.06,0.03-0.09c0.04-0.13,0.06-0.27,0.04-0.4
		c0-0.03,0-0.07,0-0.1c0.03-0.21,0-0.43-0.11-0.61c-0.03-0.05-0.05-0.09-0.08-0.13c0.03-0.15,0.03-0.3-0.01-0.45
		c-0.01-0.14-0.05-0.28-0.12-0.4c-0.08-0.14-0.17-0.24-0.29-0.33c-0.01-0.02-0.02-0.04-0.02-0.06c0-0.17-0.05-0.33-0.13-0.47
		c-0.07-0.12-0.16-0.22-0.26-0.29c0,0,0,0,0,0c-0.14-0.24-0.35-0.38-0.61-0.48c-0.28-0.25-0.68-0.33-1.21-0.43
		c-0.24-0.11-0.48-0.2-0.74-0.2c-0.06-0.03-0.12-0.06-0.19-0.08c-0.33-0.11-0.67-0.03-0.92,0.18c-0.18-0.14-0.42-0.22-0.74-0.31
		c0-0.06,0-0.13,0-0.19c0.04-0.06,0.07-0.13,0.09-0.2c0.07-0.2,0.06-0.42-0.01-0.62c0.01-0.01,0.01-0.03,0.02-0.05
		c0.08-0.25,0.05-0.53-0.07-0.76c-0.05-0.09-0.1-0.16-0.17-0.22c0.01-0.18-0.03-0.37-0.12-0.53c-0.01-0.02-0.02-0.04-0.03-0.05
		c-0.01-0.15-0.05-0.3-0.13-0.44c-0.06-0.1-0.13-0.18-0.2-0.25c-0.02-0.12-0.06-0.23-0.12-0.34c-0.06-0.1-0.12-0.18-0.2-0.24
		c-0.02-0.1-0.06-0.19-0.11-0.28c-0.18-0.3-0.44-0.44-0.82-0.55c-0.2-0.08-0.43-0.13-0.69-0.17c-0.46-0.26-0.9-0.47-1.41-0.28
		c-0.16,0.06-0.3,0.16-0.41,0.28c-0.21-0.28-0.52-0.4-1-0.51c0.01-0.03,0.02-0.06,0.04-0.09c0.06-0.18,0.06-0.38,0.01-0.57
		c0.01-0.07,0.01-0.14,0-0.21c0.05-0.16,0.06-0.34,0.02-0.5c0.03-0.06,0.06-0.12,0.08-0.18c0.08-0.25,0.05-0.53-0.07-0.76
		c-0.06-0.11-0.13-0.19-0.21-0.26c0-0.17-0.04-0.35-0.12-0.5c-0.03-0.06-0.07-0.11-0.11-0.16c-0.01-0.14-0.05-0.27-0.12-0.39
		c-0.07-0.11-0.14-0.2-0.23-0.28c-0.02-0.06-0.05-0.11-0.08-0.16c-0.28-0.47-0.77-0.56-1.59-0.72c-0.15-0.03-0.37-0.07-0.52-0.11
		c-0.09-0.07-0.19-0.13-0.31-0.17c-0.41-0.13-0.84,0.02-1.08,0.35c-0.01-0.01-0.01-0.02-0.02-0.03c-0.25-0.43-0.67-0.52-1.37-0.67
		c-0.06-0.01-0.12-0.03-0.19-0.04c-0.53-0.27-1-0.46-1.51-0.26c-0.05,0.02-0.11,0.05-0.15,0.08c-0.02,0.01-0.04,0.02-0.07,0.02
		c-0.12,0.05-0.23,0.12-0.32,0.2c-0.09,0.06-0.17,0.12-0.24,0.2c-0.2,0.09-0.37,0.24-0.48,0.42c-0.09,0.07-0.17,0.15-0.23,0.24
		c-0.12,0.07-0.23,0.18-0.32,0.32c-0.08,0.02-0.16,0.05-0.24,0.09c-0.18,0.09-0.33,0.22-0.43,0.38c-0.12,0.11-0.2,0.26-0.26,0.41
		c-0.03,0.08-0.04,0.16-0.05,0.24c0,0,0,0.01,0,0.01c-0.08,0.02-0.17,0.05-0.25,0.09c-0.1,0.05-0.19,0.11-0.27,0.19
		c-0.03,0.01-0.07,0.03-0.1,0.04c-0.13,0.06-0.24,0.15-0.33,0.25c-0.14,0.07-0.26,0.18-0.36,0.3c-0.05-0.06-0.1-0.12-0.16-0.17
		c0.01-0.19-0.03-0.38-0.12-0.54c-0.03-0.05-0.06-0.09-0.09-0.13c-0.02-0.06-0.05-0.12-0.08-0.18c-0.02-0.04-0.05-0.07-0.07-0.11
		C9.51,28,9.49,27.97,9.48,27.94c-0.03-0.05-0.05-0.09-0.08-0.12c-0.02-0.07-0.05-0.14-0.09-0.21c-0.08-0.15-0.18-0.26-0.32-0.34
		c0.01-0.15-0.02-0.29-0.08-0.43c0.07-0.24,0.04-0.51-0.09-0.72C8.77,26,8.7,25.91,8.61,25.84c-0.02-0.07-0.04-0.13-0.07-0.19
		c0-0.08-0.01-0.16-0.03-0.24c0.01-0.02,0.01-0.04,0.02-0.06c0.04-0.13,0.06-0.27,0.04-0.41c0.02-0.13,0.01-0.27-0.02-0.4
		c0.01-0.17-0.02-0.35-0.1-0.51c0.01-0.12-0.01-0.24-0.05-0.35c0.01-0.02,0.02-0.04,0.02-0.06c0.01-0.04,0.03-0.09,0.03-0.14
		c0.07-0.25,0.04-0.52-0.08-0.74c-0.01-0.01-0.02-0.03-0.02-0.04c-0.01-0.09-0.02-0.17-0.05-0.25c0.06-0.21,0.05-0.43-0.04-0.63
		c0-0.02,0-0.04,0-0.06c0.11-0.11,0.19-0.24,0.24-0.39c0.04-0.12,0.05-0.25,0.04-0.38c0.01-0.03,0.03-0.06,0.04-0.09
		c0.02-0.04,0.04-0.09,0.05-0.13c0.06-0.19,0.06-0.39,0-0.58c0.11-0.11,0.2-0.25,0.26-0.44c0.06-0.19,0.06-0.39,0-0.58
		c0.16-0.12,0.28-0.29,0.34-0.49c0.06-0.18,0.06-0.38,0.01-0.57c0-0.01,0-0.02,0.01-0.03c0.02-0.05,0.04-0.1,0.06-0.15
		c0.01-0.04,0.03-0.09,0.03-0.13c0.01-0.03,0.02-0.05,0.03-0.08c0.02-0.06,0.03-0.12,0.04-0.18c0.19-0.13,0.33-0.31,0.4-0.53
		c0.03-0.1,0.05-0.21,0.05-0.32c0.15-0.12,0.26-0.28,0.32-0.47c0.01-0.03,0.02-0.06,0.03-0.1c0.14-0.09,0.25-0.21,0.33-0.35
		c0.08-0.1,0.14-0.21,0.18-0.32c0.02-0.05,0.03-0.1,0.04-0.15c0.19-0.09,0.35-0.23,0.46-0.41c0.19-0.11,0.34-0.28,0.43-0.48
		c0.01-0.02,0.02-0.04,0.03-0.06c0.19-0.11,0.33-0.27,0.42-0.47c0.02-0.05,0.04-0.1,0.06-0.15c0-0.01,0.01-0.02,0.01-0.03
		c0.12-0.09,0.22-0.21,0.3-0.38c0.08-0.01,0.17-0.03,0.26-0.07c0.24-0.09,0.44-0.27,0.56-0.5c0.04-0.01,0.08-0.03,0.12-0.04
		c0.19-0.08,0.35-0.22,0.47-0.39c0.02-0.02,0.04-0.03,0.06-0.05c0.04-0.01,0.08-0.02,0.12-0.04c0.11-0.04,0.21-0.1,0.29-0.17
		c0.14-0.07,0.25-0.18,0.34-0.3c0.07-0.07,0.14-0.15,0.19-0.24c0.07-0.01,0.13-0.03,0.2-0.06c0.16,0,0.31-0.03,0.47-0.1
		c0.14-0.06,0.26-0.15,0.36-0.25c0.08-0.08,0.15-0.16,0.21-0.26c0.08,0,0.16,0,0.24-0.02c0.16,0.01,0.31-0.02,0.48-0.08
		c0.14-0.05,0.26-0.14,0.36-0.24c0.02-0.01,0.05-0.02,0.07-0.03c0.09-0.01,0.19-0.04,0.29-0.08c0.01,0,0.01-0.01,0.02-0.01
		c0.06-0.01,0.12-0.03,0.17-0.06c0.04-0.02,0.09-0.04,0.13-0.06c0.08-0.01,0.16-0.04,0.23-0.07c0.07-0.03,0.14-0.07,0.2-0.11
		c0.14-0.01,0.28-0.04,0.41-0.1c0.01-0.01,0.02-0.01,0.03-0.02c0.34,0.07,0.66,0.07,0.96-0.07c0.03-0.01,0.06-0.03,0.09-0.05
		c0.11-0.01,0.22-0.04,0.34-0.09c0.25,0.03,0.49,0.02,0.72-0.09c0,0,0.01,0,0.01-0.01c0.49,0.17,0.92,0.25,1.32,0.12
		c0.21,0.02,0.41,0,0.61-0.08c0.3-0.12,0.53-0.37,0.63-0.67c0.09-0.28,0.06-0.58-0.1-0.84c-0.31-0.5-0.88-0.59-1.74-0.74
		c-0.06-0.01-0.13-0.02-0.2-0.03c-0.56-0.27-1.07-0.44-1.56-0.24c-0.02,0.01-0.03,0.01-0.05,0.02c-0.43-0.12-0.81-0.15-1.17,0.02
		c-0.02,0.01-0.05,0.02-0.07,0.03c-0.2-0.02-0.4,0.01-0.6,0.09c-0.21-0.02-0.42,0-0.63,0.1c-0.05,0.02-0.1,0.05-0.14,0.07
		c-0.22-0.01-0.43,0.02-0.63,0.11c-0.06,0.03-0.12,0.06-0.18,0.1c-0.16-0.01-0.32,0.02-0.49,0.08c-0.02,0.01-0.04,0.02-0.06,0.03
		c-0.05,0.01-0.1,0.03-0.15,0.05c-0.13,0.05-0.24,0.13-0.34,0.23c-0.03,0.01-0.06,0.02-0.09,0.03c-0.04,0.02-0.08,0.03-0.11,0.06
		c-0.24-0.02-0.46,0.01-0.69,0.11c-0.14,0.06-0.25,0.15-0.35,0.26c-0.2-0.01-0.37,0.03-0.55,0.12c-0.13,0.06-0.24,0.15-0.33,0.25
		c-0.1,0.04-0.19,0.1-0.28,0.17c-0.11,0.05-0.2,0.12-0.29,0.2c-0.02,0.01-0.03,0.01-0.05,0.02c-0.2,0.08-0.36,0.22-0.47,0.39
		c-0.12,0.01-0.24,0.04-0.36,0.09c-0.23,0.1-0.41,0.27-0.53,0.48c-0.04,0.01-0.08,0.03-0.11,0.05c-0.2,0.09-0.36,0.24-0.47,0.42
		c-0.12,0.07-0.23,0.16-0.31,0.26c-0.03,0.02-0.05,0.04-0.08,0.06c-0.11,0.07-0.2,0.15-0.27,0.25c-0.2,0.09-0.36,0.23-0.46,0.41
		c-0.08,0.08-0.14,0.17-0.19,0.28c-0.24,0.1-0.44,0.28-0.55,0.51c-0.09,0.05-0.16,0.12-0.23,0.2C8.46,12.82,8.39,12.91,8.33,13
		c-0.02,0.03-0.04,0.06-0.06,0.09c-0.17,0.13-0.29,0.3-0.36,0.5c-0.02,0.07-0.04,0.15-0.04,0.23c-0.21,0.13-0.38,0.33-0.45,0.56
		c-0.01,0.03-0.02,0.06-0.02,0.08c-0.02,0.04-0.04,0.08-0.06,0.13c-0.04,0.05-0.08,0.1-0.11,0.16C7.09,14.87,7,15.01,6.94,15.18
		c-0.04,0.12-0.05,0.24-0.04,0.36c-0.08,0.09-0.13,0.2-0.17,0.32c-0.01,0.03-0.02,0.06-0.02,0.09c-0.05,0.07-0.09,0.14-0.12,0.22
		c-0.16,0.11-0.3,0.28-0.38,0.53c-0.03,0.08-0.04,0.17-0.05,0.26c-0.05,0.07-0.08,0.14-0.11,0.22c-0.01,0.02-0.02,0.05-0.03,0.08
		c-0.05,0.14-0.06,0.3-0.03,0.45c-0.12,0.11-0.22,0.26-0.28,0.46c-0.03,0.08-0.04,0.17-0.05,0.26c0,0.01-0.01,0.02-0.01,0.03
		c-0.06,0.17-0.06,0.35-0.02,0.52c0,0.01-0.01,0.02-0.01,0.03c-0.08,0.1-0.15,0.22-0.2,0.37c-0.02,0.06-0.03,0.12-0.04,0.18
		c-0.05,0.08-0.09,0.16-0.12,0.25c-0.07,0.22-0.06,0.47,0.04,0.68c-0.02,0.04-0.04,0.09-0.06,0.14c-0.04,0.11-0.05,0.22-0.05,0.34
		c-0.01,0.06-0.01,0.11,0,0.17c0,0,0,0.01,0,0.01c-0.02,0.03-0.03,0.07-0.05,0.1c-0.03,0.06-0.06,0.12-0.09,0.19
		c-0.08,0.25-0.06,0.53,0.07,0.76c0,0,0,0,0,0.01c0.01,0.04,0.02,0.08,0.04,0.12c-0.04,0.07-0.08,0.14-0.1,0.22
		c-0.08,0.25-0.05,0.53,0.07,0.76c0.02,0.03,0.03,0.06,0.05,0.08c-0.04,0.22-0.01,0.45,0.1,0.65c0.01,0.01,0.01,0.02,0.02,0.03
		c0,0.02,0,0.05,0,0.07c-0.03,0.05-0.05,0.11-0.07,0.17c-0.08,0.24-0.06,0.5,0.06,0.73c-0.05,0.23-0.02,0.47,0.1,0.68
		c0.04,0.07,0.08,0.13,0.13,0.18c-0.05,0.23-0.02,0.47,0.1,0.68c0.02,0.03,0.03,0.06,0.05,0.08c-0.02,0.19,0.02,0.4,0.12,0.57
		c0.02,0.04,0.05,0.08,0.08,0.12c-0.05,0.23-0.02,0.48,0.1,0.69c0.02,0.04,0.04,0.07,0.07,0.1c0.02,0.1,0.06,0.21,0.11,0.3
		c0.06,0.11,0.13,0.19,0.21,0.26c0.02,0.04,0.04,0.08,0.06,0.12c0.07,0.12,0.16,0.22,0.26,0.3c0.05,0.09,0.11,0.16,0.18,0.22
		c0,0.16,0.05,0.32,0.13,0.45c0.02,0.03,0.03,0.06,0.05,0.08c0.02,0.08,0.05,0.15,0.09,0.21c0.07,0.11,0.15,0.2,0.24,0.28
		c0.02,0.07,0.05,0.15,0.09,0.21c0.11,0.2,0.26,0.32,0.45,0.41c0.01,0.03,0.02,0.07,0.04,0.1c0.02,0.06,0.05,0.11,0.08,0.16
		c0,0.01,0.01,0.01,0.01,0.02c-0.18,0.1-0.32,0.24-0.42,0.41c-0.1,0.09-0.19,0.2-0.25,0.35c-0.19,0.07-0.36,0.19-0.48,0.39
		c-0.05,0.03-0.11,0.07-0.16,0.12c-0.3,0.07-0.57,0.25-0.72,0.64c-0.17,0.13-0.3,0.3-0.37,0.51c-0.05,0.16-0.06,0.32-0.03,0.48
		c-0.01,0.02-0.02,0.05-0.03,0.07c-0.01,0.03-0.02,0.05-0.02,0.08c-0.01,0.01-0.01,0.02-0.02,0.03c-0.07,0.09-0.13,0.2-0.17,0.31
		c-0.01,0.02-0.01,0.04-0.02,0.06c-0.06,0.09-0.11,0.18-0.15,0.29c-0.02,0.06-0.03,0.11-0.04,0.17c-0.01,0.03-0.03,0.06-0.04,0.09
		c-0.04,0.12-0.05,0.25-0.04,0.37c-0.05,0.17-0.04,0.34,0.01,0.51c-0.03,0.21,0,0.43,0.11,0.62c0.02,0.03,0.04,0.07,0.06,0.1
		c0,0.01,0,0.03,0,0.04c-0.03,0.21,0.01,0.43,0.11,0.62c0.01,0.02,0.03,0.05,0.04,0.07c0.01,0.14,0.05,0.28,0.12,0.41
		c0.09,0.15,0.19,0.26,0.33,0.35c0.01,0.01,0.02,0.02,0.03,0.03c0.07,0.07,0.15,0.13,0.23,0.18c0.25,0.21,0.6,0.3,1.1,0.4
		c0.27,0.13,0.54,0.25,0.82,0.25C8.1,39.2,8.16,39.2,8.22,39.2c0.16,0,0.31-0.04,0.45-0.11c-0.01,0.2,0.03,0.4,0.14,0.57
		c0.27,0.45,0.77,0.57,1.52,0.71c0.09,0.05,0.17,0.09,0.26,0.13c0.01,0.04,0.03,0.09,0.05,0.13c-0.03,0.06-0.06,0.12-0.08,0.19
		c-0.04,0.12-0.05,0.25-0.04,0.37c0,0.12,0.02,0.25,0.07,0.36c0,0.08,0.01,0.15,0.03,0.22c-0.01,0.01-0.01,0.03-0.02,0.04
		c-0.03,0.09-0.05,0.19-0.05,0.29c-0.06,0.23-0.03,0.49,0.09,0.7c0.01,0.03,0.03,0.05,0.04,0.07c0.01,0.13,0.05,0.27,0.12,0.38
		c0.04,0.07,0.08,0.13,0.13,0.18c0.02,0.04,0.03,0.07,0.05,0.11c0.25,0.43,0.67,0.52,1.37,0.67c0.11,0.02,0.28,0.06,0.39,0.09
		c0.07,0.05,0.16,0.09,0.24,0.12c0.1,0.03,0.2,0.05,0.3,0.05c0.41,0,0.78-0.25,0.92-0.65c0.08-0.23,0.06-0.5-0.05-0.72
		c-0.02-0.1-0.05-0.2-0.11-0.29c0,0-0.01-0.01-0.01-0.01c-0.01-0.15-0.05-0.29-0.12-0.42c-0.05-0.1-0.12-0.18-0.19-0.24
		c-0.01-0.02-0.02-0.05-0.04-0.07c0-0.01-0.01-0.01-0.01-0.02c0.01-0.08,0.01-0.16,0-0.25c0.02-0.11,0.03-0.22,0.01-0.33
		c0.06-0.09,0.11-0.18,0.14-0.3c0.03-0.1,0.05-0.2,0.05-0.3c0.12-0.12,0.2-0.26,0.26-0.42c0.07-0.22,0.06-0.46-0.03-0.68
		c0.03-0.03,0.06-0.06,0.09-0.09c0.07-0.05,0.13-0.1,0.19-0.16c0.23-0.13,0.41-0.33,0.49-0.59c0-0.01,0.01-0.02,0.01-0.03
		c0.14-0.07,0.26-0.17,0.35-0.3c0.01-0.01,0.02-0.02,0.03-0.03c0.14-0.05,0.26-0.13,0.37-0.25c0.16-0.06,0.31-0.17,0.42-0.33
		c0.15-0.11,0.27-0.26,0.34-0.43c0.07-0.05,0.13-0.12,0.19-0.2c0.07-0.04,0.13-0.1,0.19-0.16c0.12-0.05,0.24-0.13,0.34-0.24
		c0.27-0.12,0.48-0.35,0.57-0.63c0,0,0-0.01,0-0.01c0.01,0,0.02-0.01,0.03-0.01c0.21-0.1,0.37-0.27,0.47-0.46
		c0.04-0.01,0.07-0.02,0.11-0.04c0.27-0.12,0.49-0.34,0.58-0.63c0,0,0-0.01,0-0.01c0.26-0.12,0.47-0.34,0.56-0.62
		c0.01-0.04,0.03-0.09,0.03-0.13c0.01,0,0.02-0.01,0.03-0.01c0.05-0.01,0.11-0.03,0.16-0.06c0.2-0.09,0.37-0.23,0.48-0.41
		c0.02-0.02,0.04-0.04,0.05-0.05c0,0,0,0,0,0c0.17-0.07,0.31-0.19,0.42-0.34c0.01-0.01,0.03-0.01,0.04-0.02
		c0.2,0.03,0.4,0.03,0.59-0.03c0.29,0.06,0.56,0.05,0.83-0.06c0.16-0.07,0.3-0.17,0.41-0.3c0.13,0.17,0.29,0.28,0.5,0.37
		c0.02,0.11,0.06,0.23,0.12,0.33c0.09,0.16,0.2,0.27,0.34,0.35c0.01,0.02,0.02,0.04,0.03,0.06c0.05,0.08,0.1,0.15,0.16,0.21
		c0.01,0.08,0.04,0.15,0.07,0.23c-0.03,0.09-0.04,0.18-0.04,0.27c-0.05,0.21-0.03,0.44,0.06,0.64c-0.08,0.1-0.15,0.22-0.19,0.34
		c-0.01,0.03-0.02,0.06-0.03,0.1c-0.01,0.02-0.02,0.05-0.03,0.07c-0.04,0.11-0.05,0.24-0.04,0.36c-0.04,0.07-0.08,0.15-0.11,0.23
		c-0.04,0.11-0.05,0.22-0.05,0.33c-0.09,0.1-0.15,0.22-0.2,0.37c0,0,0,0.01,0,0.01c0,0-0.01,0-0.02,0.01
		c-0.27,0.13-0.46,0.35-0.56,0.63c-0.01,0.03-0.01,0.05-0.02,0.08c-0.05,0.01-0.11,0.03-0.16,0.05c-0.27,0.1-0.48,0.31-0.59,0.58
		c-0.06,0.07-0.11,0.14-0.16,0.24c-0.03,0.03-0.06,0.06-0.09,0.1c-0.14,0.01-0.28,0.05-0.41,0.11c-0.27,0.13-0.46,0.35-0.55,0.63
		c0,0.01-0.01,0.03-0.01,0.04c-0.02,0.02-0.03,0.03-0.05,0.05c-0.1,0.05-0.2,0.11-0.29,0.2c-0.06,0.01-0.12,0.04-0.18,0.06
		c-0.19,0.08-0.34,0.21-0.45,0.37c-0.18,0.11-0.33,0.29-0.43,0.57c-0.03,0.09-0.05,0.19-0.05,0.28c-0.01,0.01-0.01,0.02-0.02,0.04
		c-0.02,0.02-0.04,0.04-0.06,0.06c-0.11,0.07-0.21,0.17-0.29,0.28c-0.06,0.05-0.11,0.1-0.15,0.15c-0.12,0.04-0.23,0.1-0.32,0.18
		c-0.1,0.01-0.21,0.04-0.31,0.09c-0.26,0.12-0.46,0.34-0.56,0.61c-0.04,0.03-0.08,0.06-0.12,0.1c-0.2,0.04-0.39,0.13-0.54,0.3
		c-0.02,0.01-0.04,0.01-0.06,0.02c-0.09,0.04-0.18,0.09-0.26,0.16c-0.01,0-0.02,0.01-0.03,0.01c-0.14,0-0.28,0.02-0.42,0.08
		c-0.41-0.12-0.79-0.16-1.15,0c-0.05,0.02-0.1,0.05-0.15,0.08c-0.29,0.12-0.51,0.36-0.61,0.65c-0.09,0.27-0.06,0.57,0.09,0.82
		c0.29,0.48,0.81,0.58,1.68,0.74c-0.02,0.05-0.04,0.09-0.06,0.15c-0.07,0.21-0.06,0.44,0.02,0.64c0,0.02,0,0.05,0,0.07
		c-0.01,0.03-0.02,0.06-0.03,0.09c-0.08,0.25-0.05,0.53,0.08,0.76c0.01,0.02,0.02,0.04,0.03,0.05c0.01,0.06,0.02,0.11,0.04,0.17
		c-0.02,0.19,0.02,0.4,0.12,0.57c0.05,0.09,0.11,0.17,0.18,0.24c-0.01,0.18,0.03,0.36,0.12,0.52c0.24,0.43,0.63,0.51,1.4,0.69
		c0.13,0.03,0.34,0.08,0.47,0.11c0.07,0.05,0.16,0.09,0.25,0.12c0.1,0.03,0.2,0.05,0.3,0.05c0.41,0,0.78-0.25,0.92-0.65
		c0.07-0.21,0.06-0.46-0.03-0.66c0-0.16-0.05-0.32-0.13-0.46c-0.04-0.07-0.09-0.14-0.14-0.19c-0.02-0.07-0.04-0.14-0.08-0.2
		c-0.01-0.09-0.03-0.17-0.06-0.25c-0.02-0.09-0.04-0.18-0.08-0.26c0.07-0.24,0.04-0.5-0.09-0.72c-0.01-0.01-0.01-0.02-0.02-0.03
		c0.01-0.02,0.02-0.05,0.03-0.07c0.12-0.12,0.21-0.26,0.26-0.42c0.02-0.07,0.04-0.14,0.04-0.21c0-0.01,0.01-0.02,0.01-0.03
		c0.07-0.2,0.06-0.41-0.01-0.61c0.12-0.07,0.22-0.16,0.3-0.27c0.12-0.06,0.22-0.15,0.31-0.26c0.26-0.12,0.46-0.34,0.55-0.61
		c0.01-0.04,0.03-0.09,0.03-0.14c0.27-0.05,0.52-0.17,0.68-0.43c0.01-0.01,0.03-0.01,0.04-0.02c0.26-0.12,0.46-0.34,0.55-0.6
		c0.21-0.09,0.38-0.26,0.49-0.46c0.03-0.02,0.05-0.03,0.07-0.05c0.22-0.1,0.4-0.28,0.51-0.5c0.03-0.04,0.06-0.07,0.08-0.11
		c0.08-0.06,0.15-0.14,0.22-0.23c0.02-0.01,0.04-0.01,0.06-0.02c0.14-0.06,0.27-0.15,0.37-0.26c0,0,0.01,0,0.01-0.01
		c0.2-0.1,0.36-0.25,0.47-0.44c0.22-0.08,0.41-0.22,0.54-0.48c0.17-0.13,0.29-0.3,0.36-0.5c0-0.01,0.01-0.03,0.01-0.04
		c0.23,0,0.44-0.09,0.61-0.23c0.06-0.02,0.11-0.04,0.17-0.07c0.09-0.04,0.17-0.1,0.25-0.16c0.09-0.02,0.18-0.05,0.27-0.09
		c0.01-0.01,0.02-0.01,0.03-0.02c0.1-0.01,0.21-0.03,0.32-0.07c0.14-0.05,0.26-0.13,0.36-0.23c0.14-0.01,0.27-0.05,0.41-0.11
		c0.11-0.05,0.2-0.12,0.28-0.2c0.13,0.1,0.28,0.18,0.47,0.24c0.07,0.04,0.15,0.08,0.23,0.12c0.05,0.07,0.1,0.12,0.16,0.17
		c-0.01,0.18,0.03,0.36,0.12,0.52c0.04,0.07,0.08,0.12,0.12,0.18c0.01,0.02,0.02,0.03,0.02,0.05c0.05,0.09,0.11,0.16,0.17,0.23
		c-0.02,0.13-0.01,0.27,0.03,0.4c-0.05,0.07-0.08,0.15-0.11,0.23c-0.07,0.22-0.06,0.46,0.03,0.68c-0.04,0.07-0.08,0.14-0.1,0.22
		c-0.01,0.04-0.02,0.08-0.03,0.11c-0.08,0.1-0.14,0.21-0.18,0.33c-0.05,0.15-0.06,0.31-0.03,0.47c-0.01,0-0.03,0.01-0.04,0.01
		c-0.22,0.08-0.4,0.24-0.52,0.43c-0.01,0.01-0.02,0.01-0.02,0.02c0,0,0,0-0.01,0c-0.15,0.07-0.28,0.17-0.38,0.29
		c-0.24,0.11-0.43,0.31-0.53,0.55c0,0,0,0,0,0c-0.1,0.08-0.18,0.18-0.24,0.3c-0.06,0.01-0.13,0.04-0.19,0.06
		c-0.27,0.12-0.48,0.35-0.57,0.63c-0.02,0.06-0.04,0.13-0.04,0.2c-0.06,0.02-0.11,0.05-0.16,0.09c-0.04,0.01-0.08,0.03-0.12,0.05
		c-0.19,0.09-0.35,0.23-0.46,0.4c-0.08,0.04-0.15,0.08-0.22,0.14c-0.17,0.08-0.32,0.21-0.43,0.37c-0.14,0.08-0.25,0.19-0.34,0.31
		c-0.13,0.09-0.24,0.2-0.32,0.34c0,0-0.01,0-0.01,0.01c-0.26,0.13-0.46,0.35-0.55,0.62c-0.02,0.05-0.03,0.1-0.04,0.15
		c-0.09,0.01-0.19,0.04-0.28,0.08c-0.19,0.08-0.35,0.22-0.46,0.39c-0.15,0.1-0.26,0.23-0.34,0.39c-0.11,0.07-0.21,0.16-0.29,0.26
		c-0.22,0.13-0.38,0.33-0.46,0.58c-0.02,0.05-0.03,0.1-0.04,0.15c-0.02,0.04-0.04,0.09-0.06,0.14c-0.03,0.09-0.04,0.19-0.04,0.28
		c-0.12,0.11-0.21,0.25-0.26,0.41c-0.04,0.14-0.06,0.28-0.04,0.42c-0.03,0.21,0,0.43,0.11,0.62c0.04,0.07,0.08,0.13,0.13,0.18
		c0,0.02,0,0.05,0,0.07c-0.13,0.11-0.23,0.26-0.3,0.47c-0.08,0.25-0.06,0.53,0.07,0.76c0.05,0.08,0.1,0.15,0.16,0.21
		c0.01,0.03,0.01,0.05,0.02,0.08c-0.01,0.16,0.02,0.33,0.08,0.47c-0.03,0.13-0.04,0.26-0.01,0.39c-0.01,0.19,0.03,0.39,0.12,0.55
		c0.25,0.43,0.65,0.52,1.45,0.7c0.07,0.02,0.16,0.04,0.25,0.06c0.05,0.02,0.11,0.03,0.16,0.04c0.03,0.01,0.06,0.01,0.08,0.02
		c0.08,0.05,0.16,0.1,0.26,0.13c0.1,0.03,0.2,0.05,0.3,0.05c0.13,0,0.26-0.03,0.38-0.08c0,0.18,0.04,0.36,0.14,0.52
		c0.29,0.47,0.81,0.56,1.53,0.68c0,0,0,0,0,0c0.46,0.25,0.87,0.46,1.29,0.46c0.14,0,0.28-0.02,0.42-0.08
		c0.12-0.05,0.23-0.11,0.33-0.2c0.08-0.02,0.15-0.04,0.23-0.08c0.1-0.05,0.2-0.11,0.28-0.19c0.15,0.01,0.31-0.02,0.47-0.08
		c0.28-0.11,0.5-0.34,0.6-0.62c0.07-0.02,0.14-0.05,0.21-0.08c0.07-0.03,0.13-0.07,0.18-0.11c0.04,0.03,0.09,0.06,0.14,0.09
		c0.02,0.05,0.04,0.11,0.07,0.16c0.07,0.12,0.15,0.21,0.25,0.28c0.02,0.08,0.06,0.16,0.1,0.23c0.14,0.23,0.33,0.37,0.6,0.48
		c0.05,0.06,0.11,0.11,0.17,0.15c0.05,0.08,0.12,0.15,0.19,0.2c0.07,0.09,0.15,0.16,0.24,0.21c0.28,0.32,0.71,0.4,1.28,0.5
		c0.02,0,0.04,0.01,0.07,0.01c0.15,0.06,0.3,0.12,0.45,0.15c0.04,0.02,0.08,0.03,0.12,0.05c0.1,0.03,0.2,0.05,0.3,0.05
		c0.41,0,0.78-0.25,0.92-0.65c0.06-0.18,0.06-0.37,0.02-0.54c-0.02-0.13-0.06-0.26-0.13-0.38c-0.09-0.15-0.2-0.26-0.34-0.35
		c-0.01-0.01-0.01-0.02-0.02-0.03c-0.1-0.16-0.22-0.28-0.38-0.37c-0.13-0.16-0.3-0.26-0.52-0.35c-0.02-0.05-0.04-0.1-0.07-0.15
		c-0.1-0.17-0.23-0.29-0.39-0.38c-0.02-0.06-0.05-0.11-0.08-0.17c-0.14-0.23-0.32-0.37-0.57-0.46c0-0.01-0.01-0.02-0.01-0.02
		c-0.05-0.09-0.11-0.16-0.18-0.23c-0.02-0.07-0.05-0.14-0.09-0.2c-0.03-0.05-0.07-0.1-0.1-0.15C32.2,53.6,32.28,53.5,32.34,53.37z
		 M17.55,32.11c-0.25,0.12-0.44,0.34-0.53,0.61c-0.01,0.03-0.02,0.06-0.03,0.09c-0.03,0.02-0.06,0.04-0.09,0.07
		c-0.23,0.08-0.4,0.22-0.52,0.38c-0.02,0.01-0.04,0.01-0.05,0.02c-0.26,0.12-0.47,0.34-0.56,0.62c-0.01,0.03-0.02,0.06-0.02,0.08
		c-0.07,0.02-0.13,0.04-0.2,0.07c-0.12,0.06-0.23,0.13-0.32,0.23c-0.03,0.01-0.07,0.03-0.1,0.04c-0.15,0.08-0.29,0.19-0.38,0.32
		c-0.21,0.11-0.39,0.3-0.49,0.61c-0.03,0.09-0.05,0.19-0.05,0.29c-0.09,0.05-0.17,0.11-0.24,0.19c-0.07,0.01-0.14,0.03-0.22,0.06
		c-0.07,0.01-0.13,0.03-0.2,0.06c-0.29,0.12-0.51,0.35-0.6,0.64c0,0.01-0.01,0.03-0.01,0.04c-0.01,0.01-0.01,0.03-0.02,0.04
		c-0.06,0.01-0.12,0.03-0.19,0.06c-0.28,0.12-0.49,0.35-0.59,0.63c-0.01,0.02-0.01,0.05-0.02,0.07c-0.04,0.05-0.08,0.11-0.11,0.17
		c-0.14,0-0.29,0.03-0.43,0.1c-0.15,0.07-0.28,0.17-0.39,0.29c-0.03,0.01-0.05,0.02-0.08,0.03c-0.22,0.09-0.4,0.25-0.52,0.45
		c-0.44-0.22-0.84-0.34-1.28-0.18c-0.06,0.02-0.11,0.05-0.16,0.08c0-0.18-0.04-0.35-0.12-0.5c-0.03-0.05-0.06-0.09-0.09-0.14
		c-0.01-0.02-0.03-0.04-0.04-0.06c-0.02-0.02-0.03-0.05-0.05-0.07c-0.06-0.1-0.14-0.18-0.22-0.24c-0.01-0.01-0.01-0.03-0.02-0.04
		c-0.04-0.06-0.07-0.12-0.12-0.16c-0.02-0.05-0.04-0.09-0.06-0.14c-0.01-0.02-0.02-0.03-0.03-0.05c0.01-0.02,0.02-0.05,0.03-0.07
		c0.06-0.18,0.06-0.38,0.01-0.57c0.01-0.02,0.02-0.04,0.02-0.06c0.02-0.04,0.04-0.09,0.05-0.13c0.03-0.08,0.04-0.16,0.05-0.24
		c0.02-0.04,0.04-0.08,0.05-0.13c0.06-0.17,0.06-0.35,0.02-0.52c0-0.01,0.01-0.02,0.01-0.02c0.05-0.07,0.09-0.15,0.12-0.23
		c0.05-0.04,0.09-0.08,0.14-0.13c0.11-0.08,0.21-0.19,0.28-0.31c0.03-0.02,0.06-0.05,0.09-0.07c0.25-0.05,0.47-0.18,0.63-0.43
		c0.19-0.11,0.35-0.29,0.44-0.58c0.03-0.1,0.05-0.2,0.05-0.3c0.01-0.01,0.02-0.02,0.03-0.04c0.06-0.01,0.12-0.02,0.17-0.04
		c0.09-0.01,0.18-0.04,0.28-0.08c0.24-0.1,0.43-0.28,0.53-0.51c0.09-0.09,0.17-0.21,0.23-0.36c0.28-0.08,0.53-0.28,0.66-0.67
		c0.01-0.02,0.01-0.03,0.02-0.05c0.1-0.06,0.19-0.14,0.27-0.25c0,0,0.01,0,0.01-0.01c0.14-0.01,0.27-0.04,0.41-0.11
		c0.21-0.1,0.38-0.26,0.49-0.46c0.01-0.02,0.02-0.04,0.04-0.07c0.12-0.11,0.21-0.25,0.26-0.41c0.06-0.03,0.12-0.07,0.18-0.12
		c0.06-0.02,0.12-0.04,0.17-0.07c0.22-0.11,0.39-0.29,0.49-0.51c0.04-0.01,0.08-0.03,0.12-0.05c0.26-0.13,0.46-0.35,0.55-0.63
		c0.02-0.05,0.03-0.11,0.04-0.16c0.07-0.04,0.14-0.09,0.19-0.15c0.05-0.01,0.1-0.03,0.15-0.05c0.03-0.01,0.06-0.03,0.09-0.04
		c0.09,0,0.18-0.01,0.27-0.04c0.09-0.01,0.19-0.03,0.29-0.06c0.12-0.01,0.23-0.03,0.35-0.08c0.2-0.08,0.36-0.22,0.48-0.38
		c0.01,0.02,0.01,0.03,0.02,0.05c0.13,0.22,0.31,0.36,0.56,0.46c0,0,0,0,0,0.01c0.08,0.14,0.19,0.25,0.31,0.34
		c0.02,0.09,0.05,0.17,0.1,0.25c0,0.02,0,0.04,0,0.07c-0.03,0.21,0.01,0.42,0.11,0.61c0.04,0.07,0.09,0.14,0.13,0.19
		c-0.02,0.12-0.01,0.24,0.01,0.36c-0.04,0.07-0.07,0.14-0.1,0.23c-0.05,0.16-0.06,0.34-0.02,0.51c0,0.01-0.01,0.03-0.01,0.04
		c-0.04,0.07-0.08,0.15-0.11,0.24c-0.06,0.17-0.06,0.36-0.01,0.54c-0.02,0.01-0.04,0.01-0.06,0.02
		C17.85,31.7,17.66,31.88,17.55,32.11z M28.6,52.57c-0.21,0.12-0.36,0.31-0.45,0.54c-0.32,0.05-0.62,0.21-0.79,0.59
		c-0.1,0.06-0.2,0.14-0.27,0.22c-0.04,0.02-0.07,0.05-0.1,0.07c-0.05,0.01-0.09,0.03-0.14,0.05c-0.09,0.04-0.18,0.08-0.25,0.14
		c-0.14,0.01-0.28,0.05-0.42,0.12c-0.01,0-0.01,0.01-0.02,0.01c-0.1-0.01-0.19-0.01-0.29,0c-0.04-0.01-0.09-0.01-0.13-0.02
		c-0.22-0.04-0.44-0.03-0.66,0.05c-0.03,0.01-0.07,0.03-0.1,0.05c-0.01-0.15-0.05-0.3-0.12-0.43c0-0.01-0.01-0.02-0.01-0.02
		c-0.02-0.07-0.05-0.14-0.08-0.2c-0.06-0.1-0.13-0.19-0.2-0.26c0-0.16-0.04-0.32-0.12-0.47c0.07-0.23,0.05-0.49-0.07-0.71
		c0.01-0.12-0.01-0.25-0.04-0.37c0-0.02,0-0.03,0.01-0.05c0.02-0.05,0.05-0.1,0.06-0.16c0.01-0.04,0.02-0.08,0.03-0.12
		c0.02-0.04,0.03-0.07,0.05-0.11c0.06-0.18,0.06-0.38,0.01-0.56c0.04-0.04,0.08-0.08,0.12-0.12c0.15-0.1,0.27-0.24,0.35-0.4
		c0.07-0.07,0.13-0.14,0.18-0.23c0.09-0.08,0.16-0.17,0.22-0.28c0.01-0.01,0.01-0.01,0.02-0.02c0,0,0.01,0,0.01-0.01
		c0.24-0.12,0.42-0.31,0.52-0.55c0.21-0.1,0.39-0.26,0.49-0.46c0.07-0.06,0.13-0.13,0.19-0.21c0.07-0.05,0.13-0.1,0.19-0.17
		c0.11-0.02,0.23-0.05,0.34-0.1c0.2-0.1,0.37-0.25,0.47-0.44c0.01-0.01,0.03-0.02,0.04-0.03c0.07-0.05,0.13-0.1,0.18-0.17
		c0.12-0.09,0.22-0.22,0.29-0.35c0.04-0.07,0.07-0.14,0.1-0.21c0.04-0.03,0.08-0.06,0.12-0.09c0.33-0.07,0.62-0.26,0.76-0.7
		c0.02-0.06,0.03-0.11,0.04-0.17c0.07-0.05,0.14-0.12,0.19-0.18c0.06-0.01,0.12-0.03,0.18-0.06c0.21-0.09,0.39-0.24,0.5-0.43
		c0.13-0.06,0.25-0.14,0.35-0.25c0.13-0.07,0.25-0.17,0.34-0.28c0.16-0.13,0.28-0.3,0.35-0.5c0.01-0.02,0.01-0.03,0.01-0.05
		c0.07-0.09,0.12-0.19,0.15-0.29c0.01-0.03,0.02-0.07,0.03-0.11c0,0,0.01-0.01,0.01-0.01c0.26,0.12,0.51,0.19,0.77,0.17
		c0.08,0.02,0.15,0.03,0.23,0.03c0.31,0,0.6-0.15,0.78-0.4c0,0,0,0.01,0.01,0.01c0.11,0.19,0.26,0.31,0.45,0.41
		c0.06,0.07,0.13,0.14,0.2,0.19c0.07,0.07,0.15,0.13,0.24,0.18c0.02,0.02,0.04,0.05,0.07,0.07c-0.04,0.22,0,0.45,0.11,0.64
		c0.03,0.05,0.06,0.09,0.09,0.13c0,0.16,0.04,0.31,0.12,0.45c0,0.01,0.01,0.01,0.01,0.02c-0.04,0.07-0.08,0.14-0.1,0.22
		c-0.05,0.16-0.06,0.33-0.02,0.5c-0.11,0.11-0.19,0.24-0.24,0.39c-0.06,0.18-0.06,0.39-0.01,0.57c0,0.01-0.01,0.02-0.01,0.03
		c-0.06,0.02-0.12,0.04-0.18,0.07c-0.1,0.05-0.2,0.11-0.28,0.19c-0.04,0.01-0.08,0.03-0.12,0.05c-0.14,0.07-0.27,0.17-0.36,0.29
		c0,0-0.01,0-0.01,0.01c-0.26,0.13-0.46,0.35-0.55,0.63c-0.02,0.05-0.03,0.1-0.04,0.15c-0.03,0.04-0.06,0.08-0.09,0.12
		c-0.36,0.03-0.72,0.17-0.91,0.6c0,0.01-0.01,0.01-0.01,0.02c-0.01,0.01-0.02,0.01-0.03,0.02c-0.26,0.13-0.45,0.35-0.54,0.61
		c-0.16,0.1-0.28,0.25-0.36,0.41c-0.16,0.1-0.3,0.23-0.39,0.39c-0.16,0.09-0.29,0.23-0.38,0.39c-0.06,0.08-0.12,0.17-0.16,0.27
		c-0.19,0.07-0.35,0.2-0.47,0.4c-0.02,0.01-0.04,0.02-0.06,0.04c-0.02,0.01-0.04,0.01-0.05,0.02C28.79,52.4,28.68,52.48,28.6,52.57z
		"/>
</g>
</svg>
