<?xml version="1.0" encoding="utf-8"?>
<!-- Generator: Adobe Illustrator 25.0.1, SVG Export Plug-In . SVG Version: 6.00 Build 0)  -->
<svg version="1.1" id="레이어_1" xmlns="http://www.w3.org/2000/svg" xmlns:xlink="http://www.w3.org/1999/xlink" x="0px"
	 y="0px" viewBox="0 0 70 130" style="enable-background:new 0 0 70 130;" xml:space="preserve">
<style type="text/css">
	.st0{fill:#FFFFFF;}
	.st1{fill:#FFBC00;}
</style>
<g>
	<g>
		<path d="M2.38,23.9c-0.36,0-0.62-0.15-0.8-0.44c-0.18-0.3-0.27-0.64-0.27-1.02c0-0.39,0.09-0.72,0.27-1.01
			c0.18-0.29,0.44-0.43,0.8-0.43c-0.5,0-0.84-0.1-1.01-0.31c-0.17-0.21-0.17-0.42,0-0.62c0.17-0.21,0.51-0.31,1.01-0.31
			c-0.43,0-0.75-0.11-0.97-0.32c-0.22-0.21-0.32-0.46-0.32-0.75c0-0.28,0.11-0.53,0.32-0.75c0.21-0.21,0.54-0.32,0.97-0.32
			c-0.39,0-0.67-0.11-0.87-0.34c-0.19-0.23-0.29-0.5-0.29-0.8c0-0.3,0.1-0.57,0.29-0.81c0.19-0.24,0.48-0.36,0.87-0.36
			c-0.37,0-0.64-0.15-0.82-0.46c-0.18-0.3-0.27-0.65-0.27-1.05c0-0.39,0.09-0.74,0.27-1.05c0.18-0.3,0.45-0.46,0.82-0.46
			c-0.47,0-0.79-0.08-0.95-0.24c-0.16-0.16-0.16-0.33,0-0.49c0.16-0.16,0.47-0.24,0.95-0.24c-0.1-0.58-0.08-0.98,0.07-1.2
			c0.15-0.22,0.33-0.26,0.54-0.1c0.21,0.16,0.37,0.52,0.48,1.1c0-0.34,0.11-0.61,0.33-0.82c0.22-0.21,0.5-0.35,0.85-0.42
			c0.34-0.07,0.68-0.07,1.01,0c0.33,0.07,0.61,0.21,0.83,0.42c0.22,0.21,0.33,0.48,0.33,0.82c0-0.47,0.1-0.79,0.29-0.95
			c0.19-0.16,0.39-0.16,0.58,0c0.19,0.16,0.29,0.47,0.29,0.95c0.03-0.4,0.2-0.69,0.51-0.88c0.31-0.19,0.67-0.27,1.07-0.24
			c0.4,0.02,0.75,0.14,1.03,0.37c0.29,0.22,0.43,0.53,0.41,0.91c0.13-0.55,0.3-0.9,0.49-1.05c0.19-0.15,0.34-0.11,0.43,0.11
			c0.1,0.22,0.08,0.61-0.06,1.16c0.19-0.37,0.43-0.6,0.71-0.68c0.28-0.08,0.54-0.06,0.78,0.07c0.24,0.13,0.4,0.33,0.48,0.61
			c0.08,0.28,0.03,0.6-0.17,0.96c0.27-0.19,0.53-0.26,0.78-0.19c0.25,0.07,0.45,0.21,0.6,0.42c0.15,0.21,0.21,0.45,0.18,0.7
			c-0.03,0.25-0.19,0.47-0.47,0.67c0.27,0,0.49,0.1,0.66,0.31c0.17,0.21,0.29,0.47,0.36,0.79c0.07,0.32,0.08,0.64,0.04,0.97
			c-0.04,0.33-0.13,0.6-0.29,0.82c-0.16,0.22-0.37,0.34-0.63,0.36c0.3,0.19,0.44,0.44,0.43,0.75c-0.01,0.3-0.1,0.6-0.29,0.88
			c-0.19,0.28-0.42,0.48-0.7,0.59c-0.28,0.11-0.56,0.07-0.85-0.12c0.15,0.34,0.19,0.63,0.13,0.86c-0.06,0.23-0.19,0.39-0.38,0.49
			c-0.19,0.1-0.4,0.1-0.62,0c-0.22-0.1-0.42-0.31-0.58-0.63c0.04,0.34-0.04,0.62-0.27,0.82c-0.22,0.21-0.5,0.35-0.85,0.42
			c-0.34,0.07-0.67,0.07-0.98-0.02c-0.31-0.09-0.53-0.27-0.64-0.56c0.09,0.46-0.03,0.83-0.37,1.11c-0.33,0.28-0.69,0.41-1.08,0.38
			c0.07,0.25,0.09,0.51,0.04,0.78c-0.04,0.27-0.16,0.5-0.34,0.69c-0.19,0.19-0.43,0.29-0.75,0.29c0.55,0,0.92,0.11,1.1,0.32
			c0.19,0.22,0.19,0.43,0,0.66c-0.19,0.22-0.55,0.33-1.1,0.33c0,0.34-0.11,0.6-0.32,0.78c-0.22,0.18-0.46,0.27-0.75,0.27
			c-0.28,0-0.53-0.09-0.75-0.26c-0.22-0.17-0.32-0.43-0.32-0.77c0,0.44-0.1,0.74-0.29,0.89c-0.19,0.15-0.39,0.15-0.58,0
			c-0.19-0.15-0.29-0.45-0.29-0.89c0,0.36-0.06,0.62-0.18,0.78c-0.12,0.16-0.26,0.2-0.42,0.12c-0.16-0.08-0.3-0.31-0.41-0.69
			C2.41,25.18,2.36,24.62,2.38,23.9z M6.71,15.6c0.27,0,0.47,0.12,0.6,0.36c0.13,0.24,0.22,0.5,0.27,0.8
			c0.04,0.3,0.07,0.53,0.07,0.71c0.07-0.18,0.21-0.31,0.42-0.41c0.21-0.1,0.43-0.14,0.68-0.14c0.24,0,0.46,0.04,0.66,0.13
			c-0.12-0.24-0.12-0.41,0.01-0.52c0.13-0.11,0.31-0.09,0.57,0.06c-0.07-0.18-0.09-0.39-0.04-0.62c0.04-0.24,0.15-0.41,0.31-0.51
			c-0.21,0-0.36-0.08-0.46-0.24c-0.1-0.16-0.11-0.33-0.06-0.51c-0.15,0.07-0.28,0.06-0.4-0.03c-0.12-0.1-0.16-0.24-0.13-0.43
			c-0.12,0.15-0.3,0.24-0.53,0.29c-0.24,0.04-0.47,0.03-0.7-0.04c-0.23-0.07-0.37-0.21-0.43-0.4c0.04,0.36-0.04,0.57-0.24,0.64
			c0.03,0.21,0,0.41-0.1,0.6C7.1,15.51,6.94,15.6,6.71,15.6z"/>
		<path d="M16.28,24.36c-0.16,0-0.3-0.1-0.41-0.3c-0.11-0.2-0.19-0.46-0.23-0.77c-0.04-0.31-0.06-0.62-0.03-0.93
			c0.02-0.31,0.08-0.57,0.17-0.79c0.09-0.21,0.22-0.32,0.4-0.32c-0.07-0.13-0.04-0.3,0.11-0.49c0.15-0.19,0.36-0.38,0.63-0.57
			c0.27-0.18,0.56-0.34,0.87-0.48c0.3-0.13,0.57-0.21,0.81-0.24c0.24-0.03,0.39,0.02,0.47,0.16c-0.03-0.19,0.04-0.36,0.21-0.51
			c0.17-0.15,0.39-0.26,0.66-0.33c0.27-0.07,0.53-0.1,0.79-0.09c0.26,0.01,0.46,0.09,0.61,0.22c-0.06-0.24,0.01-0.5,0.22-0.78
			c-0.37-0.01-0.71-0.08-1.02-0.19c-0.31-0.11-0.46-0.26-0.44-0.46c0,0.22-0.09,0.39-0.27,0.49c-0.18,0.1-0.38,0.16-0.61,0.16
			c-0.23,0-0.43-0.05-0.61-0.16c-0.18-0.1-0.27-0.27-0.27-0.49c-0.13,0.22-0.3,0.35-0.51,0.38c-0.21,0.03-0.41-0.01-0.61-0.12
			c-0.2-0.11-0.34-0.27-0.43-0.47c-0.09-0.2-0.07-0.41,0.07-0.63c-0.25-0.28-0.34-0.54-0.28-0.77c0.07-0.23,0.22-0.37,0.46-0.41
			c0.24-0.04,0.48,0.07,0.73,0.36c-0.18-0.34-0.22-0.61-0.13-0.8c0.09-0.19,0.23-0.27,0.43-0.23c0.2,0.04,0.39,0.23,0.57,0.59
			c-0.06-0.24-0.03-0.44,0.1-0.61c0.13-0.17,0.3-0.29,0.51-0.34c0.21-0.06,0.42-0.05,0.62,0.02c0.2,0.07,0.33,0.23,0.39,0.47
			c-0.01-0.3,0.08-0.52,0.29-0.68c0.21-0.16,0.45-0.24,0.73-0.26c0.28-0.01,0.53,0.04,0.76,0.18c0.22,0.13,0.34,0.35,0.36,0.64
			c0.03-0.4,0.13-0.66,0.31-0.78c0.18-0.12,0.34-0.1,0.49,0.04c0.15,0.15,0.21,0.42,0.18,0.82c0.07-0.27,0.21-0.44,0.42-0.52
			c0.21-0.08,0.43-0.09,0.66-0.02c0.23,0.07,0.41,0.19,0.54,0.38c0.13,0.19,0.16,0.4,0.09,0.66c0.16-0.21,0.36-0.31,0.58-0.3
			c0.22,0.01,0.43,0.08,0.61,0.22c0.19,0.14,0.3,0.32,0.36,0.54c0.05,0.22,0,0.44-0.17,0.64c0.36-0.16,0.64-0.16,0.87,0
			c0.22,0.16,0.32,0.38,0.29,0.64c-0.03,0.27-0.22,0.48-0.58,0.64c0.3-0.01,0.52,0.12,0.68,0.39c0.16,0.27,0.24,0.59,0.27,0.95
			c0.02,0.36-0.03,0.68-0.17,0.97c-0.13,0.29-0.35,0.44-0.64,0.46c0.24,0,0.41,0.09,0.53,0.28c0.12,0.19,0.18,0.4,0.18,0.64
			c0,0.24-0.06,0.46-0.18,0.64c-0.12,0.19-0.3,0.28-0.53,0.28c0.27,0,0.48,0.1,0.64,0.3c0.16,0.2,0.28,0.45,0.34,0.76
			c0.07,0.3,0.08,0.61,0.03,0.92c-0.04,0.31-0.14,0.57-0.29,0.79c-0.15,0.21-0.35,0.33-0.6,0.34c-0.01,0.24-0.13,0.43-0.34,0.58
			c-0.22,0.15-0.48,0.24-0.79,0.29c-0.31,0.04-0.63,0.04-0.95-0.01c-0.32-0.05-0.58-0.16-0.79-0.31c-0.21-0.16-0.31-0.35-0.31-0.59
			c0,0.37-0.08,0.62-0.24,0.76c-0.16,0.13-0.33,0.14-0.49,0.01c-0.16-0.13-0.24-0.38-0.24-0.77c-0.19,0.24-0.39,0.36-0.6,0.38
			c-0.21,0.01-0.38-0.04-0.52-0.18c-0.14-0.13-0.2-0.3-0.19-0.49c-0.24,0.19-0.62,0.33-1.15,0.4c-0.53,0.07-1.17,0.03-1.92-0.14
			C17.99,25.25,17.17,24.9,16.28,24.36z M21.97,23.27c-0.13-0.07-0.19-0.21-0.16-0.4c0.03-0.19,0.1-0.4,0.21-0.62
			c0.11-0.22,0.24-0.41,0.39-0.56c-0.13-0.03-0.26-0.1-0.37-0.2c-0.11-0.1-0.18-0.22-0.21-0.36c-0.1,0.15-0.26,0.27-0.47,0.37
			c-0.21,0.1-0.42,0.15-0.63,0.17c-0.22,0.01-0.39-0.02-0.52-0.11c0.04,0.13,0.01,0.25-0.09,0.36c0.21,0.07,0.43,0.21,0.68,0.4
			c0.24,0.19,0.47,0.39,0.68,0.58C21.69,23.09,21.85,23.21,21.97,23.27z"/>
		<path d="M31.02,24.19c-0.25,0.07-0.46,0.06-0.63-0.04c-0.17-0.1-0.29-0.25-0.34-0.43c-0.06-0.19-0.05-0.37,0.03-0.56
			c0.08-0.19,0.25-0.32,0.5-0.41c-0.3,0.1-0.57,0.03-0.81-0.21c-0.24-0.24-0.43-0.56-0.54-0.93c-0.12-0.38-0.15-0.73-0.09-1.07
			c0.06-0.33,0.24-0.54,0.53-0.63c-0.34,0.1-0.6,0.1-0.77-0.02c-0.17-0.12-0.22-0.27-0.16-0.46c0.07-0.19,0.28-0.34,0.63-0.46
			c-0.3,0.1-0.56,0.08-0.78-0.08c-0.22-0.16-0.37-0.37-0.46-0.63c-0.08-0.27-0.08-0.53,0.01-0.78c0.09-0.25,0.29-0.43,0.6-0.53
			c-0.27,0.09-0.5,0.06-0.7-0.1c-0.2-0.16-0.34-0.36-0.42-0.61c-0.08-0.25-0.09-0.5-0.02-0.73c0.07-0.24,0.23-0.4,0.5-0.49
			c0-0.31,0.12-0.54,0.37-0.69c0.24-0.15,0.53-0.22,0.86-0.22c0.33,0,0.61,0.07,0.87,0.22c0.25,0.15,0.38,0.38,0.38,0.69
			c0.18-0.18,0.39-0.23,0.64-0.16c0.25,0.07,0.49,0.22,0.71,0.43c0.22,0.21,0.37,0.45,0.43,0.71c0.07,0.26,0.01,0.48-0.17,0.66
			c0.18-0.06,0.36,0,0.55,0.19c0.19,0.19,0.34,0.44,0.48,0.76c0.13,0.32,0.23,0.63,0.29,0.95c0.13-0.12,0.28-0.2,0.44-0.26
			c0.16-0.05,0.32-0.05,0.47,0.01c-0.12-0.15-0.17-0.37-0.16-0.66c0.01-0.29,0.08-0.59,0.19-0.89c0.11-0.3,0.25-0.55,0.42-0.75
			c0.17-0.19,0.35-0.26,0.55-0.2c-0.07-0.19,0-0.38,0.22-0.57c0.22-0.19,0.5-0.33,0.82-0.43c0.33-0.1,0.63-0.14,0.92-0.12
			c0.29,0.02,0.46,0.13,0.52,0.32c0.33-0.15,0.59-0.15,0.78-0.01c0.19,0.14,0.28,0.33,0.27,0.57c-0.02,0.24-0.19,0.43-0.51,0.58
			c0.25-0.07,0.47-0.04,0.66,0.11c0.19,0.15,0.31,0.34,0.39,0.59c0.07,0.24,0.08,0.48,0.01,0.7c-0.07,0.22-0.23,0.38-0.48,0.47
			c0.18-0.07,0.34-0.04,0.5,0.1c0.16,0.14,0.27,0.32,0.34,0.52c0.12-0.09,0.25-0.14,0.4-0.17c0.15-0.02,0.29,0,0.42,0.08
			c-0.1-0.19-0.13-0.44-0.07-0.76c0.06-0.31,0.17-0.58,0.34-0.8c0.17-0.22,0.36-0.3,0.57-0.24c-0.19-0.16-0.26-0.37-0.21-0.63
			c0.05-0.26,0.17-0.5,0.37-0.73c0.19-0.23,0.41-0.39,0.67-0.48c0.25-0.09,0.47-0.05,0.67,0.11c-0.01-0.27,0.11-0.47,0.38-0.6
			c0.27-0.13,0.57-0.2,0.91-0.21c0.34-0.01,0.64,0.06,0.91,0.19c0.27,0.13,0.4,0.33,0.4,0.6c0.28,0.09,0.45,0.3,0.51,0.62
			c0.06,0.33,0.03,0.67-0.09,1.05c-0.12,0.37-0.29,0.67-0.52,0.91c-0.23,0.24-0.49,0.31-0.77,0.22c0.34,0.12,0.55,0.26,0.62,0.43
			c0.07,0.17,0.03,0.31-0.13,0.41c-0.16,0.1-0.42,0.1-0.76,0c0.4,0.13,0.64,0.32,0.71,0.56c0.07,0.24,0.01,0.43-0.19,0.59
			c-0.2,0.16-0.5,0.17-0.9,0.03c0.27,0.09,0.44,0.24,0.51,0.47c0.07,0.22,0.07,0.46-0.01,0.7c-0.08,0.24-0.22,0.44-0.41,0.59
			c-0.19,0.15-0.42,0.18-0.69,0.09c0.37,0.12,0.59,0.3,0.64,0.53c0.06,0.24,0,0.43-0.19,0.59c-0.19,0.16-0.46,0.17-0.81,0.06
			c0.27,0.09,0.43,0.26,0.49,0.51c0.06,0.25,0.05,0.52-0.03,0.8c-0.08,0.28-0.22,0.51-0.42,0.68c-0.2,0.17-0.43,0.21-0.7,0.12
			c0.12,0.25,0.11,0.46-0.01,0.62c-0.13,0.16-0.29,0.25-0.5,0.26c-0.21,0.01-0.38-0.11-0.51-0.37c-0.04,0.24-0.21,0.38-0.5,0.43
			c-0.29,0.05-0.61,0.04-0.96-0.04c-0.35-0.08-0.64-0.21-0.88-0.38c-0.24-0.17-0.33-0.37-0.29-0.61c-0.16,0.06-0.33,0-0.49-0.19
			c-0.16-0.19-0.3-0.42-0.4-0.7c-0.1-0.28-0.15-0.55-0.14-0.8c0.01-0.25,0.1-0.41,0.28-0.47c-0.24,0.09-0.48-0.04-0.72-0.39
			c-0.24-0.35-0.43-0.74-0.54-1.17c-0.21,0.15-0.42,0.17-0.62,0.07c0.16,0.06,0.26,0.21,0.29,0.46c0.03,0.24,0,0.52-0.08,0.83
			c-0.08,0.31-0.19,0.62-0.33,0.91c-0.14,0.3-0.3,0.53-0.47,0.7c-0.17,0.17-0.34,0.23-0.5,0.17c0.36,0.13,0.56,0.3,0.62,0.49
			c0.06,0.19,0,0.34-0.17,0.46c-0.17,0.11-0.43,0.1-0.79-0.03c0.12,0.33,0.13,0.57,0.04,0.72c-0.09,0.16-0.22,0.2-0.38,0.13
			c-0.16-0.07-0.3-0.26-0.42-0.59c0,0.31-0.13,0.54-0.38,0.68c-0.25,0.14-0.56,0.17-0.91,0.1c-0.36-0.07-0.69-0.28-1.01-0.61
			C31.4,25.29,31.17,24.81,31.02,24.19z"/>
		<path d="M46.99,25.41c-0.24,0-0.42-0.11-0.56-0.33c-0.13-0.22-0.23-0.5-0.28-0.82c-0.05-0.33-0.05-0.65,0-0.98
			c0.05-0.33,0.14-0.6,0.28-0.81c0.13-0.21,0.32-0.32,0.56-0.32c-0.3,0-0.52-0.12-0.67-0.37c-0.15-0.24-0.22-0.52-0.22-0.83
			c0-0.31,0.07-0.59,0.22-0.83c0.15-0.24,0.37-0.37,0.67-0.37c-0.25,0-0.45-0.11-0.6-0.33c-0.15-0.22-0.25-0.5-0.3-0.82
			c-0.05-0.33-0.05-0.65,0-0.98c0.05-0.33,0.15-0.6,0.3-0.81c0.15-0.21,0.35-0.32,0.6-0.32c-0.27,0-0.46-0.08-0.59-0.23
			c-0.13-0.16-0.19-0.33-0.2-0.53c-0.01-0.2,0.06-0.37,0.19-0.52c0.13-0.15,0.33-0.22,0.6-0.22c0-0.27,0.09-0.46,0.28-0.59
			c0.19-0.13,0.4-0.18,0.64-0.18c0.24,0.01,0.46,0.08,0.63,0.21c0.18,0.13,0.27,0.33,0.27,0.6c0-0.22,0.08-0.39,0.24-0.49
			c0.16-0.1,0.36-0.16,0.58-0.16c0.22,0,0.42,0.05,0.59,0.16c0.17,0.1,0.26,0.27,0.26,0.49c0.22-0.18,0.42-0.23,0.59-0.16
			c0.17,0.07,0.27,0.2,0.29,0.38c0.02,0.18-0.08,0.36-0.3,0.53c0.27,0,0.46,0.13,0.59,0.38c0.13,0.25,0.19,0.54,0.19,0.87
			c0,0.33-0.06,0.61-0.19,0.86c-0.13,0.24-0.32,0.37-0.59,0.37c0.24,0,0.41,0.13,0.53,0.38c0.12,0.25,0.18,0.54,0.18,0.87
			c0,0.33-0.06,0.62-0.18,0.87c-0.12,0.25-0.3,0.38-0.53,0.38c0.18,0,0.32,0.11,0.43,0.34c0.11,0.23,0.19,0.52,0.22,0.87
			c0.04,0.35,0.04,0.69,0,1.03c-0.04,0.34-0.11,0.63-0.22,0.86c-0.11,0.23-0.26,0.34-0.43,0.34c0.33,0.06,0.53,0.2,0.6,0.43
			c0.07,0.23,0.04,0.44-0.11,0.64c-0.15,0.2-0.39,0.27-0.71,0.21c0,0.37-0.07,0.62-0.22,0.75c-0.15,0.13-0.3,0.13-0.44,0
			c-0.15-0.13-0.22-0.37-0.22-0.75c0,0.31-0.14,0.55-0.43,0.71c-0.29,0.16-0.63,0.24-1.02,0.23c-0.39-0.01-0.74-0.09-1.03-0.26
			C47.16,25.98,47,25.74,46.99,25.41z M48.1,11.2c-0.31-0.07-0.53-0.21-0.64-0.4c-0.12-0.19-0.15-0.38-0.1-0.57
			c0.05-0.19,0.17-0.33,0.37-0.43c0.19-0.1,0.45-0.11,0.78-0.02c0-0.22,0.1-0.4,0.31-0.52c0.21-0.13,0.47-0.21,0.78-0.26
			c0.31-0.04,0.63-0.04,0.95,0c0.32,0.04,0.58,0.13,0.79,0.26c0.21,0.13,0.31,0.3,0.31,0.52c0.31-0.04,0.56,0.02,0.73,0.19
			c0.18,0.17,0.29,0.39,0.33,0.64c0.04,0.26,0,0.5-0.12,0.72c-0.13,0.22-0.34,0.36-0.63,0.4c0.07,0.18,0.03,0.35-0.14,0.52
			c-0.17,0.17-0.39,0.31-0.67,0.42c-0.27,0.11-0.53,0.16-0.78,0.16c-0.24-0.01-0.4-0.1-0.46-0.28c0,0.24-0.09,0.41-0.27,0.51
			c-0.18,0.1-0.39,0.12-0.62,0.03c-0.24-0.08-0.44-0.27-0.62-0.58C48.21,12.22,48.11,11.78,48.1,11.2z M45.69,10.75
			c-0.31-0.07-0.53-0.21-0.64-0.4c-0.12-0.19-0.15-0.38-0.1-0.57c0.05-0.19,0.17-0.33,0.37-0.43c0.19-0.1,0.45-0.11,0.78-0.02
			c0-0.22,0.1-0.4,0.31-0.52c0.21-0.13,0.47-0.21,0.78-0.26c0.31-0.04,0.63-0.04,0.95,0c0.32,0.04,0.58,0.13,0.79,0.26
			c0.21,0.13,0.31,0.3,0.31,0.52c0.31-0.04,0.56,0.02,0.73,0.19c0.18,0.17,0.29,0.39,0.33,0.64c0.04,0.26,0,0.5-0.12,0.72
			c-0.13,0.22-0.34,0.36-0.63,0.4c0.07,0.18,0.03,0.35-0.14,0.52c-0.17,0.17-0.39,0.31-0.67,0.42c-0.27,0.11-0.53,0.16-0.78,0.16
			c-0.24-0.01-0.4-0.1-0.46-0.28c0,0.24-0.09,0.41-0.27,0.51c-0.18,0.1-0.39,0.12-0.62,0.03c-0.24-0.08-0.44-0.27-0.62-0.58
			C45.8,11.77,45.71,11.32,45.69,10.75z M46.91,9.2c-0.23-0.07-0.39-0.21-0.48-0.4c-0.09-0.19-0.11-0.38-0.07-0.57
			c0.04-0.19,0.13-0.33,0.27-0.43c0.14-0.1,0.34-0.11,0.58-0.02c0-0.22,0.08-0.4,0.23-0.52c0.16-0.13,0.35-0.21,0.58-0.26
			c0.23-0.04,0.47-0.04,0.71,0c0.24,0.04,0.43,0.13,0.59,0.26c0.16,0.13,0.23,0.3,0.23,0.52c0.23-0.04,0.42,0.02,0.55,0.19
			c0.13,0.17,0.22,0.39,0.25,0.64c0.03,0.26,0,0.5-0.09,0.72c-0.09,0.22-0.25,0.36-0.47,0.4c0.06,0.18,0.02,0.35-0.11,0.52
			c-0.13,0.17-0.29,0.31-0.5,0.42c-0.21,0.11-0.4,0.16-0.58,0.16c-0.18-0.01-0.3-0.1-0.34-0.28c0,0.24-0.07,0.41-0.2,0.51
			c-0.13,0.1-0.29,0.12-0.47,0.03c-0.18-0.08-0.33-0.27-0.47-0.58C46.99,10.22,46.92,9.77,46.91,9.2z M42.79,7.19
			c-0.19-0.06-0.32-0.17-0.39-0.32c-0.07-0.15-0.09-0.31-0.06-0.46c0.03-0.15,0.1-0.27,0.22-0.35c0.12-0.08,0.27-0.09,0.47-0.02
			c0-0.18,0.06-0.32,0.19-0.42c0.12-0.1,0.28-0.17,0.47-0.21c0.19-0.04,0.38-0.04,0.57,0c0.19,0.04,0.35,0.1,0.47,0.21
			c0.12,0.1,0.19,0.24,0.19,0.42c0.19-0.04,0.33,0.01,0.44,0.15c0.11,0.14,0.17,0.31,0.2,0.52c0.03,0.21,0,0.4-0.07,0.58
			c-0.08,0.18-0.2,0.29-0.38,0.32c0.04,0.14,0.02,0.28-0.09,0.42c-0.1,0.14-0.24,0.25-0.4,0.34c-0.17,0.09-0.32,0.13-0.47,0.13
			C44,8.5,43.91,8.42,43.88,8.28c0,0.19-0.05,0.33-0.16,0.41c-0.11,0.08-0.23,0.09-0.37,0.03c-0.14-0.07-0.27-0.22-0.37-0.47
			C42.86,8.01,42.8,7.66,42.79,7.19z M46.32,4.48C46.13,4.42,46,4.32,45.93,4.16c-0.07-0.15-0.09-0.31-0.06-0.46
			c0.03-0.15,0.1-0.27,0.22-0.35c0.12-0.08,0.27-0.09,0.47-0.02c0-0.18,0.06-0.32,0.19-0.42c0.12-0.1,0.28-0.17,0.47-0.21
			c0.19-0.04,0.38-0.04,0.57,0c0.19,0.04,0.35,0.1,0.47,0.21c0.12,0.1,0.19,0.24,0.19,0.42c0.19-0.04,0.33,0.01,0.44,0.15
			c0.11,0.14,0.17,0.31,0.2,0.52c0.03,0.21,0,0.4-0.07,0.58c-0.08,0.18-0.2,0.29-0.38,0.32c0.04,0.14,0.02,0.28-0.09,0.42
			c-0.1,0.14-0.24,0.25-0.4,0.34c-0.17,0.09-0.32,0.13-0.47,0.13c-0.15-0.01-0.24-0.08-0.27-0.22c0,0.19-0.05,0.33-0.16,0.41
			c-0.11,0.08-0.23,0.09-0.37,0.03c-0.14-0.07-0.27-0.22-0.37-0.47C46.38,5.3,46.33,4.95,46.32,4.48z M50.4,5.36
			c-0.19-0.06-0.32-0.17-0.39-0.32c-0.07-0.15-0.09-0.31-0.06-0.46c0.03-0.15,0.1-0.27,0.22-0.35c0.12-0.08,0.27-0.09,0.47-0.02
			c0-0.18,0.06-0.32,0.19-0.42c0.12-0.1,0.28-0.17,0.47-0.21c0.19-0.04,0.38-0.04,0.57,0c0.19,0.04,0.35,0.1,0.47,0.21
			c0.12,0.1,0.19,0.24,0.19,0.42c0.19-0.04,0.33,0.01,0.44,0.15c0.11,0.14,0.17,0.31,0.2,0.52c0.03,0.21,0,0.4-0.07,0.58
			c-0.08,0.18-0.2,0.29-0.38,0.32c0.04,0.14,0.02,0.28-0.09,0.42c-0.1,0.14-0.24,0.25-0.4,0.34c-0.17,0.09-0.32,0.13-0.47,0.13
			c-0.15-0.01-0.24-0.08-0.27-0.22c0,0.19-0.05,0.33-0.16,0.41c-0.11,0.08-0.23,0.09-0.37,0.03c-0.14-0.07-0.27-0.22-0.37-0.47
			C50.47,6.18,50.41,5.82,50.4,5.36z M53.13,8.82c-0.15-0.05-0.26-0.14-0.31-0.26c-0.06-0.13-0.07-0.25-0.05-0.37
			c0.03-0.12,0.08-0.22,0.18-0.28c0.09-0.07,0.22-0.07,0.38-0.01c0-0.15,0.05-0.26,0.15-0.34c0.1-0.08,0.23-0.14,0.38-0.17
			c0.15-0.03,0.31-0.03,0.46,0c0.16,0.03,0.28,0.08,0.39,0.17c0.1,0.08,0.15,0.2,0.15,0.34c0.15-0.03,0.27,0.01,0.36,0.12
			c0.09,0.11,0.14,0.25,0.16,0.42c0.02,0.17,0,0.33-0.06,0.47c-0.06,0.15-0.16,0.23-0.31,0.26c0.04,0.12,0.01,0.23-0.07,0.34
			c-0.08,0.11-0.19,0.2-0.33,0.28c-0.13,0.07-0.26,0.11-0.38,0.1c-0.12,0-0.19-0.07-0.22-0.18c0,0.16-0.04,0.27-0.13,0.33
			c-0.09,0.07-0.19,0.08-0.3,0.02c-0.12-0.05-0.22-0.18-0.3-0.38C53.18,9.49,53.14,9.2,53.13,8.82z"/>
		<path d="M54.13,25.59c-0.24-0.01-0.42-0.11-0.53-0.29c-0.12-0.18-0.17-0.39-0.17-0.62c0.01-0.24,0.07-0.44,0.2-0.61
			c0.13-0.17,0.31-0.26,0.54-0.26c-0.28,0-0.5-0.14-0.64-0.41c-0.15-0.27-0.22-0.59-0.22-0.96c0-0.36,0.07-0.68,0.22-0.96
			c0.15-0.27,0.36-0.41,0.64-0.41c-0.27,0-0.46-0.14-0.59-0.43c-0.13-0.29-0.19-0.62-0.19-0.99c0-0.37,0.06-0.7,0.19-0.99
			c0.13-0.29,0.32-0.43,0.59-0.43c-0.31,0-0.54-0.09-0.7-0.27c-0.16-0.18-0.23-0.38-0.23-0.61c0-0.23,0.08-0.43,0.23-0.61
			c0.16-0.18,0.39-0.27,0.7-0.27c-0.22-0.04-0.38-0.15-0.47-0.31c-0.09-0.16-0.12-0.34-0.09-0.53c0.03-0.19,0.11-0.35,0.24-0.48
			C54,15.02,54.17,14.97,54.4,15c0-0.25,0.11-0.45,0.33-0.6c0.22-0.15,0.5-0.25,0.84-0.3c0.34-0.05,0.68-0.05,1.01,0
			c0.33,0.05,0.61,0.15,0.83,0.3c0.22,0.15,0.33,0.35,0.33,0.6c0.18-0.19,0.38-0.26,0.61-0.19c0.23,0.07,0.42,0.19,0.57,0.37
			c0.15-0.24,0.38-0.37,0.69-0.41c0.31-0.04,0.56,0.12,0.76,0.46c-0.04-0.25,0.03-0.46,0.23-0.63c0.2-0.17,0.45-0.29,0.75-0.34
			c0.3-0.06,0.57-0.05,0.82,0.03c0.25,0.08,0.4,0.25,0.44,0.5c0.1-0.18,0.28-0.27,0.52-0.28c0.24-0.01,0.51,0.05,0.8,0.17
			c0.29,0.12,0.56,0.27,0.81,0.44c0.25,0.18,0.44,0.37,0.57,0.58c0.13,0.21,0.14,0.4,0.03,0.58c0.33-0.15,0.59-0.16,0.78-0.04
			c0.19,0.12,0.28,0.29,0.26,0.52c-0.02,0.23-0.2,0.42-0.52,0.57c0.27-0.03,0.48,0.06,0.64,0.27c0.16,0.21,0.26,0.46,0.3,0.75
			c0.04,0.29,0,0.56-0.1,0.8c-0.1,0.24-0.29,0.38-0.56,0.41c0.28,0,0.49,0.15,0.63,0.46c0.14,0.3,0.21,0.66,0.21,1.06
			c0,0.4-0.07,0.75-0.21,1.06c-0.14,0.3-0.35,0.46-0.63,0.46c0.31,0,0.51,0.1,0.61,0.31c0.1,0.21,0.1,0.42,0,0.62
			c-0.1,0.21-0.3,0.31-0.61,0.31c0.27,0.03,0.46,0.14,0.57,0.32c0.11,0.19,0.15,0.39,0.12,0.6c-0.03,0.22-0.12,0.4-0.28,0.55
			c-0.16,0.15-0.37,0.21-0.63,0.18c0,0.24-0.11,0.42-0.34,0.55c-0.23,0.13-0.5,0.19-0.8,0.19c-0.3,0-0.57-0.06-0.8-0.19
			c-0.23-0.13-0.34-0.31-0.34-0.55c0,0.27-0.1,0.47-0.29,0.61c-0.19,0.14-0.42,0.21-0.68,0.22c-0.26,0.01-0.49-0.05-0.68-0.18
			c-0.19-0.13-0.3-0.33-0.31-0.61c-0.18,0-0.31-0.15-0.39-0.44c-0.08-0.3-0.11-0.64-0.09-1.02c0.02-0.39,0.09-0.72,0.19-1.01
			c0.1-0.29,0.24-0.43,0.42-0.43c-0.24,0-0.42-0.09-0.56-0.28c-0.13-0.19-0.21-0.4-0.22-0.66c-0.01-0.25,0.03-0.49,0.12-0.71
			c0.1-0.22,0.25-0.36,0.46-0.42c-0.19-0.01-0.38-0.12-0.56-0.32c-0.18-0.2-0.34-0.44-0.48-0.73c-0.14-0.29-0.23-0.57-0.26-0.86
			c-0.18,0.15-0.39,0.25-0.63,0.31c-0.24,0.06-0.46,0.06-0.66,0c0.07,0.18,0.1,0.38,0.07,0.6c-0.03,0.22-0.1,0.42-0.2,0.58
			c-0.1,0.16-0.24,0.24-0.42,0.22c0.27,0,0.44,0.07,0.52,0.21c0.08,0.14,0.08,0.29,0,0.43c-0.08,0.15-0.26,0.22-0.52,0.22
			c0.22,0,0.39,0.14,0.51,0.42c0.12,0.28,0.18,0.61,0.18,0.98c0,0.37-0.06,0.7-0.18,0.99c-0.12,0.29-0.29,0.43-0.51,0.43
			c0.22,0.13,0.34,0.31,0.36,0.52c0.01,0.21-0.04,0.42-0.16,0.61c-0.12,0.19-0.28,0.33-0.49,0.41c-0.21,0.08-0.42,0.05-0.64-0.1
			c0,0.22-0.11,0.4-0.33,0.52c-0.22,0.13-0.5,0.21-0.83,0.27c-0.33,0.05-0.67,0.06-1.01,0.02c-0.34-0.04-0.63-0.11-0.87-0.22
			C54.27,25.93,54.14,25.78,54.13,25.59z"/>
		<path class="st0" d="M2.75,45.71c-0.44,0-0.78-0.1-1-0.31c-0.22-0.2-0.33-0.44-0.33-0.7c0-0.27,0.11-0.5,0.33-0.69
			c0.22-0.19,0.55-0.29,1-0.29c-0.6,0-1.01-0.1-1.21-0.29c-0.2-0.19-0.2-0.39,0-0.58c0.2-0.19,0.61-0.29,1.21-0.29
			c-0.44,0-0.77-0.1-0.98-0.31c-0.21-0.2-0.32-0.44-0.32-0.7c0-0.27,0.11-0.5,0.32-0.7c0.21-0.2,0.54-0.31,0.98-0.31
			c-0.51,0-0.9-0.15-1.16-0.46C1.33,39.76,1.2,39.4,1.2,38.99c0-0.41,0.13-0.77,0.39-1.08c0.26-0.31,0.64-0.47,1.16-0.47
			c-0.46,0-0.81-0.16-1.04-0.49c-0.23-0.33-0.35-0.71-0.35-1.14c0-0.43,0.12-0.81,0.35-1.14c0.23-0.33,0.58-0.49,1.04-0.49
			c-0.43-0.02-0.74-0.15-0.94-0.41c-0.2-0.26-0.31-0.55-0.31-0.89c0-0.34,0.11-0.63,0.32-0.89c0.21-0.26,0.53-0.39,0.96-0.39
			c0-0.53,0.12-0.93,0.37-1.18c0.25-0.26,0.53-0.39,0.85-0.39c0.32,0,0.6,0.13,0.85,0.39c0.25,0.26,0.37,0.65,0.37,1.18
			c0-0.5,0.12-0.87,0.36-1.12c0.24-0.25,0.51-0.37,0.81-0.37c0.3,0,0.57,0.12,0.81,0.37c0.24,0.25,0.36,0.62,0.36,1.12
			c0.55-0.09,0.93-0.03,1.14,0.17c0.21,0.2,0.25,0.44,0.12,0.7c-0.13,0.27-0.47,0.44-1.02,0.53c0.6,0,1.03,0.16,1.29,0.49
			c0.26,0.33,0.34,0.68,0.25,1.06c-0.09,0.38-0.35,0.66-0.77,0.84c0.32,0.05,0.58,0.21,0.78,0.46c0.2,0.26,0.32,0.54,0.36,0.84
			c0.35-0.21,0.77-0.3,1.24-0.27c0.47,0.04,0.85,0.2,1.13,0.51c0.02-0.3,0.14-0.5,0.37-0.58c-0.18-0.32-0.16-0.65,0.04-1.01
			c0.2-0.35,0.61-0.53,1.21-0.53c-0.53,0-0.93-0.16-1.18-0.48c-0.26-0.32-0.39-0.69-0.39-1.12c0-0.42,0.13-0.8,0.39-1.12
			c0.26-0.32,0.65-0.48,1.18-0.48c0-0.44,0.12-0.78,0.37-1.01c0.25-0.23,0.53-0.35,0.85-0.36c0.32-0.01,0.61,0.1,0.86,0.33
			c0.26,0.23,0.39,0.57,0.39,1.01c0-0.51,0.1-0.9,0.29-1.17c0.19-0.27,0.42-0.4,0.66-0.4c0.25,0,0.47,0.13,0.66,0.4
			c0.19,0.27,0.29,0.66,0.29,1.17c0.32-0.07,0.59,0,0.82,0.23c0.23,0.22,0.39,0.51,0.48,0.86c0.09,0.35,0.08,0.69-0.01,1
			c-0.1,0.31-0.31,0.51-0.62,0.6c0.51,0,0.89,0.17,1.14,0.52c0.25,0.35,0.37,0.75,0.37,1.22c0,0.47-0.12,0.88-0.37,1.22
			c-0.25,0.35-0.63,0.52-1.14,0.52c0.53,0,0.93,0.16,1.18,0.48c0.26,0.32,0.39,0.69,0.39,1.12c0,0.42-0.13,0.8-0.39,1.12
			c-0.26,0.32-0.65,0.48-1.18,0.48c0.53,0,0.93,0.17,1.18,0.5c0.26,0.34,0.39,0.73,0.39,1.18c0,0.45-0.13,0.85-0.39,1.2
			c-0.26,0.35-0.65,0.52-1.18,0.52c0.57,0,0.94,0.08,1.13,0.25c0.19,0.17,0.19,0.34,0,0.52c-0.19,0.18-0.56,0.27-1.13,0.27
			c0.41,0,0.71,0.12,0.92,0.35c0.2,0.23,0.31,0.49,0.31,0.78c0,0.29-0.1,0.55-0.31,0.77c-0.2,0.22-0.51,0.33-0.92,0.33
			c0.16,0.35,0.17,0.67,0.03,0.94c-0.14,0.27-0.35,0.47-0.64,0.6c-0.28,0.12-0.57,0.15-0.86,0.08c-0.29-0.07-0.52-0.28-0.68-0.64
			c0.02,0.46-0.12,0.81-0.41,1.05c-0.29,0.24-0.63,0.36-1.01,0.37c-0.38,0.01-0.72-0.1-1.01-0.32c-0.29-0.22-0.45-0.56-0.46-1.02
			c-0.35,0-0.63-0.16-0.82-0.48c-0.2-0.32-0.31-0.69-0.36-1.13c-0.04-0.43,0-0.85,0.12-1.25c0.12-0.4,0.34-0.68,0.64-0.84
			c-0.55,0.09-0.98-0.06-1.29-0.44c-0.31-0.38-0.43-0.79-0.36-1.24c-0.66,0.21-1.29,0.2-1.91-0.03c0.04,0.21-0.01,0.4-0.15,0.56
			c-0.13,0.16-0.32,0.26-0.57,0.29c0.32,0.23,0.38,0.5,0.19,0.81c-0.19,0.31-0.66,0.46-1.38,0.46c0.69,0,1.15,0.1,1.37,0.29
			c0.22,0.2,0.22,0.39,0,0.58c-0.22,0.2-0.68,0.29-1.37,0.29c0.43,0,0.75,0.1,0.97,0.29c0.22,0.2,0.33,0.42,0.33,0.69
			s-0.11,0.5-0.33,0.7c-0.22,0.2-0.54,0.31-0.97,0.31c0.02,0.67-0.05,1.12-0.21,1.34c-0.16,0.22-0.32,0.22-0.49,0
			c-0.17-0.22-0.26-0.66-0.28-1.32c0,0.42-0.1,0.74-0.29,0.94c-0.2,0.2-0.42,0.31-0.66,0.31c-0.25,0-0.47-0.1-0.66-0.31
			c-0.2-0.2-0.29-0.52-0.29-0.94c0,0.69-0.1,1.15-0.29,1.38c-0.2,0.23-0.39,0.23-0.58,0c-0.2-0.23-0.29-0.69-0.29-1.38
			c0,0.46-0.05,0.79-0.16,1c-0.11,0.2-0.23,0.22-0.36,0.04c-0.13-0.18-0.25-0.58-0.35-1.21C2.77,47.81,2.73,46.9,2.75,45.71z"/>
		<path class="st0" d="M21.47,47.44c-0.2,0-0.36-0.12-0.49-0.36c-0.13-0.24-0.23-0.54-0.28-0.92c-0.05-0.37-0.07-0.74-0.04-1.12
			c0.03-0.37,0.09-0.69,0.2-0.94c0.11-0.26,0.27-0.39,0.48-0.39c-0.09-0.16-0.04-0.35,0.13-0.58c0.18-0.23,0.43-0.46,0.76-0.68
			c0.33-0.22,0.67-0.41,1.04-0.57c0.36-0.16,0.69-0.26,0.97-0.29c0.28-0.04,0.47,0.03,0.56,0.19c-0.04-0.23,0.05-0.43,0.25-0.61
			c0.2-0.18,0.46-0.31,0.78-0.4c0.32-0.09,0.63-0.12,0.94-0.11c0.31,0.02,0.55,0.11,0.73,0.27c-0.07-0.28,0.02-0.59,0.27-0.93
			c-0.44-0.02-0.85-0.09-1.22-0.23c-0.37-0.13-0.55-0.31-0.53-0.54c0,0.27-0.11,0.46-0.32,0.58C25.49,39.94,25.24,40,24.97,40
			c-0.27,0-0.52-0.06-0.73-0.19c-0.21-0.12-0.32-0.32-0.32-0.58c-0.16,0.27-0.36,0.42-0.61,0.45c-0.25,0.04-0.49-0.01-0.73-0.15
			c-0.24-0.13-0.41-0.32-0.52-0.56c-0.11-0.24-0.08-0.49,0.08-0.76c-0.3-0.34-0.41-0.64-0.33-0.92c0.08-0.27,0.26-0.44,0.54-0.49
			c0.28-0.05,0.58,0.09,0.88,0.43c-0.21-0.41-0.27-0.73-0.16-0.96c0.11-0.23,0.28-0.32,0.52-0.28c0.24,0.04,0.46,0.28,0.68,0.7
			c-0.07-0.28-0.03-0.53,0.12-0.73c0.15-0.2,0.35-0.34,0.61-0.41c0.26-0.07,0.5-0.06,0.74,0.03c0.24,0.09,0.39,0.27,0.46,0.56
			c-0.02-0.35,0.1-0.62,0.35-0.81c0.25-0.19,0.54-0.29,0.88-0.31c0.34-0.02,0.64,0.05,0.9,0.21c0.27,0.16,0.41,0.42,0.43,0.77
			c0.04-0.48,0.16-0.79,0.37-0.93c0.21-0.14,0.41-0.12,0.58,0.05c0.18,0.18,0.25,0.5,0.21,0.98c0.09-0.32,0.26-0.53,0.5-0.62
			c0.25-0.1,0.51-0.11,0.78-0.03c0.27,0.08,0.49,0.23,0.65,0.45c0.16,0.22,0.19,0.48,0.11,0.78c0.19-0.25,0.43-0.37,0.69-0.36
			c0.27,0.01,0.51,0.1,0.73,0.27c0.22,0.17,0.36,0.39,0.43,0.65c0.06,0.27,0,0.52-0.2,0.77c0.43-0.19,0.77-0.19,1.04,0
			c0.27,0.2,0.38,0.45,0.35,0.77c-0.04,0.32-0.27,0.58-0.69,0.77c0.35-0.02,0.62,0.14,0.81,0.46c0.19,0.33,0.29,0.7,0.32,1.13
			c0.03,0.42-0.04,0.81-0.2,1.16c-0.16,0.35-0.42,0.53-0.77,0.54c0.28,0,0.5,0.11,0.64,0.33c0.14,0.22,0.21,0.48,0.21,0.77
			c0,0.29-0.07,0.55-0.21,0.77c-0.14,0.22-0.35,0.33-0.64,0.33c0.32,0,0.58,0.12,0.77,0.36c0.19,0.24,0.33,0.54,0.41,0.9
			c0.08,0.36,0.09,0.73,0.04,1.1c-0.05,0.37-0.17,0.69-0.35,0.94c-0.18,0.26-0.42,0.39-0.72,0.41c-0.02,0.28-0.16,0.51-0.41,0.69
			c-0.26,0.18-0.57,0.29-0.94,0.35c-0.37,0.05-0.75,0.05-1.13-0.01c-0.38-0.06-0.7-0.19-0.94-0.37c-0.25-0.19-0.37-0.42-0.37-0.7
			c0,0.44-0.1,0.74-0.29,0.9c-0.2,0.16-0.39,0.16-0.58,0.01c-0.2-0.15-0.29-0.46-0.29-0.92c-0.23,0.28-0.47,0.43-0.72,0.45
			c-0.25,0.02-0.46-0.05-0.62-0.21c-0.17-0.16-0.24-0.35-0.23-0.58c-0.28,0.23-0.74,0.39-1.37,0.48c-0.63,0.09-1.39,0.03-2.3-0.17
			C23.52,48.5,22.54,48.08,21.47,47.44z M28.28,46.14c-0.16-0.09-0.22-0.25-0.19-0.48c0.04-0.23,0.12-0.48,0.25-0.74
			c0.13-0.27,0.29-0.49,0.46-0.66c-0.16-0.04-0.31-0.11-0.44-0.24c-0.13-0.12-0.22-0.27-0.25-0.42c-0.12,0.18-0.31,0.32-0.56,0.44
			c-0.25,0.12-0.5,0.18-0.76,0.2c-0.26,0.02-0.46-0.03-0.62-0.13c0.05,0.16,0.02,0.3-0.11,0.42c0.25,0.09,0.52,0.25,0.81,0.48
			c0.29,0.23,0.56,0.46,0.81,0.69C27.94,45.92,28.13,46.07,28.28,46.14z"/>
		<path class="st0" d="M36.67,48.9c-0.28-0.02-0.5-0.13-0.64-0.35c-0.14-0.21-0.21-0.46-0.2-0.74c0.01-0.28,0.09-0.53,0.24-0.73
			c0.15-0.2,0.37-0.31,0.65-0.31c-0.34,0-0.59-0.16-0.77-0.49c-0.18-0.33-0.27-0.71-0.27-1.14c0-0.43,0.09-0.81,0.27-1.14
			c0.18-0.33,0.43-0.49,0.77-0.49c-0.32,0-0.55-0.17-0.7-0.52c-0.15-0.35-0.23-0.74-0.23-1.18c0-0.44,0.08-0.84,0.23-1.18
			c0.15-0.35,0.39-0.52,0.7-0.52c-0.37,0-0.65-0.11-0.84-0.32c-0.19-0.21-0.28-0.46-0.28-0.73c0-0.27,0.09-0.52,0.28-0.73
			c0.19-0.21,0.46-0.32,0.84-0.32c-0.27-0.05-0.45-0.18-0.56-0.37c-0.11-0.19-0.14-0.41-0.11-0.64c0.04-0.23,0.13-0.42,0.29-0.57
			c0.16-0.15,0.37-0.21,0.64-0.17c0-0.3,0.13-0.54,0.4-0.72c0.27-0.18,0.6-0.3,1.01-0.36c0.41-0.06,0.81-0.06,1.21,0
			c0.4,0.06,0.73,0.18,1,0.36c0.27,0.18,0.4,0.42,0.4,0.72c0.21-0.23,0.46-0.31,0.73-0.23c0.27,0.08,0.5,0.23,0.68,0.44
			c0.18-0.28,0.45-0.45,0.82-0.49c0.37-0.04,0.67,0.14,0.9,0.54c-0.05-0.3,0.04-0.55,0.28-0.76c0.24-0.2,0.54-0.34,0.89-0.41
			c0.35-0.07,0.68-0.06,0.98,0.04c0.3,0.1,0.48,0.3,0.53,0.6c0.12-0.21,0.33-0.32,0.62-0.33c0.29-0.01,0.61,0.06,0.96,0.2
			c0.35,0.14,0.67,0.32,0.97,0.53c0.3,0.21,0.53,0.44,0.68,0.69c0.15,0.25,0.16,0.48,0.04,0.69c0.39-0.18,0.7-0.19,0.93-0.05
			c0.23,0.14,0.33,0.35,0.31,0.62c-0.03,0.27-0.23,0.5-0.62,0.68c0.32-0.04,0.58,0.07,0.77,0.32c0.19,0.25,0.31,0.54,0.36,0.89
			c0.04,0.35,0,0.66-0.12,0.96c-0.12,0.29-0.35,0.46-0.66,0.49c0.34,0,0.59,0.18,0.76,0.54c0.17,0.36,0.25,0.78,0.25,1.26
			c0,0.48-0.08,0.9-0.25,1.26c-0.17,0.36-0.42,0.54-0.76,0.54c0.37,0,0.62,0.12,0.73,0.37c0.12,0.25,0.12,0.5,0,0.74
			c-0.12,0.25-0.36,0.37-0.73,0.37c0.32,0.04,0.54,0.16,0.68,0.39c0.13,0.22,0.18,0.46,0.15,0.72c-0.04,0.26-0.15,0.47-0.33,0.65
			c-0.19,0.18-0.44,0.25-0.76,0.21c0,0.28-0.14,0.5-0.41,0.65c-0.27,0.15-0.59,0.23-0.96,0.23c-0.36,0-0.68-0.08-0.96-0.23
			c-0.27-0.15-0.41-0.37-0.41-0.65c0,0.32-0.12,0.56-0.35,0.73c-0.23,0.17-0.5,0.26-0.81,0.27c-0.31,0.01-0.58-0.06-0.81-0.21
			c-0.23-0.15-0.35-0.39-0.37-0.73c-0.21,0-0.37-0.18-0.46-0.53c-0.1-0.35-0.13-0.76-0.11-1.22c0.03-0.46,0.1-0.86,0.23-1.21
			c0.12-0.35,0.29-0.52,0.5-0.52c-0.28,0-0.5-0.11-0.66-0.33c-0.16-0.22-0.25-0.48-0.27-0.78c-0.02-0.3,0.03-0.58,0.15-0.85
			c0.12-0.27,0.3-0.43,0.54-0.5c-0.23-0.02-0.45-0.15-0.66-0.39c-0.21-0.24-0.4-0.53-0.57-0.88c-0.17-0.35-0.27-0.69-0.31-1.02
			c-0.21,0.18-0.46,0.3-0.76,0.37c-0.29,0.07-0.55,0.07-0.78,0c0.09,0.21,0.11,0.45,0.08,0.72c-0.04,0.27-0.12,0.5-0.24,0.69
			c-0.12,0.2-0.29,0.28-0.5,0.27c0.32,0,0.53,0.08,0.62,0.25c0.1,0.17,0.1,0.34,0,0.52c-0.1,0.18-0.31,0.27-0.62,0.27
			c0.27,0,0.47,0.17,0.61,0.51c0.14,0.34,0.21,0.73,0.21,1.17c0,0.44-0.07,0.84-0.21,1.18c-0.14,0.35-0.35,0.52-0.61,0.52
			c0.27,0.16,0.41,0.37,0.42,0.62c0.02,0.26-0.04,0.5-0.19,0.73c-0.14,0.23-0.34,0.39-0.58,0.49c-0.25,0.1-0.5,0.06-0.77-0.12
			c0,0.27-0.13,0.47-0.4,0.62c-0.27,0.15-0.6,0.26-1,0.32c-0.4,0.06-0.8,0.07-1.21,0.03c-0.41-0.04-0.75-0.13-1.04-0.27
			C36.84,49.31,36.69,49.13,36.67,48.9z"/>
		<path class="st0" d="M54.52,47.81c-0.32,0.25-0.58,0.35-0.8,0.29c-0.21-0.05-0.32-0.19-0.33-0.41c-0.01-0.22,0.15-0.46,0.46-0.7
			c-0.37,0.12-0.68,0.12-0.93-0.01c-0.25-0.13-0.42-0.33-0.52-0.6c-0.1-0.27-0.09-0.53,0.01-0.8c0.11-0.27,0.34-0.46,0.69-0.58
			c-0.39,0.02-0.69-0.1-0.9-0.35c-0.21-0.25-0.33-0.55-0.36-0.9c-0.03-0.35,0.05-0.67,0.23-0.96c0.18-0.28,0.46-0.44,0.85-0.48
			c-0.37-0.04-0.63-0.21-0.78-0.53c-0.15-0.32-0.2-0.67-0.16-1.06c0.04-0.39,0.18-0.72,0.4-1c0.22-0.27,0.52-0.39,0.89-0.33
			c-0.32-0.18-0.51-0.41-0.57-0.69c-0.06-0.28-0.03-0.55,0.11-0.8c0.13-0.25,0.33-0.42,0.58-0.52c0.26-0.1,0.55-0.06,0.89,0.12
			c-0.18-0.28-0.2-0.56-0.07-0.84c0.13-0.27,0.34-0.5,0.62-0.68c0.28-0.18,0.58-0.26,0.88-0.25c0.3,0.01,0.54,0.16,0.72,0.44
			c0.02-0.23,0.16-0.4,0.42-0.5c0.27-0.11,0.59-0.16,0.97-0.17c0.38-0.01,0.76,0.03,1.13,0.11c0.37,0.08,0.68,0.2,0.93,0.35
			c0.25,0.15,0.36,0.34,0.35,0.57c0.04-0.3,0.12-0.54,0.25-0.7c0.13-0.17,0.29-0.27,0.46-0.31c0.02-0.3,0.12-0.57,0.32-0.8
			c0.19-0.23,0.44-0.32,0.74-0.27c-0.34-0.04-0.59-0.2-0.76-0.49c-0.17-0.29-0.25-0.62-0.24-1c0.01-0.37,0.11-0.69,0.29-0.97
			c0.19-0.27,0.46-0.41,0.81-0.41c-0.23-0.44-0.33-0.77-0.31-0.97c0.03-0.2,0.14-0.27,0.33-0.19c0.19,0.08,0.42,0.34,0.66,0.78
			c0-0.3,0.14-0.52,0.41-0.66c0.27-0.14,0.59-0.21,0.94-0.21c0.35,0,0.67,0.07,0.94,0.21c0.27,0.14,0.41,0.36,0.41,0.66
			c0.18-0.16,0.39-0.19,0.65-0.08c0.26,0.11,0.49,0.28,0.7,0.53c0.21,0.25,0.35,0.5,0.43,0.77c0.07,0.27,0.02,0.48-0.16,0.64
			c0.3,0,0.52,0.17,0.66,0.52c0.14,0.35,0.21,0.74,0.21,1.18c0,0.44-0.07,0.84-0.21,1.18c-0.14,0.35-0.36,0.52-0.66,0.52
			c0.27,0,0.47,0.14,0.62,0.41c0.15,0.27,0.25,0.61,0.31,1.01c0.05,0.4,0.05,0.8,0,1.2c-0.05,0.4-0.16,0.74-0.31,1.01
			c-0.15,0.27-0.36,0.41-0.62,0.41c0.41,0,0.68,0.09,0.81,0.27c0.13,0.18,0.13,0.35,0,0.53c-0.13,0.18-0.4,0.27-0.81,0.27
			c0.51,0,0.85,0.13,1.02,0.4c0.17,0.27,0.17,0.53,0,0.8c-0.17,0.27-0.51,0.4-1.02,0.4c0.21,0,0.39,0.12,0.52,0.37
			c0.13,0.25,0.22,0.56,0.27,0.93c0.04,0.37,0.04,0.74,0,1.12c-0.04,0.37-0.13,0.68-0.27,0.93c-0.13,0.25-0.31,0.37-0.52,0.37
			c0.39,0.05,0.67,0.19,0.84,0.4c0.17,0.21,0.23,0.44,0.2,0.69c-0.04,0.25-0.16,0.45-0.39,0.61c-0.22,0.16-0.53,0.21-0.92,0.16
			c0,0.28-0.1,0.49-0.31,0.62c-0.2,0.13-0.43,0.2-0.69,0.2c-0.26,0-0.49-0.07-0.69-0.2c-0.2-0.13-0.31-0.34-0.31-0.62
			c-0.04,0.32-0.18,0.54-0.44,0.66c-0.26,0.12-0.54,0.17-0.85,0.13c-0.31-0.04-0.58-0.14-0.8-0.32c-0.22-0.18-0.31-0.42-0.28-0.72
			c0,0.35-0.1,0.62-0.31,0.8c-0.2,0.18-0.44,0.27-0.7,0.29c-0.27,0.02-0.51-0.04-0.73-0.19c-0.22-0.14-0.37-0.36-0.44-0.66
			c-0.02,0.39-0.27,0.66-0.76,0.8c-0.49,0.14-1.16,0.09-2.03-0.16C56.68,49.13,55.67,48.61,54.52,47.81z M62.15,42.45
			c-0.25,0-0.4-0.11-0.45-0.32c-0.05-0.21,0.01-0.37,0.19-0.48c-0.18,0-0.37-0.09-0.58-0.28c-0.21-0.19-0.39-0.4-0.54-0.65
			c-0.15-0.25-0.24-0.49-0.28-0.72c-0.16,0.16-0.38,0.27-0.66,0.32c-0.28,0.05-0.52,0.03-0.72-0.08c0.05,0.23,0.04,0.5-0.04,0.82
			c-0.08,0.32-0.2,0.59-0.36,0.82c-0.16,0.23-0.32,0.32-0.48,0.27c0.14,0.04,0.25,0.17,0.32,0.4c0.07,0.23,0.1,0.47,0.08,0.72
			c-0.02,0.25-0.09,0.43-0.21,0.56c0.23-0.02,0.53,0.08,0.89,0.31c0.36,0.22,0.71,0.46,1.05,0.7c0.34,0.25,0.58,0.42,0.72,0.5
			c-0.18-0.14-0.23-0.36-0.17-0.66c0.06-0.3,0.19-0.59,0.39-0.86c0.19-0.27,0.4-0.42,0.61-0.44c-0.28-0.09-0.4-0.27-0.35-0.54
			C61.59,42.56,61.79,42.43,62.15,42.45z"/>
	</g>
	<g>
		<path d="M12,62.07c-0.19-0.16-0.3-0.57-0.13-0.76c0.24-0.29,0.47-0.25,0.79-0.06c0.32,0.18,0.67,0.3,1.17,0.3
			c0.4,0,0.68-0.18,0.68-0.5c0-0.23-0.14-0.38-0.58-0.55c-0.38-0.14-0.92-0.39-1.42-0.72C12.15,59.55,12,59.33,12,58.79
			c0-0.63,0.66-1.36,1.79-1.36c0.89,0,1.34,0.27,1.65,0.73c0.19,0.28,0.1,0.53-0.1,0.68c-0.17,0.13-0.46,0.12-0.66-0.1
			c-0.25-0.28-0.41-0.43-0.84-0.43c-0.46,0-0.73,0.18-0.73,0.46c0,0.12,0.1,0.28,0.49,0.48c0.3,0.15,0.89,0.4,1.23,0.57
			c0.55,0.27,0.83,0.65,0.83,1.16c0,0.8-0.47,1.61-1.89,1.61C12.97,62.59,12.36,62.36,12,62.07z"/>
		<path d="M24.82,61.92c0-0.66,0.02-3.04,0.04-3.93c0.01-0.38,0.18-0.55,0.5-0.55c0.29,0,0.49,0.16,0.49,0.55
			c0.01,0.22,0.01,0.7,0,1.26l2.16-0.01c0-0.5,0-0.95,0.01-1.25c0.01-0.38,0.21-0.55,0.52-0.55c0.28,0,0.47,0.16,0.48,0.55
			c0.01,0.64,0.01,3.43,0.01,3.92c-0.01,0.34-0.21,0.56-0.5,0.56c-0.31,0-0.52-0.2-0.52-0.55c0-0.3-0.01-0.95-0.01-1.65l-2.16,0.01
			c-0.01,0.74-0.02,1.41-0.02,1.63c-0.01,0.34-0.21,0.56-0.51,0.56C25.01,62.47,24.82,62.27,24.82,61.92z"/>
		<path d="M38.38,60.05c0-1.2,0.65-2.6,2.39-2.6c1.2,0,2.2,0.8,2.2,2.6c0,1.35-0.86,2.5-2.25,2.5
			C39.64,62.55,38.38,61.64,38.38,60.05z M40.73,61.5c0.69,0,1.14-0.65,1.14-1.53c0-0.88-0.38-1.59-1.18-1.59
			c-0.8,0-1.17,0.76-1.17,1.65C39.53,61.05,40.14,61.5,40.73,61.5z"/>
		<path d="M52.32,62.06c-0.04-0.44-0.02-3.93-0.02-4.25c0-0.23,0.12-0.31,0.36-0.33c0.89-0.05,1.34-0.04,2.04,0.11
			c0.75,0.16,1.2,0.77,1.2,1.5c0,0.77-0.3,1.31-0.91,1.6c-0.47,0.22-1.02,0.28-1.54,0.2c-0.13-0.02-0.14,0.04-0.14,0.18
			s-0.03,0.67-0.03,0.92c0,0.28-0.13,0.52-0.5,0.52C52.52,62.53,52.36,62.44,52.32,62.06z M53.28,59.77c0,0.13,0.04,0.16,0.17,0.17
			c0.38,0.03,0.76,0.01,1.06-0.1c0.32-0.12,0.44-0.39,0.44-0.74c0-0.26-0.15-0.52-0.48-0.63c-0.35-0.11-0.76-0.11-1.06-0.07
			c-0.1,0.01-0.14,0.04-0.14,0.13L53.28,59.77z"/>
	</g>
</g>
<g>
	<g>
		<g>
			<path class="st0" d="M29.8,106.65c-0.09-1.1-0.6-1.98-1.65-2.47c-1.11-0.52-2.19-0.37-3.06,0.43c-2.2,2.03-4.37,4.08-6.51,6.17
				c-1.11,1.09-1.06,2.78,0.01,3.86c1.06,1.07,2.79,1.15,3.93,0.09c2.17-2.01,4.29-4.06,6.43-6.1
				C29.51,108.1,29.76,107.43,29.8,106.65z"/>
			<path class="st0" d="M23.67,99.37c-1.08-1.09-2.78-1.18-3.93-0.13c-2.17,2-4.3,4.05-6.44,6.09c-0.56,0.54-0.85,1.19-0.81,1.82
				c0,1.32,0.57,2.14,1.61,2.65c1.11,0.54,2.19,0.38,3.06-0.42c2.2-2.02,4.37-4.08,6.5-6.17C24.82,102.09,24.77,100.47,23.67,99.37z
				"/>
			<path class="st0" d="M18.93,94.74c-0.49-1.04-1.35-1.58-2.52-1.61c-0.71-0.04-1.35,0.17-1.86,0.65c-2.23,2.1-4.47,4.18-6.65,6.33
				c-1.04,1.03-0.95,2.66,0.05,3.7c1.05,1.09,2.72,1.27,3.84,0.26c2.29-2.08,4.53-4.22,6.73-6.39
				C19.33,96.85,19.41,95.78,18.93,94.74z"/>
			<path class="st0" d="M48.86,74.83c-4.2,0.09-7.51,1.19-10.07,3.79c-3.36,3.41-6.54,6.98-9.79,10.49
				c-0.19,0.2-0.32,0.47-0.42,0.72c-0.54,1.34-0.02,2.9,1.2,3.69c1.36,0.87,3.01,0.69,4.16-0.53c1.73-1.85,3.44-3.72,5.11-5.62
				c0.63-0.72,1.06-0.67,1.69,0.02c4.35,4.74,8.75,9.44,13.1,14.18c0.52,0.57,0.8,0.66,1.35,0.02c1.12-1.31,2.39-2.49,3.51-3.8
				c3.88-4.54,4.79-9.62,2.26-15.02C58.52,77.55,54.09,75.08,48.86,74.83z"/>
			<path class="st0" d="M34.29,110.18c-1.01-1.04-2.67-1.27-3.75-0.3c-2.33,2.09-4.6,4.25-6.82,6.46c-0.81,0.8-0.91,1.88-0.4,2.92
				c0.51,1.02,1.38,1.56,2.29,1.61c0.91,0.02,1.54-0.15,2.02-0.6c2.26-2.11,4.54-4.21,6.74-6.39
				C35.39,112.87,35.28,111.2,34.29,110.18z"/>
		</g>
		<path class="st1" d="M54.15,103.79c-4.57-4.94-9.15-9.86-13.7-14.81c-0.48-0.52-0.72-0.45-1.14,0.02
			c-1.4,1.58-2.84,3.13-4.27,4.68c-1.83,1.96-4.61,2.19-6.46,0.53c-1.94-1.73-2.02-4.47-0.18-6.46c1.63-1.76,3.25-3.51,4.91-5.24
			c0.42-0.44,0.55-0.72,0.04-1.19c-0.6-0.55-1.11-1.18-1.66-1.77c-3.11-3.37-6.99-4.99-11.6-4.64c-5.15,0.39-9.01,2.92-11.35,7.42
			c-2.37,4.54-2.05,9.09,0.55,13.5c0.37,0.63,0.62,0.56,1.09,0.09c1.02-1.02,2.07-2.02,3.15-2.98c2.36-2.09,6-1.07,6.83,1.89
			c0.23,0.82,0.12,1.64-0.06,2.57c1.71-0.35,3.21-0.12,4.39,1.11c1.17,1.22,1.29,2.7,0.93,4.28c3.7-0.65,5.64,1.31,5.36,5.35
			c0.18-0.02,0.34-0.05,0.51-0.06c2.11-0.19,3.75,0.63,4.51,2.25c0.78,1.65,0.39,3.43-1.08,4.87c-0.98,0.96-2,1.89-2.98,2.85
			c-1.22,1.18-1.23,1.2-0.04,2.47c1.03,1.1,1.92,2.35,3.39,2.98c2.6,1.12,5.33-0.14,5.82-2.72c0.2-1.06-0.01-2.08-0.51-3.05
			c-0.22-0.42-0.65-0.88-0.19-1.33c0.49-0.48,0.9,0.03,1.3,0.27c0.46,0.28,0.94,0.49,1.45,0.63c2.65,0.72,4.92-0.79,5.17-3.47
			c0.1-1.04-0.23-2-0.76-2.89c-0.19-0.32-0.34-0.63-0.03-0.95c0.36-0.36,0.7-0.19,1.04,0.05c0.52,0.37,1.09,0.65,1.71,0.83
			c2.81,0.82,5.32-1.09,5.2-3.96C55.42,105.72,54.96,104.67,54.15,103.79z"/>
	</g>
	<path d="M64.86,88.5c0.04-0.06,0.07-0.13,0.09-0.2c0.07-0.2,0.06-0.43-0.01-0.62c0.01-0.11-0.01-0.22-0.04-0.33
		c0.08-0.25,0.05-0.52-0.07-0.75c0.01-0.18-0.03-0.35-0.12-0.51c-0.07-0.13-0.16-0.23-0.26-0.31c0.04-0.06,0.06-0.13,0.09-0.19
		c0.08-0.25,0.05-0.54-0.08-0.77c-0.01-0.01-0.02-0.03-0.02-0.04c-0.01-0.03-0.01-0.06-0.02-0.08c-0.01-0.13-0.05-0.26-0.12-0.37
		c0,0,0-0.01,0-0.01c-0.02-0.11-0.05-0.23-0.11-0.33c-0.04-0.08-0.09-0.14-0.14-0.2c0-0.01,0-0.02-0.01-0.03
		c0-0.03,0-0.05-0.01-0.08c0.05-0.21,0.02-0.45-0.08-0.65c-0.01-0.13-0.05-0.27-0.12-0.38c-0.08-0.14-0.17-0.24-0.29-0.33
		c-0.01-0.02-0.02-0.05-0.03-0.07c0.05-0.23,0.01-0.47-0.11-0.67c-0.07-0.13-0.16-0.23-0.27-0.31c-0.02-0.06-0.04-0.11-0.07-0.16
		c-0.05-0.09-0.11-0.16-0.17-0.22c-0.02-0.06-0.05-0.12-0.08-0.17c-0.02-0.03-0.04-0.07-0.06-0.1c-0.01-0.16-0.05-0.32-0.13-0.45
		c-0.11-0.19-0.25-0.31-0.43-0.4c0,0-0.01-0.01-0.01-0.01c-0.02-0.13-0.06-0.25-0.12-0.36c-0.09-0.15-0.2-0.26-0.33-0.35
		c0,0,0,0,0,0c-0.04-0.08-0.09-0.14-0.15-0.2c-0.01-0.01-0.01-0.02-0.02-0.04c-0.08-0.14-0.18-0.24-0.3-0.32
		c-0.07-0.1-0.16-0.18-0.26-0.25c-0.09-0.13-0.19-0.22-0.32-0.3c-0.01-0.03-0.03-0.06-0.05-0.09c-0.14-0.24-0.34-0.38-0.62-0.49
		c-0.02-0.05-0.04-0.1-0.07-0.15c-0.14-0.23-0.32-0.37-0.59-0.48c-0.01-0.02-0.02-0.04-0.03-0.05c-0.04-0.07-0.08-0.12-0.13-0.18
		c-0.18-0.22-0.44-0.34-0.8-0.44c-0.02-0.04-0.04-0.08-0.06-0.12c-0.1-0.17-0.24-0.29-0.4-0.38c-0.01-0.02-0.02-0.03-0.03-0.05
		c-0.36-0.58-1.12-0.7-2.36-0.89c-0.32-0.05-0.8-0.12-1.08-0.19c-0.11-0.14-0.27-0.25-0.45-0.31c-0.51-0.16-1.05,0.11-1.21,0.61
		c-0.1,0.3-0.06,0.62,0.11,0.88c0.29,0.47,0.84,0.63,1.7,0.78c0.2,0.3,0.49,0.46,0.89,0.55c0.01,0.01,0.01,0.02,0.02,0.03
		c0.12,0.21,0.29,0.34,0.52,0.45c0.04,0.02,0.08,0.05,0.12,0.07c0.03,0.02,0.06,0.03,0.1,0.05c0,0.01,0.01,0.02,0.01,0.02
		c0.18,0.3,0.43,0.45,0.84,0.56c0.02,0.05,0.04,0.09,0.07,0.14c0.03,0.05,0.06,0.1,0.1,0.14c0.01,0.03,0.03,0.05,0.04,0.08
		c0.07,0.11,0.15,0.21,0.24,0.28c0.09,0.13,0.2,0.22,0.34,0.3c0.05,0.07,0.11,0.14,0.18,0.19c0.1,0.11,0.21,0.19,0.34,0.25
		c0.04,0.08,0.1,0.14,0.15,0.2c0.01,0.03,0.03,0.06,0.05,0.09c0.08,0.14,0.18,0.25,0.31,0.34c0.02,0.08,0.05,0.17,0.1,0.24
		c0.15,0.26,0.35,0.39,0.65,0.5c0.02,0.03,0.05,0.05,0.07,0.07c-0.04,0.22,0,0.45,0.11,0.64c0.06,0.1,0.13,0.19,0.21,0.26
		c0.02,0.1,0.06,0.2,0.11,0.29c0.01,0.02,0.02,0.03,0.03,0.05c0,0.17,0.04,0.33,0.12,0.48c0.06,0.1,0.12,0.18,0.2,0.25
		c0.02,0.07,0.05,0.14,0.09,0.21c0.09,0.15,0.19,0.26,0.32,0.34c0.01,0.03,0.03,0.06,0.05,0.09c0.02,0.03,0.03,0.05,0.05,0.08
		c-0.01,0.03-0.02,0.06-0.03,0.09c-0.08,0.25-0.05,0.53,0.07,0.76c0.01,0.01,0.01,0.02,0.02,0.03c-0.01,0.19,0.03,0.38,0.12,0.54
		c0.07,0.13,0.15,0.22,0.26,0.3c0.01,0.01,0.02,0.02,0.03,0.04c0,0.15,0.03,0.29,0.09,0.43c0,0.02,0,0.03,0,0.05
		c-0.07,0.24-0.04,0.51,0.08,0.73c0.03,0.05,0.06,0.1,0.09,0.14c0,0.01,0.01,0.02,0.01,0.03c0.01,0.08,0.02,0.15,0.05,0.23
		c0,0.01,0.01,0.03,0.01,0.04c0,0.01,0,0.01-0.01,0.02c-0.01,0.02-0.01,0.04-0.02,0.06c-0.05,0.08-0.1,0.16-0.13,0.26
		c-0.06,0.2-0.06,0.41,0.01,0.6c-0.03,0.05-0.05,0.1-0.07,0.16c-0.08,0.25-0.06,0.53,0.07,0.76c0.02,0.03,0.04,0.07,0.06,0.1
		c0.01,0.04,0.02,0.09,0.03,0.13c-0.05,0.07-0.08,0.15-0.11,0.23c-0.04,0.11-0.05,0.24-0.04,0.36c0,0.01,0,0.01-0.01,0.02
		c-0.03,0.08-0.04,0.16-0.05,0.25c-0.03,0.05-0.05,0.1-0.06,0.15c-0.05,0.15-0.06,0.3-0.03,0.46c-0.03,0.06-0.06,0.13-0.09,0.2
		c-0.03,0.1-0.05,0.21-0.05,0.31c-0.01,0.02-0.02,0.05-0.03,0.07c-0.02,0.07-0.04,0.14-0.04,0.22c-0.14,0.12-0.25,0.28-0.31,0.46
		c-0.04,0.11-0.05,0.23-0.05,0.34c-0.04,0.07-0.07,0.14-0.1,0.23c-0.02,0.08-0.04,0.15-0.04,0.23c-0.07,0.09-0.12,0.19-0.15,0.29
		c-0.01,0.05-0.03,0.09-0.03,0.14c-0.04,0.06-0.07,0.13-0.09,0.19c-0.03,0.08-0.04,0.17-0.05,0.25c-0.23,0.13-0.4,0.33-0.48,0.58
		c-0.02,0.07-0.04,0.14-0.04,0.21c-0.05,0.08-0.09,0.16-0.12,0.25c-0.01,0.02-0.01,0.03-0.01,0.05c-0.02,0.03-0.04,0.06-0.05,0.1
		c-0.21,0.11-0.37,0.27-0.47,0.47c-0.11,0.11-0.21,0.25-0.27,0.44c-0.01,0.02-0.01,0.03-0.01,0.05c0,0,0,0.01-0.01,0.01
		c-0.1,0.11-0.18,0.24-0.23,0.38c-0.03,0.08-0.04,0.17-0.05,0.25c-0.05,0.06-0.08,0.13-0.11,0.2c-0.06,0.01-0.12,0.03-0.17,0.05
		c-0.29,0.11-0.51,0.35-0.61,0.64c-0.03,0.09-0.04,0.17-0.05,0.26c-0.01,0.02-0.02,0.04-0.03,0.05c-0.07,0.02-0.14,0.04-0.21,0.08
		c-0.13,0.06-0.25,0.15-0.35,0.26c-0.11,0.11-0.19,0.25-0.24,0.4c0,0.01-0.01,0.02-0.01,0.03c-0.06,0.07-0.12,0.16-0.16,0.25
		c-0.09,0.09-0.17,0.19-0.23,0.3c0,0,0,0-0.01,0c-0.21,0.08-0.39,0.23-0.5,0.42c-0.26,0.12-0.46,0.35-0.55,0.62
		c0,0.01-0.01,0.02-0.01,0.04c-0.06,0.05-0.12,0.11-0.17,0.19c-0.09,0.05-0.18,0.12-0.26,0.21c-0.16,0.08-0.29,0.19-0.39,0.33
		c-0.06-0.07-0.12-0.14-0.19-0.2c-0.11-0.16-0.24-0.28-0.41-0.36c-0.02-0.07-0.05-0.13-0.09-0.19c-0.11-0.19-0.26-0.32-0.46-0.41
		c-0.02-0.03-0.03-0.07-0.05-0.1c-0.11-0.18-0.25-0.31-0.43-0.4c-0.02-0.02-0.04-0.04-0.06-0.06c-0.01-0.02-0.02-0.04-0.03-0.05
		c-0.1-0.17-0.23-0.29-0.4-0.38c-0.02-0.09-0.05-0.17-0.1-0.25c-0.04-0.07-0.09-0.13-0.14-0.19c0,0,0,0,0-0.01
		c-0.17-0.29-0.42-0.43-0.77-0.53c-0.01-0.03-0.03-0.06-0.04-0.08c-0.04-0.07-0.08-0.13-0.13-0.18c-0.02-0.05-0.04-0.1-0.07-0.14
		c-0.1-0.17-0.22-0.28-0.38-0.37c-0.02-0.08-0.06-0.16-0.1-0.24c-0.15-0.26-0.37-0.4-0.67-0.5c-0.01-0.02-0.02-0.05-0.04-0.07
		c-0.04-0.08-0.1-0.14-0.15-0.2c-0.02-0.13-0.06-0.26-0.12-0.37c-0.1-0.17-0.22-0.29-0.38-0.38c-0.02-0.05-0.04-0.09-0.07-0.14
		c-0.16-0.28-0.4-0.42-0.76-0.53c0-0.01-0.01-0.02-0.01-0.02c-0.03-0.05-0.06-0.09-0.09-0.13c-0.02-0.09-0.06-0.18-0.1-0.27
		c-0.13-0.23-0.31-0.36-0.57-0.47c0,0-0.01-0.01-0.01-0.01c-0.02-0.04-0.03-0.07-0.05-0.11c-0.12-0.2-0.27-0.33-0.48-0.43
		c-0.02-0.04-0.04-0.07-0.06-0.11c-0.03-0.06-0.07-0.11-0.11-0.15c-0.02-0.11-0.06-0.21-0.11-0.3c-0.08-0.14-0.18-0.25-0.31-0.33
		c-0.01-0.02-0.02-0.04-0.03-0.06c-0.17-0.28-0.41-0.42-0.75-0.52c-0.01-0.15-0.05-0.3-0.13-0.44c-0.09-0.16-0.21-0.27-0.36-0.36
		c-0.02-0.04-0.03-0.07-0.05-0.11c-0.15-0.27-0.37-0.41-0.71-0.53c-0.01-0.03-0.03-0.05-0.04-0.08c-0.02-0.05-0.04-0.1-0.07-0.14
		c-0.09-0.16-0.21-0.27-0.35-0.35c-0.02-0.08-0.06-0.16-0.1-0.24c-0.09-0.16-0.21-0.27-0.35-0.36c-0.12-0.19-0.28-0.32-0.48-0.41
		c-0.02-0.05-0.04-0.1-0.07-0.14c-0.13-0.23-0.3-0.36-0.56-0.47c-0.02-0.04-0.04-0.08-0.06-0.11c-0.26-0.44-0.72-0.53-1.4-0.67
		c-0.11-0.02-0.27-0.05-0.39-0.08c-0.08-0.06-0.17-0.1-0.27-0.14c-0.31-0.1-0.62-0.03-0.87,0.14c0,0,0,0,0,0
		c-0.09-0.02-0.23-0.05-0.32-0.08c-0.06-0.04-0.13-0.07-0.21-0.09c-0.32-0.1-0.66-0.03-0.9,0.16c-0.09,0.02-0.18,0.04-0.26,0.09
		c-0.16,0.08-0.3,0.19-0.4,0.32c-0.2,0.12-0.34,0.3-0.42,0.52c-0.04,0.04-0.07,0.09-0.11,0.14c-0.15,0.11-0.28,0.28-0.36,0.52
		c-0.01,0.03-0.02,0.05-0.02,0.08c-0.03,0.02-0.07,0.05-0.1,0.08c-0.26,0.06-0.5,0.21-0.65,0.5c-0.03,0.04-0.06,0.07-0.09,0.12
		c-0.06,0.07-0.11,0.14-0.15,0.22c-0.06,0.04-0.11,0.08-0.16,0.13c-0.24,0.13-0.42,0.34-0.51,0.6c-0.03,0.09-0.04,0.17-0.05,0.26
		c0,0.01-0.01,0.02-0.01,0.03c-0.01,0.01-0.03,0.03-0.04,0.04c-0.12,0.06-0.22,0.14-0.3,0.23c-0.03,0.02-0.06,0.05-0.09,0.08
		c-0.15,0.08-0.27,0.18-0.37,0.32c-0.14,0.12-0.24,0.27-0.3,0.45c-0.01,0.04-0.02,0.08-0.03,0.12c-0.01,0.01-0.02,0.02-0.03,0.04
		c-0.08,0.05-0.16,0.12-0.22,0.19c-0.13,0.06-0.24,0.15-0.34,0.28c-0.07,0.02-0.13,0.04-0.2,0.07c-0.17,0.08-0.3,0.19-0.41,0.33
		c-0.11,0.01-0.23,0.04-0.34,0.1c-0.06,0.03-0.12,0.06-0.17,0.1c-0.04,0.01-0.07,0.03-0.11,0.04c-0.05,0.02-0.09,0.05-0.14,0.07
		c-0.08,0.01-0.16,0.03-0.24,0.07c-0.41-0.12-0.8-0.16-1.15-0.01c-0.02-0.11-0.06-0.22-0.11-0.32c-0.07-0.11-0.14-0.2-0.23-0.27
		c-0.02-0.09-0.06-0.18-0.1-0.26c-0.11-0.19-0.26-0.32-0.44-0.41c0-0.04,0-0.08,0-0.12c0.04-0.22,0.01-0.45-0.1-0.65
		c-0.01-0.03-0.03-0.05-0.04-0.07c0.01-0.1,0-0.19-0.02-0.29c0.01-0.08,0-0.16-0.01-0.24c0.04-0.07,0.08-0.15,0.11-0.24
		c0.04-0.11,0.05-0.24,0.04-0.36c0.05-0.07,0.08-0.14,0.12-0.22c0.28-0.12,0.5-0.35,0.6-0.64c0.03-0.08,0.04-0.16,0.05-0.24
		c0.02-0.02,0.04-0.05,0.06-0.07c0.09-0.02,0.19-0.05,0.29-0.09c0.26-0.12,0.46-0.34,0.55-0.62c0.02-0.05,0.03-0.11,0.04-0.17
		c0.03-0.01,0.07-0.02,0.1-0.04c0.22-0.1,0.4-0.27,0.51-0.48c0.01-0.01,0.02-0.01,0.03-0.02c0.26-0.13,0.45-0.35,0.54-0.62
		c0.01-0.03,0.02-0.07,0.03-0.11c0.08-0.08,0.15-0.17,0.2-0.29c0.05-0.04,0.1-0.09,0.15-0.14c0.07-0.06,0.12-0.13,0.17-0.2
		c0.06-0.02,0.12-0.04,0.18-0.07c0.27-0.12,0.47-0.34,0.56-0.62c0.02-0.07,0.04-0.14,0.04-0.21c0.07-0.05,0.13-0.12,0.18-0.19
		c0.01-0.01,0.03-0.03,0.04-0.04c0.03-0.01,0.05-0.02,0.08-0.03c0.18-0.07,0.34-0.2,0.45-0.35c0.27-0.12,0.47-0.35,0.56-0.62
		c0.01-0.03,0.02-0.06,0.03-0.1c0.04-0.01,0.07-0.03,0.11-0.05c0.26-0.13,0.45-0.35,0.54-0.62c0-0.01,0-0.01,0.01-0.02
		c0.01-0.01,0.02-0.02,0.04-0.04c0.03-0.01,0.05-0.02,0.08-0.04c0.26-0.13,0.46-0.35,0.55-0.62c0.03-0.1,0.05-0.2,0.05-0.3
		c0-0.01,0.01-0.03,0.01-0.04c0.05-0.03,0.1-0.07,0.14-0.12c0.17-0.06,0.33-0.16,0.46-0.32c0.22-0.1,0.4-0.27,0.5-0.48
		c0.03-0.03,0.05-0.06,0.07-0.09c0.12-0.12,0.22-0.26,0.27-0.43c0.01-0.02,0.01-0.04,0.02-0.06c0.13-0.08,0.25-0.18,0.33-0.3
		c0.08-0.07,0.14-0.14,0.2-0.23c0.05-0.04,0.1-0.08,0.14-0.12c0.29-0.07,0.55-0.26,0.69-0.66c0.05-0.01,0.1-0.03,0.15-0.05
		c0.22-0.1,0.39-0.26,0.5-0.46c0.01-0.01,0.02-0.02,0.03-0.03c0.19-0.08,0.35-0.22,0.46-0.39c0.06-0.02,0.12-0.04,0.18-0.07
		c0.09-0.05,0.18-0.1,0.25-0.17c0.05-0.01,0.09-0.03,0.14-0.04c0.09-0.01,0.19-0.03,0.28-0.07c0.22-0.08,0.39-0.23,0.51-0.42
		c0.02-0.03,0.04-0.06,0.06-0.09c0.01,0,0.01-0.01,0.02-0.01c0.2-0.09,0.36-0.23,0.47-0.41c0.17,0,0.34-0.03,0.5-0.11
		c0.09-0.04,0.18-0.1,0.25-0.16c0.02-0.01,0.05-0.02,0.07-0.03c0.03-0.01,0.07-0.03,0.1-0.05c0.01,0,0.02-0.01,0.04-0.01
		c0.15-0.06,0.28-0.15,0.39-0.26c0.2-0.06,0.39-0.17,0.52-0.36c0.25,0.02,0.49,0,0.72-0.11c0.04-0.02,0.09-0.05,0.13-0.07
		c0.06-0.01,0.11-0.03,0.17-0.06c0.08-0.04,0.16-0.08,0.23-0.14c0.17,0.01,0.34-0.01,0.52-0.08c0.04-0.02,0.08-0.03,0.12-0.06
		c0.18,0,0.36-0.03,0.53-0.11c0.01,0,0.01-0.01,0.02-0.01c0.27,0.05,0.53,0.05,0.78-0.04c0.27,0.05,0.53,0.04,0.78-0.07
		c0.01,0,0.02-0.01,0.02-0.01c0.38,0.11,0.72,0.16,1.05,0.07c0.12,0.01,0.24,0.01,0.36-0.01c0.17,0.01,0.34-0.01,0.5-0.08
		c0.3-0.12,0.53-0.36,0.63-0.67c0.09-0.27,0.06-0.57-0.09-0.82c-0.29-0.48-0.81-0.58-1.68-0.73c-0.02,0-0.05-0.01-0.08-0.01
		c-0.48-0.25-0.92-0.44-1.36-0.38c-0.24-0.04-0.48-0.03-0.71,0.06c-0.01,0.01-0.03,0.01-0.04,0.02c-0.38-0.1-0.73-0.12-1.06,0.01
		c-0.25-0.04-0.5-0.02-0.74,0.08c-0.05,0.02-0.11,0.05-0.16,0.08c-0.16,0.01-0.32,0.04-0.48,0.11c-0.02,0.01-0.05,0.02-0.07,0.03
		c-0.24-0.03-0.47,0-0.69,0.1c-0.1,0.04-0.19,0.1-0.27,0.17c-0.02,0.01-0.03,0.02-0.05,0.03c-0.11,0.02-0.22,0.05-0.33,0.1
		c0,0-0.01,0-0.01,0c-0.12,0.01-0.24,0.04-0.36,0.09c-0.12,0.05-0.23,0.13-0.32,0.22c-0.06,0.02-0.12,0.04-0.19,0.07
		c-0.06,0.03-0.13,0.07-0.18,0.11c-0.1,0.02-0.2,0.05-0.3,0.1c-0.12,0.06-0.23,0.14-0.32,0.24c-0.05,0.01-0.11,0.03-0.16,0.05
		c-0.06,0.02-0.11,0.05-0.17,0.08c-0.15,0.01-0.3,0.04-0.45,0.1c-0.08,0.03-0.15,0.08-0.21,0.12c-0.08,0.02-0.15,0.04-0.23,0.08
		c-0.24,0.11-0.42,0.29-0.53,0.51c-0.02,0.02-0.05,0.03-0.07,0.05c-0.06,0.01-0.12,0.03-0.18,0.06c-0.16,0.07-0.3,0.17-0.41,0.31
		c-0.15,0.06-0.29,0.16-0.39,0.29c-0.01,0-0.01,0.01-0.02,0.01c-0.06,0.03-0.12,0.07-0.17,0.11c-0.15,0.01-0.3,0.05-0.44,0.12
		c-0.13,0.07-0.25,0.16-0.34,0.26c-0.23,0.12-0.4,0.32-0.49,0.57c-0.09,0.07-0.17,0.15-0.23,0.25c-0.17,0.1-0.3,0.23-0.39,0.4
		c-0.17,0.11-0.3,0.28-0.38,0.47c-0.04,0.04-0.08,0.09-0.12,0.14c-0.01,0.01-0.02,0.01-0.03,0.02c-0.05,0.01-0.09,0.03-0.14,0.05
		c-0.25,0.11-0.43,0.31-0.54,0.55c-0.04,0.05-0.07,0.1-0.1,0.15c-0.09,0.06-0.17,0.12-0.24,0.2c-0.02,0.02-0.04,0.04-0.06,0.05
		c-0.13-0.16-0.29-0.27-0.49-0.36c-0.11-0.13-0.24-0.22-0.4-0.29c-0.02-0.11-0.06-0.21-0.12-0.3c-0.16-0.26-0.38-0.41-0.7-0.51
		c-0.05-0.08-0.12-0.15-0.18-0.21c-0.02-0.06-0.05-0.12-0.08-0.17c-0.15-0.25-0.37-0.4-0.66-0.5c0,0,0,0,0,0
		c-0.02-0.03-0.03-0.07-0.05-0.1c-0.14-0.24-0.35-0.39-0.63-0.5c-0.01-0.03-0.03-0.06-0.05-0.09c-0.2-0.33-0.5-0.49-0.98-0.61
		c0-0.01-0.01-0.01-0.01-0.02c-0.35-0.55-1.04-0.65-2.09-0.8c-0.24-0.03-0.61-0.09-0.84-0.13c-0.11-0.13-0.26-0.23-0.44-0.29
		c-0.51-0.16-1.05,0.11-1.21,0.61c-0.1,0.3-0.06,0.62,0.11,0.89c0.26,0.41,0.71,0.57,1.36,0.69c0.18,0.25,0.44,0.4,0.82,0.51
		c0.01,0.02,0.02,0.04,0.03,0.06c0.14,0.24,0.35,0.39,0.63,0.5c0.15,0.14,0.34,0.23,0.57,0.3c0.12,0.17,0.27,0.28,0.45,0.36
		c0.01,0.03,0.03,0.06,0.05,0.08c0.09,0.16,0.21,0.27,0.36,0.35c0.01,0.02,0.02,0.03,0.03,0.05c0.13,0.21,0.3,0.34,0.52,0.44
		c0.1,0.09,0.22,0.16,0.36,0.21c0.02,0.05,0.04,0.09,0.07,0.14c0.11,0.19,0.25,0.31,0.43,0.4c0.06,0.08,0.14,0.15,0.22,0.21
		c0.06,0.1,0.13,0.17,0.2,0.24c0.02,0.1,0.06,0.2,0.11,0.29c0.08,0.14,0.18,0.25,0.31,0.33c0.06,0.08,0.13,0.15,0.22,0.2
		c0.04,0.05,0.08,0.1,0.12,0.14c-0.05,0.07-0.1,0.14-0.14,0.22c-0.05,0.06-0.1,0.13-0.14,0.21c-0.04,0.03-0.07,0.06-0.1,0.09
		c-0.13,0.07-0.24,0.17-0.32,0.28c-0.16,0.13-0.28,0.3-0.35,0.49c-0.01,0.02-0.01,0.03-0.01,0.05c-0.01,0.01-0.01,0.02-0.02,0.03
		c-0.06,0.05-0.11,0.11-0.15,0.18c-0.04,0.02-0.07,0.05-0.1,0.07c-0.16,0.08-0.29,0.21-0.39,0.36c-0.14,0.09-0.27,0.22-0.35,0.41
		c-0.11,0.1-0.21,0.24-0.28,0.42c-0.19,0.11-0.35,0.29-0.44,0.57c0,0,0,0.01,0,0.01c-0.02,0.02-0.04,0.04-0.05,0.06
		c-0.01,0.01-0.03,0.03-0.04,0.04c-0.09,0.01-0.17,0.04-0.26,0.08c-0.2,0.09-0.37,0.23-0.48,0.41c-0.22,0.13-0.38,0.33-0.47,0.56
		c-0.25,0.09-0.46,0.28-0.58,0.63c-0.12,0.11-0.21,0.26-0.26,0.41c0,0,0,0,0,0c-0.09,0.08-0.17,0.18-0.23,0.31
		c-0.08,0.02-0.15,0.05-0.23,0.08c-0.22,0.11-0.38,0.28-0.48,0.49c-0.02,0.05-0.04,0.09-0.06,0.15c-0.02,0.06-0.03,0.12-0.04,0.18
		c-0.02,0.04-0.03,0.08-0.05,0.13c-0.01,0.05-0.03,0.09-0.03,0.14c-0.01,0.02-0.02,0.04-0.03,0.06c-0.1,0.11-0.17,0.24-0.22,0.4
		c-0.01,0.02-0.01,0.04-0.02,0.05c-0.05,0.08-0.1,0.18-0.14,0.29c0,0.01-0.01,0.02-0.01,0.03c0,0.02-0.01,0.03-0.01,0.05
		c-0.06,0.08-0.11,0.19-0.15,0.3c-0.08,0.25-0.06,0.52,0.07,0.75c-0.05,0.07-0.09,0.16-0.12,0.24c-0.08,0.25-0.05,0.53,0.07,0.76
		c0.08,0.13,0.16,0.23,0.27,0.31c0.01,0.01,0.01,0.02,0.02,0.03c-0.01,0.14,0.01,0.28,0.06,0.42c-0.01,0.18,0.03,0.37,0.13,0.53
		c0.04,0.06,0.08,0.12,0.12,0.17c0.01,0.02,0.02,0.03,0.03,0.05c0.1,0.17,0.22,0.29,0.38,0.37c0.01,0.03,0.03,0.06,0.04,0.08
		c0.26,0.43,0.68,0.52,1.33,0.65c0.1,0.02,0.25,0.05,0.36,0.08c0.08,0.05,0.16,0.1,0.26,0.13c0.1,0.03,0.2,0.05,0.3,0.05
		c0.09,0,0.18-0.01,0.26-0.04c0.01,0.14,0.06,0.28,0.13,0.4c0.28,0.47,0.76,0.57,1.71,0.76c0.2,0.04,0.5,0.1,0.68,0.15
		c0.09,0.08,0.2,0.14,0.33,0.18c0.1,0.03,0.2,0.05,0.3,0.05c0.13,0,0.26-0.03,0.38-0.08c0.19,0,0.38-0.03,0.56-0.11
		c0.18-0.08,0.32-0.19,0.44-0.34c0.04-0.02,0.08-0.05,0.11-0.08c0.15-0.07,0.28-0.17,0.38-0.29c0.02-0.02,0.04-0.03,0.06-0.05
		c0.22-0.03,0.42-0.1,0.59-0.26c0.03-0.01,0.05-0.02,0.08-0.03c0.27-0.13,0.46-0.35,0.56-0.62c0-0.01,0.01-0.02,0.01-0.03
		c0.02-0.03,0.04-0.07,0.05-0.1c0.08-0.02,0.17-0.04,0.25-0.08c0.03-0.02,0.07-0.03,0.1-0.05c0.23-0.12,0.41-0.31,0.5-0.55
		c0.03-0.04,0.06-0.08,0.08-0.12c0,0,0,0,0,0c0.28-0.12,0.49-0.35,0.59-0.63c0.02-0.06,0.03-0.13,0.04-0.2
		c0.01-0.01,0.03-0.03,0.04-0.04c0.24-0.07,0.46-0.23,0.59-0.51c0.06-0.06,0.11-0.13,0.15-0.21c0.22-0.12,0.38-0.32,0.46-0.55
		c0.08-0.1,0.14-0.21,0.18-0.33c0.01-0.05,0.03-0.09,0.03-0.14c0.27-0.05,0.52-0.18,0.69-0.47c0.12-0.08,0.23-0.17,0.31-0.29
		c0.06-0.04,0.11-0.09,0.16-0.14c0.04-0.02,0.08-0.05,0.13-0.07c0.05,0.06,0.1,0.12,0.16,0.17c0.03,0.04,0.07,0.08,0.11,0.11
		c0.01,0.01,0.02,0.03,0.02,0.04c0.02,0.03,0.03,0.06,0.05,0.08c0.01,0.02,0.02,0.04,0.03,0.06c0.02,0.09,0.06,0.17,0.1,0.25
		c0.15,0.25,0.35,0.39,0.65,0.5c0.01,0.01,0.03,0.02,0.04,0.04c0,0,0,0,0,0c0.02,0.11,0.06,0.21,0.11,0.3
		c0.14,0.24,0.32,0.37,0.6,0.48c0.04,0.03,0.09,0.06,0.14,0.09c0.01,0.01,0.02,0.02,0.03,0.03c0.1,0.17,0.23,0.28,0.39,0.37
		c0,0,0,0.01,0.01,0.01c0.05,0.09,0.12,0.16,0.19,0.23c0.02,0.12,0.06,0.23,0.12,0.34c0.1,0.17,0.23,0.29,0.39,0.38
		c0.13,0.2,0.3,0.32,0.53,0.41c0.02,0.05,0.04,0.1,0.07,0.14c0.04,0.07,0.09,0.13,0.14,0.18c0.02,0.08,0.06,0.17,0.1,0.24
		c0.09,0.16,0.21,0.28,0.36,0.37c0.01,0.02,0.02,0.04,0.03,0.05c0.08,0.13,0.17,0.23,0.28,0.31c0.12,0.13,0.26,0.22,0.44,0.29
		c0.01,0.03,0.03,0.06,0.05,0.09c0.09,0.15,0.2,0.25,0.33,0.34c0.01,0.02,0.02,0.04,0.03,0.06c0.02,0.04,0.05,0.08,0.07,0.11
		c0.08,0.12,0.17,0.2,0.28,0.28c0.02,0.04,0.04,0.08,0.06,0.12c0.12,0.21,0.28,0.34,0.51,0.44c0.02,0.09,0.06,0.17,0.11,0.26
		c0.12,0.2,0.27,0.32,0.46,0.41c0.02,0.05,0.04,0.1,0.07,0.15c0.13,0.21,0.3,0.34,0.51,0.44c0.02,0.05,0.04,0.09,0.07,0.14
		c0.04,0.06,0.08,0.12,0.13,0.17c0.02,0.05,0.05,0.11,0.08,0.16c0.1,0.16,0.22,0.28,0.37,0.36c0.02,0.04,0.04,0.08,0.06,0.12
		c0.1,0.17,0.22,0.28,0.38,0.37c0.11,0.14,0.25,0.23,0.43,0.31c0.06,0.09,0.13,0.16,0.21,0.23c0.01,0.02,0.02,0.04,0.03,0.06
		c0.01,0.01,0.01,0.02,0.02,0.03c0.02,0.08,0.05,0.16,0.1,0.23c0.14,0.23,0.32,0.37,0.58,0.47c0.05,0.05,0.1,0.09,0.15,0.12
		c0.02,0.04,0.04,0.09,0.06,0.13c0.11,0.18,0.25,0.31,0.43,0.4c0.02,0.07,0.05,0.13,0.09,0.19c0,0,0,0.01,0.01,0.01
		c0.02,0.07,0.05,0.13,0.09,0.2c0.11,0.19,0.26,0.32,0.46,0.42c0.09,0.14,0.21,0.25,0.34,0.33c0.08,0.12,0.19,0.2,0.3,0.27
		c0.15,0.13,0.34,0.21,0.56,0.27c0,0.01,0,0.03,0,0.04c-0.01,0.19,0.03,0.39,0.12,0.56c0.06,0.1,0.13,0.19,0.21,0.26
		c0.02,0.08,0.05,0.16,0.09,0.23c0.12,0.22,0.29,0.34,0.51,0.44c0,0.17,0.04,0.34,0.12,0.48c0.08,0.14,0.17,0.24,0.29,0.32
		c0,0,0.01,0.01,0.01,0.01c0.02,0.07,0.05,0.13,0.08,0.19c0.07,0.12,0.15,0.22,0.25,0.29c0,0.09,0.02,0.19,0.05,0.28
		c0,0.01,0,0.01,0,0.02c-0.07,0.2-0.06,0.42,0.01,0.62c0,0,0,0.01,0,0.01c-0.02,0.04-0.03,0.07-0.04,0.11
		c-0.08,0.23-0.06,0.49,0.05,0.72c-0.04,0.15-0.05,0.3-0.02,0.45c-0.06,0.08-0.11,0.18-0.14,0.3c-0.03,0.1-0.05,0.2-0.05,0.31
		c-0.14,0.12-0.24,0.27-0.3,0.45c-0.02,0.06-0.03,0.12-0.04,0.19c-0.02,0.03-0.03,0.07-0.05,0.11c-0.07,0.07-0.14,0.15-0.19,0.24
		c-0.22,0.07-0.42,0.21-0.56,0.46c-0.1,0.01-0.2,0.04-0.31,0.08c-0.09,0.04-0.17,0.09-0.25,0.14c-0.02,0-0.04,0.01-0.05,0.01
		c-0.06,0.01-0.11,0.01-0.17,0.03c-0.2-0.02-0.4,0-0.6,0.08c-0.11,0-0.22,0.02-0.33,0.06c-0.28-0.1-0.55-0.16-0.81-0.15
		c-0.21-0.05-0.42-0.06-0.62-0.02c0,0,0,0-0.01,0c-0.15,0-0.31,0.03-0.46,0.09c-0.31,0.12-0.55,0.37-0.65,0.69
		c-0.04,0.13-0.06,0.27-0.05,0.4c-0.25-0.08-0.52-0.11-0.81,0c-0.28,0.11-0.5,0.34-0.59,0.63c-0.01,0.03-0.02,0.05-0.02,0.08
		c-0.05,0.08-0.09,0.17-0.13,0.27c-0.08,0.25-0.05,0.53,0.07,0.76c0.01,0.02,0.03,0.04,0.04,0.06c0.01,0.05,0.02,0.11,0.03,0.16
		c-0.02,0.05-0.04,0.09-0.06,0.14c-0.03,0.08-0.04,0.17-0.05,0.25c-0.02,0.05-0.04,0.1-0.06,0.15c-0.06,0.17-0.06,0.36-0.01,0.54
		c-0.06,0.08-0.11,0.18-0.14,0.28c-0.03,0.09-0.04,0.18-0.05,0.27c-0.04,0.05-0.08,0.11-0.12,0.18c-0.12,0.11-0.2,0.26-0.26,0.41
		c-0.02,0.05-0.03,0.11-0.04,0.16c-0.1,0.06-0.19,0.14-0.27,0.23c-0.17,0.1-0.31,0.24-0.41,0.42c-0.02,0.01-0.03,0.01-0.05,0.02
		c-0.14,0.06-0.26,0.16-0.36,0.27c-0.21-0.02-0.42,0-0.63,0.1c-0.07,0.03-0.14,0.07-0.2,0.11c-0.03,0-0.06,0.01-0.09,0.02
		c-0.18-0.03-0.36-0.02-0.54,0.03c-0.46-0.15-0.88-0.2-1.27-0.04c-0.31,0.13-0.53,0.38-0.64,0.69c-0.02,0.07-0.04,0.14-0.04,0.2
		c-0.09-0.02-0.19-0.05-0.29-0.07c-0.08-0.02-0.2-0.05-0.29-0.07c-0.06-0.04-0.13-0.07-0.21-0.1c-0.51-0.16-1.05,0.11-1.21,0.61
		c-0.02,0.07-0.04,0.14-0.04,0.21c-0.02,0.05-0.04,0.09-0.06,0.15c-0.07,0.21-0.06,0.44,0.02,0.64c-0.02,0.2,0.02,0.4,0.12,0.57
		c0,0.01,0.01,0.01,0.01,0.02c0,0.04,0,0.08,0.01,0.12c-0.1,0.11-0.18,0.23-0.22,0.38c-0.03,0.1-0.05,0.21-0.05,0.32c0,0,0,0,0,0
		c-0.03,0.09-0.04,0.18-0.05,0.27c-0.01,0.02-0.02,0.05-0.03,0.07c-0.06,0.19-0.06,0.4,0,0.58c0,0.02-0.01,0.03-0.01,0.05
		c-0.21,0.1-0.39,0.29-0.5,0.6c-0.01,0.04-0.02,0.08-0.03,0.12c-0.1,0.06-0.18,0.14-0.25,0.23c0,0-0.01,0.01-0.01,0.01
		c-0.09,0.05-0.17,0.11-0.24,0.18c-0.08,0.06-0.14,0.12-0.2,0.2c-0.04,0.02-0.08,0.05-0.12,0.07c-0.06,0.02-0.12,0.04-0.19,0.07
		c0,0,0,0,0,0c-0.1,0.01-0.21,0.04-0.31,0.09c-0.08,0.03-0.15,0.08-0.22,0.13c-0.01,0-0.01,0-0.02,0.01
		c-0.19-0.02-0.37-0.01-0.56,0.06c-0.09-0.01-0.17-0.01-0.26-0.01c-0.32-0.12-0.61-0.17-0.91-0.1c-0.12,0-0.24,0.03-0.37,0.07
		c-0.31,0.12-0.54,0.36-0.64,0.67c-0.09,0.27-0.06,0.57,0.09,0.82c0.28,0.46,0.77,0.58,1.63,0.74c0.48,0.27,0.92,0.48,1.36,0.45
		c0.04,0,0.08,0,0.12,0c0.08,0.01,0.16,0.02,0.25,0.02c0.15,0,0.29-0.03,0.44-0.08c0.03-0.01,0.07-0.03,0.1-0.05
		c0.15-0.01,0.29-0.04,0.43-0.1c0.05-0.02,0.1-0.05,0.14-0.07c0.04-0.01,0.07-0.02,0.11-0.04c0.05-0.02,0.09-0.04,0.14-0.07
		c0.13-0.01,0.26-0.04,0.39-0.1c0.15-0.07,0.27-0.16,0.37-0.28c0.04-0.01,0.09-0.03,0.13-0.05c0.14-0.07,0.27-0.16,0.37-0.28
		c0.08-0.03,0.16-0.08,0.23-0.13c0.12-0.05,0.22-0.13,0.31-0.22c0.13-0.06,0.25-0.14,0.35-0.24c0.16-0.13,0.28-0.3,0.35-0.49
		c0.02-0.07,0.04-0.14,0.04-0.22c0.01-0.02,0.02-0.05,0.03-0.07c0.01-0.04,0.02-0.07,0.03-0.11c0.06-0.04,0.11-0.09,0.16-0.15
		c0.21-0.13,0.36-0.32,0.44-0.56c0.03-0.08,0.04-0.16,0.05-0.24c0-0.01,0.01-0.02,0.01-0.04c0.04-0.12,0.05-0.25,0.04-0.37
		c0,0,0-0.01,0-0.01c0.08-0.1,0.15-0.22,0.19-0.36c0.02-0.05,0.03-0.11,0.04-0.16c0.02-0.05,0.04-0.09,0.06-0.14
		c0.05-0.17,0.06-0.34,0.02-0.51c0.02-0.11,0.02-0.22,0-0.33c0-0.01,0.01-0.02,0.01-0.04c0.08-0.25,0.05-0.53-0.07-0.76c0,0,0,0,0,0
		c0-0.05-0.01-0.11-0.02-0.16c0.05-0.17,0.05-0.35,0-0.52c0.2,0.04,0.42,0.08,0.66,0.12c0.17,0.03,0.42,0.07,0.59,0.11
		c0.1,0.09,0.22,0.16,0.35,0.2c0.13,0.04,0.27,0.06,0.4,0.04c0.23,0.07,0.46,0.12,0.67,0.12c0.18,0,0.35-0.03,0.51-0.1
		c0.12-0.05,0.22-0.12,0.31-0.19c0.15-0.01,0.31-0.04,0.45-0.11c0.17-0.08,0.32-0.2,0.43-0.35c0.17-0.01,0.34-0.04,0.5-0.12
		c0.26-0.13,0.46-0.35,0.55-0.62c0.12-0.08,0.22-0.18,0.29-0.3c0.13-0.08,0.25-0.19,0.33-0.32c0.15-0.1,0.27-0.25,0.36-0.47
		c0.09-0.1,0.17-0.23,0.23-0.4c0.05-0.08,0.09-0.16,0.12-0.25c0.02-0.05,0.03-0.1,0.04-0.15c0.14-0.12,0.24-0.28,0.3-0.45
		c0.05-0.16,0.06-0.33,0.03-0.49c0.02-0.04,0.04-0.09,0.06-0.14c0.06-0.18,0.06-0.38,0.01-0.57c0.01-0.01,0.01-0.03,0.02-0.04
		c0.04-0.07,0.07-0.14,0.1-0.21c0.08-0.25,0.06-0.52-0.07-0.75c0-0.02,0-0.04,0-0.06c0.01-0.03,0.02-0.06,0.03-0.09
		c0.08-0.23,0.06-0.49-0.05-0.71c0-0.06-0.01-0.12-0.02-0.18c0.08,0.01,0.15,0.03,0.23,0.04c0.05,0.01,0.11,0.02,0.17,0.03
		c0.53,0.28,0.99,0.49,1.43,0.49c0.15,0,0.3-0.03,0.45-0.09c0.02-0.01,0.05-0.02,0.07-0.03c0,0,0,0,0.01,0
		c0.03-0.01,0.06-0.02,0.09-0.04c0.14,0,0.27-0.01,0.4-0.05c0.26,0.05,0.51,0.04,0.76-0.06c0.04-0.01,0.07-0.03,0.1-0.05
		c0.1-0.01,0.2-0.03,0.3-0.07c0.16-0.06,0.29-0.15,0.4-0.27c0.09-0.01,0.18-0.04,0.27-0.07c0.22-0.09,0.4-0.25,0.52-0.46
		c0.03-0.01,0.05-0.02,0.08-0.03c0.26-0.13,0.46-0.35,0.55-0.62c0.01-0.03,0.02-0.06,0.02-0.09c0.15-0.12,0.26-0.28,0.32-0.47
		c0.03-0.08,0.04-0.16,0.05-0.24c0,0,0,0,0,0c0,0,0.01,0,0.01-0.01c0.29-0.11,0.51-0.34,0.61-0.64c0.06-0.17,0.06-0.36,0.02-0.53
		c0.09-0.1,0.17-0.23,0.22-0.4c0.01-0.03,0.02-0.07,0.03-0.1c0.05-0.08,0.1-0.17,0.13-0.26c0.08-0.23,0.06-0.48-0.04-0.7
		c0.04-0.21,0.02-0.43-0.07-0.62c0.02-0.04,0.03-0.08,0.05-0.13c0.08-0.25,0.05-0.53-0.07-0.76c-0.05-0.09-0.11-0.17-0.17-0.23
		c-0.02-0.04-0.04-0.09-0.06-0.13c-0.03-0.05-0.06-0.1-0.1-0.15c0.01-0.03,0.01-0.07,0.01-0.1c0.08-0.25,0.05-0.53-0.08-0.76
		c-0.04-0.08-0.09-0.14-0.14-0.2c-0.02-0.06-0.04-0.11-0.07-0.16c-0.05-0.09-0.1-0.16-0.17-0.22c-0.04-0.06-0.08-0.11-0.12-0.15
		c-0.02-0.05-0.04-0.1-0.07-0.14c-0.01-0.01-0.01-0.02-0.02-0.04c0-0.01,0-0.02-0.01-0.03c-0.01-0.12-0.05-0.25-0.11-0.36
		c0.14-0.1,0.26-0.24,0.33-0.4c0.03-0.04,0.06-0.07,0.08-0.11c0.14-0.11,0.25-0.25,0.32-0.41c0.21-0.13,0.36-0.33,0.44-0.56
		c0,0,0,0,0-0.01c0.08-0.03,0.16-0.06,0.23-0.11c0.01,0,0.03-0.01,0.04-0.02c0.19-0.07,0.35-0.2,0.47-0.36
		c0.12-0.12,0.22-0.26,0.27-0.43c0.02-0.06,0.03-0.13,0.04-0.19c0.08-0.01,0.15-0.04,0.23-0.07c0.24-0.1,0.43-0.28,0.54-0.51
		c0.09-0.07,0.16-0.14,0.22-0.23c0.08-0.07,0.16-0.15,0.21-0.24c0.15-0.13,0.27-0.29,0.33-0.48c0.02-0.06,0.03-0.12,0.04-0.18
		c0.01,0,0.01-0.01,0.02-0.01c0.29-0.11,0.51-0.35,0.61-0.64c0.01-0.04,0.02-0.07,0.03-0.11c0.16-0.1,0.3-0.26,0.39-0.49
		c0.05-0.07,0.08-0.15,0.11-0.23c0.03-0.1,0.05-0.2,0.05-0.3c0.11-0.11,0.21-0.25,0.27-0.44c0.02-0.06,0.03-0.12,0.04-0.18
		c0.1-0.09,0.18-0.21,0.24-0.34c0.17-0.07,0.32-0.19,0.43-0.38c0.26-0.12,0.46-0.34,0.55-0.61c0.03-0.08,0.04-0.16,0.05-0.24
		c0.05-0.07,0.09-0.16,0.12-0.24c0.01-0.04,0.02-0.07,0.03-0.11c0.07-0.09,0.12-0.19,0.15-0.29c0.04-0.12,0.06-0.26,0.04-0.39
		c0-0.02,0.01-0.03,0.01-0.05c0.12-0.12,0.21-0.26,0.26-0.42c0.01-0.04,0.03-0.09,0.03-0.14c0.1-0.11,0.18-0.24,0.23-0.39
		c0.05-0.15,0.06-0.31,0.03-0.46c0-0.07,0-0.13-0.01-0.2c0-0.01,0.01-0.02,0.01-0.03c0.1-0.11,0.19-0.24,0.25-0.43
		c0.05-0.16,0.06-0.33,0.03-0.49c0.08-0.1,0.14-0.21,0.18-0.33c0.03-0.08,0.04-0.17,0.05-0.26c0.04-0.17,0.03-0.34-0.02-0.51
		c0.01-0.02,0.01-0.04,0.02-0.06c0.05-0.15,0.06-0.32,0.03-0.47c0.05-0.17,0.06-0.35,0.02-0.52c0.06-0.18,0.05-0.38,0-0.56
		c0,0,0,0,0-0.01C64.83,88.55,64.84,88.53,64.86,88.5z"/>
	<path d="M32.34,118.91c0.18-0.11,0.32-0.28,0.4-0.48c0.08-0.02,0.16-0.05,0.23-0.09c0.25-0.12,0.44-0.33,0.53-0.59
		c0.02-0.01,0.03-0.02,0.04-0.04c0.04-0.01,0.07-0.03,0.11-0.05c0.21-0.11,0.38-0.27,0.48-0.48c0.07-0.06,0.13-0.13,0.18-0.2
		c0.15-0.13,0.27-0.29,0.33-0.48c0-0.01,0.01-0.03,0.01-0.04c0.13-0.08,0.23-0.2,0.31-0.34c0.04-0.04,0.09-0.08,0.12-0.13
		c0.18,0,0.35-0.04,0.51-0.12c0.2-0.1,0.36-0.25,0.47-0.44c0.09-0.07,0.16-0.16,0.22-0.25c0.09-0.07,0.16-0.16,0.21-0.26
		c0.15-0.11,0.28-0.28,0.36-0.52c0.03-0.09,0.05-0.18,0.05-0.28c0.16-0.12,0.28-0.29,0.34-0.49c0.05-0.14,0.06-0.29,0.04-0.44
		c0.01-0.04,0.01-0.08,0.01-0.12c0-0.01,0.01-0.02,0.01-0.03c0.01-0.02,0.01-0.05,0.02-0.07c0.03-0.06,0.06-0.12,0.09-0.19
		c0.02-0.05,0.03-0.1,0.04-0.15c0.03-0.05,0.05-0.1,0.06-0.15c0.05-0.16,0.06-0.33,0.03-0.49c0-0.03,0.01-0.06,0.01-0.08
		c0.01-0.02,0.02-0.05,0.03-0.07c0.08-0.25,0.06-0.53-0.07-0.76c-0.04-0.07-0.08-0.12-0.12-0.17c0-0.1-0.02-0.2-0.06-0.3
		c0.01-0.19-0.03-0.38-0.12-0.54c-0.08-0.14-0.17-0.24-0.29-0.32c-0.01-0.16-0.05-0.31-0.13-0.45c-0.07-0.12-0.15-0.21-0.25-0.29
		c-0.28-0.47-0.8-0.56-1.59-0.71c-0.15-0.03-0.36-0.07-0.51-0.1c-0.09-0.07-0.19-0.13-0.31-0.17c-0.41-0.13-0.84,0.03-1.08,0.35
		c0,0,0,0,0,0c-0.13-0.23-0.32-0.36-0.57-0.47c-0.07-0.04-0.15-0.08-0.23-0.11c0-0.03,0.01-0.07,0-0.1
		c0.01-0.03,0.02-0.06,0.03-0.09c0.07-0.2,0.06-0.43-0.01-0.63c0.01-0.03,0.02-0.06,0.03-0.09c0.04-0.13,0.06-0.27,0.04-0.4
		c0-0.03,0-0.07,0-0.1c0.03-0.21,0-0.43-0.11-0.61c-0.03-0.05-0.05-0.09-0.08-0.13c0.03-0.15,0.03-0.3-0.01-0.45
		c-0.01-0.14-0.05-0.28-0.12-0.4c-0.08-0.14-0.17-0.24-0.29-0.33c-0.01-0.02-0.02-0.04-0.02-0.06c0-0.17-0.05-0.33-0.13-0.47
		c-0.07-0.12-0.16-0.22-0.26-0.29c0,0,0,0,0,0c-0.14-0.24-0.35-0.38-0.61-0.48c-0.28-0.25-0.68-0.33-1.21-0.43
		c-0.24-0.11-0.48-0.2-0.74-0.2c-0.06-0.03-0.12-0.06-0.19-0.08c-0.33-0.11-0.67-0.03-0.92,0.18c-0.18-0.14-0.42-0.22-0.74-0.31
		c0-0.06,0-0.13,0-0.19c0.04-0.06,0.07-0.13,0.09-0.2c0.07-0.2,0.06-0.42-0.01-0.62c0.01-0.01,0.01-0.03,0.02-0.05
		c0.08-0.25,0.05-0.53-0.07-0.76c-0.05-0.09-0.1-0.16-0.17-0.22c0.01-0.18-0.03-0.37-0.12-0.53c-0.01-0.02-0.02-0.04-0.03-0.05
		c-0.01-0.15-0.05-0.3-0.13-0.44c-0.06-0.1-0.13-0.18-0.2-0.25c-0.02-0.12-0.06-0.23-0.12-0.34c-0.06-0.1-0.12-0.18-0.2-0.24
		c-0.02-0.1-0.06-0.19-0.11-0.28c-0.18-0.3-0.44-0.44-0.82-0.55c-0.2-0.08-0.43-0.13-0.69-0.17c-0.46-0.26-0.9-0.47-1.41-0.28
		c-0.16,0.06-0.3,0.16-0.41,0.28c-0.21-0.28-0.52-0.4-1-0.51c0.01-0.03,0.02-0.06,0.04-0.09c0.06-0.18,0.06-0.38,0.01-0.57
		c0.01-0.07,0.01-0.14,0-0.21c0.05-0.16,0.06-0.34,0.02-0.5c0.03-0.06,0.06-0.12,0.08-0.18c0.08-0.25,0.05-0.53-0.07-0.76
		c-0.06-0.11-0.13-0.19-0.21-0.26c0-0.17-0.04-0.35-0.12-0.5c-0.03-0.06-0.07-0.11-0.11-0.16c-0.01-0.14-0.05-0.27-0.12-0.39
		c-0.07-0.11-0.14-0.2-0.23-0.28c-0.02-0.06-0.05-0.11-0.08-0.16c-0.28-0.47-0.77-0.56-1.59-0.72c-0.15-0.03-0.37-0.07-0.52-0.11
		c-0.09-0.07-0.19-0.13-0.31-0.17c-0.41-0.13-0.84,0.02-1.08,0.35c-0.01-0.01-0.01-0.02-0.02-0.03c-0.25-0.43-0.67-0.52-1.37-0.67
		c-0.06-0.01-0.12-0.03-0.19-0.04c-0.53-0.27-1-0.46-1.51-0.26c-0.05,0.02-0.11,0.05-0.15,0.08c-0.02,0.01-0.04,0.02-0.07,0.02
		c-0.12,0.05-0.23,0.12-0.32,0.2c-0.09,0.06-0.17,0.12-0.24,0.2c-0.2,0.09-0.37,0.24-0.48,0.42c-0.09,0.07-0.17,0.15-0.23,0.24
		c-0.12,0.07-0.23,0.18-0.32,0.32c-0.08,0.02-0.16,0.05-0.24,0.09c-0.18,0.09-0.33,0.22-0.43,0.38c-0.12,0.11-0.2,0.26-0.26,0.41
		c-0.03,0.08-0.04,0.16-0.05,0.24c0,0,0,0.01,0,0.01c-0.08,0.02-0.17,0.05-0.25,0.09c-0.1,0.05-0.19,0.11-0.27,0.19
		c-0.03,0.01-0.07,0.03-0.1,0.04c-0.13,0.06-0.24,0.15-0.33,0.25c-0.14,0.07-0.26,0.18-0.36,0.3c-0.05-0.06-0.1-0.12-0.16-0.17
		c0.01-0.19-0.03-0.38-0.12-0.54c-0.03-0.05-0.06-0.09-0.09-0.13c-0.02-0.06-0.05-0.12-0.08-0.18c-0.02-0.04-0.05-0.07-0.07-0.11
		c-0.01-0.03-0.03-0.06-0.04-0.09c-0.03-0.05-0.05-0.09-0.08-0.12c-0.02-0.07-0.05-0.14-0.09-0.21c-0.08-0.15-0.18-0.26-0.32-0.34
		C9,92.65,8.97,92.5,8.91,92.37c0.07-0.24,0.04-0.51-0.09-0.72c-0.06-0.11-0.13-0.2-0.22-0.27c-0.02-0.07-0.04-0.13-0.07-0.19
		c0-0.08-0.01-0.16-0.03-0.24c0.01-0.02,0.01-0.04,0.02-0.06c0.04-0.13,0.06-0.27,0.04-0.41c0.02-0.13,0.01-0.27-0.02-0.4
		c0.01-0.17-0.02-0.35-0.1-0.51c0.01-0.12-0.01-0.24-0.05-0.35c0.01-0.02,0.02-0.04,0.02-0.06c0.01-0.04,0.03-0.09,0.03-0.14
		c0.07-0.25,0.04-0.52-0.08-0.74c-0.01-0.01-0.02-0.03-0.02-0.04c-0.01-0.09-0.02-0.17-0.05-0.25c0.06-0.21,0.05-0.43-0.04-0.63
		c0-0.02,0-0.04,0-0.06c0.11-0.11,0.19-0.24,0.24-0.39c0.04-0.12,0.05-0.25,0.04-0.38c0.01-0.03,0.03-0.06,0.04-0.09
		c0.02-0.04,0.04-0.09,0.05-0.13c0.06-0.19,0.06-0.39,0-0.58c0.11-0.11,0.2-0.25,0.26-0.44c0.06-0.19,0.06-0.39,0-0.58
		c0.16-0.12,0.28-0.29,0.34-0.49c0.06-0.18,0.06-0.38,0.01-0.57c0-0.01,0-0.02,0.01-0.03c0.02-0.05,0.04-0.1,0.06-0.15
		c0.01-0.04,0.03-0.09,0.03-0.13c0.01-0.03,0.02-0.05,0.03-0.08c0.02-0.06,0.03-0.12,0.04-0.18c0.19-0.13,0.33-0.31,0.4-0.53
		c0.03-0.1,0.05-0.21,0.05-0.32c0.15-0.12,0.26-0.28,0.32-0.47c0.01-0.03,0.02-0.06,0.03-0.1c0.14-0.09,0.25-0.21,0.33-0.35
		c0.08-0.1,0.14-0.21,0.18-0.32c0.02-0.05,0.03-0.1,0.04-0.15c0.19-0.09,0.35-0.23,0.46-0.41c0.19-0.11,0.34-0.28,0.43-0.48
		c0.01-0.02,0.02-0.04,0.03-0.06c0.19-0.11,0.33-0.27,0.42-0.47c0.02-0.05,0.04-0.1,0.06-0.15c0-0.01,0.01-0.02,0.01-0.03
		c0.12-0.09,0.22-0.21,0.3-0.38c0.08-0.01,0.17-0.03,0.26-0.07c0.24-0.09,0.44-0.27,0.56-0.5c0.04-0.01,0.08-0.03,0.12-0.04
		c0.19-0.08,0.35-0.22,0.47-0.39c0.02-0.02,0.04-0.03,0.06-0.05c0.04-0.01,0.08-0.02,0.12-0.04c0.11-0.04,0.21-0.1,0.29-0.17
		c0.14-0.07,0.25-0.18,0.34-0.3c0.07-0.07,0.14-0.15,0.19-0.24c0.07-0.01,0.13-0.03,0.2-0.06c0.16,0,0.31-0.03,0.47-0.1
		c0.14-0.06,0.26-0.15,0.36-0.25c0.08-0.08,0.15-0.16,0.21-0.26c0.08,0,0.16,0,0.24-0.02c0.16,0.01,0.31-0.02,0.48-0.08
		c0.14-0.05,0.26-0.14,0.36-0.24c0.02-0.01,0.05-0.02,0.07-0.03c0.09-0.01,0.19-0.04,0.29-0.08c0.01,0,0.01-0.01,0.02-0.01
		c0.06-0.01,0.12-0.03,0.17-0.06c0.04-0.02,0.09-0.04,0.13-0.06c0.08-0.01,0.16-0.04,0.23-0.07c0.07-0.03,0.14-0.07,0.2-0.11
		c0.14-0.01,0.28-0.04,0.41-0.1c0.01-0.01,0.02-0.01,0.03-0.02c0.34,0.07,0.66,0.07,0.96-0.07c0.03-0.01,0.06-0.03,0.09-0.05
		c0.11-0.01,0.22-0.04,0.34-0.09c0.25,0.03,0.49,0.02,0.72-0.09c0,0,0.01,0,0.01-0.01c0.49,0.17,0.92,0.25,1.32,0.12
		c0.21,0.02,0.41,0,0.61-0.08c0.3-0.12,0.53-0.37,0.63-0.67c0.09-0.28,0.06-0.58-0.1-0.84c-0.31-0.5-0.88-0.59-1.74-0.74
		c-0.06-0.01-0.13-0.02-0.2-0.03c-0.56-0.27-1.07-0.44-1.56-0.24c-0.02,0.01-0.03,0.01-0.05,0.02c-0.43-0.12-0.81-0.15-1.17,0.02
		c-0.02,0.01-0.05,0.02-0.07,0.03c-0.2-0.02-0.4,0.01-0.6,0.09c-0.21-0.02-0.42,0-0.63,0.1c-0.05,0.02-0.1,0.05-0.14,0.07
		c-0.22-0.01-0.43,0.02-0.63,0.11c-0.06,0.03-0.12,0.06-0.18,0.1c-0.16-0.01-0.32,0.02-0.49,0.08c-0.02,0.01-0.04,0.02-0.06,0.03
		c-0.05,0.01-0.1,0.03-0.15,0.05c-0.13,0.05-0.24,0.13-0.34,0.23c-0.03,0.01-0.06,0.02-0.09,0.03c-0.04,0.02-0.08,0.03-0.11,0.06
		c-0.24-0.02-0.46,0.01-0.69,0.11c-0.14,0.06-0.25,0.15-0.35,0.26c-0.2-0.01-0.37,0.03-0.55,0.12c-0.13,0.06-0.24,0.15-0.33,0.25
		c-0.1,0.04-0.19,0.1-0.28,0.17c-0.11,0.05-0.2,0.12-0.29,0.2c-0.02,0.01-0.03,0.01-0.05,0.02c-0.2,0.08-0.36,0.22-0.47,0.39
		c-0.12,0.01-0.24,0.04-0.36,0.09c-0.23,0.1-0.41,0.27-0.53,0.48c-0.04,0.01-0.08,0.03-0.11,0.05c-0.2,0.09-0.36,0.24-0.47,0.42
		c-0.12,0.07-0.23,0.16-0.31,0.26c-0.03,0.02-0.05,0.04-0.08,0.06c-0.11,0.07-0.2,0.15-0.27,0.25c-0.2,0.09-0.36,0.23-0.46,0.41
		c-0.08,0.08-0.14,0.17-0.19,0.28c-0.24,0.1-0.44,0.28-0.55,0.51c-0.09,0.05-0.16,0.12-0.23,0.2c-0.08,0.07-0.16,0.16-0.21,0.26
		c-0.02,0.03-0.04,0.06-0.06,0.09c-0.17,0.13-0.29,0.3-0.36,0.5c-0.02,0.07-0.04,0.15-0.04,0.23c-0.21,0.13-0.38,0.33-0.45,0.56
		C7.4,79.94,7.39,79.97,7.38,80c-0.02,0.04-0.04,0.08-0.06,0.13c-0.04,0.05-0.08,0.1-0.11,0.16C7.09,80.4,7,80.55,6.94,80.71
		c-0.04,0.12-0.05,0.24-0.04,0.36c-0.08,0.09-0.13,0.2-0.17,0.32c-0.01,0.03-0.02,0.06-0.02,0.09c-0.05,0.07-0.09,0.14-0.12,0.22
		c-0.16,0.11-0.3,0.28-0.38,0.53c-0.03,0.08-0.04,0.17-0.05,0.26c-0.05,0.07-0.08,0.14-0.11,0.22c-0.01,0.02-0.02,0.05-0.03,0.08
		c-0.05,0.14-0.06,0.3-0.03,0.45c-0.12,0.11-0.22,0.26-0.28,0.46c-0.03,0.08-0.04,0.17-0.05,0.26c0,0.01-0.01,0.02-0.01,0.03
		c-0.06,0.17-0.06,0.35-0.02,0.52c0,0.01-0.01,0.02-0.01,0.03c-0.08,0.1-0.15,0.22-0.2,0.37c-0.02,0.06-0.03,0.12-0.04,0.18
		c-0.05,0.08-0.09,0.16-0.12,0.25c-0.07,0.22-0.06,0.47,0.04,0.68c-0.02,0.04-0.04,0.09-0.06,0.14c-0.04,0.11-0.05,0.22-0.05,0.34
		c-0.01,0.06-0.01,0.11,0,0.17c0,0,0,0.01,0,0.01c-0.02,0.03-0.03,0.07-0.05,0.1c-0.03,0.06-0.06,0.12-0.09,0.19
		c-0.08,0.25-0.06,0.53,0.07,0.76c0,0,0,0,0,0.01c0.01,0.04,0.02,0.08,0.04,0.12c-0.04,0.07-0.08,0.14-0.1,0.22
		c-0.08,0.25-0.05,0.53,0.07,0.76c0.02,0.03,0.03,0.06,0.05,0.08c-0.04,0.22-0.01,0.45,0.1,0.65c0.01,0.01,0.01,0.02,0.02,0.03
		c0,0.02,0,0.05,0,0.07c-0.03,0.05-0.05,0.11-0.07,0.17c-0.08,0.24-0.06,0.5,0.06,0.73c-0.05,0.23-0.02,0.47,0.1,0.68
		c0.04,0.07,0.08,0.13,0.13,0.18c-0.05,0.23-0.02,0.47,0.1,0.68c0.02,0.03,0.03,0.06,0.05,0.08c-0.02,0.19,0.02,0.4,0.12,0.57
		c0.02,0.04,0.05,0.08,0.08,0.12c-0.05,0.23-0.02,0.48,0.1,0.69c0.02,0.04,0.04,0.07,0.07,0.1c0.02,0.1,0.06,0.21,0.11,0.3
		c0.06,0.11,0.13,0.19,0.21,0.26c0.02,0.04,0.04,0.08,0.06,0.12c0.07,0.12,0.16,0.22,0.26,0.3c0.05,0.09,0.11,0.16,0.18,0.22
		c0,0.16,0.05,0.32,0.13,0.45c0.02,0.03,0.03,0.06,0.05,0.08c0.02,0.08,0.05,0.15,0.09,0.21c0.07,0.11,0.15,0.2,0.24,0.28
		c0.02,0.07,0.05,0.15,0.09,0.21c0.11,0.2,0.26,0.32,0.45,0.41c0.01,0.03,0.02,0.07,0.04,0.1C7.95,96.65,7.97,96.7,8,96.76
		c0,0.01,0.01,0.01,0.01,0.02c-0.18,0.1-0.32,0.24-0.42,0.41c-0.1,0.09-0.19,0.2-0.25,0.35c-0.19,0.07-0.36,0.19-0.48,0.39
		C6.81,97.96,6.76,98,6.71,98.05c-0.3,0.07-0.57,0.25-0.72,0.64c-0.17,0.13-0.3,0.3-0.37,0.51c-0.05,0.16-0.06,0.32-0.03,0.48
		c-0.01,0.02-0.02,0.05-0.03,0.07c-0.01,0.03-0.02,0.05-0.02,0.08c-0.01,0.01-0.01,0.02-0.02,0.03c-0.07,0.09-0.13,0.2-0.17,0.31
		c-0.01,0.02-0.01,0.04-0.02,0.06c-0.06,0.09-0.11,0.18-0.15,0.29c-0.02,0.06-0.03,0.11-0.04,0.17c-0.01,0.03-0.03,0.06-0.04,0.09
		c-0.04,0.12-0.05,0.25-0.04,0.37c-0.05,0.17-0.04,0.34,0.01,0.51c-0.03,0.21,0,0.43,0.11,0.62c0.02,0.03,0.04,0.07,0.06,0.1
		c0,0.01,0,0.03,0,0.04c-0.03,0.21,0.01,0.43,0.11,0.62c0.01,0.02,0.03,0.05,0.04,0.07c0.01,0.14,0.05,0.28,0.12,0.41
		c0.09,0.15,0.19,0.26,0.33,0.35c0.01,0.01,0.02,0.02,0.03,0.03c0.07,0.07,0.15,0.13,0.23,0.18c0.25,0.21,0.6,0.3,1.1,0.4
		c0.27,0.13,0.54,0.25,0.82,0.25c0.06,0.01,0.12,0.02,0.17,0.02c0.16,0,0.31-0.04,0.45-0.11c-0.01,0.2,0.03,0.4,0.14,0.57
		c0.27,0.45,0.77,0.57,1.52,0.71c0.09,0.05,0.17,0.09,0.26,0.13c0.01,0.04,0.03,0.09,0.05,0.13c-0.03,0.06-0.06,0.12-0.08,0.19
		c-0.04,0.12-0.05,0.25-0.04,0.37c0,0.12,0.02,0.25,0.07,0.36c0,0.08,0.01,0.15,0.03,0.22c-0.01,0.01-0.01,0.03-0.02,0.04
		c-0.03,0.09-0.05,0.19-0.05,0.29c-0.06,0.23-0.03,0.49,0.09,0.7c0.01,0.03,0.03,0.05,0.04,0.07c0.01,0.13,0.05,0.27,0.12,0.38
		c0.04,0.07,0.08,0.13,0.13,0.18c0.02,0.04,0.03,0.07,0.05,0.11c0.25,0.43,0.67,0.52,1.37,0.67c0.11,0.02,0.28,0.06,0.39,0.09
		c0.07,0.05,0.16,0.09,0.24,0.12c0.1,0.03,0.2,0.05,0.3,0.05c0.41,0,0.78-0.25,0.92-0.65c0.08-0.23,0.06-0.5-0.05-0.72
		c-0.02-0.1-0.05-0.2-0.11-0.29c0,0-0.01-0.01-0.01-0.01c-0.01-0.15-0.05-0.29-0.12-0.42c-0.05-0.1-0.12-0.18-0.19-0.24
		c-0.01-0.02-0.02-0.05-0.04-0.07c0-0.01-0.01-0.01-0.01-0.02c0.01-0.08,0.01-0.16,0-0.25c0.02-0.11,0.03-0.22,0.01-0.33
		c0.06-0.09,0.11-0.18,0.14-0.3c0.03-0.1,0.05-0.2,0.05-0.3c0.12-0.12,0.2-0.26,0.26-0.42c0.07-0.22,0.06-0.46-0.03-0.68
		c0.03-0.03,0.06-0.06,0.09-0.09c0.07-0.05,0.13-0.1,0.19-0.16c0.23-0.13,0.41-0.33,0.49-0.59c0-0.01,0.01-0.02,0.01-0.03
		c0.14-0.07,0.26-0.17,0.35-0.3c0.01-0.01,0.02-0.02,0.03-0.03c0.14-0.05,0.26-0.13,0.37-0.25c0.16-0.06,0.31-0.17,0.42-0.33
		c0.15-0.11,0.27-0.26,0.34-0.43c0.07-0.05,0.13-0.12,0.19-0.2c0.07-0.04,0.13-0.1,0.19-0.16c0.12-0.05,0.24-0.13,0.34-0.24
		c0.27-0.12,0.48-0.35,0.57-0.63c0,0,0-0.01,0-0.01c0.01,0,0.02-0.01,0.03-0.01c0.21-0.1,0.37-0.27,0.47-0.46
		c0.04-0.01,0.07-0.02,0.11-0.04c0.27-0.12,0.49-0.34,0.58-0.63c0,0,0-0.01,0-0.01c0.26-0.12,0.47-0.34,0.56-0.62
		c0.01-0.04,0.03-0.09,0.03-0.13c0.01,0,0.02-0.01,0.03-0.01c0.05-0.01,0.11-0.03,0.16-0.06c0.2-0.09,0.37-0.23,0.48-0.41
		c0.02-0.02,0.04-0.04,0.05-0.05c0,0,0,0,0,0c0.17-0.07,0.31-0.19,0.42-0.34c0.01-0.01,0.03-0.01,0.04-0.02
		c0.2,0.03,0.4,0.03,0.59-0.03c0.29,0.06,0.56,0.05,0.83-0.06c0.16-0.07,0.3-0.17,0.41-0.3c0.13,0.17,0.29,0.28,0.5,0.37
		c0.02,0.11,0.06,0.23,0.12,0.33c0.09,0.16,0.2,0.27,0.34,0.35c0.01,0.02,0.02,0.04,0.03,0.06c0.05,0.08,0.1,0.15,0.16,0.21
		c0.01,0.08,0.04,0.15,0.07,0.23c-0.03,0.09-0.04,0.18-0.04,0.27c-0.05,0.21-0.03,0.44,0.06,0.64c-0.08,0.1-0.15,0.22-0.19,0.34
		c-0.01,0.03-0.02,0.06-0.03,0.1c-0.01,0.02-0.02,0.05-0.03,0.07c-0.04,0.11-0.05,0.24-0.04,0.36c-0.04,0.07-0.08,0.15-0.11,0.23
		c-0.04,0.11-0.05,0.22-0.05,0.33c-0.09,0.1-0.15,0.22-0.2,0.37c0,0,0,0.01,0,0.01c0,0-0.01,0-0.02,0.01
		c-0.27,0.13-0.46,0.35-0.56,0.63c-0.01,0.03-0.01,0.05-0.02,0.08c-0.05,0.01-0.11,0.03-0.16,0.05c-0.27,0.1-0.48,0.31-0.59,0.58
		c-0.06,0.07-0.11,0.14-0.16,0.24c-0.03,0.03-0.06,0.06-0.09,0.1c-0.14,0.01-0.28,0.05-0.41,0.11c-0.27,0.13-0.46,0.35-0.55,0.63
		c0,0.01-0.01,0.03-0.01,0.04c-0.02,0.02-0.03,0.03-0.05,0.05c-0.1,0.05-0.2,0.11-0.29,0.2c-0.06,0.01-0.12,0.04-0.18,0.06
		c-0.19,0.08-0.34,0.21-0.45,0.37c-0.18,0.11-0.33,0.29-0.43,0.57c-0.03,0.09-0.05,0.19-0.05,0.28c-0.01,0.01-0.01,0.02-0.02,0.04
		c-0.02,0.02-0.04,0.04-0.06,0.06c-0.11,0.07-0.21,0.17-0.29,0.28c-0.06,0.05-0.11,0.1-0.15,0.15c-0.12,0.04-0.23,0.1-0.32,0.18
		c-0.1,0.01-0.21,0.04-0.31,0.09c-0.26,0.12-0.46,0.34-0.56,0.61c-0.04,0.03-0.08,0.06-0.12,0.1c-0.2,0.04-0.39,0.13-0.54,0.3
		c-0.02,0.01-0.04,0.01-0.06,0.02c-0.09,0.04-0.18,0.09-0.26,0.16c-0.01,0-0.02,0.01-0.03,0.01c-0.14,0-0.28,0.02-0.42,0.08
		c-0.41-0.12-0.79-0.16-1.15,0c-0.05,0.02-0.1,0.05-0.15,0.08c-0.29,0.12-0.51,0.36-0.61,0.65c-0.09,0.27-0.06,0.57,0.09,0.82
		c0.29,0.48,0.81,0.58,1.68,0.74c-0.02,0.05-0.04,0.09-0.06,0.15c-0.07,0.21-0.06,0.44,0.02,0.64c0,0.02,0,0.05,0,0.07
		c-0.01,0.03-0.02,0.06-0.03,0.09c-0.08,0.25-0.05,0.53,0.08,0.76c0.01,0.02,0.02,0.04,0.03,0.05c0.01,0.06,0.02,0.11,0.04,0.17
		c-0.02,0.19,0.02,0.4,0.12,0.57c0.05,0.09,0.11,0.17,0.18,0.24c-0.01,0.18,0.03,0.36,0.12,0.52c0.24,0.43,0.63,0.51,1.4,0.69
		c0.13,0.03,0.34,0.08,0.47,0.11c0.07,0.05,0.16,0.09,0.25,0.12c0.1,0.03,0.2,0.05,0.3,0.05c0.41,0,0.78-0.25,0.92-0.65
		c0.07-0.21,0.06-0.46-0.03-0.66c0-0.16-0.05-0.32-0.13-0.46c-0.04-0.07-0.09-0.14-0.14-0.19c-0.02-0.07-0.04-0.14-0.08-0.2
		c-0.01-0.09-0.03-0.17-0.06-0.25c-0.02-0.09-0.04-0.18-0.08-0.26c0.07-0.24,0.04-0.5-0.09-0.72c-0.01-0.01-0.01-0.02-0.02-0.03
		c0.01-0.02,0.02-0.05,0.03-0.07c0.12-0.12,0.21-0.26,0.26-0.42c0.02-0.07,0.04-0.14,0.04-0.21c0-0.01,0.01-0.02,0.01-0.03
		c0.07-0.2,0.06-0.41-0.01-0.61c0.12-0.07,0.22-0.16,0.3-0.27c0.12-0.06,0.22-0.15,0.31-0.26c0.26-0.12,0.46-0.34,0.55-0.61
		c0.01-0.04,0.03-0.09,0.03-0.14c0.27-0.05,0.52-0.17,0.68-0.43c0.01-0.01,0.03-0.01,0.04-0.02c0.26-0.12,0.46-0.34,0.55-0.6
		c0.21-0.09,0.38-0.26,0.49-0.46c0.03-0.02,0.05-0.03,0.07-0.05c0.22-0.1,0.4-0.28,0.51-0.5c0.03-0.04,0.06-0.07,0.08-0.11
		c0.08-0.06,0.15-0.14,0.22-0.23c0.02-0.01,0.04-0.01,0.06-0.02c0.14-0.06,0.27-0.15,0.37-0.26c0,0,0.01,0,0.01-0.01
		c0.2-0.1,0.36-0.25,0.47-0.44c0.22-0.08,0.41-0.22,0.54-0.48c0.17-0.13,0.29-0.3,0.36-0.5c0-0.01,0.01-0.03,0.01-0.04
		c0.23,0,0.44-0.09,0.61-0.23c0.06-0.02,0.11-0.04,0.17-0.07c0.09-0.04,0.17-0.1,0.25-0.16c0.09-0.02,0.18-0.05,0.27-0.09
		c0.01-0.01,0.02-0.01,0.03-0.02c0.1-0.01,0.21-0.03,0.32-0.07c0.14-0.05,0.26-0.13,0.36-0.23c0.14-0.01,0.27-0.05,0.41-0.11
		c0.11-0.05,0.2-0.12,0.28-0.2c0.13,0.1,0.28,0.18,0.47,0.24c0.07,0.04,0.15,0.08,0.23,0.12c0.05,0.07,0.1,0.12,0.16,0.17
		c-0.01,0.18,0.03,0.36,0.12,0.52c0.04,0.07,0.08,0.12,0.12,0.18c0.01,0.02,0.02,0.03,0.02,0.05c0.05,0.09,0.11,0.16,0.17,0.23
		c-0.02,0.13-0.01,0.27,0.03,0.4c-0.05,0.07-0.08,0.15-0.11,0.23c-0.07,0.22-0.06,0.46,0.03,0.68c-0.04,0.07-0.08,0.14-0.1,0.22
		c-0.01,0.04-0.02,0.08-0.03,0.11c-0.08,0.1-0.14,0.21-0.18,0.33c-0.05,0.15-0.06,0.31-0.03,0.47c-0.01,0-0.03,0.01-0.04,0.01
		c-0.22,0.08-0.4,0.24-0.52,0.43c-0.01,0.01-0.02,0.01-0.02,0.02c0,0,0,0-0.01,0c-0.15,0.07-0.28,0.17-0.38,0.29
		c-0.24,0.11-0.43,0.31-0.53,0.55c0,0,0,0,0,0c-0.1,0.08-0.18,0.18-0.24,0.3c-0.06,0.01-0.13,0.04-0.19,0.06
		c-0.27,0.12-0.48,0.35-0.57,0.63c-0.02,0.06-0.04,0.13-0.04,0.2c-0.06,0.02-0.11,0.05-0.16,0.09c-0.04,0.01-0.08,0.03-0.12,0.05
		c-0.19,0.09-0.35,0.23-0.46,0.4c-0.08,0.04-0.15,0.08-0.22,0.14c-0.17,0.08-0.32,0.21-0.43,0.37c-0.14,0.08-0.25,0.19-0.34,0.31
		c-0.13,0.09-0.24,0.2-0.32,0.34c0,0-0.01,0-0.01,0.01c-0.26,0.13-0.46,0.35-0.55,0.62c-0.02,0.05-0.03,0.1-0.04,0.15
		c-0.09,0.01-0.19,0.04-0.28,0.08c-0.19,0.08-0.35,0.22-0.46,0.39c-0.15,0.1-0.26,0.23-0.34,0.39c-0.11,0.07-0.21,0.16-0.29,0.26
		c-0.22,0.13-0.38,0.33-0.46,0.58c-0.02,0.05-0.03,0.1-0.04,0.15c-0.02,0.04-0.04,0.09-0.06,0.14c-0.03,0.09-0.04,0.19-0.04,0.28
		c-0.12,0.11-0.21,0.25-0.26,0.41c-0.04,0.14-0.06,0.28-0.04,0.42c-0.03,0.21,0,0.43,0.11,0.62c0.04,0.07,0.08,0.13,0.13,0.18
		c0,0.02,0,0.05,0,0.07c-0.13,0.11-0.23,0.26-0.3,0.47c-0.08,0.25-0.06,0.53,0.07,0.76c0.05,0.08,0.1,0.15,0.16,0.21
		c0.01,0.03,0.01,0.05,0.02,0.08c-0.01,0.16,0.02,0.33,0.08,0.47c-0.03,0.13-0.04,0.26-0.01,0.39c-0.01,0.19,0.03,0.39,0.12,0.55
		c0.25,0.43,0.65,0.52,1.45,0.7c0.07,0.02,0.16,0.04,0.25,0.06c0.05,0.02,0.11,0.03,0.16,0.04c0.03,0.01,0.06,0.01,0.08,0.02
		c0.08,0.05,0.16,0.1,0.26,0.13c0.1,0.03,0.2,0.05,0.3,0.05c0.13,0,0.26-0.03,0.38-0.08c0,0.18,0.04,0.36,0.14,0.52
		c0.29,0.47,0.81,0.56,1.53,0.68c0,0,0,0,0,0c0.46,0.25,0.87,0.46,1.29,0.46c0.14,0,0.28-0.02,0.42-0.08
		c0.12-0.05,0.23-0.11,0.33-0.2c0.08-0.02,0.15-0.04,0.23-0.08c0.1-0.05,0.2-0.11,0.28-0.19c0.15,0.01,0.31-0.02,0.47-0.08
		c0.28-0.11,0.5-0.34,0.6-0.62c0.07-0.02,0.14-0.05,0.21-0.08c0.07-0.03,0.13-0.07,0.18-0.11c0.04,0.03,0.09,0.06,0.14,0.09
		c0.02,0.05,0.04,0.11,0.07,0.16c0.07,0.12,0.15,0.21,0.25,0.28c0.02,0.08,0.06,0.16,0.1,0.23c0.14,0.23,0.33,0.37,0.6,0.48
		c0.05,0.06,0.11,0.11,0.17,0.15c0.05,0.08,0.12,0.15,0.19,0.2c0.07,0.09,0.15,0.16,0.24,0.21c0.28,0.32,0.71,0.4,1.28,0.5
		c0.02,0,0.04,0.01,0.07,0.01c0.15,0.06,0.3,0.12,0.45,0.15c0.04,0.02,0.08,0.03,0.12,0.05c0.1,0.03,0.2,0.05,0.3,0.05
		c0.41,0,0.78-0.25,0.92-0.65c0.06-0.18,0.06-0.37,0.02-0.54c-0.02-0.13-0.06-0.26-0.13-0.38c-0.09-0.15-0.2-0.26-0.34-0.35
		c-0.01-0.01-0.01-0.02-0.02-0.03c-0.1-0.16-0.22-0.28-0.38-0.37c-0.13-0.16-0.3-0.26-0.52-0.35c-0.02-0.05-0.04-0.1-0.07-0.15
		c-0.1-0.17-0.23-0.29-0.39-0.38c-0.02-0.06-0.05-0.11-0.08-0.17c-0.14-0.23-0.32-0.37-0.57-0.46c0-0.01-0.01-0.02-0.01-0.02
		c-0.05-0.09-0.11-0.16-0.18-0.23c-0.02-0.07-0.05-0.14-0.09-0.2c-0.03-0.05-0.07-0.1-0.1-0.15
		C32.2,119.14,32.28,119.04,32.34,118.91z M17.55,97.65c-0.25,0.12-0.44,0.34-0.53,0.61c-0.01,0.03-0.02,0.06-0.03,0.09
		c-0.03,0.02-0.06,0.04-0.09,0.07c-0.23,0.08-0.4,0.22-0.52,0.38c-0.02,0.01-0.04,0.01-0.05,0.02c-0.26,0.12-0.47,0.34-0.56,0.62
		c-0.01,0.03-0.02,0.06-0.02,0.08c-0.07,0.02-0.13,0.04-0.2,0.07c-0.12,0.06-0.23,0.13-0.32,0.23c-0.03,0.01-0.07,0.03-0.1,0.04
		c-0.15,0.08-0.29,0.19-0.38,0.32c-0.21,0.11-0.39,0.3-0.49,0.61c-0.03,0.09-0.05,0.19-0.05,0.29c-0.09,0.05-0.17,0.11-0.24,0.19
		c-0.07,0.01-0.14,0.03-0.22,0.06c-0.07,0.01-0.13,0.03-0.2,0.06c-0.29,0.12-0.51,0.35-0.6,0.64c0,0.01-0.01,0.03-0.01,0.04
		c-0.01,0.01-0.01,0.03-0.02,0.04c-0.06,0.01-0.12,0.03-0.19,0.06c-0.28,0.12-0.49,0.35-0.59,0.63c-0.01,0.02-0.01,0.05-0.02,0.07
		c-0.04,0.05-0.08,0.11-0.11,0.17c-0.14,0-0.29,0.03-0.43,0.1c-0.15,0.07-0.28,0.17-0.39,0.29c-0.03,0.01-0.05,0.02-0.08,0.03
		c-0.22,0.09-0.4,0.25-0.52,0.45c-0.44-0.22-0.84-0.34-1.28-0.18c-0.06,0.02-0.11,0.05-0.16,0.08c0-0.18-0.04-0.35-0.12-0.5
		c-0.03-0.05-0.06-0.09-0.09-0.14c-0.01-0.02-0.03-0.04-0.04-0.06c-0.02-0.02-0.03-0.05-0.05-0.07c-0.06-0.1-0.14-0.18-0.22-0.24
		c-0.01-0.01-0.01-0.03-0.02-0.04c-0.04-0.06-0.07-0.12-0.12-0.16c-0.02-0.05-0.04-0.09-0.06-0.14c-0.01-0.02-0.02-0.03-0.03-0.05
		c0.01-0.02,0.02-0.05,0.03-0.07c0.06-0.18,0.06-0.38,0.01-0.57c0.01-0.02,0.02-0.04,0.02-0.06c0.02-0.04,0.04-0.09,0.05-0.13
		c0.03-0.08,0.04-0.16,0.05-0.24c0.02-0.04,0.04-0.08,0.05-0.13c0.06-0.17,0.06-0.35,0.02-0.52c0-0.01,0.01-0.02,0.01-0.02
		c0.05-0.07,0.09-0.15,0.12-0.23c0.05-0.04,0.09-0.08,0.14-0.13c0.11-0.08,0.21-0.19,0.28-0.31c0.03-0.02,0.06-0.05,0.09-0.07
		c0.25-0.05,0.47-0.18,0.63-0.43c0.19-0.11,0.35-0.29,0.44-0.58c0.03-0.1,0.05-0.2,0.05-0.3c0.01-0.01,0.02-0.02,0.03-0.04
		c0.06-0.01,0.12-0.02,0.17-0.04c0.09-0.01,0.18-0.04,0.28-0.08c0.24-0.1,0.43-0.28,0.53-0.51c0.09-0.09,0.17-0.21,0.23-0.36
		c0.28-0.08,0.53-0.28,0.66-0.67c0.01-0.02,0.01-0.03,0.02-0.05c0.1-0.06,0.19-0.14,0.27-0.25c0,0,0.01,0,0.01-0.01
		c0.14-0.01,0.27-0.04,0.41-0.11c0.21-0.1,0.38-0.26,0.49-0.46c0.01-0.02,0.02-0.04,0.04-0.07c0.12-0.11,0.21-0.25,0.26-0.41
		c0.06-0.03,0.12-0.07,0.18-0.12c0.06-0.02,0.12-0.04,0.17-0.07c0.22-0.11,0.39-0.29,0.49-0.51c0.04-0.01,0.08-0.03,0.12-0.05
		c0.26-0.13,0.46-0.35,0.55-0.63c0.02-0.05,0.03-0.11,0.04-0.16c0.07-0.04,0.14-0.09,0.19-0.15c0.05-0.01,0.1-0.03,0.15-0.05
		c0.03-0.01,0.06-0.03,0.09-0.04c0.09,0,0.18-0.01,0.27-0.04c0.09-0.01,0.19-0.03,0.29-0.06c0.12-0.01,0.23-0.03,0.35-0.08
		c0.2-0.08,0.36-0.22,0.48-0.38c0.01,0.02,0.01,0.03,0.02,0.05c0.13,0.22,0.31,0.36,0.56,0.46c0,0,0,0,0,0.01
		c0.08,0.14,0.19,0.25,0.31,0.34c0.02,0.09,0.05,0.17,0.1,0.25c0,0.02,0,0.04,0,0.07c-0.03,0.21,0.01,0.42,0.11,0.61
		c0.04,0.07,0.09,0.14,0.13,0.19c-0.02,0.12-0.01,0.24,0.01,0.36c-0.04,0.07-0.07,0.14-0.1,0.23c-0.05,0.16-0.06,0.34-0.02,0.51
		c0,0.01-0.01,0.03-0.01,0.04c-0.04,0.07-0.08,0.15-0.11,0.24c-0.06,0.17-0.06,0.36-0.01,0.54c-0.02,0.01-0.04,0.01-0.06,0.02
		C17.85,97.24,17.66,97.42,17.55,97.65z M28.6,118.1c-0.21,0.12-0.36,0.31-0.45,0.54c-0.32,0.05-0.62,0.21-0.79,0.59
		c-0.1,0.06-0.2,0.14-0.27,0.22c-0.04,0.02-0.07,0.05-0.1,0.07c-0.05,0.01-0.09,0.03-0.14,0.05c-0.09,0.04-0.18,0.08-0.25,0.14
		c-0.14,0.01-0.28,0.05-0.42,0.12c-0.01,0-0.01,0.01-0.02,0.01c-0.1-0.01-0.19-0.01-0.29,0c-0.04-0.01-0.09-0.01-0.13-0.02
		c-0.22-0.04-0.44-0.03-0.66,0.05c-0.03,0.01-0.07,0.03-0.1,0.05c-0.01-0.15-0.05-0.3-0.12-0.43c0-0.01-0.01-0.02-0.01-0.02
		c-0.02-0.07-0.05-0.14-0.08-0.2c-0.06-0.1-0.13-0.19-0.2-0.26c0-0.16-0.04-0.32-0.12-0.47c0.07-0.23,0.05-0.49-0.07-0.71
		c0.01-0.12-0.01-0.25-0.04-0.37c0-0.02,0-0.03,0.01-0.05c0.02-0.05,0.05-0.1,0.06-0.16c0.01-0.04,0.02-0.08,0.03-0.12
		c0.02-0.04,0.03-0.07,0.05-0.11c0.06-0.18,0.06-0.38,0.01-0.56c0.04-0.04,0.08-0.08,0.12-0.12c0.15-0.1,0.27-0.24,0.35-0.4
		c0.07-0.07,0.13-0.14,0.18-0.23c0.09-0.08,0.16-0.17,0.22-0.28c0.01-0.01,0.01-0.01,0.02-0.02c0,0,0.01,0,0.01-0.01
		c0.24-0.12,0.42-0.31,0.52-0.55c0.21-0.1,0.39-0.26,0.49-0.46c0.07-0.06,0.13-0.13,0.19-0.21c0.07-0.05,0.13-0.1,0.19-0.17
		c0.11-0.02,0.23-0.05,0.34-0.1c0.2-0.1,0.37-0.25,0.47-0.44c0.01-0.01,0.03-0.02,0.04-0.03c0.07-0.05,0.13-0.1,0.18-0.17
		c0.12-0.09,0.22-0.22,0.29-0.35c0.04-0.07,0.07-0.14,0.1-0.21c0.04-0.03,0.08-0.06,0.12-0.09c0.33-0.07,0.62-0.26,0.76-0.7
		c0.02-0.06,0.03-0.11,0.04-0.17c0.07-0.05,0.14-0.12,0.19-0.18c0.06-0.01,0.12-0.03,0.18-0.06c0.21-0.09,0.39-0.24,0.5-0.43
		c0.13-0.06,0.25-0.14,0.35-0.25c0.13-0.07,0.25-0.17,0.34-0.28c0.16-0.13,0.28-0.3,0.35-0.5c0.01-0.02,0.01-0.03,0.01-0.05
		c0.07-0.09,0.12-0.19,0.15-0.29c0.01-0.03,0.02-0.07,0.03-0.11c0,0,0.01-0.01,0.01-0.01c0.26,0.12,0.51,0.19,0.77,0.17
		c0.08,0.02,0.15,0.03,0.23,0.03c0.31,0,0.6-0.15,0.78-0.4c0,0,0,0.01,0.01,0.01c0.11,0.19,0.26,0.31,0.45,0.41
		c0.06,0.07,0.13,0.14,0.2,0.19c0.07,0.07,0.15,0.13,0.24,0.18c0.02,0.02,0.04,0.05,0.07,0.07c-0.04,0.22,0,0.45,0.11,0.64
		c0.03,0.05,0.06,0.09,0.09,0.13c0,0.16,0.04,0.31,0.12,0.45c0,0.01,0.01,0.01,0.01,0.02c-0.04,0.07-0.08,0.14-0.1,0.22
		c-0.05,0.16-0.06,0.33-0.02,0.5c-0.11,0.11-0.19,0.24-0.24,0.39c-0.06,0.18-0.06,0.39-0.01,0.57c0,0.01-0.01,0.02-0.01,0.03
		c-0.06,0.02-0.12,0.04-0.18,0.07c-0.1,0.05-0.2,0.11-0.28,0.19c-0.04,0.01-0.08,0.03-0.12,0.05c-0.14,0.07-0.27,0.17-0.36,0.29
		c0,0-0.01,0-0.01,0.01c-0.26,0.13-0.46,0.35-0.55,0.63c-0.02,0.05-0.03,0.1-0.04,0.15c-0.03,0.04-0.06,0.08-0.09,0.12
		c-0.36,0.03-0.72,0.17-0.91,0.6c0,0.01-0.01,0.01-0.01,0.02c-0.01,0.01-0.02,0.01-0.03,0.02c-0.26,0.13-0.45,0.35-0.54,0.61
		c-0.16,0.1-0.28,0.25-0.36,0.41c-0.16,0.1-0.3,0.23-0.39,0.39c-0.16,0.09-0.29,0.23-0.38,0.39c-0.06,0.08-0.12,0.17-0.16,0.27
		c-0.19,0.07-0.35,0.2-0.47,0.4c-0.02,0.01-0.04,0.02-0.06,0.04c-0.02,0.01-0.04,0.01-0.05,0.02
		C28.79,117.94,28.68,118.01,28.6,118.1z"/>
</g>
</svg>
