<?xml version="1.0" encoding="utf-8"?>
<!-- Generator: Adobe Illustrator 25.0.1, SVG Export Plug-In . SVG Version: 6.00 Build 0)  -->
<svg version="1.1" id="레이어_1" xmlns="http://www.w3.org/2000/svg" xmlns:xlink="http://www.w3.org/1999/xlink" x="0px"
	 y="0px" viewBox="0 0 70 65" style="enable-background:new 0 0 70 65;" xml:space="preserve">
<style type="text/css">
	.st0{fill:#FFBC00;}
</style>
<g>
	<g>
		<path d="M2.69,23.76c-0.36,0-0.62-0.15-0.8-0.44c-0.18-0.3-0.27-0.64-0.27-1.02c0-0.39,0.09-0.72,0.27-1.01
			c0.18-0.29,0.44-0.43,0.8-0.43c-0.5,0-0.84-0.1-1.01-0.31c-0.17-0.21-0.17-0.42,0-0.62c0.17-0.21,0.51-0.31,1.01-0.31
			c-0.43,0-0.75-0.11-0.97-0.32c-0.22-0.21-0.32-0.46-0.32-0.75c0-0.28,0.11-0.53,0.32-0.75c0.21-0.21,0.54-0.32,0.97-0.32
			c-0.39,0-0.67-0.11-0.87-0.34c-0.19-0.23-0.29-0.5-0.29-0.8c0-0.3,0.1-0.57,0.29-0.81c0.19-0.24,0.48-0.36,0.87-0.36
			c-0.37,0-0.64-0.15-0.82-0.46c-0.18-0.3-0.27-0.65-0.27-1.05c0-0.39,0.09-0.74,0.27-1.05c0.18-0.3,0.45-0.46,0.82-0.46
			c-0.47,0-0.79-0.08-0.95-0.24c-0.16-0.16-0.16-0.33,0-0.49c0.16-0.16,0.47-0.24,0.95-0.24c-0.1-0.58-0.08-0.98,0.07-1.2
			C2.9,9.75,3.08,9.72,3.3,9.87c0.21,0.16,0.37,0.52,0.48,1.1c0-0.34,0.11-0.61,0.33-0.82c0.22-0.21,0.5-0.35,0.85-0.42
			c0.34-0.07,0.68-0.07,1.01,0C6.3,9.8,6.58,9.94,6.8,10.15c0.22,0.21,0.33,0.48,0.33,0.82c0-0.47,0.1-0.79,0.29-0.95
			c0.19-0.16,0.39-0.16,0.58,0c0.19,0.16,0.29,0.47,0.29,0.95c0.03-0.4,0.2-0.69,0.51-0.88c0.31-0.19,0.67-0.27,1.07-0.24
			c0.4,0.02,0.75,0.14,1.03,0.37c0.29,0.22,0.43,0.53,0.41,0.91c0.13-0.55,0.3-0.9,0.49-1.05c0.19-0.15,0.34-0.11,0.43,0.11
			c0.1,0.22,0.08,0.61-0.06,1.16c0.19-0.37,0.43-0.6,0.71-0.68c0.28-0.08,0.54-0.06,0.78,0.07c0.24,0.13,0.4,0.33,0.48,0.61
			c0.08,0.28,0.03,0.6-0.17,0.96c0.27-0.19,0.53-0.26,0.78-0.19c0.25,0.07,0.45,0.21,0.6,0.42c0.15,0.21,0.21,0.45,0.18,0.7
			c-0.03,0.25-0.19,0.47-0.47,0.67c0.27,0,0.49,0.1,0.66,0.31c0.17,0.21,0.29,0.47,0.36,0.79c0.07,0.32,0.08,0.64,0.04,0.97
			c-0.04,0.33-0.13,0.6-0.29,0.82c-0.16,0.22-0.37,0.34-0.63,0.36c0.3,0.19,0.44,0.44,0.43,0.75c-0.01,0.3-0.1,0.6-0.29,0.88
			c-0.19,0.28-0.42,0.48-0.7,0.59c-0.28,0.11-0.56,0.07-0.85-0.12c0.15,0.34,0.19,0.63,0.13,0.86c-0.06,0.23-0.19,0.39-0.38,0.49
			c-0.19,0.1-0.4,0.1-0.62,0c-0.22-0.1-0.42-0.31-0.58-0.63c0.04,0.34-0.04,0.62-0.27,0.82c-0.22,0.21-0.5,0.35-0.85,0.42
			c-0.34,0.07-0.67,0.07-0.98-0.02c-0.31-0.09-0.53-0.27-0.65-0.56c0.09,0.46-0.03,0.83-0.37,1.11c-0.33,0.28-0.69,0.41-1.08,0.38
			c0.07,0.25,0.09,0.51,0.04,0.78c-0.04,0.27-0.16,0.5-0.34,0.69c-0.19,0.19-0.43,0.29-0.75,0.29c0.55,0,0.92,0.11,1.1,0.32
			c0.19,0.22,0.19,0.43,0,0.66c-0.19,0.22-0.55,0.33-1.1,0.33c0,0.34-0.11,0.6-0.32,0.78c-0.22,0.18-0.46,0.27-0.75,0.27
			c-0.28,0-0.53-0.09-0.75-0.26C5.11,25.8,5,25.55,5,25.21c0,0.44-0.1,0.74-0.29,0.89c-0.19,0.15-0.39,0.15-0.58,0
			c-0.19-0.15-0.29-0.45-0.29-0.89c0,0.36-0.06,0.62-0.18,0.78c-0.12,0.16-0.26,0.2-0.42,0.12c-0.16-0.08-0.3-0.31-0.41-0.69
			C2.72,25.04,2.67,24.49,2.69,23.76z M7.02,15.46c0.27,0,0.47,0.12,0.6,0.36c0.13,0.24,0.22,0.5,0.27,0.8
			c0.04,0.3,0.07,0.53,0.07,0.71c0.07-0.18,0.21-0.31,0.42-0.41c0.21-0.1,0.43-0.14,0.68-0.14c0.24,0,0.46,0.04,0.66,0.13
			C9.6,16.67,9.6,16.5,9.73,16.39c0.13-0.11,0.31-0.09,0.57,0.06c-0.07-0.18-0.09-0.39-0.04-0.62c0.04-0.24,0.15-0.41,0.31-0.51
			c-0.21,0-0.36-0.08-0.46-0.24c-0.1-0.16-0.11-0.33-0.06-0.51c-0.15,0.07-0.28,0.06-0.4-0.03c-0.12-0.1-0.16-0.24-0.13-0.43
			c-0.12,0.15-0.3,0.24-0.53,0.29c-0.24,0.04-0.47,0.03-0.7-0.04c-0.23-0.07-0.37-0.21-0.43-0.4c0.04,0.36-0.04,0.57-0.24,0.64
			c0.03,0.21,0,0.41-0.1,0.6C7.41,15.37,7.25,15.46,7.02,15.46z"/>
		<path d="M16.59,24.23c-0.16,0-0.3-0.1-0.41-0.3c-0.11-0.2-0.19-0.46-0.23-0.77c-0.04-0.31-0.06-0.62-0.03-0.93
			c0.02-0.31,0.08-0.57,0.17-0.79c0.09-0.21,0.22-0.32,0.4-0.32c-0.07-0.13-0.04-0.3,0.11-0.49c0.15-0.19,0.36-0.38,0.63-0.57
			c0.27-0.18,0.56-0.34,0.87-0.48c0.3-0.13,0.57-0.21,0.81-0.24c0.24-0.03,0.39,0.02,0.47,0.16c-0.03-0.19,0.04-0.36,0.21-0.51
			c0.17-0.15,0.39-0.26,0.66-0.33c0.27-0.07,0.53-0.1,0.79-0.09c0.26,0.01,0.46,0.09,0.61,0.22c-0.06-0.24,0.01-0.5,0.22-0.78
			c-0.37-0.01-0.71-0.08-1.02-0.19c-0.31-0.11-0.46-0.26-0.44-0.46c0,0.22-0.09,0.39-0.27,0.49c-0.18,0.1-0.38,0.16-0.61,0.16
			c-0.23,0-0.43-0.05-0.61-0.16c-0.18-0.1-0.27-0.27-0.27-0.49c-0.13,0.22-0.3,0.35-0.51,0.38c-0.21,0.03-0.41-0.01-0.61-0.12
			c-0.2-0.11-0.34-0.27-0.43-0.47c-0.09-0.2-0.07-0.41,0.07-0.63c-0.25-0.28-0.34-0.54-0.28-0.77c0.07-0.23,0.22-0.37,0.46-0.41
			c0.24-0.04,0.48,0.07,0.73,0.36c-0.18-0.34-0.22-0.61-0.13-0.8c0.09-0.19,0.23-0.27,0.43-0.23c0.2,0.04,0.39,0.23,0.57,0.59
			c-0.06-0.24-0.03-0.44,0.1-0.61c0.13-0.17,0.3-0.29,0.51-0.34c0.21-0.06,0.42-0.05,0.62,0.02c0.2,0.07,0.33,0.23,0.39,0.47
			c-0.01-0.3,0.08-0.52,0.29-0.68c0.21-0.16,0.45-0.24,0.73-0.26c0.28-0.01,0.53,0.04,0.76,0.18c0.22,0.13,0.34,0.35,0.36,0.64
			c0.03-0.4,0.13-0.66,0.31-0.78c0.18-0.12,0.34-0.1,0.49,0.04c0.15,0.15,0.21,0.42,0.18,0.82c0.07-0.27,0.21-0.44,0.42-0.52
			c0.21-0.08,0.43-0.09,0.66-0.02c0.23,0.07,0.41,0.19,0.54,0.38c0.13,0.19,0.16,0.4,0.09,0.66c0.16-0.21,0.36-0.31,0.58-0.3
			c0.22,0.01,0.43,0.08,0.61,0.22c0.19,0.14,0.3,0.32,0.36,0.54c0.05,0.22,0,0.44-0.17,0.64c0.36-0.16,0.64-0.16,0.87,0
			c0.22,0.16,0.32,0.38,0.29,0.64c-0.03,0.27-0.22,0.48-0.58,0.64c0.3-0.01,0.52,0.12,0.68,0.39c0.16,0.27,0.24,0.59,0.27,0.95
			c0.02,0.36-0.03,0.68-0.17,0.97c-0.13,0.29-0.35,0.44-0.64,0.46c0.24,0,0.41,0.09,0.53,0.28c0.12,0.19,0.18,0.4,0.18,0.64
			c0,0.24-0.06,0.46-0.18,0.64c-0.12,0.19-0.3,0.28-0.53,0.28c0.27,0,0.48,0.1,0.64,0.3c0.16,0.2,0.28,0.45,0.34,0.76
			c0.07,0.3,0.08,0.61,0.03,0.92c-0.04,0.31-0.14,0.57-0.29,0.79c-0.15,0.21-0.35,0.33-0.6,0.34c-0.01,0.24-0.13,0.43-0.34,0.58
			c-0.22,0.15-0.48,0.24-0.79,0.29c-0.31,0.04-0.63,0.04-0.95-0.01c-0.32-0.05-0.58-0.16-0.79-0.31c-0.21-0.16-0.31-0.35-0.31-0.59
			c0,0.37-0.08,0.62-0.24,0.76c-0.16,0.13-0.33,0.14-0.49,0.01c-0.16-0.13-0.24-0.38-0.24-0.77c-0.19,0.24-0.39,0.36-0.6,0.38
			c-0.21,0.01-0.38-0.04-0.52-0.18c-0.14-0.13-0.2-0.3-0.19-0.49c-0.24,0.19-0.62,0.33-1.15,0.4c-0.53,0.07-1.17,0.03-1.92-0.14
			C18.3,25.11,17.48,24.76,16.59,24.23z M22.28,23.14c-0.13-0.07-0.19-0.21-0.16-0.4c0.03-0.19,0.1-0.4,0.21-0.62
			c0.11-0.22,0.24-0.41,0.39-0.56c-0.13-0.03-0.26-0.1-0.37-0.2c-0.11-0.1-0.18-0.22-0.21-0.36c-0.1,0.15-0.26,0.27-0.47,0.37
			c-0.21,0.1-0.42,0.15-0.63,0.17c-0.22,0.01-0.39-0.02-0.52-0.11c0.04,0.13,0.01,0.25-0.09,0.36c0.21,0.07,0.43,0.21,0.68,0.4
			c0.24,0.19,0.47,0.39,0.68,0.58C22,22.95,22.16,23.08,22.28,23.14z"/>
		<path d="M31.33,24.05c-0.25,0.07-0.46,0.06-0.63-0.04c-0.17-0.1-0.29-0.25-0.34-0.43c-0.06-0.19-0.05-0.37,0.03-0.56
			c0.08-0.19,0.25-0.32,0.5-0.41c-0.3,0.1-0.57,0.03-0.81-0.21c-0.24-0.24-0.43-0.56-0.54-0.93c-0.12-0.38-0.15-0.73-0.09-1.07
			c0.06-0.33,0.24-0.54,0.53-0.63c-0.34,0.1-0.6,0.1-0.77-0.02c-0.17-0.12-0.22-0.27-0.16-0.46c0.07-0.19,0.28-0.34,0.63-0.46
			c-0.3,0.1-0.56,0.08-0.78-0.08c-0.22-0.16-0.37-0.37-0.46-0.63c-0.08-0.27-0.08-0.53,0.01-0.78c0.09-0.25,0.29-0.43,0.6-0.53
			c-0.27,0.09-0.5,0.06-0.7-0.1c-0.2-0.16-0.34-0.36-0.42-0.61c-0.08-0.25-0.09-0.5-0.02-0.73c0.07-0.24,0.23-0.4,0.5-0.49
			c0-0.31,0.12-0.54,0.37-0.69c0.24-0.15,0.53-0.22,0.86-0.22c0.33,0,0.61,0.07,0.87,0.22c0.25,0.15,0.38,0.38,0.38,0.69
			c0.18-0.18,0.39-0.23,0.64-0.16c0.25,0.07,0.49,0.22,0.71,0.43c0.22,0.21,0.37,0.45,0.43,0.71c0.07,0.26,0.01,0.48-0.17,0.66
			c0.18-0.06,0.36,0,0.55,0.19c0.19,0.19,0.34,0.44,0.48,0.76c0.13,0.32,0.23,0.63,0.29,0.95c0.13-0.12,0.28-0.2,0.44-0.26
			c0.16-0.05,0.32-0.05,0.47,0.01c-0.12-0.15-0.17-0.37-0.16-0.66c0.01-0.29,0.08-0.59,0.19-0.89c0.11-0.3,0.25-0.55,0.42-0.75
			c0.17-0.19,0.35-0.26,0.55-0.2c-0.07-0.19,0-0.38,0.22-0.57c0.22-0.19,0.5-0.33,0.82-0.43c0.33-0.1,0.63-0.14,0.92-0.12
			c0.29,0.02,0.46,0.13,0.52,0.32c0.33-0.15,0.59-0.15,0.78-0.01c0.19,0.14,0.28,0.33,0.27,0.57c-0.02,0.24-0.19,0.43-0.51,0.58
			c0.25-0.07,0.47-0.04,0.66,0.11c0.19,0.15,0.31,0.34,0.39,0.59c0.07,0.24,0.08,0.48,0.01,0.7c-0.07,0.22-0.23,0.38-0.48,0.47
			c0.18-0.07,0.34-0.04,0.5,0.1c0.16,0.14,0.27,0.32,0.34,0.52c0.12-0.09,0.25-0.14,0.4-0.17c0.15-0.02,0.29,0,0.42,0.08
			c-0.1-0.19-0.13-0.44-0.07-0.76c0.06-0.31,0.17-0.58,0.34-0.8c0.17-0.22,0.36-0.3,0.57-0.24c-0.19-0.16-0.26-0.37-0.21-0.63
			c0.05-0.26,0.17-0.5,0.37-0.73c0.19-0.23,0.41-0.39,0.67-0.48c0.25-0.09,0.47-0.05,0.67,0.11c-0.01-0.27,0.11-0.47,0.38-0.6
			c0.27-0.13,0.57-0.2,0.91-0.21c0.34-0.01,0.64,0.06,0.91,0.19c0.27,0.13,0.4,0.33,0.4,0.6c0.28,0.09,0.45,0.3,0.51,0.62
			c0.06,0.33,0.03,0.67-0.09,1.05c-0.12,0.37-0.29,0.67-0.52,0.91c-0.23,0.24-0.49,0.31-0.77,0.22c0.34,0.12,0.55,0.26,0.62,0.43
			c0.07,0.17,0.03,0.31-0.13,0.41c-0.16,0.1-0.42,0.1-0.76,0c0.4,0.13,0.64,0.32,0.71,0.56c0.07,0.24,0.01,0.43-0.19,0.59
			c-0.2,0.16-0.5,0.17-0.9,0.03c0.27,0.09,0.44,0.24,0.51,0.47c0.07,0.22,0.07,0.46-0.01,0.7c-0.08,0.24-0.22,0.44-0.41,0.59
			c-0.19,0.15-0.42,0.18-0.69,0.09c0.37,0.12,0.59,0.3,0.64,0.53c0.06,0.24,0,0.43-0.19,0.59c-0.19,0.16-0.46,0.17-0.81,0.06
			c0.27,0.09,0.43,0.26,0.49,0.51c0.06,0.25,0.05,0.52-0.03,0.8c-0.08,0.28-0.22,0.51-0.42,0.68c-0.2,0.17-0.43,0.21-0.7,0.12
			c0.12,0.25,0.11,0.46-0.01,0.62c-0.13,0.16-0.29,0.25-0.5,0.26c-0.21,0.01-0.38-0.11-0.51-0.37c-0.04,0.24-0.21,0.38-0.5,0.43
			c-0.29,0.05-0.61,0.04-0.96-0.04c-0.35-0.08-0.64-0.21-0.88-0.38c-0.24-0.17-0.33-0.37-0.29-0.61c-0.16,0.06-0.33,0-0.49-0.19
			c-0.16-0.19-0.3-0.42-0.4-0.7c-0.1-0.28-0.15-0.55-0.14-0.8c0.01-0.25,0.1-0.41,0.28-0.47c-0.24,0.09-0.48-0.04-0.72-0.39
			c-0.24-0.35-0.43-0.74-0.54-1.17c-0.21,0.15-0.42,0.17-0.62,0.07c0.16,0.06,0.26,0.21,0.29,0.46c0.03,0.24,0,0.52-0.08,0.83
			c-0.08,0.31-0.19,0.62-0.33,0.91c-0.14,0.3-0.3,0.53-0.47,0.7c-0.17,0.17-0.34,0.23-0.5,0.17c0.36,0.13,0.56,0.3,0.62,0.49
			c0.06,0.19,0,0.34-0.17,0.46c-0.17,0.11-0.43,0.1-0.79-0.03c0.12,0.33,0.13,0.57,0.04,0.72c-0.09,0.16-0.22,0.2-0.38,0.13
			c-0.16-0.07-0.3-0.26-0.42-0.59c0,0.31-0.13,0.54-0.38,0.68c-0.25,0.14-0.56,0.17-0.91,0.1c-0.36-0.07-0.69-0.28-1.01-0.61
			C31.71,25.15,31.48,24.67,31.33,24.05z"/>
		<path d="M47.3,25.27c-0.24,0-0.42-0.11-0.56-0.33c-0.13-0.22-0.23-0.5-0.28-0.82c-0.05-0.33-0.05-0.65,0-0.98
			c0.05-0.33,0.14-0.6,0.28-0.81C46.88,22.11,47.06,22,47.3,22c-0.3,0-0.52-0.12-0.67-0.37c-0.15-0.24-0.22-0.52-0.22-0.83
			c0-0.31,0.07-0.59,0.22-0.83c0.15-0.24,0.37-0.37,0.67-0.37c-0.25,0-0.45-0.11-0.6-0.33c-0.15-0.22-0.25-0.5-0.3-0.82
			c-0.05-0.33-0.05-0.65,0-0.98c0.05-0.33,0.15-0.6,0.3-0.81c0.15-0.21,0.35-0.32,0.6-0.32c-0.27,0-0.46-0.08-0.59-0.23
			c-0.13-0.16-0.19-0.33-0.2-0.53c-0.01-0.2,0.06-0.37,0.19-0.52c0.13-0.15,0.33-0.22,0.6-0.22c0-0.27,0.09-0.46,0.28-0.59
			c0.19-0.13,0.4-0.18,0.64-0.18c0.24,0.01,0.46,0.08,0.63,0.21c0.18,0.13,0.27,0.33,0.27,0.6c0-0.22,0.08-0.39,0.24-0.49
			c0.16-0.1,0.36-0.16,0.58-0.16c0.22,0,0.42,0.05,0.59,0.16c0.17,0.1,0.26,0.27,0.26,0.49c0.22-0.18,0.42-0.23,0.59-0.16
			c0.17,0.07,0.27,0.2,0.29,0.38c0.02,0.18-0.08,0.36-0.3,0.53c0.27,0,0.46,0.13,0.59,0.38c0.13,0.25,0.19,0.54,0.19,0.87
			c0,0.33-0.06,0.61-0.19,0.86c-0.13,0.24-0.32,0.37-0.59,0.37c0.24,0,0.41,0.13,0.53,0.38c0.12,0.25,0.18,0.54,0.18,0.87
			c0,0.33-0.06,0.62-0.18,0.87c-0.12,0.25-0.3,0.38-0.53,0.38c0.18,0,0.32,0.11,0.43,0.34c0.11,0.23,0.19,0.52,0.22,0.87
			c0.04,0.35,0.04,0.69,0,1.03c-0.04,0.34-0.11,0.63-0.22,0.86c-0.11,0.23-0.26,0.34-0.43,0.34c0.33,0.06,0.53,0.2,0.6,0.43
			c0.07,0.23,0.04,0.44-0.11,0.64c-0.15,0.2-0.39,0.27-0.71,0.21c0,0.37-0.07,0.62-0.22,0.75c-0.15,0.13-0.3,0.13-0.44,0
			c-0.15-0.13-0.22-0.37-0.22-0.75c0,0.31-0.14,0.55-0.43,0.71c-0.29,0.16-0.63,0.24-1.02,0.23c-0.39-0.01-0.74-0.09-1.03-0.26
			C47.47,25.84,47.32,25.6,47.3,25.27z M48.41,11.06c-0.31-0.07-0.53-0.21-0.64-0.4c-0.12-0.19-0.15-0.38-0.1-0.57
			c0.05-0.19,0.17-0.33,0.37-0.43c0.19-0.1,0.45-0.11,0.78-0.02c0-0.22,0.1-0.4,0.31-0.52c0.21-0.13,0.47-0.21,0.78-0.26
			c0.31-0.04,0.63-0.04,0.95,0c0.32,0.04,0.58,0.13,0.79,0.26c0.21,0.13,0.31,0.3,0.31,0.52c0.31-0.04,0.56,0.02,0.73,0.19
			c0.18,0.17,0.29,0.39,0.33,0.64c0.04,0.26,0,0.5-0.12,0.72c-0.13,0.22-0.34,0.36-0.63,0.4c0.07,0.18,0.03,0.35-0.14,0.52
			c-0.17,0.17-0.39,0.31-0.67,0.42c-0.27,0.11-0.53,0.16-0.78,0.16c-0.24-0.01-0.4-0.1-0.46-0.28c0,0.24-0.09,0.41-0.27,0.51
			c-0.18,0.1-0.39,0.12-0.62,0.03c-0.24-0.08-0.44-0.27-0.62-0.58C48.52,12.08,48.42,11.64,48.41,11.06z M46,10.61
			c-0.31-0.07-0.53-0.21-0.64-0.4c-0.12-0.19-0.15-0.38-0.1-0.57c0.05-0.19,0.17-0.33,0.37-0.43c0.19-0.1,0.45-0.11,0.78-0.02
			c0-0.22,0.1-0.4,0.31-0.52c0.21-0.13,0.47-0.21,0.78-0.26c0.31-0.04,0.63-0.04,0.95,0c0.32,0.04,0.58,0.13,0.79,0.26
			c0.21,0.13,0.31,0.3,0.31,0.52c0.31-0.04,0.56,0.02,0.73,0.19c0.18,0.17,0.29,0.39,0.33,0.64c0.04,0.26,0,0.5-0.12,0.72
			c-0.13,0.22-0.34,0.36-0.63,0.4c0.07,0.18,0.03,0.35-0.14,0.52c-0.17,0.17-0.39,0.31-0.67,0.42c-0.27,0.11-0.53,0.16-0.78,0.16
			c-0.24-0.01-0.4-0.1-0.46-0.28c0,0.24-0.09,0.41-0.27,0.51c-0.18,0.1-0.39,0.12-0.62,0.03c-0.24-0.08-0.44-0.27-0.62-0.58
			C46.11,11.63,46.02,11.19,46,10.61z M47.22,9.06c-0.23-0.07-0.39-0.21-0.48-0.4c-0.09-0.19-0.11-0.38-0.07-0.57
			c0.04-0.19,0.13-0.33,0.27-0.43c0.14-0.1,0.34-0.11,0.58-0.02c0-0.22,0.08-0.4,0.23-0.52c0.16-0.13,0.35-0.21,0.58-0.26
			c0.23-0.04,0.47-0.04,0.71,0c0.24,0.04,0.43,0.13,0.59,0.26c0.16,0.13,0.23,0.3,0.23,0.52c0.23-0.04,0.42,0.02,0.55,0.19
			c0.13,0.17,0.22,0.39,0.25,0.64c0.03,0.26,0,0.5-0.09,0.72c-0.09,0.22-0.25,0.36-0.47,0.4c0.06,0.18,0.02,0.35-0.11,0.52
			c-0.13,0.17-0.29,0.31-0.5,0.42c-0.21,0.11-0.4,0.16-0.58,0.16c-0.18-0.01-0.3-0.1-0.34-0.28c0,0.24-0.07,0.41-0.2,0.51
			c-0.13,0.1-0.29,0.12-0.47,0.03c-0.18-0.08-0.33-0.27-0.47-0.58C47.3,10.08,47.23,9.64,47.22,9.06z M43.1,7.05
			c-0.19-0.06-0.32-0.17-0.39-0.32c-0.07-0.15-0.09-0.31-0.06-0.46c0.03-0.15,0.1-0.27,0.22-0.35c0.12-0.08,0.27-0.09,0.47-0.02
			c0-0.18,0.06-0.32,0.19-0.42c0.12-0.1,0.28-0.17,0.47-0.21c0.19-0.04,0.38-0.04,0.57,0c0.19,0.04,0.35,0.1,0.47,0.21
			c0.12,0.1,0.19,0.24,0.19,0.42c0.19-0.04,0.33,0.01,0.44,0.15c0.11,0.14,0.17,0.31,0.2,0.52c0.03,0.21,0,0.4-0.07,0.58
			c-0.08,0.18-0.2,0.29-0.38,0.32c0.04,0.14,0.02,0.28-0.09,0.42c-0.1,0.14-0.24,0.25-0.4,0.34c-0.17,0.09-0.32,0.13-0.47,0.13
			c-0.15-0.01-0.24-0.08-0.27-0.22c0,0.19-0.05,0.33-0.16,0.41c-0.11,0.08-0.23,0.09-0.37,0.03c-0.14-0.07-0.27-0.22-0.37-0.47
			C43.17,7.87,43.11,7.52,43.1,7.05z M46.63,4.35c-0.19-0.06-0.32-0.17-0.39-0.32c-0.07-0.15-0.09-0.31-0.06-0.46
			c0.03-0.15,0.1-0.27,0.22-0.35c0.12-0.08,0.27-0.09,0.47-0.02c0-0.18,0.06-0.32,0.19-0.42c0.12-0.1,0.28-0.17,0.47-0.21
			c0.19-0.04,0.38-0.04,0.57,0c0.19,0.04,0.35,0.1,0.47,0.21c0.12,0.1,0.19,0.24,0.19,0.42c0.19-0.04,0.33,0.01,0.44,0.15
			c0.11,0.14,0.17,0.31,0.2,0.52c0.03,0.21,0,0.4-0.07,0.58c-0.08,0.18-0.2,0.29-0.38,0.32c0.04,0.14,0.02,0.28-0.09,0.42
			c-0.1,0.14-0.24,0.25-0.4,0.34c-0.17,0.09-0.32,0.13-0.47,0.13c-0.15-0.01-0.24-0.08-0.27-0.22c0,0.19-0.05,0.33-0.16,0.41
			c-0.11,0.08-0.23,0.09-0.37,0.03c-0.14-0.07-0.27-0.22-0.37-0.47C46.69,5.17,46.64,4.81,46.63,4.35z M50.71,5.22
			c-0.19-0.06-0.32-0.17-0.39-0.32c-0.07-0.15-0.09-0.31-0.06-0.46c0.03-0.15,0.1-0.27,0.22-0.35c0.12-0.08,0.27-0.09,0.47-0.02
			c0-0.18,0.06-0.32,0.19-0.42c0.12-0.1,0.28-0.17,0.47-0.21c0.19-0.04,0.38-0.04,0.57,0c0.19,0.04,0.35,0.1,0.47,0.21
			c0.12,0.1,0.19,0.24,0.19,0.42c0.19-0.04,0.33,0.01,0.44,0.15c0.11,0.14,0.17,0.31,0.2,0.52c0.03,0.21,0,0.4-0.07,0.58
			c-0.08,0.18-0.2,0.29-0.38,0.32c0.04,0.14,0.02,0.28-0.09,0.42c-0.1,0.14-0.24,0.25-0.4,0.34c-0.17,0.09-0.32,0.13-0.47,0.13
			c-0.15-0.01-0.24-0.08-0.27-0.22c0,0.19-0.05,0.33-0.16,0.41c-0.11,0.08-0.23,0.09-0.37,0.03c-0.14-0.07-0.27-0.22-0.37-0.47
			C50.78,6.04,50.72,5.69,50.71,5.22z M53.44,8.69c-0.15-0.05-0.26-0.14-0.31-0.26c-0.06-0.13-0.07-0.25-0.05-0.37
			c0.03-0.12,0.08-0.22,0.18-0.28c0.09-0.07,0.22-0.07,0.38-0.01c0-0.15,0.05-0.26,0.15-0.34c0.1-0.08,0.23-0.14,0.38-0.17
			c0.15-0.03,0.31-0.03,0.46,0c0.16,0.03,0.28,0.08,0.39,0.17c0.1,0.08,0.15,0.2,0.15,0.34c0.15-0.03,0.27,0.01,0.36,0.12
			c0.09,0.11,0.14,0.25,0.16,0.42c0.02,0.17,0,0.33-0.06,0.47c-0.06,0.15-0.16,0.23-0.31,0.26c0.04,0.12,0.01,0.23-0.07,0.34
			c-0.08,0.11-0.19,0.2-0.33,0.28c-0.13,0.07-0.26,0.11-0.38,0.1c-0.12,0-0.19-0.07-0.22-0.18c0,0.16-0.04,0.27-0.13,0.33
			C54.1,9.97,54,9.98,53.89,9.93c-0.12-0.05-0.22-0.18-0.3-0.38C53.5,9.35,53.45,9.06,53.44,8.69z"/>
		<path d="M54.44,25.45c-0.24-0.01-0.42-0.11-0.53-0.29c-0.12-0.18-0.17-0.39-0.17-0.62c0.01-0.24,0.07-0.44,0.2-0.61
			c0.13-0.17,0.31-0.26,0.54-0.26c-0.28,0-0.5-0.14-0.64-0.41c-0.15-0.27-0.22-0.59-0.22-0.96c0-0.36,0.07-0.68,0.22-0.96
			c0.15-0.27,0.36-0.41,0.64-0.41c-0.27,0-0.46-0.14-0.59-0.43c-0.13-0.29-0.19-0.62-0.19-0.99c0-0.37,0.06-0.7,0.19-0.99
			c0.13-0.29,0.32-0.43,0.59-0.43c-0.31,0-0.54-0.09-0.7-0.27c-0.16-0.18-0.23-0.38-0.23-0.61c0-0.23,0.08-0.43,0.23-0.61
			c0.16-0.18,0.39-0.27,0.7-0.27c-0.22-0.04-0.38-0.15-0.47-0.31c-0.09-0.16-0.12-0.34-0.09-0.53c0.03-0.19,0.11-0.35,0.24-0.48
			c0.13-0.13,0.31-0.17,0.53-0.14c0-0.25,0.11-0.45,0.33-0.6c0.22-0.15,0.5-0.25,0.84-0.3c0.34-0.05,0.68-0.05,1.01,0
			c0.33,0.05,0.61,0.15,0.83,0.3c0.22,0.15,0.33,0.35,0.33,0.6c0.18-0.19,0.38-0.26,0.61-0.19c0.23,0.07,0.42,0.19,0.57,0.37
			c0.15-0.24,0.38-0.37,0.69-0.41c0.31-0.04,0.56,0.12,0.76,0.46c-0.04-0.25,0.03-0.46,0.23-0.63c0.2-0.17,0.45-0.29,0.75-0.34
			c0.3-0.06,0.57-0.05,0.82,0.03c0.25,0.08,0.4,0.25,0.44,0.5c0.1-0.18,0.28-0.27,0.52-0.28c0.24-0.01,0.51,0.05,0.8,0.17
			c0.29,0.12,0.56,0.27,0.81,0.44c0.25,0.18,0.44,0.37,0.57,0.58c0.13,0.21,0.14,0.4,0.03,0.58c0.33-0.15,0.59-0.16,0.78-0.04
			c0.19,0.12,0.28,0.29,0.26,0.52c-0.02,0.23-0.2,0.42-0.52,0.57c0.27-0.03,0.48,0.06,0.64,0.27c0.16,0.21,0.26,0.46,0.3,0.75
			c0.04,0.29,0,0.56-0.1,0.8c-0.1,0.24-0.29,0.38-0.56,0.41c0.28,0,0.49,0.15,0.63,0.46c0.14,0.3,0.21,0.66,0.21,1.06
			c0,0.4-0.07,0.75-0.21,1.06c-0.14,0.3-0.35,0.46-0.63,0.46c0.31,0,0.51,0.1,0.61,0.31c0.1,0.21,0.1,0.42,0,0.62
			c-0.1,0.21-0.3,0.31-0.61,0.31c0.27,0.03,0.46,0.14,0.57,0.32c0.11,0.19,0.15,0.39,0.12,0.6c-0.03,0.22-0.12,0.4-0.28,0.55
			c-0.16,0.15-0.37,0.21-0.63,0.18c0,0.24-0.11,0.42-0.34,0.55c-0.23,0.13-0.5,0.19-0.8,0.19c-0.3,0-0.57-0.06-0.8-0.19
			c-0.23-0.13-0.34-0.31-0.34-0.55c0,0.27-0.1,0.47-0.29,0.61c-0.19,0.14-0.42,0.21-0.68,0.22c-0.26,0.01-0.49-0.05-0.68-0.18
			c-0.19-0.13-0.3-0.33-0.31-0.61c-0.18,0-0.31-0.15-0.39-0.44c-0.08-0.3-0.11-0.64-0.09-1.02c0.02-0.39,0.09-0.72,0.19-1.01
			c0.1-0.29,0.24-0.43,0.42-0.43c-0.24,0-0.42-0.09-0.56-0.28c-0.13-0.19-0.21-0.4-0.22-0.66c-0.01-0.25,0.03-0.49,0.12-0.71
			c0.1-0.22,0.25-0.36,0.46-0.42c-0.19-0.01-0.38-0.12-0.56-0.32c-0.18-0.2-0.34-0.44-0.48-0.73c-0.14-0.29-0.23-0.57-0.26-0.86
			c-0.18,0.15-0.39,0.25-0.63,0.31c-0.24,0.06-0.46,0.06-0.66,0c0.07,0.18,0.1,0.38,0.07,0.6c-0.03,0.22-0.1,0.42-0.2,0.58
			c-0.1,0.16-0.24,0.24-0.42,0.22c0.27,0,0.44,0.07,0.52,0.21c0.08,0.14,0.08,0.29,0,0.43c-0.08,0.15-0.26,0.22-0.52,0.22
			c0.22,0,0.39,0.14,0.51,0.42c0.12,0.28,0.18,0.61,0.18,0.98c0,0.37-0.06,0.7-0.18,0.99c-0.12,0.29-0.29,0.43-0.51,0.43
			c0.22,0.13,0.34,0.31,0.36,0.52c0.01,0.21-0.04,0.42-0.16,0.61c-0.12,0.19-0.28,0.33-0.49,0.41c-0.21,0.08-0.42,0.05-0.64-0.1
			c0,0.22-0.11,0.4-0.33,0.52c-0.22,0.13-0.5,0.21-0.83,0.27c-0.33,0.05-0.67,0.06-1.01,0.02c-0.34-0.04-0.63-0.11-0.87-0.22
			C54.58,25.79,54.45,25.64,54.44,25.45z"/>
		<path class="st0" d="M3.06,45.58c-0.44,0-0.78-0.1-1-0.31c-0.22-0.2-0.33-0.44-0.33-0.7c0-0.27,0.11-0.5,0.33-0.69
			c0.22-0.19,0.55-0.29,1-0.29c-0.6,0-1.01-0.1-1.21-0.29c-0.2-0.19-0.2-0.39,0-0.58c0.2-0.19,0.61-0.29,1.21-0.29
			c-0.44,0-0.77-0.1-0.98-0.31c-0.21-0.2-0.32-0.44-0.32-0.7c0-0.27,0.11-0.5,0.32-0.7c0.21-0.2,0.54-0.31,0.98-0.31
			c-0.51,0-0.9-0.15-1.16-0.46c-0.26-0.31-0.39-0.67-0.39-1.08c0-0.41,0.13-0.77,0.39-1.08c0.26-0.31,0.64-0.47,1.16-0.47
			c-0.46,0-0.81-0.16-1.04-0.49c-0.23-0.33-0.35-0.71-0.35-1.14c0-0.43,0.12-0.81,0.35-1.14c0.23-0.33,0.58-0.49,1.04-0.49
			c-0.43-0.02-0.74-0.15-0.94-0.41c-0.2-0.26-0.31-0.55-0.31-0.89c0-0.34,0.11-0.63,0.32-0.89c0.21-0.26,0.53-0.39,0.96-0.39
			c0-0.53,0.12-0.93,0.37-1.18C3.7,30.03,3.99,29.9,4.3,29.9c0.32,0,0.6,0.13,0.85,0.39c0.25,0.26,0.37,0.65,0.37,1.18
			c0-0.5,0.12-0.87,0.36-1.12c0.24-0.25,0.51-0.37,0.81-0.37c0.3,0,0.57,0.12,0.81,0.37c0.24,0.25,0.36,0.62,0.36,1.12
			c0.55-0.09,0.93-0.03,1.14,0.17c0.21,0.2,0.25,0.44,0.12,0.7c-0.13,0.27-0.47,0.44-1.02,0.53c0.6,0,1.03,0.16,1.29,0.49
			c0.26,0.33,0.34,0.68,0.25,1.06c-0.09,0.38-0.35,0.66-0.77,0.84c0.32,0.05,0.58,0.21,0.78,0.46c0.2,0.26,0.32,0.54,0.36,0.84
			c0.35-0.21,0.77-0.3,1.24-0.27c0.47,0.04,0.85,0.2,1.13,0.51c0.02-0.3,0.14-0.5,0.37-0.58c-0.18-0.32-0.16-0.65,0.04-1.01
			c0.2-0.35,0.61-0.53,1.21-0.53c-0.53,0-0.93-0.16-1.18-0.48c-0.26-0.32-0.39-0.69-0.39-1.12c0-0.42,0.13-0.8,0.39-1.12
			c0.26-0.32,0.65-0.48,1.18-0.48c0-0.44,0.12-0.78,0.37-1.01c0.25-0.23,0.53-0.35,0.85-0.36c0.32-0.01,0.61,0.1,0.86,0.33
			c0.26,0.23,0.39,0.57,0.39,1.01c0-0.51,0.1-0.9,0.29-1.17c0.19-0.27,0.42-0.4,0.66-0.4c0.25,0,0.47,0.13,0.66,0.4
			c0.19,0.27,0.29,0.66,0.29,1.17c0.32-0.07,0.59,0,0.82,0.23c0.23,0.22,0.39,0.51,0.48,0.86c0.09,0.35,0.08,0.69-0.01,1
			c-0.1,0.31-0.31,0.51-0.62,0.6c0.51,0,0.89,0.17,1.14,0.52c0.25,0.35,0.37,0.75,0.37,1.22c0,0.47-0.12,0.88-0.37,1.22
			c-0.25,0.35-0.63,0.52-1.14,0.52c0.53,0,0.93,0.16,1.18,0.48c0.26,0.32,0.39,0.69,0.39,1.12c0,0.42-0.13,0.8-0.39,1.12
			c-0.26,0.32-0.65,0.48-1.18,0.48c0.53,0,0.93,0.17,1.18,0.5c0.26,0.34,0.39,0.73,0.39,1.18c0,0.45-0.13,0.85-0.39,1.2
			c-0.26,0.35-0.65,0.52-1.18,0.52c0.57,0,0.94,0.08,1.13,0.25c0.19,0.17,0.19,0.34,0,0.52c-0.19,0.18-0.56,0.27-1.13,0.27
			c0.41,0,0.71,0.12,0.92,0.35c0.2,0.23,0.31,0.49,0.31,0.78c0,0.29-0.1,0.55-0.31,0.77c-0.2,0.22-0.51,0.33-0.92,0.33
			c0.16,0.35,0.17,0.67,0.03,0.94c-0.14,0.27-0.35,0.47-0.64,0.6c-0.28,0.12-0.57,0.15-0.86,0.08c-0.29-0.07-0.52-0.28-0.68-0.64
			c0.02,0.46-0.12,0.81-0.41,1.05c-0.29,0.24-0.63,0.36-1.01,0.37c-0.38,0.01-0.72-0.1-1.01-0.32c-0.29-0.22-0.45-0.56-0.46-1.02
			c-0.35,0-0.63-0.16-0.82-0.48c-0.2-0.32-0.31-0.69-0.36-1.13c-0.04-0.43,0-0.85,0.12-1.25c0.12-0.4,0.34-0.68,0.64-0.84
			c-0.55,0.09-0.98-0.06-1.29-0.44c-0.31-0.38-0.43-0.79-0.36-1.24c-0.66,0.21-1.29,0.2-1.91-0.03c0.04,0.21-0.01,0.4-0.15,0.56
			c-0.13,0.16-0.32,0.26-0.57,0.29c0.32,0.23,0.38,0.5,0.19,0.81c-0.19,0.31-0.66,0.46-1.38,0.46c0.69,0,1.15,0.1,1.37,0.29
			c0.22,0.2,0.22,0.39,0,0.58c-0.22,0.2-0.68,0.29-1.37,0.29c0.43,0,0.75,0.1,0.97,0.29c0.22,0.2,0.33,0.42,0.33,0.69
			s-0.11,0.5-0.33,0.7c-0.22,0.2-0.54,0.31-0.97,0.31c0.02,0.67-0.05,1.12-0.21,1.34c-0.16,0.22-0.32,0.22-0.49,0
			c-0.17-0.22-0.26-0.66-0.28-1.32c0,0.42-0.1,0.74-0.29,0.94c-0.2,0.2-0.42,0.31-0.66,0.31c-0.25,0-0.47-0.1-0.66-0.31
			c-0.2-0.2-0.29-0.52-0.29-0.94c0,0.69-0.1,1.15-0.29,1.38c-0.2,0.23-0.39,0.23-0.58,0c-0.2-0.23-0.29-0.69-0.29-1.38
			c0,0.46-0.05,0.79-0.16,1c-0.11,0.2-0.23,0.22-0.36,0.04c-0.13-0.18-0.25-0.58-0.35-1.21C3.08,47.67,3.04,46.76,3.06,45.58z"/>
		<path class="st0" d="M21.79,47.3c-0.2,0-0.36-0.12-0.49-0.36c-0.13-0.24-0.23-0.54-0.28-0.92c-0.05-0.37-0.07-0.74-0.04-1.12
			c0.03-0.37,0.09-0.69,0.2-0.94c0.11-0.26,0.27-0.39,0.48-0.39c-0.09-0.16-0.04-0.35,0.13-0.58c0.18-0.23,0.43-0.46,0.76-0.68
			c0.33-0.22,0.67-0.41,1.04-0.57c0.36-0.16,0.69-0.26,0.97-0.29c0.28-0.04,0.47,0.03,0.56,0.19c-0.04-0.23,0.05-0.43,0.25-0.61
			c0.2-0.18,0.46-0.31,0.78-0.4c0.32-0.09,0.63-0.12,0.94-0.11c0.31,0.02,0.55,0.11,0.73,0.27c-0.07-0.28,0.02-0.59,0.27-0.93
			c-0.44-0.02-0.85-0.09-1.22-0.23c-0.37-0.13-0.55-0.31-0.53-0.54c0,0.27-0.11,0.46-0.32,0.58c-0.21,0.12-0.46,0.19-0.73,0.19
			c-0.27,0-0.52-0.06-0.73-0.19c-0.21-0.12-0.32-0.32-0.32-0.58c-0.16,0.27-0.36,0.42-0.61,0.45c-0.25,0.04-0.49-0.01-0.73-0.15
			c-0.24-0.13-0.41-0.32-0.52-0.56c-0.11-0.24-0.08-0.49,0.08-0.76c-0.3-0.34-0.41-0.64-0.33-0.92c0.08-0.27,0.26-0.44,0.54-0.49
			c0.28-0.05,0.58,0.09,0.88,0.43c-0.21-0.41-0.27-0.73-0.16-0.96c0.11-0.23,0.28-0.32,0.52-0.28c0.24,0.04,0.46,0.28,0.68,0.7
			c-0.07-0.28-0.03-0.53,0.12-0.73c0.15-0.2,0.35-0.34,0.61-0.41c0.26-0.07,0.5-0.06,0.74,0.03c0.24,0.09,0.39,0.27,0.46,0.56
			c-0.02-0.35,0.1-0.62,0.35-0.81c0.25-0.19,0.54-0.29,0.88-0.31c0.34-0.02,0.64,0.05,0.9,0.21c0.27,0.16,0.41,0.42,0.43,0.77
			c0.04-0.48,0.16-0.79,0.37-0.93c0.21-0.14,0.41-0.12,0.58,0.05c0.18,0.18,0.25,0.5,0.21,0.98c0.09-0.32,0.26-0.53,0.5-0.62
			c0.25-0.1,0.51-0.11,0.78-0.03c0.27,0.08,0.49,0.23,0.65,0.45c0.16,0.22,0.19,0.48,0.11,0.78c0.19-0.25,0.43-0.37,0.69-0.36
			c0.27,0.01,0.51,0.1,0.73,0.27c0.22,0.17,0.36,0.39,0.43,0.65c0.06,0.27,0,0.52-0.2,0.77c0.43-0.19,0.77-0.19,1.04,0
			c0.27,0.2,0.38,0.45,0.35,0.77c-0.04,0.32-0.27,0.58-0.69,0.77c0.35-0.02,0.62,0.14,0.81,0.46c0.19,0.33,0.29,0.7,0.32,1.13
			c0.03,0.42-0.04,0.81-0.2,1.16c-0.16,0.35-0.42,0.53-0.77,0.54c0.28,0,0.5,0.11,0.64,0.33c0.14,0.22,0.21,0.48,0.21,0.77
			c0,0.29-0.07,0.55-0.21,0.77c-0.14,0.22-0.35,0.33-0.64,0.33c0.32,0,0.58,0.12,0.77,0.36c0.19,0.24,0.33,0.54,0.41,0.9
			c0.08,0.36,0.09,0.73,0.04,1.1c-0.05,0.37-0.17,0.69-0.35,0.94c-0.18,0.26-0.42,0.39-0.72,0.41c-0.02,0.28-0.16,0.51-0.41,0.69
			c-0.26,0.18-0.57,0.29-0.94,0.35c-0.37,0.05-0.75,0.05-1.13-0.01c-0.38-0.06-0.7-0.19-0.94-0.37c-0.25-0.19-0.37-0.42-0.37-0.7
			c0,0.44-0.1,0.74-0.29,0.9c-0.2,0.16-0.39,0.16-0.58,0.01c-0.2-0.15-0.29-0.46-0.29-0.92c-0.23,0.28-0.47,0.43-0.72,0.45
			C29,49.07,28.79,49,28.63,48.84c-0.17-0.16-0.24-0.35-0.23-0.58c-0.28,0.23-0.74,0.39-1.37,0.48c-0.63,0.09-1.39,0.03-2.3-0.17
			C23.83,48.36,22.85,47.94,21.79,47.3z M28.59,46c-0.16-0.09-0.22-0.25-0.19-0.48c0.04-0.23,0.12-0.48,0.25-0.74
			c0.13-0.27,0.29-0.49,0.46-0.66c-0.16-0.04-0.31-0.11-0.44-0.24c-0.13-0.12-0.22-0.27-0.25-0.42c-0.12,0.18-0.31,0.32-0.56,0.44
			c-0.25,0.12-0.5,0.18-0.76,0.2c-0.26,0.02-0.46-0.03-0.62-0.13c0.05,0.16,0.02,0.3-0.11,0.42c0.25,0.09,0.52,0.25,0.81,0.48
			c0.29,0.23,0.56,0.46,0.81,0.69C28.25,45.78,28.44,45.93,28.59,46z"/>
		<path class="st0" d="M36.98,48.76c-0.28-0.02-0.5-0.13-0.64-0.35c-0.14-0.21-0.21-0.46-0.2-0.74c0.01-0.28,0.09-0.53,0.24-0.73
			c0.15-0.2,0.37-0.31,0.65-0.31c-0.34,0-0.59-0.16-0.77-0.49C36.09,45.82,36,45.44,36,45.01c0-0.43,0.09-0.81,0.27-1.14
			c0.18-0.33,0.43-0.49,0.77-0.49c-0.32,0-0.55-0.17-0.7-0.52c-0.15-0.35-0.23-0.74-0.23-1.18c0-0.44,0.08-0.84,0.23-1.18
			c0.15-0.35,0.39-0.52,0.7-0.52c-0.37,0-0.65-0.11-0.84-0.32c-0.19-0.21-0.28-0.46-0.28-0.73c0-0.27,0.09-0.52,0.28-0.73
			c0.19-0.21,0.46-0.32,0.84-0.32c-0.27-0.05-0.45-0.18-0.56-0.37c-0.11-0.19-0.14-0.41-0.11-0.64c0.04-0.23,0.13-0.42,0.29-0.57
			c0.16-0.15,0.37-0.21,0.64-0.17c0-0.3,0.13-0.54,0.4-0.72c0.27-0.18,0.6-0.3,1.01-0.36c0.41-0.06,0.81-0.06,1.21,0
			c0.4,0.06,0.73,0.18,1,0.36c0.27,0.18,0.4,0.42,0.4,0.72c0.21-0.23,0.46-0.31,0.73-0.23c0.27,0.08,0.5,0.23,0.68,0.44
			c0.18-0.28,0.45-0.45,0.82-0.49c0.37-0.04,0.67,0.14,0.9,0.54c-0.05-0.3,0.04-0.55,0.28-0.76c0.24-0.2,0.54-0.34,0.89-0.41
			c0.35-0.07,0.68-0.06,0.98,0.04c0.3,0.1,0.48,0.3,0.53,0.6c0.12-0.21,0.33-0.32,0.62-0.33c0.29-0.01,0.61,0.06,0.96,0.2
			c0.35,0.14,0.67,0.32,0.97,0.53c0.3,0.21,0.53,0.44,0.68,0.69c0.15,0.25,0.16,0.48,0.04,0.69c0.39-0.18,0.7-0.19,0.93-0.05
			c0.23,0.14,0.33,0.35,0.31,0.62c-0.03,0.27-0.23,0.5-0.62,0.68c0.32-0.04,0.58,0.07,0.77,0.32c0.19,0.25,0.31,0.54,0.36,0.89
			c0.04,0.35,0,0.66-0.12,0.96c-0.12,0.29-0.35,0.46-0.66,0.49c0.34,0,0.59,0.18,0.76,0.54c0.17,0.36,0.25,0.78,0.25,1.26
			c0,0.48-0.08,0.9-0.25,1.26c-0.17,0.36-0.42,0.54-0.76,0.54c0.37,0,0.62,0.12,0.73,0.37c0.12,0.25,0.12,0.5,0,0.74
			c-0.12,0.25-0.36,0.37-0.73,0.37c0.32,0.04,0.54,0.16,0.68,0.39c0.13,0.22,0.18,0.46,0.15,0.72c-0.04,0.26-0.15,0.47-0.33,0.65
			c-0.19,0.18-0.44,0.25-0.76,0.21c0,0.28-0.14,0.5-0.41,0.65c-0.27,0.15-0.59,0.23-0.96,0.23c-0.36,0-0.68-0.08-0.96-0.23
			c-0.27-0.15-0.41-0.37-0.41-0.65c0,0.32-0.12,0.56-0.35,0.73c-0.23,0.17-0.5,0.26-0.81,0.27c-0.31,0.01-0.58-0.06-0.81-0.21
			c-0.23-0.15-0.35-0.39-0.37-0.73c-0.21,0-0.37-0.18-0.46-0.53c-0.1-0.35-0.13-0.76-0.11-1.22c0.03-0.46,0.1-0.86,0.23-1.21
			c0.12-0.35,0.29-0.52,0.5-0.52c-0.28,0-0.5-0.11-0.66-0.33c-0.16-0.22-0.25-0.48-0.27-0.78c-0.02-0.3,0.03-0.58,0.15-0.85
			c0.12-0.27,0.3-0.43,0.54-0.5c-0.23-0.02-0.45-0.15-0.66-0.39c-0.21-0.24-0.4-0.53-0.57-0.88c-0.17-0.35-0.27-0.69-0.31-1.02
			c-0.21,0.18-0.46,0.3-0.76,0.37c-0.29,0.07-0.55,0.07-0.78,0c0.09,0.21,0.11,0.45,0.08,0.72c-0.04,0.27-0.12,0.5-0.24,0.69
			c-0.12,0.2-0.29,0.28-0.5,0.27c0.32,0,0.53,0.08,0.62,0.25c0.1,0.17,0.1,0.34,0,0.52c-0.1,0.18-0.31,0.27-0.62,0.27
			c0.27,0,0.47,0.17,0.61,0.51c0.14,0.34,0.21,0.73,0.21,1.17c0,0.44-0.07,0.84-0.21,1.18c-0.14,0.35-0.35,0.52-0.61,0.52
			c0.27,0.16,0.41,0.37,0.42,0.62c0.02,0.26-0.04,0.5-0.19,0.73c-0.14,0.23-0.34,0.39-0.58,0.49c-0.25,0.1-0.5,0.06-0.77-0.12
			c0,0.27-0.13,0.47-0.4,0.62c-0.27,0.15-0.6,0.26-1,0.32c-0.4,0.06-0.8,0.07-1.21,0.03c-0.41-0.04-0.75-0.13-1.04-0.27
			C37.15,49.18,37,48.99,36.98,48.76z"/>
		<path class="st0" d="M54.83,47.68c-0.32,0.25-0.58,0.35-0.8,0.29c-0.21-0.05-0.32-0.19-0.33-0.41c-0.01-0.22,0.15-0.46,0.46-0.7
			c-0.37,0.12-0.68,0.12-0.93-0.01c-0.25-0.13-0.42-0.33-0.52-0.6c-0.1-0.27-0.09-0.53,0.01-0.8s0.34-0.46,0.69-0.58
			c-0.39,0.02-0.69-0.1-0.9-0.35c-0.21-0.25-0.33-0.55-0.36-0.9c-0.03-0.35,0.05-0.67,0.23-0.96c0.18-0.28,0.46-0.44,0.85-0.48
			c-0.37-0.04-0.63-0.21-0.78-0.53c-0.15-0.32-0.2-0.67-0.16-1.06c0.04-0.39,0.18-0.72,0.4-1c0.22-0.27,0.52-0.39,0.89-0.33
			c-0.32-0.18-0.51-0.41-0.57-0.69c-0.06-0.28-0.03-0.55,0.11-0.8c0.13-0.25,0.33-0.42,0.58-0.52c0.26-0.1,0.55-0.06,0.89,0.12
			c-0.18-0.28-0.2-0.56-0.07-0.84c0.13-0.27,0.34-0.5,0.62-0.68c0.28-0.18,0.58-0.26,0.88-0.25c0.3,0.01,0.54,0.16,0.72,0.44
			c0.02-0.23,0.16-0.4,0.42-0.5c0.27-0.11,0.59-0.16,0.97-0.17c0.38-0.01,0.76,0.03,1.13,0.11c0.37,0.08,0.68,0.2,0.93,0.35
			c0.25,0.15,0.36,0.34,0.35,0.57c0.04-0.3,0.12-0.54,0.25-0.7c0.13-0.17,0.29-0.27,0.46-0.31c0.02-0.3,0.12-0.57,0.32-0.8
			c0.19-0.23,0.44-0.32,0.74-0.27c-0.34-0.04-0.59-0.2-0.76-0.49c-0.17-0.29-0.25-0.62-0.24-1c0.01-0.37,0.11-0.69,0.29-0.97
			c0.19-0.27,0.46-0.41,0.81-0.41c-0.23-0.44-0.33-0.77-0.31-0.97c0.03-0.2,0.14-0.27,0.33-0.19c0.19,0.08,0.42,0.34,0.66,0.78
			c0-0.3,0.14-0.52,0.41-0.66c0.27-0.14,0.59-0.21,0.94-0.21c0.35,0,0.67,0.07,0.94,0.21c0.27,0.14,0.41,0.36,0.41,0.66
			c0.18-0.16,0.39-0.19,0.65-0.08c0.26,0.11,0.49,0.28,0.7,0.53c0.21,0.25,0.35,0.5,0.43,0.77c0.07,0.27,0.02,0.48-0.16,0.64
			c0.3,0,0.52,0.17,0.66,0.52c0.14,0.35,0.21,0.74,0.21,1.18c0,0.44-0.07,0.84-0.21,1.18c-0.14,0.35-0.36,0.52-0.66,0.52
			c0.27,0,0.47,0.14,0.62,0.41c0.15,0.27,0.25,0.61,0.31,1.01c0.05,0.4,0.05,0.8,0,1.2c-0.05,0.4-0.16,0.74-0.31,1.01
			c-0.15,0.27-0.36,0.41-0.62,0.41c0.41,0,0.68,0.09,0.81,0.27c0.13,0.18,0.13,0.35,0,0.53c-0.13,0.18-0.4,0.27-0.81,0.27
			c0.51,0,0.85,0.13,1.02,0.4c0.17,0.27,0.17,0.53,0,0.8c-0.17,0.27-0.51,0.4-1.02,0.4c0.21,0,0.39,0.12,0.52,0.37
			c0.13,0.25,0.22,0.56,0.27,0.93c0.04,0.37,0.04,0.74,0,1.12c-0.04,0.37-0.13,0.68-0.27,0.93c-0.13,0.25-0.31,0.37-0.52,0.37
			c0.39,0.05,0.67,0.19,0.84,0.4c0.17,0.21,0.23,0.44,0.2,0.69c-0.04,0.25-0.16,0.45-0.39,0.61c-0.22,0.16-0.53,0.21-0.92,0.16
			c0,0.28-0.1,0.49-0.31,0.62c-0.2,0.13-0.43,0.2-0.69,0.2c-0.26,0-0.49-0.07-0.69-0.2c-0.2-0.13-0.31-0.34-0.31-0.62
			c-0.04,0.32-0.18,0.54-0.44,0.66c-0.26,0.12-0.54,0.17-0.85,0.13c-0.31-0.04-0.58-0.14-0.8-0.32c-0.22-0.18-0.31-0.42-0.28-0.72
			c0,0.35-0.1,0.62-0.31,0.8c-0.2,0.18-0.44,0.27-0.7,0.29c-0.27,0.02-0.51-0.04-0.73-0.19c-0.22-0.14-0.37-0.36-0.44-0.66
			c-0.02,0.39-0.27,0.66-0.76,0.8c-0.49,0.14-1.16,0.09-2.03-0.16C56.99,48.99,55.98,48.47,54.83,47.68z M62.46,42.31
			c-0.25,0-0.4-0.11-0.45-0.32c-0.05-0.21,0.01-0.37,0.19-0.48c-0.18,0-0.37-0.09-0.58-0.28c-0.21-0.19-0.39-0.4-0.54-0.65
			c-0.15-0.25-0.24-0.49-0.28-0.72c-0.16,0.16-0.38,0.27-0.66,0.32c-0.28,0.05-0.52,0.03-0.72-0.08c0.05,0.23,0.04,0.5-0.04,0.82
			c-0.08,0.32-0.2,0.59-0.36,0.82c-0.16,0.23-0.32,0.32-0.48,0.27c0.14,0.04,0.25,0.17,0.32,0.4c0.07,0.23,0.1,0.47,0.08,0.72
			c-0.02,0.25-0.09,0.43-0.21,0.56c0.23-0.02,0.53,0.08,0.89,0.31c0.36,0.22,0.71,0.46,1.05,0.7c0.34,0.25,0.58,0.42,0.72,0.5
			c-0.18-0.14-0.23-0.36-0.17-0.66c0.06-0.3,0.19-0.59,0.39-0.86c0.19-0.27,0.4-0.42,0.61-0.44c-0.28-0.09-0.4-0.27-0.35-0.54
			C61.9,42.42,62.1,42.29,62.46,42.31z"/>
	</g>
	<g>
		<path d="M12.31,61.93c-0.19-0.16-0.3-0.57-0.13-0.76c0.24-0.29,0.47-0.25,0.79-0.06c0.32,0.18,0.67,0.3,1.17,0.3
			c0.4,0,0.68-0.18,0.68-0.5c0-0.23-0.14-0.38-0.58-0.55c-0.38-0.14-0.92-0.39-1.42-0.72c-0.37-0.24-0.52-0.45-0.52-0.99
			c0-0.63,0.66-1.36,1.79-1.36c0.89,0,1.34,0.27,1.65,0.73c0.19,0.28,0.1,0.53-0.1,0.68c-0.17,0.13-0.46,0.12-0.66-0.1
			c-0.25-0.28-0.41-0.43-0.84-0.43c-0.46,0-0.73,0.18-0.73,0.46c0,0.12,0.1,0.28,0.49,0.48c0.3,0.15,0.89,0.4,1.23,0.57
			c0.55,0.27,0.83,0.65,0.83,1.16c0,0.8-0.47,1.61-1.89,1.61C13.28,62.45,12.67,62.22,12.31,61.93z"/>
		<path d="M25.13,61.78c0-0.66,0.02-3.04,0.04-3.93c0.01-0.38,0.18-0.55,0.5-0.55c0.29,0,0.49,0.16,0.49,0.55
			c0.01,0.22,0.01,0.7,0,1.26l2.16-0.01c0-0.5,0-0.95,0.01-1.25c0.01-0.38,0.21-0.55,0.52-0.55c0.28,0,0.47,0.16,0.48,0.55
			c0.01,0.64,0.01,3.43,0.01,3.92c-0.01,0.34-0.21,0.56-0.5,0.56c-0.31,0-0.52-0.2-0.52-0.55c0-0.3-0.01-0.95-0.01-1.65l-2.16,0.01
			c-0.01,0.74-0.02,1.41-0.02,1.63c-0.01,0.34-0.21,0.56-0.51,0.56C25.32,62.33,25.13,62.13,25.13,61.78z"/>
		<path d="M38.69,59.91c0-1.2,0.65-2.6,2.39-2.6c1.2,0,2.2,0.8,2.2,2.6c0,1.35-0.86,2.5-2.25,2.5
			C39.95,62.42,38.69,61.51,38.69,59.91z M41.04,61.37c0.69,0,1.14-0.65,1.14-1.53c0-0.88-0.38-1.59-1.18-1.59
			c-0.8,0-1.17,0.76-1.17,1.65C39.84,60.92,40.45,61.37,41.04,61.37z"/>
		<path d="M52.64,61.93c-0.04-0.44-0.02-3.93-0.02-4.25c0-0.23,0.12-0.31,0.36-0.33c0.89-0.05,1.34-0.04,2.04,0.11
			c0.75,0.16,1.2,0.77,1.2,1.5c0,0.77-0.3,1.31-0.91,1.6c-0.47,0.22-1.02,0.28-1.54,0.2c-0.13-0.02-0.14,0.04-0.14,0.18
			s-0.03,0.67-0.03,0.92c0,0.28-0.13,0.52-0.5,0.52C52.83,62.39,52.67,62.3,52.64,61.93z M53.6,59.64c0,0.13,0.04,0.16,0.17,0.17
			c0.38,0.03,0.76,0.01,1.06-0.1c0.32-0.12,0.44-0.39,0.44-0.74c0-0.26-0.15-0.52-0.48-0.63c-0.35-0.11-0.76-0.11-1.06-0.07
			c-0.1,0.01-0.14,0.04-0.14,0.13L53.6,59.64z"/>
	</g>
</g>
</svg>
